<svg xmlns="http://www.w3.org/2000/svg" xmlns:xlink="http://www.w3.org/1999/xlink" width="44" height="45" viewBox="0 0 44 45"><defs><style>.a,.b{fill:#45a142;}.a{opacity:0.19;}.b{font-size:13px;font-family:SegoeUI-Semibold, Segoe UI;font-weight:600;}.c{fill:url(#a);}</style><linearGradient id="a" x1="0.5" x2="0.5" y2="1" gradientUnits="objectBoundingBox"><stop offset="0" stop-color="#63c460"/><stop offset="0.996" stop-color="#26264f"/><stop offset="1" stop-color="#26264f"/></linearGradient></defs><g transform="translate(0.467)"><g transform="translate(0 0)"><ellipse class="a" cx="22" cy="22.5" rx="22" ry="22.5" transform="translate(-0.467 0)"/></g><g transform="translate(3.533 11.78)"><g transform="translate(0 0)"><text class="b" transform="translate(25.756 16.22)"><tspan x="-10.309" y="0">Pay</tspan></text><path class="c" d="M12.543,4.5A3.433,3.433,0,0,0,13.374,2a3.48,3.48,0,0,0-2.351,1.191,3.268,3.268,0,0,0-.784,2.422A2.892,2.892,0,0,0,12.543,4.5Zm1.975,5.831a3.535,3.535,0,0,1,1.693-2.986,3.652,3.652,0,0,0-2.869-1.568c-1.223-.125-2.351.713-3,.713s-1.568-.7-2.586-.682A3.856,3.856,0,0,0,4.51,7.792c-1.379,2.4-.353,5.965,1.027,7.9.627.948,1.411,2.022,2.445,1.983s1.372-.643,2.571-.643,1.568.643,2.586.619,1.74-.972,2.4-1.92A8.622,8.622,0,0,0,16.619,13.5,3.456,3.456,0,0,1,14.519,10.332Z" transform="translate(-3.856 1.22)"/></g></g></g></svg>