<svg xmlns="http://www.w3.org/2000/svg" width="45" height="45" viewBox="0 0 45 45"><defs><style>.a{fill:#005192;opacity:0.19;}.b{fill:#191b73;}</style></defs><g transform="translate(0.015 0)"><circle class="a" cx="22.5" cy="22.5" r="22.5" transform="translate(-0.015 0)"/><g transform="translate(3.354 15.491)"><path class="b" d="M174.381,184.9h3.213l2.009-13.168h-3.212Z" transform="translate(-161.409 -171.732)"/><path class="b" d="M22.94,171.733l-5.052,13.154h-3.4l-2.48-9.738a3.514,3.514,0,0,0-1.809-2.287c-.066-.034-.133-.066-.2-.1q.142-.522.311-1.031H12.9a2.123,2.123,0,0,1,2.09,1.7l1.085,5.584c0-.011-.009-.024-.013-.035l.33,1.7,3.148-8.947v0Z" transform="translate(-10 -171.731)"/><path class="b" d="M373.754,172.251h-2.486a1.586,1.586,0,0,0-1.68,1.059l-4.772,12.069h3.372l.929-2.613h3.773l.482,2.623h1.341a20.687,20.687,0,0,0,.874-3.848Zm-3.7,7.878c.067,0,1.295-4.265,1.295-4.265l.978,4.265Z" transform="translate(-336.476 -172.212)"/><path class="b" d="M251.093,177.3c-1.123-.584-1.811-.978-1.811-1.574.014-.543.582-1.1,1.851-1.1a5.353,5.353,0,0,1,2.393.488l.292.137.437-2.755a7.752,7.752,0,0,0-2.884-.543c-3.173,0-5.407,1.736-5.421,4.22-.026,1.833,1.6,2.85,2.816,3.46,1.243.626,1.666,1.032,1.666,1.588-.014.854-1.005,1.248-1.93,1.248a6.261,6.261,0,0,1-3.015-.679l-.423-.2-.449,2.863a9.6,9.6,0,0,0,3.583.68c3.372,0,5.566-1.71,5.594-4.357C253.8,179.319,252.945,178.207,251.093,177.3Z" transform="translate(-225.928 -171.936)"/></g></g></svg>