<svg xmlns="http://www.w3.org/2000/svg" width="35.574" height="34.833" viewBox="0 0 35.574 34.833"><defs><style>.a{fill:#fff;}</style></defs><g transform="translate(0.25 -3.83)"><g transform="translate(0 4.08)"><path class="a" d="M33.439,4.08H1.635A1.635,1.635,0,0,0,0,5.715v4.833a1.635,1.635,0,0,0,1.635,1.635H6.5v6.541c-.858.981-4.462,5.24-4.9,8.06a.728.728,0,0,0,0,.109V37.686a.727.727,0,0,0,.727.727h8.809a.727.727,0,0,0,.6-.313l3.721-5.356a.727.727,0,0,0,.1-.225c0-.116.385-1.41.814-3.183H27.85a.727.727,0,0,0,.727-.727V12.184h4.862a1.635,1.635,0,0,0,1.635-1.635V5.715A1.635,1.635,0,0,0,33.439,4.08ZM16.4,21.61a91.122,91.122,0,0,1-2.217,10.4l-3.438,4.942h-7.7V26.981c.283-1.657,2.057-4.2,3.452-5.952v7.58a.727.727,0,0,0,.727.727H9.848a.727.727,0,0,0,.262-.051l.08-.044a.729.729,0,0,0,.145-.094l.065-.073a.729.729,0,0,0,.087-.131l.044-.094V28.8c.727-2.689,2.311-7.333,3.51-8.365.814-.727,1.286-.807,1.49-.807a.48.48,0,0,1,.392.189A2.849,2.849,0,0,1,16.4,21.61Zm10.72,6.272H16.716c.451-1.97.908-4.237,1.134-6.1a4.281,4.281,0,0,0-.821-2.907,1.933,1.933,0,0,0-1.454-.676,3.9,3.9,0,0,0-2.442,1.156c-1.686,1.454-3.3,6.752-3.816,8.554H7.951V8.891H27.123Zm6.5-17.341a.182.182,0,0,1-.182.182H28.577V8.891h1.315a.727.727,0,1,0,0-1.454H5.182a.727.727,0,1,0,0,1.454H6.5v1.868H1.635a.182.182,0,0,1-.182-.182V5.715a.182.182,0,0,1,.182-.182h31.8a.182.182,0,0,1,.182.182Z" transform="translate(0 -4.08)"/><path class="a" d="M1.635,3.83h31.8a1.887,1.887,0,0,1,1.885,1.885v4.833a1.887,1.887,0,0,1-1.885,1.885H28.827V28.609a.978.978,0,0,1-.977.977H16.564c-.22.9-.427,1.669-.567,2.191-.1.363-.182.678-.194.753v.021l-.008.031a.974.974,0,0,1-.137.3l-3.723,5.359a.977.977,0,0,1-.8.42H2.326a.978.978,0,0,1-.977-.977V26.9a.976.976,0,0,1,0-.136l0-.019c.43-2.782,3.776-6.827,4.9-8.115v-6.2H1.635A1.887,1.887,0,0,1-.25,10.548V5.715A1.887,1.887,0,0,1,1.635,3.83Zm31.8,8.1a1.387,1.387,0,0,0,1.385-1.385V5.715A1.387,1.387,0,0,0,33.439,4.33H1.635A1.387,1.387,0,0,0,.25,5.715v4.833a1.387,1.387,0,0,0,1.385,1.385H6.747v6.885l-.062.071c-.732.837-4.4,5.151-4.838,7.923a.479.479,0,0,0,0,.063V37.686a.477.477,0,0,0,.477.477h8.809a.477.477,0,0,0,.391-.205L15.246,32.6a.47.47,0,0,0,.06-.128c.011-.09.058-.269.208-.826s.375-1.4.61-2.371l.046-.191H27.85a.477.477,0,0,0,.477-.477V11.934Zm-31.8-6.65h31.8a.432.432,0,0,1,.432.432v4.826a.432.432,0,0,1-.432.432H28.327V8.641h1.565a.477.477,0,0,0,0-.954H5.182a.477.477,0,0,0,0,.954H6.755v2.368H1.635a.432.432,0,0,1-.432-.432V5.715A.432.432,0,0,1,1.635,5.284Zm31.736.5H1.7v4.726H6.255V9.141H5.182a.977.977,0,0,1,0-1.954H29.892a.977.977,0,0,1,0,1.954H28.827v1.331h4.544ZM7.7,8.641H27.373V28.132H16.4l.07-.306c.382-1.668.887-4.074,1.129-6.068a4.029,4.029,0,0,0-.768-2.725,1.683,1.683,0,0,0-1.248-.582,3.648,3.648,0,0,0-2.273,1.08l-.015.014C11.71,20.914,10.153,25.9,9.558,27.98l-.052.181H7.7Zm19.172.5H8.2v18.52h.928c.642-2.215,2.193-7.062,3.832-8.487a4.148,4.148,0,0,1,2.591-1.222h.024a2.183,2.183,0,0,1,1.642.763l.011.014a4.528,4.528,0,0,1,.869,3.077v.009c-.23,1.9-.694,4.157-1.069,5.818h9.844ZM15.542,19.376a.734.734,0,0,1,.581.288l.008.012a3.113,3.113,0,0,1,.522,1.953l0,.02a91.722,91.722,0,0,1-2.223,10.429l-.011.041L10.88,37.2H2.8V26.96l0-.021c.316-1.849,2.331-4.594,3.5-6.066l.446-.559v8.3a.477.477,0,0,0,.477.477H9.848A.472.472,0,0,0,10,29.057l.074-.04a.481.481,0,0,0,.083-.052l.049-.054a.48.48,0,0,0,.052-.078l.018-.039v-.029l.009-.032c.529-1.958,2.205-7.3,3.589-8.49a2.765,2.765,0,0,1,1.653-.867Zm.179.586a.231.231,0,0,0-.179-.086h-.011c-.183,0-.6.1-1.323.743-1.143.983-2.7,5.544-3.427,8.212V28.9l-.072.155a.981.981,0,0,1-.117.176l-.006.007-.077.086-.014.011a.981.981,0,0,1-.19.124l-.1.054a.973.973,0,0,1-.352.068H7.224a.978.978,0,0,1-.977-.977V21.755C5.212,23.109,3.572,25.448,3.3,27v9.7h7.323l3.339-4.8a91.218,91.218,0,0,0,2.2-10.32A2.611,2.611,0,0,0,15.721,19.961Z" transform="translate(0 -4.08)"/></g></g></svg>