<svg xmlns="http://www.w3.org/2000/svg" width="627.655" height="506.693" viewBox="0 0 627.655 506.693"><defs><style>.a{fill:#3c3c3b;}.b{fill:#575756;}.c{fill:#878787;}.d{fill:#634e42;}.e{fill:#405160;}.f{fill:#ffcf9f;}.g{fill:#f5c08c;}.h{fill:#263238;}.i{fill:#374551;}.j{fill:#deab7d;}.k{fill:#ffc994;}.l{fill:#f2bb88;}.m{fill:#dba97b;}.n{opacity:0.2;}.o{fill:#dadada;mix-blend-mode:screen;isolation:isolate;}.p{opacity:0.3;}.q{fill:#fff;}.r{fill:#936037;}.s{fill:#23272b;}.t{fill:#f2bc88;}.u{fill:#ededed;}.v{fill:#f3f3f3;}.w{fill:#86c684;}.x{fill:#a6e1a5;}.y{fill:#63c460;}.z{fill:#00806e;}.aa{fill:#019ba1;}.ab{fill:#3b4855;}.ac{fill:#8e5058;}.ad{fill:#64364a;}.ae{fill:#f5c65d;}.af{fill:#fcfcfc;}.ag{fill:#45a142;}.ah{fill:#d1c8d9;font-size:15px;font-family:BebasKai, Bebas Kai;}</style></defs><g transform="translate(-140.171 -294)"><g transform="translate(333.903 62.874)"><g transform="translate(131.764 484.791)"><path class="a" d="M119.99,398.13a109.062,109.062,0,0,1-16.06-.7,28.943,28.943,0,0,1-24.86-22.849,169.7,169.7,0,0,1-3.181-36.6c15.113,4.316,29.872,7.1,44.1,7.573,14.23-.472,28.988-3.257,44.1-7.573a169.7,169.7,0,0,1-3.181,36.6,28.942,28.942,0,0,1-24.858,22.849A109.109,109.109,0,0,1,119.99,398.13Z" transform="translate(-75.872 -337.979)"/><g transform="translate(0.002)"><path class="b" d="M119.988,345.552c-14.23-.472-28.988-3.257-44.1-7.573q-.05,4.248.071,8.444c15.087,4.3,29.824,7.082,44.03,7.554,14.208-.472,28.943-3.25,44.032-7.554q.114-4.2.069-8.444C148.977,342.295,134.218,345.079,119.988,345.552Z" transform="translate(-75.873 -337.979)"/><rect class="c" width="11.813" height="8.752" transform="translate(38.209 7.246)"/><path class="a" d="M81.7,348.374H79.211v-9.5l2.492.612Z" transform="translate(-71.287 -336.751)"/><path class="a" d="M108.651,348.374h2.492v-9.5l-2.492.612Z" transform="translate(-30.837 -336.751)"/><path class="a" d="M87.766,349.7H85.273v-9.5l2.492.355Z" transform="translate(-62.958 -334.923)"/><path class="a" d="M102.589,349.7h2.492v-9.5l-2.492.355Z" transform="translate(-39.167 -334.923)"/></g></g><g transform="translate(191.221 507.553)"><g transform="translate(2.857 177.864)"><path class="a" d="M113.248,432.933c-3.96-.014-8.171-.007-11.127-1.79l.145-2.585,11.894-.8Z" transform="translate(-102.121 -415.249)"/><g transform="translate(0.145)"><path class="a" d="M102.182,430.426c20.665,6.761,36.22,8.321,45.091,5.6l.463-3.271L102.752,426.4Z" transform="translate(-102.182 -417.118)"/><path class="d" d="M102.35,433.009c6.391,4.451,41.212,8.824,45.153,5.118.311-2.241-3.2-4.886-9.631-7.908-.639-.3-1.3-.594-2-.9-.482-.214-.988-.427-1.507-.653-.674-.285-1.363-.572-2.075-.859h-.014c-.482-.2-.988-.4-1.5-.6l-.012,0c-.7-.275-1.427-.551-2.177-.84q-2.685-1.022-5.674-2.075C105.588,418.16,102.851,429.394,102.35,433.009Z" transform="translate(-101.951 -422.49)"/><path class="a" d="M111.641,427.86a.925.925,0,0,0,1.268.306l5.284-3.207c-.7-.275-1.427-.551-2.177-.84l-4.067,2.462A.929.929,0,0,0,111.641,427.86Z" transform="translate(-89.375 -420.252)"/><path class="a" d="M113.237,428.645a.908.908,0,0,0,.693.385.935.935,0,0,0,.591-.164c.938-.677,1.989-1.32,3.013-1.942.691-.43,1.42-.883,2.113-1.337-.674-.285-1.363-.572-2.075-.859h-.014c-.332.2-.665.418-1,.622-1.049.632-2.125,1.3-3.115,2.011A.917.917,0,0,0,113.237,428.645Z" transform="translate(-87.233 -419.415)"/><path class="a" d="M114.78,429.277a.914.914,0,0,0,.719.408.93.93,0,0,0,.565-.152L121,426.27c-.639-.3-1.3-.594-2-.9L115.039,428A.928.928,0,0,0,114.78,429.277Z" transform="translate(-85.084 -418.54)"/></g></g><path class="a" d="M100.919,530.611c-.036-1.206.966-8.542,1-9.759,1.676-55.078,3.711-110,7.958-164.95.864-10.74,16.943-11.269,18.462-.608.859,6.023.038,12.646.007,18.695-.121,24.435.1,48.866,1.071,73.284q1.556,39.2,3.167,78.4c.007.188,0,.373,0,.56C126.588,529.168,116.755,533.016,100.919,530.611Z" transform="translate(-100.918 -347.567)"/></g><g transform="translate(112.003 506.167)"><g transform="translate(0 180.53)"><path class="a" d="M82.4,433.52c3.953.211,8.159.458,11.21-1.156v-2.588L81.781,428.3Z" transform="translate(-47.993 -415.782)"/><path class="a" d="M113.161,431.268c-21.014,5.579-36.63,6.255-45.336,3.036l-.275-3.29,45.274-3.8Z" transform="translate(-67.546 -417.274)"/><path class="d" d="M112.926,434.215c-6.635,4.083-41.646,6.476-45.371,2.552-.185-2.258,3.466-4.7,10.063-7.35.653-.259,1.332-.517,2.046-.788.494-.185,1.011-.373,1.543-.57.691-.245,1.394-.491,2.12-.738h.012c.494-.171,1.014-.347,1.531-.517h.012c.715-.233,1.455-.468,2.22-.717,1.826-.579,3.748-1.158,5.783-1.75C110.533,419.207,112.629,430.578,112.926,434.215Z" transform="translate(-67.548 -423.029)"/><path class="a" d="M81.226,428.3a.929.929,0,0,1-1.284.235l-5.092-3.5c.715-.233,1.455-.468,2.22-.717l3.922,2.69A.931.931,0,0,1,81.226,428.3Z" transform="translate(-57.516 -421.26)"/><path class="a" d="M79.529,428.994a.929.929,0,0,1-1.294.147c-.9-.726-1.911-1.429-2.9-2.108-.667-.468-1.37-.964-2.034-1.458.691-.245,1.394-.491,2.12-.738h.012c.32.223.643.456.961.679,1.014.691,2.049,1.417,3,2.182A.923.923,0,0,1,79.529,428.994Z" transform="translate(-59.643 -420.545)"/><path class="a" d="M77.832,429.531a.907.907,0,0,1-.738.37.934.934,0,0,1-.556-.185l-4.748-3.54c.653-.259,1.332-.517,2.046-.788l3.813,2.849A.924.924,0,0,1,77.832,429.531Z" transform="translate(-61.72 -419.788)"/></g><path class="a" d="M106.834,530.784c.107-1.2-.48-8.58-.449-9.8,1.446-55.083,2.528-110.036,1.4-165.135-.252-10.771-16.273-12.209-18.4-1.652-1.2,5.963-.755,12.625-1.066,18.666-1.263,24.4-2.868,48.783-5.22,73.106q-3.775,39.049-7.6,78.089c-.019.188-.026.373-.038.56C82.466,529.645,92.69,532.937,106.834,530.784Z" transform="translate(-56.678 -346.983)"/></g><path class="e" d="M111.761,397.316c-1.6-.123-3.183-.263-4.774-.456-12.048-1.427-11.48,7.677-22.868,3.521-.5-.2-1.018-.375-1.512-.57-.608-.221-1.237-.444-1.845-.665a40.341,40.341,0,0,0-.052-4.226c-.681-9.854-14.286-29.133-14.764-39.064-1.059-22.4,10.975-39.375,14.275-61.564,1.173-7.884,8.29-12.881,10.061-27.818,2.97-24.632,11.359-28.924,26.353-33.266a58.242,58.242,0,0,1,29.183-.442l.173.036a58.246,58.246,0,0,1,26.6,12.019c12.027,9.949,18.016,17.223,10.939,41.006-4.318,14.405.223,21.824-1.842,29.523-5.8,21.67,11.234,41.986,1.351,62.11-4.389,8.917-11.913,16.091-16.456,24.86a40.539,40.539,0,0,0-1.733,3.858c-.643-.04-1.308-.086-1.951-.126-.534-.017-1.085-.062-1.617-.081-12.1-.715-33.342-3.689-44.963-7.174C114.783,398.339,113.278,397.839,111.761,397.316Z" transform="translate(42.163 0.004)"/><g transform="translate(35.193 460.202)"><path class="f" d="M57.119,345.232l-.047-.038a2.954,2.954,0,0,0-4.157.42L37.731,364.229a2.952,2.952,0,0,0,.42,4.157l.047.038A2.955,2.955,0,0,0,42.355,368l15.184-18.612A2.957,2.957,0,0,0,57.119,345.232Z" transform="translate(-32.622 -304.391)"/><path class="f" d="M57.245,343.458l-.04-.043a2.96,2.96,0,0,0-4.181,0l-16.967,17a2.955,2.955,0,0,0,0,4.181l.04.04a2.952,2.952,0,0,0,4.178,0l16.969-17A2.952,2.952,0,0,0,57.245,343.458Z" transform="translate(-35.193 -307.105)"/><path class="f" d="M57.766,346.714l-.047-.038a2.958,2.958,0,0,0-4.14.57L40.431,364.585a2.955,2.955,0,0,0,.567,4.14l.047.036a2.955,2.955,0,0,0,4.14-.567l13.149-17.342A2.953,2.953,0,0,0,57.766,346.714Z" transform="translate(-28.823 -302.264)"/><path class="f" d="M56.306,348l-.045-.031a2.627,2.627,0,0,0-3.62.821l-8.4,13.327a2.624,2.624,0,0,0,.819,3.62l.045.026a2.619,2.619,0,0,0,3.618-.817l8.409-13.33A2.623,2.623,0,0,0,56.306,348Z" transform="translate(-23.325 -300.212)"/><path class="g" d="M78.451,327.621,57.394,353.174c-2.937-1.033-5.2-1.56-7.58.195a8.308,8.308,0,0,0-1.474,1.4l-3.96,4.852,1.6,2.322-5.534,7.35c6.308,5.584,12.71,8.708,20.278,11.31l6.737-9.975a8.564,8.564,0,0,0,1.607-7.419L91.1,337.938Z" transform="translate(-27.969 -327.621)"/><path class="f" d="M48.012,342.34c-2.474,2.419-7.039,4.2-9.465,4.727-3.2.7-2.986,7.827,4.772,5.154,2.243-.772,6.1-1.916,7.658-3.749,2.618,3.613,7.984,4.6,12.107,2.756l-6.441-13.472C54.5,337.352,50.851,339.569,48.012,342.34Z" transform="translate(-33.251 -313.762)"/><path class="f" d="M54.236,352.859a12.02,12.02,0,0,0-8.815-.9L43.01,357.9l1.507,4.8c4.166,2.872,9.7,4.463,13.043-.135l.017-.028,24.036-29.463-6.678-5.451Z" transform="translate(-24.453 -327.621)"/></g><path class="h" d="M117.189,312.513,90.838,358l-7.193,12.44-.667,1.137a13.349,13.349,0,0,1-23.1-13.387l3.8-6.552,30.389-52.512a13.359,13.359,0,1,1,23.122,13.387Z" transform="translate(31.441 84.262)"/><path class="h" d="M68.73,377.953l29.826-38.824a13.354,13.354,0,0,0-21.18-16.271L45.681,364.115Z" transform="translate(14.41 118.867)"/><path class="e" d="M79.474,303.894a334.015,334.015,0,0,0-3.086,38.387l-7.193,12.44c0-.024-.026-.05-.026-.074a8.309,8.309,0,0,1-.33-1.329,21.534,21.534,0,0,1,.261-7.594c.021-.1.021-.169.047-.263C71.426,331.311,73.752,317.022,79.474,303.894Z" transform="translate(45.892 99.981)"/><path class="i" d="M162.786,292.167c-.617-8.976,2.4-18.621-1.674-26.645-1.951-3.846-5.325-6.773-8.836-9.275-8.563-6.111-18.6-10.35-29.088-11.238s-21.392,1.745-29.772,8.1S79.457,269.681,79.562,280.2c.045,4.634-1.2,2.016-.888,6.626-.226,5.94,1.3,16.675-.553,20.613-4.753,10.106-7.8,20.606-2.376,30.365-1.073-5.432-1.868-11.348.665-16.271,1.211-2.355,3.072-4.283,4.722-6.362a23.031,23.031,0,0,0,2.357,4.33c-1.6,2.937-3.259,5.987-3.186,9.306.05,2.324.957,4.527,1.55,6.775s.845,4.767-.311,6.782A13.53,13.53,0,0,0,84.863,335c.48-2.694.6-5.453,1.289-8.1.2-.781.461-1.545.734-2.307a15.842,15.842,0,0,1,1.928,4.48c1.486,6.369-2.459,13.292-.2,19.431,1.667,4.532,6.253,7.264,10.721,9.1a61.553,61.553,0,0,0,26.228,4.506c.764-7.338,1.821-15.236,6.232-20.955.078.235.116.482.207.715.966,2.474,2.55,4.658,3.7,7.051s1.871,5.2.966,7.7c2.806-3.041,2.628-7.779,1.593-11.784-.674-2.6-1.629-5.18-2.141-7.8,1.486-1.075,3.06-2.046,4.61-3.041.418,2.246.945,4.489,1.384,6.725,1.018,5.187,1.46,10.868-1.1,15.492,4.67-5.916,6.17-11.668,6.429-19.2.1-2.944-.411-5.348-.527-8.3,4.394-4.266,8.876-13.5,10.123-19.5.563-2.713,4.323-5.624,5.69-8.036C164.851,297.411,163.083,296.483,162.786,292.167Z" transform="translate(51.75 18.845)"/><rect class="j" width="28.088" height="42.954" transform="translate(152.315 346.727)"/><path class="h" d="M201.226,591.546c-5.484,4.2-7.787,1.4-12.487,2.35a15.321,15.321,0,0,0-5.65,2.564,7.731,7.731,0,0,1-.95.57v.024a16.313,16.313,0,0,1-11.514,1.757c-1.306-.332-2.588-.57-3.846-.76q-2.208-.285-4.273-.356a51.059,51.059,0,0,0-11.063.95c-3.419.594-6.766,1.4-10.137,2.042h-.024c-1.567.285-3.134.57-4.724.76-7.549.95-11.49-2.113-17.282-3.086a21.93,21.93,0,0,0-8.736.38,29.891,29.891,0,0,0-3.252.926,21.8,21.8,0,0,1-16.262-1.234,15.827,15.827,0,0,1-2.611-1.686,13.946,13.946,0,0,0-8.974-3.371c-4.558-.048-8.617,1.567-13.532-1.828A1786.964,1786.964,0,0,0,78.136,398.092V396.81c.095-13.318.047-26.921-.166-40.88q-.249-15.312-.76-31.194a32.3,32.3,0,0,1,7.715-20.25c.855-.95,1.733-1.875,2.659-2.73,3.822-3.537,22.078-11.751,22.078-11.751,3.537,1.5,26.375-1.021,29.864-2.445l26.232,6.623a32.146,32.146,0,0,1,13.437,7.241c.95.855-.593.736.237,1.686,4.89,5.579,5.6,9.021,7.692,19.728-.047,1.021-.047,2.089,0,3.157.166,9.045,2.232,19.277,2.16,27.942-.047,2.778-.047,5.579-.047,8.356q-.036,16.131.38,32.215.463,20.191,1.5,40.5c0,.237.024.427.024.617v.048C193.534,485.762,197.807,536.755,201.226,591.546Z" transform="translate(42.204 77.538)"/><path class="e" d="M112.888,285.408c-9.206,2.759-18.567,4.563-28.089,1.78l-.468,5.788c6.239,4.318,22.227,3.086,30.13-1.455Z" transform="translate(67.515 74.582)"/><rect class="e" width="7.122" height="42.4" transform="translate(159.964 366.103)"/><path class="e" d="M83.621,495a7.137,7.137,0,0,1-.427,1.427,15.986,15.986,0,0,1-2.611-1.686,13.933,13.933,0,0,0-8.974-3.371c2.279-43.256,10.232-86.3,8.594-129.571,2.279,25.565,4.558,51.275,2.516,76.869C81.912,449,80.393,459.3,80.725,469.629a101.8,101.8,0,0,0,2.255,17.755C83.5,489.9,84.12,492.488,83.621,495Z" transform="translate(50.034 179.547)"/><path class="e" d="M97.049,468.314a28.489,28.489,0,0,1-.237,4.7,21.98,21.98,0,0,0-8.736.382c-5.792-31.006-5.1-62.984-5.816-94.6a271.157,271.157,0,0,0,10.849,71.243C94.865,456.04,96.835,462.07,97.049,468.314Z" transform="translate(64.667 202.891)"/><path class="e" d="M109.6,500.366c-3.419.594-6.766,1.4-10.137,2.042a102.161,102.161,0,0,0,2.065-37.957c-1.377-10.3-4.368-20.419-5.009-30.816-.57-8.663.522-17.351,1.591-25.969q2.991-24.289,6.006-48.571.178,16.982.332,33.948c.119,10.683.214,21.411,1.377,32.049C108.579,450.3,117.078,476.437,109.6,500.366Z" transform="translate(84.045 175.823)"/><path class="e" d="M95.946,421.756c-.885-6.381-.5-12.865-.109-19.3q.872-14.443,1.745-28.891c-4.665,17.518-9.363,35.795-5.783,53.571,2.851,14.153,10.794,26.944,13.183,41.183C108.03,452.66,98.135,437.564,95.946,421.756Z" transform="translate(76.039 195.712)"/><path class="e" d="M113.892,427.267c-.878,8.235-2.825,16.689-2.635,24.829q-2.208-.285-4.273-.356c-1.211-5.27-.475-10.778-.071-18.562.688-13.2,3.846-26.187,4.463-39.384A93.594,93.594,0,0,1,113.892,427.267Z" transform="translate(97.724 223.5)"/><path class="e" d="M127.161,474.653a15.294,15.294,0,0,0-5.65,2.566,8.357,8.357,0,0,1-.95.57c-.475-7.193.427-14.7.38-21.935-.142-27.493-14.22-54.485-9.092-81.5,1.234,19.7,7.5,38.674,11.775,57.925C126.71,446.144,128.728,460.67,127.161,474.653Z" transform="translate(103.779 196.789)"/><path class="e" d="M130.9,416.763c-10.445-18.351-9.5-102.816-21.152-115.327,7.454-.76,13.033,1.448,17.14,5.7.166,9.045,2.232,19.277,2.16,27.942-.047,2.778-.047,5.579-.047,8.356q-.036,16.131.38,32.215.463,20.191,1.5,40.5C130.878,416.383,130.9,416.573,130.9,416.763Z" transform="translate(102.438 96.4)"/><path class="h" d="M107.805,297.574A13.355,13.355,0,0,1,126.4,294.26L163.572,314.8a13.354,13.354,0,0,1-15.279,21.907l-37.176-20.544A13.357,13.357,0,0,1,107.805,297.574Z" transform="translate(96.466 83.444)"/><g transform="translate(123.022 434.639)"><path class="e" d="M73.144,316.853C72,344.9,86.733,373.061,110.43,388.105A155.991,155.991,0,0,1,73.144,316.853Z" transform="translate(-70.965 -316.853)"/><path class="e" d="M91.7,382.592Q82,354.247,72.3,325.9A81.113,81.113,0,0,0,91.7,382.592Z" transform="translate(-72.19 -304.427)"/></g><path class="e" d="M138.746,329.369q-8.489-12.887-16.974-25.774c-2.735-4.154-9.042-10.2-12.739-13.527,2.471,6.2,12.387,24.041,13.579,26.012C126.263,322.109,132.635,325.863,138.746,329.369Z" transform="translate(101.453 80.984)"/><path class="k" d="M117.975,260.9c-.1-.045-.216-.076-.321-.114a8.378,8.378,0,0,0-7.547,1.13l-2.965,21.233a6.7,6.7,0,0,0,.743.392c4.594,2.049,10.574-1.363,13.358-7.613S122.567,262.95,117.975,260.9Z" transform="translate(98.856 40.116)"/><g transform="translate(123.408 285.334)"><path class="k" d="M87.695,257.188a8.362,8.362,0,0,0-6.934-3.2c-.114.01-.226.007-.337.021-4.983.681-8.271,6.73-7.345,13.513s5.714,11.725,10.7,11.046a6.883,6.883,0,0,0,.831-.171Z" transform="translate(-71.57 -253.96)"/><path class="l" d="M72.8,259.5a15.117,15.117,0,0,1-.18-2.042,16.21,16.21,0,0,0-.112,5.144c.926,6.782,5.714,11.727,10.7,11.048a6.871,6.871,0,0,0,.831-.171l.408-2.8C79.029,271.024,73.868,266.124,72.8,259.5Z" transform="translate(-72.353 -249.153)"/><path class="m" d="M80.744,269.794a6.636,6.636,0,0,1,.09-1.667c.169-.61.287-1.249.551-1.949.216-.688.513-1.443.755-2.255a11.013,11.013,0,0,0,.534-2.7,6.581,6.581,0,0,0-.461-2.884,4.512,4.512,0,0,0-1.875-2.177,4.3,4.3,0,0,0-4.605.18,3.835,3.835,0,0,0-1.538,2.6c-.071.717.121,1.085.223,1.075.147,0,.211-.361.465-.89a3.766,3.766,0,0,1,1.555-1.7,3.044,3.044,0,0,1,3.024.176,3.837,3.837,0,0,1,1.384,3.528,17.612,17.612,0,0,1-.869,3.817c-.045-.028-.076-.062-.126-.09a2.628,2.628,0,0,0-3.706,2.967c.2.715.643.961.845.845.237-.119.294-.489.449-.89a2.232,2.232,0,0,1,2.082-1.669c.055-.007.1-.012.154-.017-.154.62-.254,1.251-.347,1.833a6.971,6.971,0,0,0,.135,2.063,4.366,4.366,0,0,0,1.469,2.576,1.847,1.847,0,0,0,.71.389c.178.057.283.055.313,0C82.125,272.709,80.858,271.914,80.744,269.794Z" transform="translate(-69.844 -251.736)"/></g><path class="l" d="M122.582,264.782a13.242,13.242,0,0,1-.8,1.949c-2.792,5.406-8.812,8.466-14.253,7.575l-.38,2.718a6.932,6.932,0,0,0,.743.394c4.594,2.046,10.576-1.363,13.361-7.616A16.13,16.13,0,0,0,122.582,264.782Z" transform="translate(98.858 46.242)"/><path class="k" d="M158.024,273.894a23.988,23.988,0,0,1-.81,2.744L151.7,296.924l-.812,5.106L146.5,318l-.207.539c-2.172,6.6-10.5,12.086-17.116,15.125l-12.8,5.928a9.176,9.176,0,0,1-5.645.572l-16.039-3.326a9.2,9.2,0,0,1-4.954-2.775l-5.569-9.156c-4.841-5.417-8.019-13.866-7.381-20.791l.045-.574L77.9,286.625l.249-3.879,1.4-22.161a19.593,19.593,0,0,1,4.5-11.647,14.838,14.838,0,0,1,9.776-5.173,113.523,113.523,0,0,1,30.448.959c.354.05.7.123,1.049.195s.674.14,1.018.235c9.541,2.272,15.511,5.379,24.466,10.367C157.024,258.971,159.667,266.333,158.024,273.894Z" transform="translate(57.039 16.553)"/><path class="m" d="M118.518,263.678a4.291,4.291,0,0,0-4.37-1.462,4.5,4.5,0,0,0-2.41,1.567,6.535,6.535,0,0,0-1.249,2.637,10.807,10.807,0,0,0-.242,2.742c0,.85.078,1.657.093,2.376.057.748-.007,1.393-.017,2.027a6.648,6.648,0,0,1-.38,1.624c-.7,2.006-2.141,2.414-2.049,2.7.014.062.114.093.3.088a1.926,1.926,0,0,0,.791-.173,4.374,4.374,0,0,0,2.129-2.063,6.857,6.857,0,0,0,.707-1.944c.076-.584.157-1.22.183-1.856l.142.059a2.238,2.238,0,0,1,1.534,2.184c.033.427-.014.8.178.983.161.164.653.052,1.049-.577a2.627,2.627,0,0,0-2.728-3.884c-.057.014-.093.033-.145.05a17.3,17.3,0,0,1,.233-3.908,3.844,3.844,0,0,1,2.315-3,3.051,3.051,0,0,1,2.953.679,3.768,3.768,0,0,1,1.018,2.068c.093.579.055.942.2.985.093.038.382-.264.515-.969A3.845,3.845,0,0,0,118.518,263.678Z" transform="translate(99.883 42.548)"/><path class="a" d="M165.472,263.453a33.389,33.389,0,0,0-4.292-8.333c-5.08-7.236-12.933-12.76-21.8-16.183.171-.007.356-.012.522-.014.617.017,1.227-.017,1.776.028.28.014.551.026.812.038.259.028.506.055.743.083a10.419,10.419,0,0,1,1.3.207,5.58,5.58,0,0,1,.995.237l.878.247s-.195-.252-.6-.7a4.592,4.592,0,0,0-.8-.757,7.711,7.711,0,0,0-1.2-.848l-.757-.425c-.268-.133-.556-.242-.855-.368a13.575,13.575,0,0,0-1.954-.617,19.006,19.006,0,0,0-4.541-.444c-.548.019-1.075.055-1.588.093-.088-.382-3.957-4.413-3.841-3.824a12.314,12.314,0,0,1,.237,2.015c.017.223.026.5.043.774a11.3,11.3,0,0,0-2.547-1.621,9.528,9.528,0,0,0-3.257-.9c-.237-.017-.463-.033-.679-.045l-.615.036a4.468,4.468,0,0,0-.952.142c-.513.128-.776.216-.776.216s.261.116.726.316a5.965,5.965,0,0,1,.8.394c.147.078.3.161.472.249s.325.211.5.328a18.168,18.168,0,0,1,2.236,1.714l.081.076a53.9,53.9,0,0,0-18.911.437,36.552,36.552,0,0,0-18.757,9.816,32.941,32.941,0,0,0-8.812,17.769L76.418,286.3c3.6-10.989,15-22.693,17.472-24.554a14.368,14.368,0,0,1,8.164-2.889c.883-.031,1.769-.047,2.654-.059,10.548,2.979,17.684,12.349,28.25,15.5-1.835-1.517-3.68-3.231-5.572-4.969,8.978,5.019,18.075,9.47,28.366,8.166a14.526,14.526,0,0,1,.415,5.921L153.66,301.37a8.366,8.366,0,0,1,7.544-1.132l5.178-18.735A33.3,33.3,0,0,0,165.472,263.453Z" transform="translate(56.641 0.942)"/><path class="m" d="M102.389,281.394c-1.911-.237-4.366-.361-6.946-.878-.487-.1-.957-.23-1.424-.354a.269.269,0,0,0-.083-.05c-8.242-3.711-.548-14.961,1.778-23.991-4.029,5.417-14.087,17.073-8.544,25.715,1.137,1.773,4.024,3.074,7.222,3.756a15.531,15.531,0,0,0,8.121-.572c1.97-.717,3.117-1.574,3.072-2.267C105.542,282.035,104.293,281.617,102.389,281.394Z" transform="translate(69.176 34.342)"/><path class="m" d="M78.84,257.139c10.683-1.567,18.712-4.135,25.356-1.363,1.655,1.163-.411,8.292-1.709,9.042C96.438,256.564,83.31,261.222,78.84,257.139Z" transform="translate(59.969 32.18)"/><path class="m" d="M119.177,266.955c-9.178-5.683-16.758-10.339-23.96-10.434-.069,1.377-2.49,6.507-1.6,7.711C102.453,259.066,113.451,268.923,119.177,266.955Z" transform="translate(80.002 34.892)"/><g class="n" transform="translate(139.419 241.515)"><path class="o" d="M114.421,251.747c4.3,2.362,10.626,3.57,14.184-.62-11.044,3.314-18.028-13.078-29.371-9.679,4.983,1.46,8.489,5.491,12.546,8.549-6.362-4.2-12.808-8.183-20.779-8.062,14.011,5.522,26.771,24.744,43.629,17.6C126.9,259.6,120.608,255.821,114.421,251.747Z" transform="translate(-62.74 -227.972)"/><path class="o" d="M104.644,236.707c15.718,9.282,23.046,25.477,19.645,43.41C131.054,262.189,122.577,243.459,104.644,236.707Z" transform="translate(-43.996 -233.846)"/><path class="o" d="M112.073,272.938a31.328,31.328,0,0,0-.961-27.783A117.906,117.906,0,0,1,112.073,272.938Z" transform="translate(-35.11 -222.239)"/><path class="o" d="M79.1,257.772A45.037,45.037,0,0,1,98.661,235.5,25.071,25.071,0,0,0,79.1,257.772Z" transform="translate(-79.097 -235.502)"/></g><g class="p" transform="translate(168.726 293.742)"><path class="q" d="M93.386,277.764a1.912,1.912,0,0,1-1.942-1.752c.012-.221.207-1.465.494-3.222.268-1.761.527-4.031.812-6.312.138-1.137.273-2.27.4-3.328.161-1.056.311-2.037.439-2.875l.43-2.773s.083,1.116.207,2.8c.062.838.133,1.818.214,2.875.109,1.054.226,2.182.344,3.319.223,2.267.472,4.605.586,6.422.093,1.821.147,3.129.135,3.354A1.822,1.822,0,0,1,93.386,277.764Z" transform="translate(-91.442 -257.502)"/></g><g transform="translate(150.677 288.156)"><path class="r" d="M93.42,260.393c-.475,2.289-2.986,3.7-5.612,3.16s-4.366-2.844-3.891-5.13,2.986-3.7,5.61-3.157S93.895,258.107,93.42,260.393Z" transform="translate(-83.839 -255.149)"/><path class="a" d="M89.937,258.91a2.614,2.614,0,1,1-2.053-2.953A2.546,2.546,0,0,1,89.937,258.91Z" transform="translate(-82.552 -254.119)"/><path class="q" d="M86.2,258.1a.915.915,0,0,1-1.083.71h0a.916.916,0,0,1-.712-1.083h0a.916.916,0,0,1,1.083-.71h0A.916.916,0,0,1,86.2,258.1Z" transform="translate(-83.081 -252.604)"/><path class="q" d="M88.982,257.23a1.293,1.293,0,0,1-1.529,1h0a1.291,1.291,0,0,1-1-1.526h0a1.3,1.3,0,0,1,1.529-1h0a1.3,1.3,0,0,1,1,1.529Z" transform="translate(-80.287 -254.426)"/></g><path class="a" d="M105.366,262.41c-.318.261-.774.05-1.348-.453a20.585,20.585,0,0,0-2.393-1.939c-2.108-1.427-5.555-2.061-9.5-2.077-3.946-.043-7.979,2.186-10.571,2.868-4.848,1.681-4.736-2.03-1.275-3.461a38.624,38.624,0,0,1,11.991-3.734c4.855-.791,11.048-.475,13.192,2.061C106.517,256.969,105.677,262.151,105.366,262.41Z" transform="translate(58.522 30.368)"/><g transform="translate(182.645 295.358)"><path class="r" d="M106.886,263.43c-.475,2.286-2.986,3.7-5.612,3.155s-4.366-2.842-3.891-5.13,2.989-3.7,5.612-3.155S107.361,261.141,106.886,263.43Z" transform="translate(-97.305 -258.183)"/><path class="a" d="M103.4,261.943a2.612,2.612,0,1,1-2.051-2.953A2.544,2.544,0,0,1,103.4,261.943Z" transform="translate(-96.017 -257.154)"/><path class="q" d="M99.67,261.137a.917.917,0,0,1-1.083.71h0a.914.914,0,0,1-.71-1.082h0a.912.912,0,0,1,1.083-.71h0a.916.916,0,0,1,.71,1.083Z" transform="translate(-96.546 -255.639)"/><path class="q" d="M102.632,260.326a1.347,1.347,0,0,1-1.591,1.042h0A1.343,1.343,0,0,1,100,259.778h0a1.338,1.338,0,0,1,1.588-1.04h0a1.344,1.344,0,0,1,1.045,1.588Z" transform="translate(-93.642 -257.461)"/></g><path class="a" d="M93.507,261.3c.166.375.672.389,1.408.2a20.8,20.8,0,0,1,3.01-.665c2.521-.335,5.89.639,9.425,2.388,3.549,1.723,6.16,5.522,8.174,7.29,3.585,3.67,5.142.3,2.687-2.526a38.6,38.6,0,0,0-9.057-8.7c-3.988-2.877-9.669-5.36-12.722-4.052C94.91,255.916,93.345,260.925,93.507,261.3Z" transform="translate(80.105 32.622)"/><path class="h" d="M162.672,288.6c2.286,4.522-1.586,12.423.351,17.119,1.97,4.748,4.586,2.939,6.882,7.537,2.557,5.087,6.149,10.991,5.408,16.656-1.1,8.594,1.206,17.318.366,25.921-.788,8-1.448,11.2-4.47,17.062l14.569,2.452c5.32-18.913-9.422-40.039-4.1-59.995,2.082-7.692-2.464-15.108,1.856-29.508,7.072-23.8,1.087-31.051-10.932-41.013A58.145,58.145,0,0,0,146,232.807l-.185-.04a58.207,58.207,0,0,0-29.188.442c-14.989,4.356-23.369,8.632-26.349,33.276-1.766,14.932-8.888,19.927-10.063,27.806-3.3,22.2-15.331,39.187-14.277,61.566.33,7.051,13.952,33.414,14.854,41.248,1.03-.755,3.373-5.113,4.454-5.764-1.975-12.679-11.974-30.529-11.974-47.354,0-8.648,4.608-25.477,7.015-33.8,1.576-5.493,2.008-11.9,6.379-15.552,3.957-3.3,2.141-.776,5.84-4.349,3.642-3.535,2.2-11.426,6.08-14.692,3.924-3.259,17.216-1.363,22.185-.306,4.639,1.009,7.276,4.734,11.92,5.721,4.653.942,15.554-.135,20.214.786C157.886,282.8,160.391,284.049,162.672,288.6Z" transform="translate(42.159)"/><path class="e" d="M88.484,252.4c-.221,3.559.814,7.483-1.132,10.467-1.408,2.163-4.081,3.255-5.448,5.441-2.144,3.428-.415,8.39-2.825,11.635a19.486,19.486,0,0,1-3.3,2.9,4.766,4.766,0,0,0-2.02,3.727c.836-1.752,2.718-2.735,4.544-3.4s2.075-2.158,3.568-3.395c3.421-2.837,1.807-8.5,4.869-11.713,2.353-2.471,9.311-1.985,11.5-4.6a10.113,10.113,0,0,0,1.871-7.12c-.142-2.509-.757-4.973-.9-7.485a20.336,20.336,0,0,1,4.546-13.952,30.844,30.844,0,0,0-10.168,6.654A17.551,17.551,0,0,0,88.484,252.4Z" transform="translate(52.977 5.198)"/><path class="e" d="M91.762,264.559c-1.033-4.259,1.814-8.617,1.327-12.974-.216-1.925-1.073-3.718-1.488-5.612a12.618,12.618,0,0,1,2.41-10.391c-.7,3.428,1.139,6.83,3.1,9.729s4.195,5.88,4.418,9.375c.207,3.262-1.4,6.509-.812,9.726.646,3.516,3.7,6.006,6.55,8.169a29.537,29.537,0,0,1-9.216-1.534C95.14,269.891,92.5,267.6,91.762,264.559Z" transform="translate(77.121 6.123)"/><path class="e" d="M110.387,256.988c-.211,2.683-.855,5.363-.532,8.034.415,3.421,2.376,6.486,2.948,9.885.81,4.824-1.244,9.895.1,14.6,1.17,4.116,4.672,7.07,8,9.762a18.954,18.954,0,0,1-3.345-15.431c.669-2.96,2.053-5.724,2.678-8.691a35.3,35.3,0,0,0,.43-8.043c-.076-3.179-.161-6.429-1.3-9.4-2.4-6.274-8.909-9.978-12.487-15.666A25.367,25.367,0,0,1,110.387,256.988Z" transform="translate(98.483 14.994)"/><path class="e" d="M101.24,249.686a14.125,14.125,0,0,1,1.232,8.565c-.639,2.863-2.861,5.5-5.759,5.954-1.728-1.807-2-4.572-1.688-7.053s1.121-4.9,1.192-7.4c.062-2.189-.444-4.356-.463-6.545s.56-4.563,2.291-5.9a9.782,9.782,0,0,0,.437,6.424C99.241,245.783,100.369,247.677,101.24,249.686Z" transform="translate(82.05 8.494)"/><path class="s" d="M172.285,270.628a3.607,3.607,0,0,1-1.258-.228,303.384,303.384,0,0,0-93.074-19.317,3.56,3.56,0,1,1,.339-7.112,310.432,310.432,0,0,1,95.253,19.766,3.561,3.561,0,0,1-1.261,6.892Z" transform="translate(54.09 17.644)"/><path class="s" d="M172.848,267.925a3.56,3.56,0,0,1-1.261-.23A303.421,303.421,0,0,0,78.516,248.38a3.56,3.56,0,1,1,.337-7.112,310.461,310.461,0,0,1,95.255,19.766,3.561,3.561,0,0,1-1.261,6.892Z" transform="translate(54.861 13.928)"/><g transform="translate(152.502 326.418)"><path class="m" d="M99.44,275.457c.3.5.634,5.828-2.5,7.115-3.119,1.334-7.2,1.182-7.573-.249-.159-.6,2.854-.316,5.866-1.6C98.258,279.473,99.122,274.915,99.44,275.457Z" transform="translate(-78.084 -265.57)"/><path class="a" d="M102.906,273.418c-.078,1.071-.173,2.013-.3,2.853-1.047,6.607-4.757,12.523-15.8,8.067-2.9-1.17.24-7.542-.339-9.823-.107-.484-.252-.942-.382-1.446-.119-.418-.235-.814-.351-1.211l.043,0C95.072,271.925,97.1,276.056,102.906,273.418Z" transform="translate(-83.305 -270.459)"/><path class="q" d="M102.8,273.416c-.078,1.071-.173,2.013-.3,2.853-3.9.788-10.324,1.4-16.38-.622-.1-.764-.394-3.371-.491-3.791C94.925,271.927,97,276.053,102.8,273.416Z" transform="translate(-83.203 -270.457)"/><path class="m" d="M105.435,273.625c.19.24-.764,1.315-2.853,1.809a17.953,17.953,0,0,1-7.872-.358c-2.986-.643-5.422-1.783-7.06-1.942-1.671-.2-2.865.154-3.027-.221-.142-.245.8-1.3,3.017-1.6,2.272-.266,4.878.679,7.642,1.253a33.711,33.711,0,0,0,7.072,1.061C104.127,273.651,105.223,273.283,105.435,273.625Z" transform="translate(-84.608 -271.267)"/></g><path class="a" d="M81.777,277.558c-.969,2.711-1.405,5.427-1.823,12.44.268,11.117,8.985,17.007,16.022,18.467s16.428-.707,24.35-8.131c4.558-10.46,3.108-15.388,1.192-20.043-3.11-7.561-14.146-9.914-17.261-10.559C99.371,268.718,85.63,266.778,81.777,277.558Zm13.691,12.665c-2.051-.51-2.545,3.027-4.653,3.255-1.569.166-3.865-1.125-5.429-4.332s-.228-10.811,3.072-12.765a8.186,8.186,0,0,1,3.369-1.052,37.364,37.364,0,0,1,10.825.966,37.356,37.356,0,0,1,10.317,3.423,8.194,8.194,0,0,1,2.673,2.3c2.246,3.105-.81,16.991-11.462,13.807-2.851-.85-2.11-4.5-4.2-4.843Z" transform="translate(61.5 51.916)"/><g transform="translate(191.138 295.939)"><path class="t" d="M114.881,296.017l.069,0a3.338,3.338,0,0,0,3.39-3.544A104.36,104.36,0,0,1,120.8,270.2a3.554,3.554,0,0,0-2.557-4.164l-.069-.019a3.316,3.316,0,0,0-4.124,2.566,111.043,111.043,0,0,0-2.728,23.345A4.02,4.02,0,0,0,114.881,296.017Z" transform="translate(-86.533 -248.159)"/><g transform="translate(2.782)"><path class="b" d="M137.484,265.166l-10.472-6.412c-1.4-.857-3.407.033-4.482,1.992l-19.842,36.16c-1.078,1.963-.748,4.14.729,4.86l11.063,5.372c1.4.677,3.364-.311,4.4-2.205L138,270.047C139.032,268.157,138.807,265.973,137.484,265.166Z" transform="translate(-102.055 -258.428)"/><g transform="translate(2.227 1.298)"><path class="a" d="M115.3,307.421,104.339,302.1c-1.462-.71-1.785-2.873-.715-4.829l19.742-35.984c1.068-1.949,3.065-2.837,4.449-1.992l10.369,6.353c1.31.8,1.529,2.972.5,4.852l-19.02,34.719C118.631,307.106,116.677,308.093,115.3,307.421Z" transform="translate(-102.993 -258.974)"/><g transform="translate(22.929 7.27)"><path class="u" d="M116.874,265.245c-.641,1.173-1.835,1.726-2.671,1.237s-.995-1.847-.347-3.029,1.849-1.731,2.683-1.232S117.517,264.072,116.874,265.245Z" transform="translate(-111.545 -262.037)"/><path class="u" d="M113.842,269.343c-.126.228-.361.34-.525.245l-.52-.3a.435.435,0,0,1-.069-.586l3.2-5.828,1.1.653Z" transform="translate(-112.651 -260.886)"/><path class="a" d="M116.323,264.773c-.508.923-1.45,1.363-2.108.976a1.784,1.784,0,0,1-.273-2.388c.51-.933,1.458-1.365,2.115-.973A1.791,1.791,0,0,1,116.323,264.773Z" transform="translate(-111.31 -261.753)"/><path class="b" d="M115.6,264.156c-.33.6-.942.886-1.37.634a1.162,1.162,0,0,1-.176-1.553c.33-.6.945-.885,1.372-.631A1.164,1.164,0,0,1,115.6,264.156Z" transform="translate(-111.004 -261.382)"/></g></g></g><path class="t" d="M118.847,284.361l.055-.031a3.172,3.172,0,0,0,1.014-4.368l-8.382-13.992a3.166,3.166,0,0,0-4.366-1.011l-.055.031a3.172,3.172,0,0,0-1.014,4.368l8.382,13.992A3.166,3.166,0,0,0,118.847,284.361Z" transform="translate(-94.376 -250.116)"/><path class="t" d="M127.557,289.956l.043-.055a3.264,3.264,0,0,0-.221-4.613l-19.471-16.682a3.269,3.269,0,0,0-4.6.489l-.043.05a3.267,3.267,0,0,0,.221,4.615l19.471,16.684A3.273,3.273,0,0,0,127.557,289.956Z" transform="translate(-98.767 -245.446)"/><path class="t" d="M126.47,292.684l.045-.048a3.206,3.206,0,0,0-.3-4.52l-19.474-16.682a3.2,3.2,0,0,0-4.511.392l-.043.05a3.2,3.2,0,0,0,.3,4.52l19.471,16.682A3.2,3.2,0,0,0,126.47,292.684Z" transform="translate(-100.18 -241.59)"/><path class="t" d="M118.9,289.327l.038-.043a2.816,2.816,0,0,0-.306-3.969l-13.062-11.027a2.818,2.818,0,0,0-3.969.306l-.038.045a2.816,2.816,0,0,0,.306,3.969l13.062,11.025A2.816,2.816,0,0,0,118.9,289.327Z" transform="translate(-100.883 -237.565)"/><rect class="k" width="16.346" height="16.956" transform="translate(16.297 54.227) rotate(-29.989)"/><path class="k" d="M104.269,281.931l.05-.028a2.82,2.82,0,0,1,3.813,1.147l-.489-.907a3.176,3.176,0,0,1,1.289-4.3l.057-.028a3.169,3.169,0,0,1,4.292,1.291l-.451-.843a3.171,3.171,0,0,1,1.289-4.294l.057-.028a3.169,3.169,0,0,1,4.294,1.289,3.17,3.17,0,0,1,1.287-4.295l.057-.028a3.17,3.17,0,0,1,4.295,1.287l3.081,5.728.548,1.016,1.253,2.308a9.328,9.328,0,0,1-3.794,12.634l-5.5,2.958a9.326,9.326,0,0,1-12.634-3.791l-1.253-2.308-.546-1.021-2.141-3.974A2.816,2.816,0,0,1,104.269,281.931Z" transform="translate(-98.268 -241.801)"/></g><path class="h" d="M128.942,282.31l34.164,47.973A13.353,13.353,0,0,1,141.163,345.5l-32.846-47.218Z" transform="translate(100.47 70.325)"/></g><path class="v" d="M684.569,376.466c-26.567,40.3-72.116,63.986-120.383,63.986H163.568c-80.525,0-125.679-94.148-73.456-147.163s6.1-98.293,86.645-140.8C254.795,111.3,349,388.073,420.888,330.63S517.359,140.9,540.354,199.43s30.1,27.844,78.869,40.847,96.463,86.706,67.2,133.311Q685.508,375.044,684.569,376.466Z" transform="translate(72.445 352.97)"/><g transform="translate(188.87 605.48)"><g transform="translate(374.179 113.279)"><path class="w" d="M657.93,387.279c-42.2,3.58-70.653,82.689-176.157,35.139,0,0,11.585-34.535,63.481-56.061S657.93,387.279,657.93,387.279Z" transform="translate(-481.773 -360.267)"/><path class="x" d="M495.879,415.988a293.983,293.983,0,0,1,34.107-14.958c2.9-1.115,5.846-2.118,8.8-3.1,2.939-1.019,5.918-1.92,8.891-2.84,2.964-.955,5.98-1.731,8.985-2.545,1.5-.4,3-.826,4.513-1.2l4.544-1.091,4.555-1.045,4.587-.9,4.588-.9c1.53-.293,3.074-.521,4.615-.755,3.085-.454,6.159-.972,9.266-1.271,3.1-.322,6.189-.769,9.313-.885a155.96,155.96,0,0,1,37.251,1.376,251.773,251.773,0,0,0-36.929,1.938l-2.29.26-2.28.35-4.563.666c-3.048.391-6.065,1-9.089,1.548-1.508.3-3.03.508-4.536.821l-4.516.938-4.515.939-4.487,1.075-4.5,1.029c-1.5.357-2.981.763-4.472,1.143l-4.469,1.155c-1.492.378-2.962.841-4.452,1.232-2.97.815-5.946,1.611-8.89,2.527-2.948.9-5.916,1.737-8.853,2.68C519.272,407.842,507.594,411.883,495.879,415.988Z" transform="translate(-481.472 -359.761)"/></g><g transform="translate(354.853 5.356)"><path class="y" d="M663.5,254.908C612,291.717,635.825,415.073,463.978,434.5c0,0-11.472-53.214,38.78-120.478S663.5,254.908,663.5,254.908Z" transform="translate(-462.85 -254.597)"/><path class="x" d="M475.148,419.247a288.8,288.8,0,0,1,27.154-46.3,326.082,326.082,0,0,1,34.686-41.2A285.777,285.777,0,0,1,578.3,297.109c14.833-10.14,30.834-18.865,47.9-24.3a298.922,298.922,0,0,0-44.458,29.007,429.742,429.742,0,0,0-39.465,35.2,528.537,528.537,0,0,0-35.353,39.442C495.792,390.219,485.329,404.541,475.148,419.247Z" transform="translate(-462.588 -254.209)"/></g><g transform="translate(0 107.782)"><path class="w" d="M115.408,376.4c41.848,6.543,64.655,87.459,173.245,47.456,0,0-9.124-35.264-59.375-60.391S115.408,376.4,115.408,376.4Z" transform="translate(-115.408 -354.885)"/><path class="x" d="M274.329,416.489c-11.4-4.921-22.76-9.774-34.254-14.265-2.864-1.147-5.764-2.194-8.642-3.3-2.871-1.12-5.784-2.124-8.689-3.147-1.458-.494-2.891-1.059-4.353-1.541l-4.378-1.468c-1.461-.483-2.914-.993-4.38-1.454l-4.414-1.343-4.4-1.388-4.438-1.255-4.439-1.253c-1.48-.419-2.983-.737-4.467-1.139-2.978-.758-5.945-1.58-8.957-2.185l-4.505-.986-2.25-.51-2.265-.421a251.828,251.828,0,0,0-36.7-4.535,156,156,0,0,1,37.255,1.251c3.107.336,6.154,1,9.227,1.539,3.079.516,6.109,1.249,9.154,1.919,1.521.343,3.046.679,4.551,1.079l4.512,1.221,4.512,1.225,4.47,1.361,4.456,1.408c1.48.484,2.944,1.014,4.417,1.519,2.94,1.024,5.894,2.011,8.782,3.172,2.9,1.128,5.808,2.236,8.669,3.459,2.876,1.183,5.742,2.391,8.56,3.708A293.813,293.813,0,0,1,274.329,416.489Z" transform="translate(-115.037 -354.441)"/></g><g transform="translate(27.819)"><path class="y" d="M142.646,249.353c46.37,38.355,15.52,153.745,177.189,183.669,0,0,14.442-49.7-28.711-116.85S142.646,249.353,142.646,249.353Z" transform="translate(-142.646 -249.353)"/><path class="x" d="M309.28,417.749c-8.738-14.595-17.734-28.853-27.39-42.627-9.693-13.742-19.939-27.046-30.9-39.729a414.529,414.529,0,0,0-35.023-36.038,288.778,288.778,0,0,0-40.128-30.594c15.855,6.231,30.481,15.551,43.891,26.144a269.421,269.421,0,0,1,36.908,35.6,307.16,307.16,0,0,1,30.117,41.435A270.446,270.446,0,0,1,309.28,417.749Z" transform="translate(-141.938 -248.939)"/></g></g><g transform="translate(249.303 665.646)"><g transform="translate(0 20.666)"><path class="z" d="M174.625,333.964a6.287,6.287,0,0,0,.751,3.8,27.294,27.294,0,0,1,3.355,13.926c-.1,3.182-.755,6.437.112,9.5,1.494,5.285,7.073,8.554,8.868,13.744,1.591,4.6.111,10.39,3.418,13.964a3.092,3.092,0,0,0,3.214,1.115,3.919,3.919,0,0,0,1.384-1.15c3.792-4.307,7.852-9.541,6.683-15.16-1.1-5.277-6.539-8.844-7.569-14.135-.842-4.323,1.369-9.311-1.109-12.953-.683-1.005-1.662-1.773-2.408-2.732-2.947-3.783-1.855-9.812-5.249-13.2a7.828,7.828,0,0,0-4-2.053,6.217,6.217,0,0,0-7.449,5.33Z" transform="translate(-174.579 -328.496)"/><g transform="translate(6.75 7.059)"><path class="aa" d="M196.036,400.875c.228-2.815.325-5.632.43-8.456-.129-2.814-.279-5.63-.52-8.443s-.558-5.626-1.055-8.423a35.864,35.864,0,0,0-2.342-8.231c-2.043-5.164-3.693-10.563-5.362-15.913l-2.419-8.066q-1.491-3.953-2.9-7.935c.411,2.8,1.051,5.545,1.613,8.312L185.9,351.8c1.679,5.377,3.314,10.744,5.406,16.037a34.44,34.44,0,0,1,2.26,7.948c.486,2.737.8,5.516,1.039,8.3s.4,5.585.506,8.386Z" transform="translate(-181.174 -335.408)"/><path class="aa" d="M181.188,343.692a6.607,6.607,0,0,0,1.7,1.7,9.944,9.944,0,0,0,1.076.546,4.094,4.094,0,0,1,.978.677l.129.116.114-.176c.268-.41.594-.792.852-1.207s.51-.834.729-1.27a9.9,9.9,0,0,0,.911-2.81l-.08-.04a9.944,9.944,0,0,0-1.687,2.425c-.212.438-.385.9-.57,1.348s-.282.947-.447,1.409l.242-.059a4.109,4.109,0,0,1-.936-.734,9.743,9.743,0,0,0-.839-.865,6.615,6.615,0,0,0-2.124-1.129Z" transform="translate(-181.188 -335.284)"/><path class="aa" d="M181.858,353.119c.483.4.981.829,1.5,1.189a12.47,12.47,0,0,0,1.625,1.012c.579.278,1.194.5,1.751.813a10.8,10.8,0,0,1,1.57,1.106l.176.143.178-.233a28.1,28.1,0,0,0,2.056-3.181,20.13,20.13,0,0,0,1.484-3.5l-.078-.044a20.056,20.056,0,0,0-2.237,3.079,28.34,28.34,0,0,0-1.665,3.4l.353-.09a11.507,11.507,0,0,1-1.686-.922c-.53-.358-1-.81-1.515-1.2a11.119,11.119,0,0,0-1.656-.977,7.41,7.41,0,0,0-1.842-.679Z" transform="translate(-181.174 -335.088)"/><path class="aa" d="M185.206,365.514a8.136,8.136,0,0,0,1.731,1.283,6.57,6.57,0,0,0,1.967.782,5.1,5.1,0,0,1,1.9.913c.564.429,1.117.9,1.682,1.273l.427.28.318-.476a13.477,13.477,0,0,0,1.223-2.2,11.725,11.725,0,0,0,.789-2.441l-.1-.054a11.726,11.726,0,0,0-1.639,1.973,13.441,13.441,0,0,0-1.205,2.212l.745-.2a12.756,12.756,0,0,0-2.011-.8,5.8,5.8,0,0,1-1.857-1.035,6.029,6.029,0,0,0-1.831-1.088,7.445,7.445,0,0,0-2.1-.528Z" transform="translate(-181.102 -334.78)"/></g></g><g transform="translate(17.738)"><path class="z" d="M200.3,402c2.2-.363,10.449-3,9.873-5.155-2.473-9.245-4.945-19.733,3.618-24.255,4.121-2.175,9.293-3.282,11.639-7.308,2.416-4.147.637-9.418-1.531-13.7s-4.78-8.865-3.85-13.574c.972-4.931,5.636-8.569,6.381-13.54,1.018-6.787-5.571-12.255-11.9-14.9-2.154-.9-4.52-1.672-6.79-1.123a8.339,8.339,0,0,0-4.137,2.673c-4.448,4.972-4.266,12.475-3.251,19.068s2.568,13.556.085,19.747c-1.765,4.4-5.541,8.534-4.529,13.164.4,1.854,1.562,3.471,2,5.317,1.189,4.977-2.946,9.46-4.84,14.212a17.442,17.442,0,0,0,3.868,18.278A3.866,3.866,0,0,0,200.3,402Z" transform="translate(-191.946 -308.262)"/><g transform="translate(7.556 10.717)"><path class="aa" d="M199.362,401.883c.51-3.659,1.019-7.307,1.672-10.926.154-.906.344-1.806.49-2.711s.219-1.82.369-2.724q.411-2.718.923-5.413a71.028,71.028,0,0,1,2.761-10.552,21.874,21.874,0,0,1,2.307-4.772,6.549,6.549,0,0,1,1.668-1.766,8.738,8.738,0,0,0,2.225-2.069,9.146,9.146,0,0,0,1.606-5.742,28.123,28.123,0,0,0-.824-5.632c-.848-3.631-1.915-7.138-2.508-10.71a24.565,24.565,0,0,1,.219-10.6c.289-.831.516-1.678.789-2.525a17.673,17.673,0,0,1,1.052-2.465,24.679,24.679,0,0,1,3.08-4.52,20.833,20.833,0,0,0-3.931,3.986,18.965,18.965,0,0,0-1.545,2.406,9.882,9.882,0,0,0-1.064,2.675,26.219,26.219,0,0,0-.255,11.322c.618,3.705,1.7,7.266,2.528,10.808a26.541,26.541,0,0,1,.781,5.284,7.467,7.467,0,0,1-1.277,4.714,7.068,7.068,0,0,1-1.8,1.67,8.168,8.168,0,0,0-2.121,2.211,23.52,23.52,0,0,0-2.5,5.148,72.764,72.764,0,0,0-2.832,10.811q-.525,2.733-.936,5.481c-.126.917-.3,1.828-.408,2.747-.094.921-.135,1.849-.193,2.773C199.432,394.492,199.294,398.188,199.362,401.883Z" transform="translate(-199.345 -318.755)"/><path class="aa" d="M213.844,329.493a5.655,5.655,0,0,0-1.657.983,5.992,5.992,0,0,0-1.3,1.362,8.79,8.79,0,0,1-1.1,1.534,13.664,13.664,0,0,1-1.441,1.22l.653.041c-.22-.474-.491-.917-.74-1.372a13.868,13.868,0,0,0-.817-1.315c-.286-.429-.613-.832-.922-1.244s-.666-.792-.95-1.228l-.11.018a4.324,4.324,0,0,0,.327,1.616,10.788,10.788,0,0,0,.669,1.448,9.9,9.9,0,0,0,.863,1.32,14.775,14.775,0,0,0,1,1.228l.409.429.244-.388a11.064,11.064,0,0,1,1.072-1.541,7.478,7.478,0,0,1,1.454-1.188,7.2,7.2,0,0,0,1.322-1.3,11.527,11.527,0,0,0,1.1-1.538Z" transform="translate(-199.214 -318.526)"/><path class="aa" d="M205.838,343.222a9.03,9.03,0,0,0,.986,1.741,12.54,12.54,0,0,0,1.26,1.514c.476.452,1.021.84,1.532,1.257a9.179,9.179,0,0,1,1.342,1.43l.128.167.181-.144a15.115,15.115,0,0,0,1.719-1.578c.5-.568,1.027-1.106,1.49-1.7s.9-1.2,1.315-1.823.793-1.278,1.228-1.887l-.063-.092a7.823,7.823,0,0,0-1.863,1.389,17.347,17.347,0,0,0-1.548,1.663c-.481.579-.891,1.215-1.339,1.817s-.8,1.323-1.22,1.839l.307.023a8.079,8.079,0,0,1-1.355-1.408c-.383-.535-.726-1.1-1.129-1.617a17.019,17.019,0,0,0-1.349-1.406,14.639,14.639,0,0,0-1.533-1.258Z" transform="translate(-199.206 -318.257)"/><path class="aa" d="M220.56,353.821c-.694.816-1.415,1.567-2.151,2.284s-1.532,1.348-2.3,2.041a7.506,7.506,0,0,1-2.689,1.562,9.9,9.9,0,0,1-3.09.344l.459.323a20.684,20.684,0,0,0-.732-2.5,13.917,13.917,0,0,0-1.063-2.384,11.656,11.656,0,0,0-1.524-2.154,5.692,5.692,0,0,0-2.142-1.544l-.056.1a8.351,8.351,0,0,1,1.545,1.942,23.972,23.972,0,0,1,1.155,2.187L209,358.29c.338.761.636,1.553.932,2.325l.143.372.317-.049a17.828,17.828,0,0,0,3.139-.9,31.979,31.979,0,0,0,3.013-1.237,7.884,7.884,0,0,0,2.533-2.08,8.1,8.1,0,0,0,1.585-2.852Z" transform="translate(-199.218 -318.05)"/><path class="aa" d="M200.773,361.876a6.27,6.27,0,0,0-.43,2.567,8.4,8.4,0,0,0,.481,2.576,9.211,9.211,0,0,0,1.321,2.248l1.539,2.046.109.146.178-.127a22.611,22.611,0,0,1,2.684-1.512c.9-.485,1.836-.9,2.772-1.3s1.867-.811,2.826-1.171c.952-.39,1.931-.7,2.925-1.075l-.016-.111a14.734,14.734,0,0,0-6.215,1.263,19.373,19.373,0,0,0-2.789,1.553,18.8,18.8,0,0,0-2.454,2.041l.287.019a7.115,7.115,0,0,1-1.421-2.028,17.47,17.47,0,0,1-.8-2.314,18.264,18.264,0,0,1-.882-4.8Z" transform="translate(-199.323 -317.835)"/></g></g><g transform="translate(2.982 78.161)"><path class="e" d="M185.65,424.228H209.2c2.186,0,4.044-1.889,4.373-4.447l3.728-28.966c.408-3.169-1.665-6.024-4.373-6.024h-31c-2.709,0-4.781,2.855-4.373,6.024l3.728,28.966C181.607,422.338,183.465,424.228,185.65,424.228Z" transform="translate(-177.499 -384.791)"/><path class="ab" d="M181.923,384.791h15.849c-2.708,0-4.78,2.855-4.372,6.024l3.728,28.966c.329,2.557,2.187,4.447,4.372,4.447H185.65c-2.186,0-4.043-1.889-4.372-4.447l-3.728-28.966C177.143,387.646,179.215,384.791,181.923,384.791Z" transform="translate(-177.499 -384.791)"/></g></g><g transform="translate(217.699 783.244)"><path class="ac" d="M152.359,440.853H639.883a8.725,8.725,0,0,0,8.725-8.724h0a8.725,8.725,0,0,0-8.725-8.725H152.359a8.725,8.725,0,0,0-8.724,8.725h0A8.724,8.724,0,0,0,152.359,440.853Z" transform="translate(-143.635 -423.404)"/><path class="ad" d="M152.359,440.671H639.883a8.725,8.725,0,0,0,8.725-8.724H143.635A8.724,8.724,0,0,0,152.359,440.671Z" transform="translate(-143.635 -423.222)"/></g><g transform="translate(214.374 459.712)"><ellipse class="ae" cx="35.738" cy="35.738" rx="35.738" ry="35.738" transform="matrix(0.252, -0.968, 0.968, 0.252, 0, 69.178)"/><g transform="translate(23.017 29.588)"><path class="af" d="M2.869,0H38.254a2.87,2.87,0,0,1,2.87,2.87V25.111a2.87,2.87,0,0,1-2.87,2.87H2.869A2.869,2.869,0,0,1,0,25.111V2.869A2.869,2.869,0,0,1,2.869,0Z" transform="translate(41.123 27.981) rotate(180)"/><path class="v" d="M303.227,171.476h35.262a2.931,2.931,0,0,0,2.93-2.93l-20.561-12.93L300.3,168.546A2.93,2.93,0,0,0,303.227,171.476Z" transform="translate(-300.297 -143.496)"/><path class="ag" d="M303.227,141.446h35.262a2.931,2.931,0,0,1,2.93,2.931l-20.561,12.929L300.3,144.377A2.931,2.931,0,0,1,303.227,141.446Z" transform="translate(-300.297 -141.446)"/></g></g><g transform="translate(647.441 516.169)"><path class="ae" d="M35.738,0A35.738,35.738,0,1,1,0,35.738,35.738,35.738,0,0,1,35.738,0Z" transform="matrix(0.974, -0.226, 0.226, 0.974, 0, 16.133)"/><g transform="translate(19.75 21.758)"><path class="v" d="M626.672,207.366h-3.593a12.787,12.787,0,0,0-1.635-3.938l2.543-2.543a.887.887,0,0,0,0-1.256l-2.826-2.826a.887.887,0,0,0-1.256,0l-2.543,2.543a12.788,12.788,0,0,0-3.938-1.635v-3.593a.888.888,0,0,0-.889-.888h-4a.888.888,0,0,0-.888.888v3.593a12.778,12.778,0,0,0-3.938,1.635l-2.543-2.543a.888.888,0,0,0-1.256,0l-2.826,2.826a.888.888,0,0,0,0,1.256l2.543,2.543A12.787,12.787,0,0,0,598,207.366H594.4a.889.889,0,0,0-.889.889v4a.888.888,0,0,0,.889.888H598a12.778,12.778,0,0,0,1.635,3.938l-2.543,2.544a.889.889,0,0,0,0,1.256l2.826,2.826a.889.889,0,0,0,1.256,0l2.543-2.543a12.776,12.776,0,0,0,3.938,1.635v3.592a.888.888,0,0,0,.888.889h4a.888.888,0,0,0,.889-.889v-3.592a12.786,12.786,0,0,0,3.938-1.635l2.543,2.543a.888.888,0,0,0,1.256,0l2.826-2.826a.887.887,0,0,0,0-1.256l-2.543-2.544a12.778,12.778,0,0,0,1.635-3.938h3.593a.888.888,0,0,0,.888-.888v-4A.888.888,0,0,0,626.672,207.366Zm-16.134,8.4a5.514,5.514,0,1,1,5.514-5.514A5.515,5.515,0,0,1,610.538,215.767Z" transform="translate(-593.516 -193.231)"/><path class="ag" d="M612.119,204.158a7.676,7.676,0,1,0,7.676,7.676A7.676,7.676,0,0,0,612.119,204.158Zm0,12.363a4.687,4.687,0,1,1,4.687-4.687A4.688,4.688,0,0,1,612.119,216.521Z" transform="translate(-595.097 -194.812)"/><g transform="translate(31.565 22.655)"><path class="v" d="M647.357,226.939h-1.835a6.558,6.558,0,0,0-.836-2.012l1.3-1.3a.454.454,0,0,0,0-.642l-1.444-1.444a.454.454,0,0,0-.641,0l-1.3,1.3a6.519,6.519,0,0,0-2.012-.835v-1.836a.453.453,0,0,0-.453-.453h-2.042a.453.453,0,0,0-.453.453v1.836a6.532,6.532,0,0,0-2.013.835l-1.3-1.3a.454.454,0,0,0-.641,0l-1.444,1.444a.454.454,0,0,0,0,.642l1.3,1.3a6.538,6.538,0,0,0-.836,2.012h-1.836a.454.454,0,0,0-.453.454v2.042a.453.453,0,0,0,.453.453h1.836a6.52,6.52,0,0,0,.836,2.012l-1.3,1.3a.454.454,0,0,0,0,.642l1.444,1.444a.454.454,0,0,0,.641,0l1.3-1.3a6.533,6.533,0,0,0,2.013.835v1.836a.454.454,0,0,0,.453.454h2.042a.454.454,0,0,0,.453-.454V234.82a6.519,6.519,0,0,0,2.012-.835l1.3,1.3a.454.454,0,0,0,.641,0l1.444-1.444a.454.454,0,0,0,0-.642l-1.3-1.3a6.54,6.54,0,0,0,.836-2.012h1.835a.454.454,0,0,0,.454-.453v-2.042A.454.454,0,0,0,647.357,226.939Zm-8.242,4.291a2.817,2.817,0,1,1,2.818-2.817A2.816,2.816,0,0,1,639.115,231.23Z" transform="translate(-630.42 -219.718)"/><path class="ag" d="M639.923,225.3a3.921,3.921,0,1,0,3.922,3.921A3.92,3.92,0,0,0,639.923,225.3Zm0,6.316a2.395,2.395,0,1,1,2.395-2.395A2.395,2.395,0,0,1,639.923,231.616Z" transform="translate(-631.228 -220.526)"/></g></g></g><g transform="translate(301.682 365)"><ellipse class="ae" cx="35.738" cy="35.738" rx="35.738" ry="35.738" transform="matrix(0.928, -0.373, 0.373, 0.928, 0, 26.669)"/><g transform="translate(25.93 28.125)"><path class="q" d="M3.3,0H37.82a3.3,3.3,0,0,1,3.3,3.3V31.86a3.3,3.3,0,0,1-3.3,3.3H3.3A3.3,3.3,0,0,1,0,31.86V3.3A3.3,3.3,0,0,1,3.3,0Z" transform="translate(41.123 36.733) rotate(180)"/><path class="ag" d="M408.025,87.3h41.123V82.768a2.825,2.825,0,0,0-2.825-2.825H410.85a2.825,2.825,0,0,0-2.825,2.825Z" transform="translate(-408.025 -78.373)"/><g transform="translate(6.605)"><g transform="translate(23.861)"><path class="q" d="M444.478,81.246h0a.834.834,0,0,0,.834-.834v-1.47a.834.834,0,0,0-.834-.834h0a.833.833,0,0,0-.834.834v1.47A.833.833,0,0,0,444.478,81.246Z" transform="translate(-443.644 -78.108)"/><path class="q" d="M447.265,81.246h0a.834.834,0,0,0,.834-.834v-1.47a.834.834,0,0,0-.834-.834h0a.833.833,0,0,0-.834.834v1.47A.833.833,0,0,0,447.265,81.246Z" transform="translate(-444.047 -78.108)"/></g><path class="q" d="M416.581,81.246h0a.834.834,0,0,0,.834-.834v-1.47a.834.834,0,0,0-.834-.834h0a.833.833,0,0,0-.834.834v1.47A.833.833,0,0,0,416.581,81.246Z" transform="translate(-415.747 -78.108)"/><path class="q" d="M419.368,81.246h0a.833.833,0,0,0,.834-.834v-1.47a.833.833,0,0,0-.834-.834h0a.834.834,0,0,0-.834.834v1.47A.834.834,0,0,0,419.368,81.246Z" transform="translate(-416.15 -78.108)"/></g><g transform="translate(5.525 13.303)"><g transform="translate(16.954)"><rect class="v" width="3.563" height="3.563" rx="0.793"/></g><g transform="translate(8.477)"><rect class="v" width="3.563" height="3.563" rx="0.793"/></g><rect class="v" width="3.563" height="3.563" rx="0.793"/><g transform="translate(25.431 7.3)"><rect class="v" width="3.562" height="3.563" rx="0.793"/></g><g transform="translate(16.954 7.3)"><rect class="v" width="3.563" height="3.563" rx="0.793"/></g><g transform="translate(8.477 7.3)"><rect class="v" width="3.563" height="3.563" rx="0.793"/></g><g transform="translate(0 7.3)"><rect class="v" width="3.563" height="3.563" rx="0.793"/></g><g transform="translate(25.431 14.599)"><rect class="v" width="3.562" height="3.563" rx="0.793"/></g><g transform="translate(16.954 14.599)"><rect class="v" width="3.563" height="3.563" rx="0.793"/></g><g transform="translate(8.477 14.599)"><rect class="v" width="3.563" height="3.563" rx="0.793"/></g></g></g></g><g transform="translate(605.862 396.626)"><circle class="ae" cx="35.738" cy="35.738" r="35.738" transform="translate(0 50.541) rotate(-45)"/><g transform="translate(15.924 15.924)"><circle class="q" cx="24.478" cy="24.478" r="24.478" transform="translate(0 34.617) rotate(-45)"/><path class="ag" d="M547.535,92.435a24.478,24.478,0,1,0,24.478,24.478A24.478,24.478,0,0,0,547.535,92.435Zm2.052,45.333v-3.343a1.125,1.125,0,0,0-1.125-1.126h-1.854a1.125,1.125,0,0,0-1.126,1.126v3.343a20.961,20.961,0,0,1-18.8-18.8h3.343a1.125,1.125,0,0,0,1.126-1.126v-1.854a1.125,1.125,0,0,0-1.126-1.126h-3.343a20.961,20.961,0,0,1,18.8-18.8V99.4a1.125,1.125,0,0,0,1.126,1.126h1.854a1.125,1.125,0,0,0,1.125-1.126V96.058a20.96,20.96,0,0,1,18.8,18.8h-3.343a1.125,1.125,0,0,0-1.126,1.126v1.854a1.125,1.125,0,0,0,1.126,1.126h3.343A20.96,20.96,0,0,1,549.587,137.768Z" transform="translate(-512.917 -82.296)"/><text class="ah" transform="translate(34.184 38.2)"><tspan x="-11.197" y="0">24/7</tspan></text></g></g></g></svg>