<svg xmlns="http://www.w3.org/2000/svg" xmlns:xlink="http://www.w3.org/1999/xlink" width="627.655" height="403.694" viewBox="0 0 627.655 403.694"><defs><style>.a,.j,.l{fill:none;}.b{fill:#f3f3f3;}.c{fill:#86c684;}.d{fill:#a6e1a5;}.e{fill:#63c460;}.f{fill:#f6a397;}.g{fill:#d65863;}.h{fill:#45a142;}.i,.k{fill:#00806e;}.j{stroke:#314ec6;}.j,.k,.l{stroke-miterlimit:10;}.k,.l{stroke:#00806e;}.m{fill:#372d5b;}.n{fill:#ba6454;}.o{fill:#874438;}.p{fill:#405160;}.q{fill:#fff;}.r{fill:#3f1751;}.s{fill:#019ba1;}.t{fill:#3b4855;}.u{fill:#282142;}.v{fill:#8696a3;}.w{fill:#677582;}.x{fill:#8e5058;}.y{fill:#64364a;}.z{clip-path:url(#a);}.aa{fill:#ffc5c7;}.ab{fill:#dcedff;}.ac{fill:#fe8a8b;}.ad{fill:#0c0835;}.ae{fill:#252384;}.af{fill:#57aff7;}.ag{fill:#c31f2a;}.ah{fill:#fb8384;}.ai{fill:#f5c65d;}.aj{fill:#fcfcfc;}.ak{fill:#d1c8d9;font-size:20px;font-family:BebasKai, Bebas Kai;}</style><clipPath id="a"><path class="a" d="M256.1,154.858a73.382,73.382,0,1,1-146.765,0c0-40.528,32.854-87.633,73.382-87.633S256.1,114.33,256.1,154.858Z" transform="translate(-109.338 -67.225)"/></clipPath></defs><g transform="translate(-69.17 -46.193)"><g transform="translate(69.17 46.193)"><path class="b" d="M684.569,376.466c-26.567,40.3-72.116,63.986-120.383,63.986H163.568c-80.525,0-125.679-94.148-73.456-147.163s6.1-98.293,86.645-140.8c78.037-41.186,104.679,46.6,176.569-10.838s176.553-52.024,199.548,6.5,17.576,79.124,66.348,92.128,96.463,86.706,67.2,133.311Q685.508,375.044,684.569,376.466Z" transform="translate(-67.726 -44.03)"/><g transform="translate(48.699 208.481)"><g transform="translate(374.179 113.279)"><path class="c" d="M657.93,387.279c-42.2,3.58-70.653,82.689-176.157,35.139,0,0,11.585-34.535,63.481-56.061S657.93,387.279,657.93,387.279Z" transform="translate(-481.773 -360.267)"/><path class="d" d="M495.879,415.988a293.983,293.983,0,0,1,34.107-14.958c2.9-1.115,5.846-2.118,8.8-3.1,2.939-1.019,5.918-1.92,8.891-2.84,2.964-.955,5.98-1.731,8.985-2.545,1.5-.4,3-.826,4.513-1.2l4.544-1.091,4.555-1.045,4.587-.9,4.588-.9c1.53-.293,3.074-.521,4.615-.755,3.085-.454,6.159-.972,9.266-1.271,3.1-.322,6.189-.769,9.313-.885a155.96,155.96,0,0,1,37.251,1.376,251.773,251.773,0,0,0-36.929,1.938l-2.29.26-2.28.35-4.563.666c-3.048.391-6.065,1-9.089,1.548-1.508.3-3.03.508-4.536.821l-4.516.938-4.515.939-4.487,1.075-4.5,1.029c-1.5.357-2.981.763-4.472,1.143l-4.469,1.155c-1.492.378-2.962.841-4.452,1.232-2.97.815-5.946,1.611-8.89,2.527-2.948.9-5.916,1.737-8.853,2.68C519.272,407.842,507.594,411.883,495.879,415.988Z" transform="translate(-481.472 -359.761)"/></g><g transform="translate(354.853 5.356)"><path class="e" d="M663.5,254.908C612,291.717,635.825,415.073,463.978,434.5c0,0-11.472-53.214,38.78-120.478S663.5,254.908,663.5,254.908Z" transform="translate(-462.85 -254.597)"/><path class="d" d="M475.148,419.247a288.8,288.8,0,0,1,27.154-46.3,326.082,326.082,0,0,1,34.686-41.2A285.777,285.777,0,0,1,578.3,297.109c14.833-10.14,30.834-18.865,47.9-24.3a298.922,298.922,0,0,0-44.458,29.007,429.742,429.742,0,0,0-39.465,35.2,528.537,528.537,0,0,0-35.353,39.442C495.792,390.219,485.329,404.541,475.148,419.247Z" transform="translate(-462.588 -254.209)"/></g><g transform="translate(0 107.782)"><path class="c" d="M115.408,376.4c41.848,6.543,64.655,87.459,173.245,47.456,0,0-9.124-35.264-59.375-60.391S115.408,376.4,115.408,376.4Z" transform="translate(-115.408 -354.885)"/><path class="d" d="M274.329,416.489c-11.4-4.921-22.76-9.774-34.254-14.265-2.864-1.147-5.764-2.194-8.642-3.3-2.871-1.12-5.784-2.124-8.689-3.147-1.458-.494-2.891-1.059-4.353-1.541l-4.378-1.468c-1.461-.483-2.914-.993-4.38-1.454l-4.414-1.343-4.4-1.388-4.438-1.255-4.439-1.253c-1.48-.419-2.983-.737-4.467-1.139-2.978-.758-5.945-1.58-8.957-2.185l-4.505-.986-2.25-.51-2.265-.421a251.828,251.828,0,0,0-36.7-4.535,156,156,0,0,1,37.255,1.251c3.107.336,6.154,1,9.227,1.539,3.079.516,6.109,1.249,9.154,1.919,1.521.343,3.046.679,4.551,1.079l4.512,1.221,4.512,1.225,4.47,1.361,4.456,1.408c1.48.484,2.944,1.014,4.417,1.519,2.94,1.024,5.894,2.011,8.782,3.172,2.9,1.128,5.808,2.236,8.669,3.459,2.876,1.183,5.742,2.391,8.56,3.708A293.813,293.813,0,0,1,274.329,416.489Z" transform="translate(-115.037 -354.441)"/></g><g transform="translate(27.819)"><path class="e" d="M142.646,249.353c46.37,38.355,15.52,153.745,177.189,183.669,0,0,14.442-49.7-28.711-116.85S142.646,249.353,142.646,249.353Z" transform="translate(-142.646 -249.353)"/><path class="d" d="M309.28,417.749c-8.738-14.595-17.734-28.853-27.39-42.627-9.693-13.742-19.939-27.046-30.9-39.729a414.529,414.529,0,0,0-35.023-36.038,288.778,288.778,0,0,0-40.128-30.594c15.855,6.231,30.481,15.551,43.891,26.144a269.421,269.421,0,0,1,36.908,35.6,307.16,307.16,0,0,1,30.117,41.435A270.446,270.446,0,0,1,309.28,417.749Z" transform="translate(-141.938 -248.939)"/></g></g><g transform="translate(306.677 127.38)"><g transform="translate(0 128.54)"><path class="f" d="M410.255,354.532c-5.805,6.893-11.066,18.322-14.331,20.135s-8.771,2.445-13.974,19.192,21.065,14.454,21.065,14.454,11.232-6.451,15.766-22.035l11.248-9.977Z" transform="translate(-367.716 -294.549)"/><path class="g" d="M389.761,406.079a42.1,42.1,0,0,0,15.712-10.385c7.239-7.646,8.173-21.248,8.173-21.248l3.466,6.478,6.935-7.412,3.343-.323,2.464,2.713-11.248,9.977c-4.535,15.584-15.766,22.035-15.766,22.035a41.755,41.755,0,0,1-13.367-1.2C389.631,406.323,389.761,406.079,389.761,406.079Z" transform="translate(-367.541 -294.151)"/><path class="h" d="M449.2,295.8c-8.046,5.882-12.846,10.15-16.847,18.151s-29.072,36.747-30.673,39.311,14.09,29.768,26.648,36.435c0,0,18.96-21.87,29.894-30.138s7.2-37.606,2.135-47.474A77.08,77.08,0,0,0,449.2,295.8Z" transform="translate(-367.283 -295.802)"/><path class="i" d="M448.559,347.975v-16.33s2.128-.853,3.789,4.659a15.131,15.131,0,0,1,.316,6.519l12.207-9.181c.506,10.278-1.144,20.731-7,25.154-10.934,8.269-29.894,30.138-29.894,30.138-3.24-1.72-6.687-4.811-9.993-8.489C425.708,372.759,440.355,357.921,448.559,347.975Z" transform="translate(-366.933 -295.039)"/><path class="f" d="M371.629,400.874c-2.089.652-3.63,1.649-3.63,4.279s.453,6.8,1.45,8.436,6.15,2.611,6.15,2.611-.345-10.865-1.433-12.861A5.08,5.08,0,0,0,371.629,400.874Z" transform="translate(-367.999 -293.561)"/><path class="g" d="M369.434,413.364a7.34,7.34,0,0,1-.71-1.9,3.518,3.518,0,0,0,2.863,1.252l3.912,1.219c.059,1.223.086,2.04.086,2.04S370.432,415,369.434,413.364Z" transform="translate(-367.984 -293.335)"/><path class="f" d="M376.549,396.983c-2.539.272-5.079,2.176-5.079,4.807s-.907,9.977,0,11.156,5.352,4.536,6.894,4.807,4.16-.182,3.8-1S376.549,396.983,376.549,396.983Z" transform="translate(-367.934 -293.644)"/><path class="g" d="M371.085,410.68c1.925,2.173,6.849,1.978,6.849,1.978a19.64,19.64,0,0,1,2.431,3.054c.161.448,1.048,1.039,1.169,1.5a6.946,6.946,0,0,1-3.17.254c-1.512-.267-5.805-3.493-6.828-4.73l-.451-2.047Z" transform="translate(-367.933 -293.352)"/><path class="f" d="M385.954,392.734c-7.793.439-9.244,1.164-9.517,4.34s-.09,12.426.908,14.785,1.541,4.444,2.812,5.714a4.964,4.964,0,0,0,3.169,1.274s4.268-6.263,4.45-11.524S385.954,392.734,385.954,392.734Z" transform="translate(-367.821 -293.735)"/><path class="g" d="M381.454,413.451a47.293,47.293,0,0,0,1.383-11.662c.042-2.709,2.553,11.437,1.432,15.319-.559.963-.96,1.552-.96,1.552a4.964,4.964,0,0,1-3.169-1.274c-1.27-1.271-1.815-3.356-2.812-5.714a4.607,4.607,0,0,1-.185-.547C377.652,412.449,379.267,413.317,381.454,413.451Z" transform="translate(-367.804 -293.549)"/><path class="f" d="M402.88,408.736c-.491,4.335-6.168,5.9-6.8,8.073s-.182,4.173-1.27,4.716-5.624-1.995-5.443-4.9a5.647,5.647,0,0,1-3.81,2.9c-2.63.453-3.265-1.469-2.812-4.362a36.846,36.846,0,0,0,.272-7.884c-.09-3.446-.907-6.621.635-10.431s3.628-7.166,7.8-6.53,6.712,5.9,8.979,7.71S403.425,403.929,402.88,408.736Z" transform="translate(-367.687 -293.788)"/><path class="g" d="M389.224,416.453c.254-5.512.542-10.023.542-10.913s-.288-6.74,1.791-7.1c.317-.054,4.89,2.845,4.979,4.8s0,5.467-1.423,6.467S389.224,416.453,389.224,416.453Z" transform="translate(-367.546 -293.613)"/></g><g transform="translate(77.33 72.412)"><path class="h" d="M577.081,308.056c-8.268-10.491-11.113-11.558-19.647-16.536s-40.9-17.6-47.564-19.2-33.56,10.935-42.384,14.936-20.052,7.937-21.966,11.836c-6.4,13.052,6.28,31.549,6.347,70.31.035,20.3,4.661,65.955,4.661,65.955s101.617.189,103.04-1.945,4.978-75.035,6.756-89.971S577.081,308.056,577.081,308.056Z" transform="translate(-443.714 -240.178)"/><line class="j" x1="2.179" y1="15.069" transform="translate(0 64.278)"/><path class="i" d="M483.377,303.756c-3.927-1.467-13.228,1.085-14.929,1.676s1-6.676,2-7.576,2.6-3,5.667-2.049,5.646,4.46,6.09,5.615A16.429,16.429,0,0,0,483.377,303.756Z" transform="translate(-443.198 -239.679)"/><path class="i" d="M515.675,309.779c-1.4-.066-9.569-3.823-11.525-4.756s-10.816-1.37-16.765.293c0,0,11.453-7.739,18.121-7.672s9.2,2.467,9.734,4.6A44.2,44.2,0,0,1,515.675,309.779Z" transform="translate(-442.783 -239.635)"/><path class="i" d="M472.666,417.969c1.091-1.067,67.454,1.066,68.787-5.868s2.251-19.546,2.251-19.546c-7.989,4.267-19.587,2.49-19.587,2.49,7.735-2.526,18.937-15.217,19.47-18.951,1.643-11.5-4.5-43.216-4.5-43.216l4.5-9.058,5.268-2.934a73.128,73.128,0,0,1,18.531,14.126,71.9,71.9,0,0,0-1.32,7.388c-1.676,14.082-4.933,79.677-6.492,88.924-20.555.758-57.815,2.122-82.748,2.978-12.08.029-20.556.013-20.556.013s-.156-6.005-.519-14.616C462.707,419.292,471.989,418.63,472.666,417.969Z" transform="translate(-443.458 -239.139)"/><path class="h" d="M485.9,306.244c7.161-.864,18.67-7.069,23.2-4.934s5.6,7.6,6.534,8.534,4.934-3.734,4.934-15.2.352-23.213-8.092-24.808-30.314,6.671-34.715,10.006A20.775,20.775,0,0,0,470.3,289.8c-1.2,3.246-4.4,16.315-2.933,16.449s5.6-8.4,8.668-8.668S483.963,306.477,485.9,306.244Z" transform="translate(-443.218 -240.232)"/><path class="i" d="M481.6,295.788c-1.825-4.335-3.826-8.135-3.76-11.136s.734-5.068,4.068-6,4.734.867,4.934,5.4S481.6,295.788,481.6,295.788Z" transform="translate(-442.987 -240.045)"/><path class="i" d="M507.115,287.877c6.972-6.323,7.76-13.391,7.105-14.857s-3.534-2.534-3.534-2.534-1.134,4.6-.467,5.734S507.115,287.877,507.115,287.877Z" transform="translate(-442.362 -240.214)"/><path class="k" d="M496.251,302.746c4.261-1.614,11.392-3.421,13.686-1a18.821,18.821,0,0,1,3.97,5.486c1.11,2.173,1.522,4.2,4.1-1.18s1.943-16.051,1.943-16.051" transform="translate(-442.594 -239.798)"/><path class="l" d="M480.458,300.206s-3.468-3.952-4.865-3.116a14.051,14.051,0,0,0-5.268,5.442c-2.189,3.529-4.806,5.261-2.552-3.626" transform="translate(-443.22 -239.649)"/><path class="f" d="M480.561,270.539c.015,2.818.128,5.628.421,8.43.718,6.877.014,15.946.558,17.62.607,1.867,4.208,8.534,4.208,8.534s6.4-2.933,9.067-6.134,6.135-3.362,10.8-8.082,7.841-12.216,6.8-18.456c-.134-.8-.953-8.787-1.134-17.055s-8.868-14.55-17.137-14.55-13.217,12.269-13.476,20.537C480.565,264.776,480.547,267.961,480.561,270.539Z" transform="translate(-442.928 -240.846)"/><path class="g" d="M511.285,255.349c.181,8.268,1,16.255,1.134,17.055a16.953,16.953,0,0,1-.165,6.028c-1.829.338-25.377.906-31.477-1.934-.14-2-.2-4-.215-6.005-.014-2.578,0-5.763.11-9.156a31.175,31.175,0,0,1,2.757-11.43l19.37-6.865C507.553,245.578,511.168,250.05,511.285,255.349Z" transform="translate(-442.928 -240.799)"/></g><g transform="translate(74.654)"><path class="i" d="M466.718,221.383c-12.511,0-17.193,9.611-17.193,16.813,0,6.464,2.072,16.813,17.193,16.813,7.561,0,12.679-7.528,12.679-16.813S474.279,221.383,466.718,221.383Z" transform="translate(-440.914 -168.849)"/><path class="m" d="M466.089,225.414c-9.448,0-12.983,7.258-12.983,12.7,0,4.881,1.565,12.7,12.983,12.7,5.709,0,9.574-5.685,9.574-12.7S471.8,225.414,466.089,225.414Z" transform="translate(-440.838 -168.763)"/><path class="f" d="M450.915,227.747c.738,4.384,2.909,6.059,3.878,11.969s-1.616,14.5,2.239,21.977,10.089,17.314,13.69,17.729,32.445-4.457,42.176-23.809c2.793-5.555,8.764-27.339,3.655-40.641s-13.42-25.489-32.626-25.859S447,204.514,450.915,227.747Z" transform="translate(-440.896 -169.537)"/><path class="g" d="M466.675,250.466a3.383,3.383,0,0,0,2.659-1.04,2.72,2.72,0,0,0,.5-2.091,6.187,6.187,0,0,1-5.191,1.128C464.412,249.842,465.475,250.439,466.675,250.466Z" transform="translate(-440.592 -168.295)"/><path class="n" d="M501.154,228.156a12.881,12.881,0,0,0-3.779-7.192s-7.341-3.047-13.02-3.6a74.789,74.789,0,0,1-11.5-2.215s1.8,4.559,4.847,6.5c0,0-13.573-.687-17.867-4.7,0,0,.83,3.31,1.662,5.533,0,0-6.649-.685-8.726-3.317,0,0-1.662,5.8-1.662,8.993,0,0-7.988-10.931-5.956-19.612s4.8-12,4.8-12a44.105,44.105,0,0,1-8.865,0s7.387-6.464,12.928-10.712,22.161-4.433,22.161-4.433-1.292-4.433.185-11.45c0,0,7.11,10.435,14.636,13.62s6.512,2.915,14.493,4.929,15.564,7.122,18.751,11.415,6.648,8.725,8.725,9.419c0,0-4.986-.693-7.479-2.771,0,0,4.158,9.443-1.338,21.6s-19.262,8.558-21.932,5.875A5.225,5.225,0,0,1,501.154,228.156Z" transform="translate(-441.094 -169.946)"/><path class="o" d="M501.074,233.7a5.225,5.225,0,0,1-1.068-5.875,13.015,13.015,0,0,0-2.681-6,81.018,81.018,0,0,0-2.364-36.436,41.81,41.81,0,0,0,6.306,1.992,68.282,68.282,0,0,1,8.338,18.095c2.417,8.045,3.586,16.734,1.332,24.825a27.045,27.045,0,0,1-2.486,5.993C505.033,236.012,502.151,234.782,501.074,233.7Z" transform="translate(-439.945 -169.617)"/><path class="i" d="M504.94,223.358s.95-30.379-14.979-40.075a20.774,20.774,0,0,1,19.392,10.943c7.063,12.326,6.586,22.9,6.408,28.826S504.94,223.358,504.94,223.358Z" transform="translate(-440.052 -169.663)"/><path class="h" d="M509.648,221.383c12.511,0,17.192,9.611,17.192,16.813,0,6.464-2.071,16.813-17.192,16.813-7.561,0-12.68-7.528-12.68-16.813S502.087,221.383,509.648,221.383Z" transform="translate(-439.902 -168.849)"/><path class="p" d="M502.779,238.157c0-8.243,5.441-14.926,12.153-14.926s11.784,6.683,11.784,14.926-5.072,14.926-11.784,14.926S502.779,246.4,502.779,238.157Z" transform="translate(-439.778 -168.81)"/><ellipse class="i" cx="8.271" cy="10.157" rx="8.271" ry="10.157" transform="translate(68.487 59.19)"/><g transform="translate(22.668 86.16)"><path class="g" d="M478.654,254.307c-3.381,1.861-14.424,2.482-15.175,2.379s.79,8.282,3.495,8.591,8.114-.414,10.369-2.585S478.654,254.307,478.654,254.307Z" transform="translate(-463.289 -254.307)"/><path class="q" d="M477.93,256.741c-.208-.744-.371-1.341-.528-1.922-3.72,1.27-11.042,1.807-13.3,1.861a15.579,15.579,0,0,0,.964,3.371c.072-.047-.017.107.054.061A16.457,16.457,0,0,0,477.93,256.741Z" transform="translate(-463.272 -254.296)"/></g><path class="r" d="M476.874,234.739c0-1.53.755-2.771,1.685-2.771s1.686,1.241,1.686,2.771-.755,2.77-1.686,2.77S476.874,236.269,476.874,234.739Z" transform="translate(-440.331 -168.623)"/><path class="r" d="M457.994,236c0-1.53.649-2.77,1.449-2.77s1.448,1.24,1.448,2.77-.648,2.771-1.448,2.771S457.994,237.534,457.994,236Z" transform="translate(-440.734 -168.596)"/><path class="r" d="M486.425,224.15a17.663,17.663,0,0,0-7.612-2.029,9.806,9.806,0,0,0-4.047.4,7.438,7.438,0,0,0-3.343,2.338l.1.165c1.39-.15,2.539-.491,3.753-.652,1.186-.179,2.337-.612,3.577-.712a21.46,21.46,0,0,1,7.495.669Z" transform="translate(-440.447 -168.834)"/><path class="r" d="M453.224,227.663a7.553,7.553,0,0,1,1.863-.451,15.5,15.5,0,0,1,1.876-.124,8.245,8.245,0,0,0,1.859.066,5.479,5.479,0,0,0,.944-.262,3.851,3.851,0,0,0,1.007-.5l.02-.191a3.624,3.624,0,0,0-1.977-.965,4.682,4.682,0,0,0-2.064.332,9.689,9.689,0,0,0-1.96.731,6.385,6.385,0,0,0-1.686,1.214Z" transform="translate(-440.838 -168.768)"/></g><g transform="translate(52.599 136.847)"><path class="p" d="M473.439,422.739c.007.429-.592,1.049-2.06,1.049H425.128c-5.334,0-6.578-2.11-4.979-4.777s8.357-8.534,25.072-12.625,25.5,5.472,28.219,9.78C475.432,419.325,473.439,422.739,473.439,422.739Z" transform="translate(-419.499 -301.772)"/><path class="m" d="M419.755,419.723c.92,3.06,36.212,1.465,36.212,1.465s-3.579-4.834-7.534-4.972-5.881,1.237-11.187,2.15-1.372-2.16-1.372-2.16-3.747-.829-5.274-2.012c0,0,8.742-2.584,12.409-3.183s13-.2,14.2,0c.849.141,5.156-2.36,10.362-1.1a23.285,23.285,0,0,1,5.864,6.172c1.993,3.158,0,6.572,0,6.572.007.429-.592,1.049-2.06,1.049H425.127C420.341,423.7,418.855,422,419.755,419.723Z" transform="translate(-419.499 -301.683)"/><path class="f" d="M570.528,394.554s-32.892,5.086-50.719,8.276c-16.889,3.022-31.472,4.335-35.607,3.535s-18.27-6-22.8-7.868-13.6-2.934-18.27-1.467-8.49,3.067-10.357,3.067-1.512,3.022.978,3.645a18.66,18.66,0,0,0,4.711.533s-8.445,4.623-9.957,5.068.28,3.2,2.325,3.022c0,0-1.791,1.067-1.168,2.134s5.067,1.067,5.067,1.067-5.423,2.667-.889,3.734,9.957-4,12.179-4.445,7.379-.179,9.869,1.688,13.158,10.491,27.737,5.334c0,0,98.963,4.011,108.831,4.011s15.829-8.722,12.665-25.525a127.583,127.583,0,0,0-9.3-29.339l-34.139,2.4Z" transform="translate(-419.319 -302.505)"/><g transform="translate(12.844 98.748)"><path class="g" d="M445.87,400.973a13.469,13.469,0,0,1,2-.352S447.026,400.767,445.87,400.973Z" transform="translate(-431.781 -400.621)"/><path class="g" d="M438.373,403.637a18.66,18.66,0,0,1-4.711-.533,2.971,2.971,0,0,1-1.586-.976c2.769,1.224,6.177.442,8.043,0,1.178-.281,4.07-.808,6.046-1.159A46.261,46.261,0,0,0,438.373,403.637Z" transform="translate(-432.075 -400.614)"/></g><g transform="translate(9.202 105.563)"><path class="g" d="M438.667,407.5a5.181,5.181,0,0,1,.512-.208Z" transform="translate(-428.292 -407.294)"/><path class="g" d="M428.509,410.546c.032.029,1.008.889,3.063-.005,1.712-.745,5.865-2.45,7.312-3.043-1.82.826-6.755,3.612-8.067,4.089A2.855,2.855,0,0,1,428.509,410.546Z" transform="translate(-428.509 -407.29)"/></g><path class="g" d="M433.577,413.768c1.511-.444,4.667-2.355,6.6-3.269a13.3,13.3,0,0,1,4.4-1.02,9.394,9.394,0,0,0-2.668,1.02c-1.933.953-7.236,4.248-7.236,4.248a16.306,16.306,0,0,1-4.306-.551A12.643,12.643,0,0,0,433.577,413.768Z" transform="translate(-419.267 -301.684)"/><path class="g" d="M461.361,415.925c2.8,1.733,11.068,4,16,3.067a7.516,7.516,0,0,0,6-5.067l1.379,4.445s68.633,1.956,82.591,1.328c13.8-.62,35.318-.934,38.129-9.221-.771,9.619-5.982,14.57-13.414,14.57-9.868,0-108.831-4.011-108.831-4.011-14.579,5.157-25.248-3.467-27.737-5.334-2.07-1.551-5.978-2-8.516-1.847h0C450.752,412.529,458.56,414.192,461.361,415.925Z" transform="translate(-418.914 -301.663)"/><path class="g" d="M567.608,394.272s12.86-1.747,15.437-2.014l-1.956-8-16.27,3.29Z" transform="translate(-416.4 -302.222)"/><path class="h" d="M602.582,373.588a3.338,3.338,0,0,1-.783,3.6c-5.977,5.835-13.822,13.784-21.891,15.006-8.8,1.333-23.471,1.867-24.271,0s-3.734-25.6-9.068-37.606-8.8-18.137-10.135-25.072,10.668-23.2,16-24.537,17.6-2.134,22.67,2.4,8.8,21.87,14.669,34.939C594.51,352.864,600.46,368.1,602.582,373.588Z" transform="translate(-417.007 -303.935)"/><path class="l" d="M569.527,304.744s-8.878-1.813-17.134.232-14.065,16.27-14.065,16.27" transform="translate(-416.965 -303.934)"/><path class="i" d="M595.033,378.3c-.045-4.261-9.043-43.329-16.992-65.1h0c3.38,7.44,6.537,19.328,10.844,28.921,4.735,10.546,10.685,25.78,12.806,31.27a3.336,3.336,0,0,1-.783,3.6c-2.29,2.236-4.854,4.779-7.6,7.137C593.516,383.925,595.074,382.283,595.033,378.3Z" transform="translate(-416.118 -303.738)"/></g></g><g transform="translate(109.132 268.647)"><g transform="translate(0 20.666)"><path class="i" d="M174.625,333.964a6.287,6.287,0,0,0,.751,3.8,27.294,27.294,0,0,1,3.355,13.926c-.1,3.182-.755,6.437.112,9.5,1.494,5.285,7.073,8.554,8.868,13.744,1.591,4.6.111,10.39,3.418,13.964a3.092,3.092,0,0,0,3.214,1.115,3.919,3.919,0,0,0,1.384-1.15c3.792-4.307,7.852-9.541,6.683-15.16-1.1-5.277-6.539-8.844-7.569-14.135-.842-4.323,1.369-9.311-1.109-12.953-.683-1.005-1.662-1.773-2.408-2.732-2.947-3.783-1.855-9.812-5.249-13.2a7.828,7.828,0,0,0-4-2.053,6.217,6.217,0,0,0-7.449,5.33Z" transform="translate(-174.579 -328.496)"/><g transform="translate(6.75 7.059)"><path class="s" d="M196.036,400.875c.228-2.815.325-5.632.43-8.456-.129-2.814-.279-5.63-.52-8.443s-.558-5.626-1.055-8.423a35.864,35.864,0,0,0-2.342-8.231c-2.043-5.164-3.693-10.563-5.362-15.913l-2.419-8.066q-1.491-3.953-2.9-7.935c.411,2.8,1.051,5.545,1.613,8.312L185.9,351.8c1.679,5.377,3.314,10.744,5.406,16.037a34.44,34.44,0,0,1,2.26,7.948c.486,2.737.8,5.516,1.039,8.3s.4,5.585.506,8.386Z" transform="translate(-181.174 -335.408)"/><path class="s" d="M181.188,343.692a6.607,6.607,0,0,0,1.7,1.7,9.944,9.944,0,0,0,1.076.546,4.094,4.094,0,0,1,.978.677l.129.116.114-.176c.268-.41.594-.792.852-1.207s.51-.834.729-1.27a9.9,9.9,0,0,0,.911-2.81l-.08-.04a9.944,9.944,0,0,0-1.687,2.425c-.212.438-.385.9-.57,1.348s-.282.947-.447,1.409l.242-.059a4.109,4.109,0,0,1-.936-.734,9.743,9.743,0,0,0-.839-.865,6.615,6.615,0,0,0-2.124-1.129Z" transform="translate(-181.188 -335.284)"/><path class="s" d="M181.858,353.119c.483.4.981.829,1.5,1.189a12.47,12.47,0,0,0,1.625,1.012c.579.278,1.194.5,1.751.813a10.8,10.8,0,0,1,1.57,1.106l.176.143.178-.233a28.1,28.1,0,0,0,2.056-3.181,20.13,20.13,0,0,0,1.484-3.5l-.078-.044a20.056,20.056,0,0,0-2.237,3.079,28.34,28.34,0,0,0-1.665,3.4l.353-.09a11.507,11.507,0,0,1-1.686-.922c-.53-.358-1-.81-1.515-1.2a11.119,11.119,0,0,0-1.656-.977,7.41,7.41,0,0,0-1.842-.679Z" transform="translate(-181.174 -335.088)"/><path class="s" d="M185.206,365.514a8.136,8.136,0,0,0,1.731,1.283,6.57,6.57,0,0,0,1.967.782,5.1,5.1,0,0,1,1.9.913c.564.429,1.117.9,1.682,1.273l.427.28.318-.476a13.477,13.477,0,0,0,1.223-2.2,11.725,11.725,0,0,0,.789-2.441l-.1-.054a11.726,11.726,0,0,0-1.639,1.973,13.441,13.441,0,0,0-1.205,2.212l.745-.2a12.756,12.756,0,0,0-2.011-.8,5.8,5.8,0,0,1-1.857-1.035,6.029,6.029,0,0,0-1.831-1.088,7.445,7.445,0,0,0-2.1-.528Z" transform="translate(-181.102 -334.78)"/></g></g><g transform="translate(17.738)"><path class="i" d="M200.3,402c2.2-.363,10.449-3,9.873-5.155-2.473-9.245-4.945-19.733,3.618-24.255,4.121-2.175,9.293-3.282,11.639-7.308,2.416-4.147.637-9.418-1.531-13.7s-4.78-8.865-3.85-13.574c.972-4.931,5.636-8.569,6.381-13.54,1.018-6.787-5.571-12.255-11.9-14.9-2.154-.9-4.52-1.672-6.79-1.123a8.339,8.339,0,0,0-4.137,2.673c-4.448,4.972-4.266,12.475-3.251,19.068s2.568,13.556.085,19.747c-1.765,4.4-5.541,8.534-4.529,13.164.4,1.854,1.562,3.471,2,5.317,1.189,4.977-2.946,9.46-4.84,14.212a17.442,17.442,0,0,0,3.868,18.278A3.866,3.866,0,0,0,200.3,402Z" transform="translate(-191.946 -308.262)"/><g transform="translate(7.556 10.717)"><path class="s" d="M199.362,401.883c.51-3.659,1.019-7.307,1.672-10.926.154-.906.344-1.806.49-2.711s.219-1.82.369-2.724q.411-2.718.923-5.413a71.028,71.028,0,0,1,2.761-10.552,21.874,21.874,0,0,1,2.307-4.772,6.549,6.549,0,0,1,1.668-1.766,8.738,8.738,0,0,0,2.225-2.069,9.146,9.146,0,0,0,1.606-5.742,28.123,28.123,0,0,0-.824-5.632c-.848-3.631-1.915-7.138-2.508-10.71a24.565,24.565,0,0,1,.219-10.6c.289-.831.516-1.678.789-2.525a17.673,17.673,0,0,1,1.052-2.465,24.679,24.679,0,0,1,3.08-4.52,20.833,20.833,0,0,0-3.931,3.986,18.965,18.965,0,0,0-1.545,2.406,9.882,9.882,0,0,0-1.064,2.675,26.219,26.219,0,0,0-.255,11.322c.618,3.705,1.7,7.266,2.528,10.808a26.541,26.541,0,0,1,.781,5.284,7.467,7.467,0,0,1-1.277,4.714,7.068,7.068,0,0,1-1.8,1.67,8.168,8.168,0,0,0-2.121,2.211,23.52,23.52,0,0,0-2.5,5.148,72.764,72.764,0,0,0-2.832,10.811q-.525,2.733-.936,5.481c-.126.917-.3,1.828-.408,2.747-.094.921-.135,1.849-.193,2.773C199.432,394.492,199.294,398.188,199.362,401.883Z" transform="translate(-199.345 -318.755)"/><path class="s" d="M213.844,329.493a5.655,5.655,0,0,0-1.657.983,5.992,5.992,0,0,0-1.3,1.362,8.79,8.79,0,0,1-1.1,1.534,13.664,13.664,0,0,1-1.441,1.22l.653.041c-.22-.474-.491-.917-.74-1.372a13.868,13.868,0,0,0-.817-1.315c-.286-.429-.613-.832-.922-1.244s-.666-.792-.95-1.228l-.11.018a4.324,4.324,0,0,0,.327,1.616,10.788,10.788,0,0,0,.669,1.448,9.9,9.9,0,0,0,.863,1.32,14.775,14.775,0,0,0,1,1.228l.409.429.244-.388a11.064,11.064,0,0,1,1.072-1.541,7.478,7.478,0,0,1,1.454-1.188,7.2,7.2,0,0,0,1.322-1.3,11.527,11.527,0,0,0,1.1-1.538Z" transform="translate(-199.214 -318.526)"/><path class="s" d="M205.838,343.222a9.03,9.03,0,0,0,.986,1.741,12.54,12.54,0,0,0,1.26,1.514c.476.452,1.021.84,1.532,1.257a9.179,9.179,0,0,1,1.342,1.43l.128.167.181-.144a15.115,15.115,0,0,0,1.719-1.578c.5-.568,1.027-1.106,1.49-1.7s.9-1.2,1.315-1.823.793-1.278,1.228-1.887l-.063-.092a7.823,7.823,0,0,0-1.863,1.389,17.347,17.347,0,0,0-1.548,1.663c-.481.579-.891,1.215-1.339,1.817s-.8,1.323-1.22,1.839l.307.023a8.079,8.079,0,0,1-1.355-1.408c-.383-.535-.726-1.1-1.129-1.617a17.019,17.019,0,0,0-1.349-1.406,14.639,14.639,0,0,0-1.533-1.258Z" transform="translate(-199.206 -318.257)"/><path class="s" d="M220.56,353.821c-.694.816-1.415,1.567-2.151,2.284s-1.532,1.348-2.3,2.041a7.506,7.506,0,0,1-2.689,1.562,9.9,9.9,0,0,1-3.09.344l.459.323a20.684,20.684,0,0,0-.732-2.5,13.917,13.917,0,0,0-1.063-2.384,11.656,11.656,0,0,0-1.524-2.154,5.692,5.692,0,0,0-2.142-1.544l-.056.1a8.351,8.351,0,0,1,1.545,1.942,23.972,23.972,0,0,1,1.155,2.187L209,358.29c.338.761.636,1.553.932,2.325l.143.372.317-.049a17.828,17.828,0,0,0,3.139-.9,31.979,31.979,0,0,0,3.013-1.237,7.884,7.884,0,0,0,2.533-2.08,8.1,8.1,0,0,0,1.585-2.852Z" transform="translate(-199.218 -318.05)"/><path class="s" d="M200.773,361.876a6.27,6.27,0,0,0-.43,2.567,8.4,8.4,0,0,0,.481,2.576,9.211,9.211,0,0,0,1.321,2.248l1.539,2.046.109.146.178-.127a22.611,22.611,0,0,1,2.684-1.512c.9-.485,1.836-.9,2.772-1.3s1.867-.811,2.826-1.171c.952-.39,1.931-.7,2.925-1.075l-.016-.111a14.734,14.734,0,0,0-6.215,1.263,19.373,19.373,0,0,0-2.789,1.553,18.8,18.8,0,0,0-2.454,2.041l.287.019a7.115,7.115,0,0,1-1.421-2.028,17.47,17.47,0,0,1-.8-2.314,18.264,18.264,0,0,1-.882-4.8Z" transform="translate(-199.323 -317.835)"/></g></g><g transform="translate(2.982 78.161)"><path class="p" d="M185.65,424.228H209.2c2.186,0,4.044-1.889,4.373-4.447l3.728-28.966c.408-3.169-1.665-6.024-4.373-6.024h-31c-2.709,0-4.781,2.855-4.373,6.024l3.728,28.966C181.607,422.338,183.465,424.228,185.65,424.228Z" transform="translate(-177.499 -384.791)"/><path class="t" d="M181.923,384.791h15.849c-2.708,0-4.78,2.855-4.372,6.024l3.728,28.966c.329,2.557,2.187,4.447,4.372,4.447H185.65c-2.186,0-4.043-1.889-4.372-4.447l-3.728-28.966C177.143,387.646,179.215,384.791,181.923,384.791Z" transform="translate(-177.499 -384.791)"/></g></g><g transform="translate(149.546 210.898)"><g transform="translate(81.373 167.384)"><path class="u" d="M394.105,415.616H295.618a1.8,1.8,0,0,0-1.8,1.8v4.363a1.8,1.8,0,0,0,1.8,1.8h98.487Z" transform="translate(-293.823 -415.607)"/><path class="v" d="M417.39,421.1v1.774a.694.694,0,0,1-.694.693H391.887a1.4,1.4,0,0,1-1.4-1.4v-5.168a1.4,1.4,0,0,1,1.554-1.389l24.73,4.8A.7.7,0,0,1,417.39,421.1Z" transform="translate(-291.761 -415.607)"/></g><path class="t" d="M223.689,251.719h184.07a8.832,8.832,0,0,1,8.31,5.84l40.256,111.793c1.683,5.766-2.535,10.086-9.314,10.816-1.04.112-5.984-2.11-13.748-5.762H268.7a8.832,8.832,0,0,1-8.31-5.84L224.028,267.578c-6.148-3.21-9.654-5.043-9.654-5.043S212.1,251.719,223.689,251.719Z" transform="translate(-214.148 -251.719)"/><path class="p" d="M402,257.361H217.928a3.775,3.775,0,0,0-3.552,5.053l40.257,111.794a8.832,8.832,0,0,0,8.31,5.839h184.07a3.774,3.774,0,0,0,3.551-5.052L410.306,263.2A8.83,8.83,0,0,0,402,257.361Z" transform="translate(-214.149 -251.599)"/><path class="u" d="M358.2,378.118l-8.171-30.3-30.968,30.3Z" transform="translate(-211.912 -249.669)"/><path class="w" d="M313.509,295.948c.809,5,4.043,7.012,7.916,7.012a5.969,5.969,0,0,0,6.109-7.012,8.432,8.432,0,0,0-7.917-7.012A5.993,5.993,0,0,0,313.509,295.948Z" transform="translate(-212.032 -250.925)"/><g transform="translate(166.82 103.273)"><path class="u" d="M398.256,359.408l-2.367-6.573h2.975l2.367,6.573Z" transform="translate(-377.093 -352.835)"/><path class="u" d="M392.122,359.408l-2.367-6.573h2.975l2.367,6.573Z" transform="translate(-377.224 -352.835)"/><path class="u" d="M385.987,359.408l-2.367-6.573H386.6l2.367,6.573Z" transform="translate(-377.355 -352.835)"/><path class="u" d="M379.853,359.408l-2.367-6.573h2.975l2.367,6.573Z" transform="translate(-377.486 -352.835)"/></g><g transform="translate(59.031 103.273)"><path class="u" d="M292.718,359.408l-2.367-6.573h2.975l2.367,6.573Z" transform="translate(-271.555 -352.835)"/><path class="u" d="M286.583,359.408l-2.367-6.573h2.975l2.367,6.573Z" transform="translate(-271.686 -352.835)"/><path class="u" d="M280.449,359.408l-2.367-6.573h2.975l2.367,6.573Z" transform="translate(-271.816 -352.835)"/><path class="u" d="M274.314,359.408l-2.367-6.573h2.975l2.367,6.573Z" transform="translate(-271.947 -352.835)"/></g><g transform="translate(78.054 87.74)"><path class="v" d="M296.553,414.419c1.816-5.223,23.843-76.3,23.843-76.3H348.67l1.868,9.9s-18.958,61.177-20.775,66.4c-.138.4-.27.8-.393,1.2h0c-1.662,5.107,2.721,5.084,7.658,5.084h49.864v4.521H303.819C293.828,425.223,294.736,419.642,296.553,414.419Z" transform="translate(-290.47 -337.617)"/><path class="p" d="M348.773,338.121s-22.027,71.075-23.843,76.3-2.725,10.8,7.266,10.8H298.986c-9.992,0-9.084-5.581-7.267-10.8s23.843-76.3,23.843-76.3Z" transform="translate(-290.573 -337.617)"/><path class="v" d="M341.55,338.132c-2.191-.1-4.38-.151-6.571-.222s-4.382-.092-6.572-.141-4.38-.1-6.571-.1l-6.572-.041-.366,0-.114.356c-.916,2.862-1.819,5.729-2.679,8.608l-2.621,8.627c-1.686,5.77-3.374,11.539-4.916,17.354,2.023-5.665,3.9-11.377,5.78-17.086l2.727-8.593c.922-2.861,1.8-5.735,2.669-8.613l-.48.353,6.572-.04c2.191,0,4.38-.064,6.571-.1s4.382-.065,6.572-.141S339.36,338.233,341.55,338.132Z" transform="translate(-290.275 -337.627)"/></g></g><g transform="translate(77.528 386.244)"><path class="x" d="M152.359,440.853H639.883a8.725,8.725,0,0,0,8.725-8.724h0a8.725,8.725,0,0,0-8.725-8.725H152.359a8.725,8.725,0,0,0-8.724,8.725h0A8.724,8.724,0,0,0,152.359,440.853Z" transform="translate(-143.635 -423.404)"/><path class="y" d="M152.359,440.671H639.883a8.725,8.725,0,0,0,8.725-8.724H143.635A8.724,8.724,0,0,0,152.359,440.671Z" transform="translate(-143.635 -423.222)"/></g><g transform="translate(27.705 21.925)"><circle class="h" cx="73.383" cy="73.383" r="73.383" transform="translate(0 142.903) rotate(-76.825)"/><g transform="translate(14.794 0.544)"><g class="z"><g transform="translate(-20.428 6.732)"><g transform="translate(105.244 33.596)"><path class="aa" d="M283.19,210.408c1.393,7-5.088,13.226-7.118,14.393s-15.652,6.613-23.834,6.807-18.981-17.114-14.561-19.059,34.527-4.084,37.833-4.084S283.19,210.408,283.19,210.408Z" transform="translate(-191.44 -104.541)"/><path class="q" d="M262.3,207.286c-3.571,21-12.053,37.341-14.7,37.633s-28.073-8.461-35.084-11.67,2.153-52.505,6.515-51.637,13.928,10.339,21.825,14.88S262.3,207.286,262.3,207.286Z" transform="translate(-192.009 -105.114)"/><path class="ab" d="M220.283,215.3c2.451,4.2,22.657,14.858,33.786,18.743-2.75,6.2-5.342,10.018-6.6,10.158-2.267.249-21.231-6.13-31.037-9.984C217.249,226.411,220.283,215.3,220.283,215.3Z" transform="translate(-191.871 -104.395)"/><path class="aa" d="M283.975,211.281c.2,8.333-7.307,9.529-16.291,7.39s-23.656-22.366-30.186-31.507-18.716-25.429-21.235-26.887-8.3-2.233-13.243-10.451,1.56-25.431,3.9-27.473,22.359,4.776,24.684,8.223-1.647,21.971-.942,24.3,17.746,21.394,25.185,26.061S283.83,205.252,283.975,211.281Z" transform="translate(-192.195 -106.385)"/><path class="ac" d="M216.884,135.927c-2.355-1.166-2.924-6.466-1.442-5.533s4.073.914,7.578.865a29.663,29.663,0,0,0,4.943-.35,30.334,30.334,0,0,1,.341,4.177S219.239,137.094,216.884,135.927Z" transform="translate(-191.909 -106.208)"/><path class="ac" d="M201.579,137.086c1.428-2.654,2.53-4.667,2.53-4.667l13.775,13.258a86.847,86.847,0,0,1,8.374-6.246l1.212,2.162c-2.229,3.77-4.17,11.744-4.214,13.689,0,0-2.115,2.334-3.3,2.528,0,0,14.736,23.338,24.209,34.813,9.417,11.407,15.866,21.273,20.306,24.444-8.957-5.164-21.174-22-26.976-30.125-6.53-9.141-18.716-25.429-21.235-26.887s-8.3-2.233-13.243-10.451C201.058,146.343,200.912,141.669,201.579,137.086Z" transform="translate(-192.195 -106.163)"/><path class="ad" d="M230.4,138.967c-.166,1.359-13.854,13.224-15.286,14.586a2.048,2.048,0,0,1-1.472,0c-3.64-3.2-19.534-32.062-19.819-33.1-.265-.971,10.288-10.9,13.509-13.556a2.846,2.846,0,0,1,2.544.3C213.132,112,230.621,137.209,230.4,138.967Z" transform="translate(-192.353 -106.711)"/><path class="ae" d="M228.965,138.964c-.166,1.359-13.854,13.224-15.287,14.586s-20.983-31.977-21.29-33.1c-.266-.971,11.483-10.738,14.705-13.395a.9.9,0,0,1,1.347.135C211.692,112,229.18,137.207,228.965,138.964Z" transform="translate(-192.384 -106.709)"/><path class="af" d="M226.66,137.011c-.156,1.272-12.961,12.372-14.3,13.646s-19.63-29.916-19.918-30.969c-.247-.909,10.742-10.047,13.756-12.532a.847.847,0,0,1,1.261.126C210.5,111.787,226.862,135.367,226.66,137.011Z" transform="translate(-192.383 -106.706)"/><path class="aa" d="M218.012,120.666c-2.119-1.278-4.722-5.605-4.955-7.064s-.09-2.772,1.049-3.064,4.648,4.279,6.4,5.641,3.877,4.181,3.01,6.078-4.752,1.166-5.169.874S218.012,120.666,218.012,120.666Z" transform="translate(-191.945 -106.63)"/><path class="ac" d="M213.45,110.914c-.672,1.659,3.707,8.314,7.547,10.23l-1.428,1.631s-.648-.143-1.48-.34a11.7,11.7,0,0,1-.077-1.777c-2.119-1.278-4.722-5.605-4.955-7.063A3.255,3.255,0,0,1,213.45,110.914Z" transform="translate(-191.945 -106.621)"/><path class="aa" d="M222.948,127.185c-3.647-1.949-6.508-1.73-8.491-2.532s-2.344-3.866-.995-4.376,9.569.8,11.688,1.751,3.131,5.316,3.131,5.316Z" transform="translate(-191.951 -106.424)"/><path class="ac" d="M221.348,124.86c2.062.389,2.772,0,2.772,0-.059.806.7,1.208,1.559,2.354l-2.734-.081c-3.646-1.949-6.507-1.73-8.49-2.532a2.956,2.956,0,0,1-1.675-2.053C213.662,124.228,219.3,124.473,221.348,124.86Z" transform="translate(-191.949 -106.373)"/><path class="aa" d="M231.307,130.468c-1.946,2.692-11.488,1.526-13.411,1.234s-3.131-1.506-2.935-2.731c.4-2.472,13.006-2.033,14.047-1.644S231.307,130.468,231.307,130.468Z" transform="translate(-191.903 -106.278)"/><path class="ac" d="M215.028,129.512c1.3,1.3,4.438,2.034,7.858,2.31a32.24,32.24,0,0,0,5.058.091,39.355,39.355,0,0,1-10.05-.265A3.173,3.173,0,0,1,215.028,129.512Z" transform="translate(-191.901 -106.225)"/></g><g transform="translate(36.892 70.112)"><path class="q" d="M188.559,167.479c20.254,10.308,23.577,9.909,32.277,14.585s6.112,53.874,5.559,61.459-2.648,37.73-1.492,45.9,5.657,38.507,7.652,43.176,5.8,12.544-.086,17.211-18.329,7.876-45.352,6.126-56.153-18.379-57.442-20.713S142.593,290,143.187,281.836a109.671,109.671,0,0,1,3.067-18.087c.859-3.793-7.738-21.588-9.111-32.965s-13.734-42.763-11.39-48.512,23.873-12.155,38.534-19.465S188.559,167.479,188.559,167.479Z" transform="translate(-125.458 -142.081)"/><path class="ab" d="M207.953,179.823a56.463,56.463,0,0,1-19.158,27.883c-10.969-2.691-22.122-7.524-31.1-14.37A130.418,130.418,0,0,0,190.4,211.194,48.01,48.01,0,0,0,207.953,179.823Z" transform="translate(-124.771 -141.667)"/><path class="aa" d="M204.042,175.02c-3.89-1.66-8.889-3.949-15.946-7.541,0,0-9.612-11.984-24.272-4.673-5.087,2.536-11,4.964-16.653,7.293a73.232,73.232,0,0,0,39.218,32.007A51.741,51.741,0,0,0,204.042,175.02Z" transform="translate(-124.995 -142.081)"/><path class="ab" d="M129.589,334.052c-1.289-2.334,12.918-45.217,13.512-53.386a109.671,109.671,0,0,1,3.067-18.087c.859-3.793-7.738-21.588-9.111-32.965a60.975,60.975,0,0,0-1.581-7.513l9.133-6.8c5.356,14.939,8.7,41.194,13.773,47.612s17.72,9.044,17.72,9.044-12.49,2.917-17.936,1.75c0,0-5.814,23.046-5.88,34.424s.99,28.589,1.124,30.924c.05.871-.142,3.909-.4,7.372C139.92,341.243,130.317,335.369,129.589,334.052Z" transform="translate(-125.372 -140.911)"/><path class="aa" d="M165.805,142.464c-.209,12.174-1.012,20.537-3.71,22.871,0,0,4.639,20.2,23.161,18.476,6.266-.583,5.668-11.085,2.522-15.948l1.865-14.931Z" transform="translate(-124.677 -142.464)"/><path class="ac" d="M163.476,163.19h0c1.585-3.734,2.134-11.011,2.3-20.726l23.837,10.468-1.2,9.575h0C184.192,164.4,163.476,163.19,163.476,163.19Z" transform="translate(-124.647 -142.464)"/></g><g transform="translate(0 110.095)"><path class="aa" d="M101.624,238.864c-4.106,5.64-9.6,19.643-7.537,26.061s23.319,35.007,33.043,45.7,11.93,12.447,13.62,15.948,9.974,17.941,12.149,20.129,6.091,2.48,6.091,2.48a10.363,10.363,0,0,0,8.537,2.625s4.885,3.355,8.759,4.23c0,0,1.279,2.477,2.576,2.7s2.947-2.406.557-7.657-6.314-7.438-6.945-10.793-3.667-10.2-3.667-10.2,6.817,6.99,11.016,7.427,4.762-2.042,2.458-4.084a53.322,53.322,0,0,1-8.066-9.043c-2.777-3.939-6.232-6.564-11.577-7.293s-9.094-1.313-10.478-2.334-8.372-10.939-13.147-21.637-9.052-24.366-21.188-36.368l5.347-9.335Z" transform="translate(-89.245 -180.391)"/><path class="ac" d="M174.6,353.254a22.461,22.461,0,0,0-5.029-7.726l-.829-.816c-.245-.254-.677-.575-.772-.725-.419-.533-.78-1.235-1.183-1.869-.77-1.31-1.519-2.648-2.37-3.936a32.576,32.576,0,0,0,1.562,4.388,13.149,13.149,0,0,0,1.085,2.117,8.778,8.778,0,0,0,.855.872l.781.806c1.05,1.076,2.045,2.209,3.048,3.337S173.671,352.023,174.6,353.254Z" transform="translate(-87.736 -178.273)"/><path class="ac" d="M165.868,348.647c-.8-1.571-1.758-2.932-2.608-4.364-.891-1.413-1.681-2.828-2.492-4.388a9.055,9.055,0,0,0,1.483,5.049A11.543,11.543,0,0,0,165.868,348.647Z" transform="translate(-87.814 -178.236)"/><path class="ac" d="M161.894,349.324a9.567,9.567,0,0,1-4.04-2.239s-3.917-.292-6.091-2.48a56.749,56.749,0,0,1-4.863-7.246c.044.053,2.488,2.709,4.246,4.9a5.93,5.93,0,0,0,6.027,2.066l-.476-2.844S159.059,347.937,161.894,349.324Z" transform="translate(-88.109 -178.291)"/><path class="ac" d="M94,257.4c.115,2.661.147,4.778,4.1,11.762,4.444,7.861,31.149,40.988,36.975,47.114s5.653,6.515,9.1,16.194c-1.557-2.735-2.856-5.122-3.418-6.287-1.69-3.5-3.9-5.252-13.62-15.948s-30.981-39.285-33.043-45.7A15.969,15.969,0,0,1,94,257.4Z" transform="translate(-89.245 -179.996)"/><path class="ac" d="M114.529,249.915l-2.169,3.616a12.379,12.379,0,0,1,5.066,3l4.233-7.184Z" transform="translate(-88.846 -180.168)"/><path class="q" d="M140.614,231.584c5.577-10.965,7.811-28.771,2.776-38.143S128.854,180.7,126.524,181.82s-8.644,15.744-14.57,22.492-22.111,25.678-22.6,27.271,11.7,14.453,34.623,23.9C126.7,256.606,140.614,231.584,140.614,231.584Z" transform="translate(-89.337 -181.612)"/><path class="ab" d="M123.112,239.366l-3.657,7.5s18.016-18.061,25.5-31.539a54.211,54.211,0,0,1-4.833,15.537s-13.91,25.023-16.64,23.9c-3.923-1.617-7.506-3.335-10.79-5.077Z" transform="translate(-88.839 -180.893)"/></g><g transform="translate(54.033)"><path class="m" d="M191.443,145.02c-1.239-5.02-1.212-10.152-1.512-15.283-.224-3.838-.419-7.349-3.9-9.645a12.889,12.889,0,0,0-8.731-1.626c-8.048,1.021-9.779,8.863-9.163,16.289.472,5.684,2.693,11.142,4.9,16.37-2.96-.131-7-1.682-8.769-4.146a17.562,17.562,0,0,0,4.648,8.513c-8.578-.148-16.538-5.76-21.082-13.3s-5.982-16.741-5.5-25.612C142.9,106.054,146.187,95.5,152.7,87.4c13.1-16.3,38.33-18.2,53.7-4.194a38.612,38.612,0,0,1,11.03,18.275,60.783,60.783,0,0,1,.5,28.391,97.724,97.724,0,0,0-1.568,11.053c-.118,1.2-1.57,15.093-.73,15.042-5.418.329-11.643-.765-15.314-4.906,1.645,2.844,3.066,5.585,4.711,8.429C198.188,158.347,193.16,151.973,191.443,145.02Z" transform="translate(-142.242 -73.816)"/><path class="aa" d="M163.068,125.676c-2.421-1.43-5.33-2.207-7.575.07-3.307,3.354,1.392,18.962,8.523,15.169,0,0,10.327,14.441,17.906,18.525s12.979,2.043,15.817-.875S210.256,143.682,212,131c.621-4.522-.045-13.419.093-15.316.426-5.834,2.636-10.625-1.966-15.2a26.645,26.645,0,0,0-17.643-7.656,28.492,28.492,0,0,0-21.975,9.613C164.466,109.278,163.419,117,163.068,125.676Z" transform="translate(-141.982 -73.411)"/><path class="ac" d="M156.618,129.29c.617-2.86,3.056-3.422,4.87-1.429,1.86,2.042,2.172,8.51,1.694,9.463s-3.673.885-4.278-1.089,1.255-3.212,3.051-2.628c0,0,.5-2.881-.965-4.737s-3-1.146-3.372-.669A14.719,14.719,0,0,1,156.618,129.29Z" transform="translate(-141.935 -72.689)"/><g transform="translate(34.423 38.235)"><path class="r" d="M175.946,116.938a24.994,24.994,0,0,1,2.192-1.807,15.281,15.281,0,0,1,2.474-1.468,8.12,8.12,0,0,1,2.742-.923,5.741,5.741,0,0,1,2.785.369l-.012.131a13.657,13.657,0,0,1-1.348.433l-1.285.355c-.836.246-1.7.322-2.551.6a18.659,18.659,0,0,0-2.493,1.051c-.826.4-1.624.881-2.429,1.358Z" transform="translate(-175.946 -111.222)"/><path class="r" d="M207.755,113.695a9.4,9.4,0,0,0-2.469-.9,13.4,13.4,0,0,0-2.608-.31c-.883-.018-1.761.162-2.633.156a25.624,25.624,0,0,1-2.728-.067l-.028-.126a6.729,6.729,0,0,1,2.717-1.108,8.163,8.163,0,0,1,2.838.1,11.191,11.191,0,0,1,2.683.728,8.452,8.452,0,0,1,2.308,1.412Z" transform="translate(-175.491 -111.253)"/><path class="r" d="M184.483,121.915c-.033-1.234-.654-2.175-1.388-2.1s-1.3,1.132-1.271,2.365.654,2.175,1.388,2.1S184.514,123.149,184.483,121.915Z" transform="translate(-175.821 -111.071)"/><path class="r" d="M203.55,120.39c-.033-1.235-.545-2.187-1.146-2.127s-1.06,1.107-1.027,2.341.544,2.186,1.145,2.127S203.582,121.624,203.55,120.39Z" transform="translate(-175.404 -111.104)"/><path class="ac" d="M190.4,133.615a5.51,5.51,0,0,0,6.018-.061,2.78,2.78,0,0,1-1.559,2.214,3.715,3.715,0,0,1-2.8-.151C191.213,135.227,190.938,134.372,190.4,133.615Z" transform="translate(-175.638 -110.778)"/><g transform="translate(8.002 28.938)"><path class="ag" d="M183.781,140.726a168.286,168.286,0,0,0,17.042-1.139c-1.257,4.123-4.556,8.194-9.162,8.2C187.514,147.786,184.775,144.378,183.781,140.726Z" transform="translate(-183.781 -139.587)"/><path class="ah" d="M187.436,146.313a7.3,7.3,0,0,1,3.927-.038,6.3,6.3,0,0,1,5.279-.516,7.981,7.981,0,0,1-5.06,1.9A6.989,6.989,0,0,1,187.436,146.313Z" transform="translate(-183.703 -139.463)"/><path class="q" d="M198.027,143.032a19.884,19.884,0,0,1-12.495-.484c-.027-.609-.073-1.221-.119-1.834,4.022-.086,10.533-.573,14.018-.962A11.642,11.642,0,0,1,198.027,143.032Z" transform="translate(-183.746 -139.584)"/></g></g><path class="m" d="M167.076,112.494a56.773,56.773,0,0,0,19.354-4.3c1.167-2.7,1.207-5.094,1.382-8.031a23.316,23.316,0,0,1,2.83,9.964c3.865-.25,7.749-.459,11.614-.709a24.08,24.08,0,0,0,1.042-9.461,40.954,40.954,0,0,1,2.408,10.168c2.333-.829,5.289.381,7.726.817,3.02-6.728,2.823-18.918-3.566-24.021-6.223-4.97-17.032-6.323-24.635-5.222-16.178,2.342-28.891,15.774-27.887,32.508.572,9.547,5.361,18.575,12.228,25.231A38.713,38.713,0,0,1,167.076,112.494Z" transform="translate(-141.921 -73.656)"/></g></g></g></g></g><g transform="translate(210.047 62.942)"><circle class="ai" cx="42.674" cy="42.674" r="42.674" transform="matrix(0.252, -0.968, 0.968, 0.252, 0, 82.603)"/><g transform="translate(27.484 35.33)"><path class="aj" d="M3.426,0H45.678A3.426,3.426,0,0,1,49.1,3.426V29.985a3.426,3.426,0,0,1-3.426,3.426H3.426A3.426,3.426,0,0,1,0,29.985V3.426A3.426,3.426,0,0,1,3.426,0Z" transform="translate(49.104 33.411) rotate(180)"/><path class="b" d="M303.8,174.554H345.9a3.5,3.5,0,0,0,3.5-3.5l-24.552-15.439L300.3,171.055A3.5,3.5,0,0,0,303.8,174.554Z" transform="translate(-300.297 -141.144)"/><path class="h" d="M303.8,141.446H345.9a3.5,3.5,0,0,1,3.5,3.5l-24.552,15.438L300.3,144.946A3.5,3.5,0,0,1,303.8,141.446Z" transform="translate(-300.297 -141.446)"/></g></g><g transform="translate(513.421 125.182)"><path class="ai" d="M42.674,0A42.674,42.674,0,1,1,0,42.674,42.674,42.674,0,0,1,42.674,0Z" transform="matrix(0.974, -0.226, 0.226, 0.974, 0, 19.264)"/><g transform="translate(23.583 25.98)"><path class="b" d="M633.107,210.109h-4.291a15.268,15.268,0,0,0-1.952-4.7l3.036-3.036a1.059,1.059,0,0,0,0-1.5l-3.374-3.374a1.059,1.059,0,0,0-1.5,0l-3.036,3.036a15.269,15.269,0,0,0-4.7-1.952v-4.291a1.061,1.061,0,0,0-1.061-1.06h-4.772a1.06,1.06,0,0,0-1.06,1.06v4.291a15.257,15.257,0,0,0-4.7,1.952l-3.036-3.036a1.06,1.06,0,0,0-1.5,0l-3.375,3.374a1.061,1.061,0,0,0,0,1.5l3.036,3.036a15.269,15.269,0,0,0-1.952,4.7h-4.29a1.061,1.061,0,0,0-1.061,1.061v4.772a1.06,1.06,0,0,0,1.061,1.06h4.29a15.259,15.259,0,0,0,1.952,4.7l-3.036,3.037a1.061,1.061,0,0,0,0,1.5l3.375,3.374a1.062,1.062,0,0,0,1.5,0l3.036-3.036a15.257,15.257,0,0,0,4.7,1.952v4.29a1.061,1.061,0,0,0,1.06,1.061h4.772a1.061,1.061,0,0,0,1.061-1.061v-4.29a15.269,15.269,0,0,0,4.7-1.952l3.036,3.036a1.061,1.061,0,0,0,1.5,0l3.374-3.374a1.059,1.059,0,0,0,0-1.5l-3.036-3.037a15.257,15.257,0,0,0,1.952-4.7h4.291a1.06,1.06,0,0,0,1.06-1.06v-4.772A1.061,1.061,0,0,0,633.107,210.109Zm-19.265,10.031a6.585,6.585,0,1,1,6.584-6.585A6.585,6.585,0,0,1,613.841,220.141Z" transform="translate(-593.516 -193.231)"/><path class="h" d="M613.608,204.158a9.165,9.165,0,1,0,9.165,9.165A9.166,9.166,0,0,0,613.608,204.158Zm0,14.762a5.6,5.6,0,1,1,5.6-5.6A5.6,5.6,0,0,1,613.608,218.92Z" transform="translate(-593.283 -192.998)"/><g transform="translate(37.691 27.052)"><path class="b" d="M650.644,228.34h-2.191a7.83,7.83,0,0,0-1-2.4l1.551-1.551a.542.542,0,0,0,0-.766l-1.724-1.724a.542.542,0,0,0-.766,0l-1.551,1.551a7.785,7.785,0,0,0-2.4-1v-2.192a.541.541,0,0,0-.541-.541h-2.438a.541.541,0,0,0-.541.541v2.192a7.8,7.8,0,0,0-2.4,1l-1.55-1.551a.542.542,0,0,0-.766,0L632.6,223.62a.542.542,0,0,0,0,.766l1.551,1.551a7.8,7.8,0,0,0-1,2.4h-2.192a.542.542,0,0,0-.541.542v2.438a.541.541,0,0,0,.541.541h2.192a7.784,7.784,0,0,0,1,2.4l-1.551,1.551a.542.542,0,0,0,0,.766l1.724,1.724a.542.542,0,0,0,.766,0l1.55-1.551a7.8,7.8,0,0,0,2.4,1v2.192a.542.542,0,0,0,.541.542h2.438a.542.542,0,0,0,.541-.542v-2.192a7.785,7.785,0,0,0,2.4-1l1.551,1.551a.542.542,0,0,0,.766,0l1.724-1.724a.542.542,0,0,0,0-.766l-1.551-1.551a7.809,7.809,0,0,0,1-2.4h2.191a.542.542,0,0,0,.542-.541v-2.438A.543.543,0,0,0,650.644,228.34Zm-9.841,5.124a3.363,3.363,0,1,1,3.364-3.363A3.363,3.363,0,0,1,640.8,233.464Z" transform="translate(-630.42 -219.718)"/><path class="h" d="M640.684,225.3a4.682,4.682,0,1,0,4.683,4.682A4.681,4.681,0,0,0,640.684,225.3Zm0,7.541a2.859,2.859,0,1,1,2.86-2.86A2.859,2.859,0,0,1,640.684,232.841Z" transform="translate(-630.301 -219.599)"/></g></g></g><g transform="translate(316.594)"><circle class="ai" cx="42.674" cy="42.674" r="42.674" transform="matrix(0.928, -0.373, 0.373, 0.928, 0, 31.844)"/><g transform="translate(30.962 33.584)"><path class="q" d="M3.3,0H45.8a3.3,3.3,0,0,1,3.3,3.3v35.38a3.3,3.3,0,0,1-3.3,3.3H3.3a3.3,3.3,0,0,1-3.3-3.3V3.3A3.3,3.3,0,0,1,3.3,0Z" transform="translate(49.104 43.861) rotate(180)"/><path class="h" d="M408.025,88.729h49.1V83.316a3.374,3.374,0,0,0-3.373-3.373H411.4a3.374,3.374,0,0,0-3.373,3.373Z" transform="translate(-408.025 -78.069)"/><g transform="translate(7.887)"><g transform="translate(28.492)"><path class="q" d="M444.64,81.855h0a1,1,0,0,0,1-1V79.1a1,1,0,0,0-1-1h0a1,1,0,0,0-1,1v1.756A1,1,0,0,0,444.64,81.855Z" transform="translate(-443.644 -78.108)"/><path class="q" d="M447.427,81.855h0a1,1,0,0,0,1-1V79.1a1,1,0,0,0-1-1h0a1,1,0,0,0-1,1v1.756A1,1,0,0,0,447.427,81.855Z" transform="translate(-443.585 -78.108)"/></g><path class="q" d="M416.743,81.855h0a1,1,0,0,0,1-1V79.1a1,1,0,0,0-1-1h0a1,1,0,0,0-1,1v1.756A1,1,0,0,0,416.743,81.855Z" transform="translate(-415.747 -78.108)"/><path class="q" d="M419.53,81.855h0a1,1,0,0,0,1-1V79.1a1,1,0,0,0-1-1h0a1,1,0,0,0-1,1v1.756A1,1,0,0,0,419.53,81.855Z" transform="translate(-415.688 -78.108)"/></g><g transform="translate(6.597 15.885)"><g transform="translate(20.244)"><rect class="b" width="4.254" height="4.254" rx="0.793"/></g><g transform="translate(10.122)"><rect class="b" width="4.254" height="4.254" rx="0.793"/></g><rect class="b" width="4.254" height="4.254" rx="0.793"/><g transform="translate(30.366 8.716)"><rect class="b" width="4.254" height="4.254" rx="0.793"/></g><g transform="translate(20.244 8.716)"><rect class="b" width="4.254" height="4.254" rx="0.793"/></g><g transform="translate(10.122 8.716)"><rect class="b" width="4.254" height="4.254" rx="0.793"/></g><g transform="translate(0 8.716)"><rect class="b" width="4.254" height="4.254" rx="0.793"/></g><g transform="translate(30.366 17.432)"><rect class="b" width="4.254" height="4.254" rx="0.793"/></g><g transform="translate(20.244 17.432)"><rect class="b" width="4.254" height="4.254" rx="0.793"/></g><g transform="translate(10.122 17.432)"><rect class="b" width="4.254" height="4.254" rx="0.793"/></g></g></g></g><g transform="translate(433.921 17.095)"><circle class="ai" cx="42.674" cy="42.674" r="42.674" transform="translate(0 60.35) rotate(-45)"/><g transform="translate(19.014 19.014)"><circle class="q" cx="29.229" cy="29.229" r="29.229" transform="translate(0 41.335) rotate(-45)"/><path class="h" d="M552.285,92.435a29.229,29.229,0,1,0,29.228,29.228A29.228,29.228,0,0,0,552.285,92.435Zm2.45,54.131v-3.991a1.344,1.344,0,0,0-1.343-1.344h-2.214a1.344,1.344,0,0,0-1.344,1.344v3.991a25.029,25.029,0,0,1-22.452-22.452h3.991a1.344,1.344,0,0,0,1.344-1.344v-2.213a1.344,1.344,0,0,0-1.344-1.344h-3.991a25.029,25.029,0,0,1,22.452-22.452v3.991a1.344,1.344,0,0,0,1.344,1.344h2.214a1.344,1.344,0,0,0,1.343-1.344V96.761a25.028,25.028,0,0,1,22.452,22.452H573.2a1.344,1.344,0,0,0-1.344,1.344v2.213a1.344,1.344,0,0,0,1.344,1.344h3.991A25.028,25.028,0,0,1,554.735,146.566Z" transform="translate(-510.95 -80.328)"/><text class="ak" transform="translate(42.684 47.897)"><tspan x="-14.93" y="0">24/7</tspan></text></g></g></g></g></svg>