<svg xmlns="http://www.w3.org/2000/svg" width="614" height="457.563" viewBox="0 0 614 457.563"><defs><style>.a{fill:#ebebeb;}.b{fill:#f0f0f0;}.c{fill:#e0e0e0;}.d{fill:#f5f5f5;}.e,.f{fill:#45a142;}.f,.h,.i,.j{fill-rule:evenodd;}.ad,.g{fill:#fff;}.g{opacity:0.39;}.am,.g{isolation:isolate;}.h,.k{fill:#00806e;}.an,.i,.n{opacity:0.3;}.j,.l,.o{opacity:0.5;}.m,.p{opacity:0.7;}.q{fill:#407bff;}.r{fill:#3c3c3b;}.s{fill:#575756;}.t{fill:#878787;}.u{fill:#634e42;}.v{fill:#405160;}.w{fill:#ffcf9f;}.x{fill:#f5c08c;}.y{fill:#263238;}.z{fill:#374551;}.aa{fill:#deab7d;}.ab{fill:#8696a3;}.ac{fill:#f2bc88;}.ae{fill:#327530;}.af{fill:#c5c5c5;}.ag{fill:#9d9d9c;}.ah{fill:#b2b2b2;}.ai{fill:#ffc994;}.aj{fill:#f2bb88;}.ak{fill:#dba97b;}.al{opacity:0.2;}.am{fill:#dadada;mix-blend-mode:screen;}.ao{fill:#936037;}.ap{fill:#23272b;}.aq{fill:#c4986e;}</style></defs><g transform="translate(-140 -377)"><g transform="translate(140 377)"><rect class="a" width="614" height="0.307" transform="translate(0 402.103)"/><rect class="a" width="40.674" height="0.307" transform="translate(511.805 421.869)"/><rect class="a" width="10.675" height="0.307" transform="translate(396.063 425.201)"/><rect class="a" width="23.568" height="0.307" transform="translate(487.007 410.466)"/><rect class="a" width="53.041" height="0.307" transform="translate(64.42 412.529)"/><rect class="a" width="7.777" height="0.307" transform="translate(128.394 412.529)"/><rect class="a" width="115.034" height="0.307" transform="translate(161.447 417.714)"/><path class="a" d="M282.342,402.289H45.216a7.018,7.018,0,0,1-7.009-7.009V61.961a7.017,7.017,0,0,1,7.009-7.008H282.342a7.017,7.017,0,0,1,7.008,7.008V395.28A7.018,7.018,0,0,1,282.342,402.289ZM45.216,55.26a6.709,6.709,0,0,0-6.7,6.7V395.28a6.709,6.709,0,0,0,6.7,6.7H282.342a6.709,6.709,0,0,0,6.7-6.7V61.961a6.709,6.709,0,0,0-6.7-6.7Z" transform="translate(8.711 -54.953)"/><path class="a" d="M498.638,402.289H261.513a7.017,7.017,0,0,1-7.008-7.009V61.961a7.016,7.016,0,0,1,7.008-7.008H498.638a7.017,7.017,0,0,1,7.011,7.008V395.28A7.018,7.018,0,0,1,498.638,402.289ZM261.513,55.26a6.709,6.709,0,0,0-6.7,6.7V395.28a6.709,6.709,0,0,0,6.7,6.7H498.638a6.71,6.71,0,0,0,6.7-6.7V61.961a6.71,6.71,0,0,0-6.7-6.7Z" transform="translate(58.027 -54.953)"/><g transform="translate(102.878 13.34)"><g transform="translate(328.047)"><rect class="b" width="80.197" height="15.595"/><rect class="c" width="68.566" height="8" transform="translate(5.816 15.595)"/><rect class="b" width="54.318" height="357.083" transform="translate(12.94 23.595)"/><rect class="c" width="41.025" height="357.083" transform="translate(19.586 23.595)"/><rect class="b" width="16.736" height="357.083" transform="translate(31.731 23.595)"/><g transform="translate(0 380.678)"><rect class="b" width="80.197" height="15.595" transform="translate(80.197 23.595) rotate(180)"/><rect class="c" width="68.566" height="8.001" transform="translate(74.382 8.001) rotate(180)"/></g></g><rect class="b" width="80.197" height="15.595"/><rect class="c" width="68.566" height="8" transform="translate(5.816 15.595)"/><rect class="b" width="54.318" height="357.083" transform="translate(12.94 23.595)"/><rect class="c" width="41.025" height="357.083" transform="translate(19.586 23.595)"/><rect class="b" width="16.736" height="357.083" transform="translate(31.73 23.595)"/><g transform="translate(0 380.678)"><rect class="b" width="80.197" height="15.595" transform="translate(80.197 23.595) rotate(180)"/><rect class="c" width="68.566" height="8.001" transform="translate(74.382 8.001) rotate(180)"/></g></g><g transform="translate(68.904 429.753)"><ellipse class="d" cx="238.096" cy="13.905" rx="238.096" ry="13.905"/></g><g transform="translate(134.54 182.928)"><rect class="e" width="62.975" height="46.978" rx="3.841"/><path class="f" d="M249.676,219.987s17.535,12.619,39.19-4.37c0,0-19.657,28.035-45.758,14.6Z" transform="translate(-194.96 -201.25)"/><rect class="g" width="37.154" height="53.151" transform="translate(58.063 4.912) rotate(90)"/><g transform="translate(18.286 7.775)"><path class="h" d="M231.136,241.329a15.694,15.694,0,0,0-4.5-2.764,11.657,11.657,0,0,1-7.81-10.088,9.583,9.583,0,0,1,.944-5.174c.376-.763.884-1.424,1.309-2.15a4.362,4.362,0,0,0-.01-4.45c-.146-.244-.323-.469-.468-.712a1.714,1.714,0,0,1,.017-1.782,2.241,2.241,0,0,1,.36-.424l1.429-1.4a2.362,2.362,0,0,1,.5-.405,1.846,1.846,0,0,1,1.5-.136c.178.06.338.157.516.222a6.258,6.258,0,0,0,6.44-1.551.856.856,0,0,1,1.219-.023,6.2,6.2,0,0,0,6.468,1.574c.177-.068.338-.162.516-.222a1.846,1.846,0,0,1,1.5.136,2.362,2.362,0,0,1,.5.405l1.429,1.4a2.239,2.239,0,0,1,.36.424,1.714,1.714,0,0,1,.017,1.782c-.145.243-.322.468-.468.712a4.362,4.362,0,0,0-.01,4.45c.425.726.933,1.388,1.309,2.15a9.584,9.584,0,0,1,.944,5.174,11.657,11.657,0,0,1-7.81,10.088,15.946,15.946,0,0,0-4.464,2.729,1.227,1.227,0,0,1-1.746.036Z" transform="translate(-218.791 -210.248)"/><path class="i" d="M231.136,241.329a15.694,15.694,0,0,0-4.5-2.764,11.657,11.657,0,0,1-7.81-10.088,9.583,9.583,0,0,1,.944-5.174c.376-.763.884-1.424,1.309-2.15a4.362,4.362,0,0,0-.01-4.45c-.146-.244-.323-.469-.468-.712a1.714,1.714,0,0,1,.017-1.782,2.241,2.241,0,0,1,.36-.424l1.429-1.4a2.362,2.362,0,0,1,.5-.405,1.846,1.846,0,0,1,1.5-.136c.178.06.338.157.516.222a6.258,6.258,0,0,0,6.44-1.551.856.856,0,0,1,1.219-.023,6.2,6.2,0,0,0,6.468,1.574c.177-.068.338-.162.516-.222a1.846,1.846,0,0,1,1.5.136,2.362,2.362,0,0,1,.5.405l1.429,1.4a2.239,2.239,0,0,1,.36.424,1.714,1.714,0,0,1,.017,1.782c-.145.243-.322.468-.468.712a4.362,4.362,0,0,0-.01,4.45c.425.726.933,1.388,1.309,2.15a9.584,9.584,0,0,1,.944,5.174,11.657,11.657,0,0,1-7.81,10.088,15.946,15.946,0,0,0-4.464,2.729,1.227,1.227,0,0,1-1.746.036Z" transform="translate(-218.791 -210.248)"/><path class="i" d="M231.255,236.147a20.353,20.353,0,0,1,1.786-1.038c1-.521,2.058-.911,3.054-1.423a8.3,8.3,0,0,0,3.012-2.53,7.471,7.471,0,0,0,1.018-2.043,7.347,7.347,0,0,0,.273-3.5,7.941,7.941,0,0,0-1.2-2.64,9.687,9.687,0,0,1-1.507-3.682,8.135,8.135,0,0,1,.42-4.045,9.442,9.442,0,0,1-1.228.139,10.508,10.508,0,0,1-5.641-1.336,10.58,10.58,0,0,1-6.834,1.189,8.2,8.2,0,0,1,.287,4.722,10.267,10.267,0,0,1-1.341,2.892,7.814,7.814,0,0,0-1.3,3.285,7.579,7.579,0,0,0,2.983,6.7,11.248,11.248,0,0,0,2.187,1.206c.742.341,1.492.689,2.26,1.086.612.317,1.207.653,1.774,1.023Z" transform="translate(-218.054 -209.382)"/><path class="j" d="M233.99,236.578c-.291.152-.576.311-.856.478a3.15,3.15,0,0,1-3.22,0q-.414-.243-.845-.467c-.7-.361-1.449-.71-2.2-1.052a12.816,12.816,0,0,1-2.465-1.372,9.064,9.064,0,0,1-2.5-2.921c-.117-.217-.227-.447-.329-.688a9.023,9.023,0,0,1-.7-4.319,9.192,9.192,0,0,1,1.5-3.869,9.169,9.169,0,0,0,1.183-2.505,6.832,6.832,0,0,0-.118-3.567,6.507,6.507,0,0,0-.549-1.285l0,0-.262-.46.872-.852.421.133a8.738,8.738,0,0,0,5.311-.1,8.48,8.48,0,0,0,1.02-.414,3.069,3.069,0,0,1,2.624.033,8.813,8.813,0,0,0,4.208.85,9.822,9.822,0,0,0,2.482-.5q.435.424.868.85a9.548,9.548,0,0,0-.8,1.708,6.743,6.743,0,0,0-.237,3.052,8.274,8.274,0,0,0,1.319,3.168,9.014,9.014,0,0,1,1.382,3.12,8.723,8.723,0,0,1-.319,4.158,8.887,8.887,0,0,1-1.208,2.418,9.747,9.747,0,0,1-3.529,2.982c-1,.512-2.049.9-3.049,1.417Z" transform="translate(-218.323 -209.611)"/><path class="h" d="M230.525,219.531a5.3,5.3,0,1,1-5.3,5.3,5.3,5.3,0,0,1,5.3-5.3Z" transform="translate(-217.324 -208.132)"/><path class="j" d="M230.525,219.531a5.3,5.3,0,1,1-5.3,5.3,5.3,5.3,0,0,1,5.3-5.3Z" transform="translate(-217.324 -208.132)"/></g></g><g transform="translate(463.019 160.553)"><rect class="e" width="71.832" height="53.585" rx="4.381" transform="translate(28.517)"/><path class="f" d="M415.312,201.588s-12.045,17.935-38.261,9.549c0,0,28.187,19.437,47.978-2.247Z" transform="translate(-377.051 -182.073)"/><rect class="g" width="43.761" height="62.008" rx="0.381" transform="translate(95.437 4.912) rotate(90)"/><g transform="translate(41.342 7.644)"><g transform="translate(0 0)"><path class="k" d="M413.81,224.509h0a4.189,4.189,0,0,1-3.042-2.913l-.051-.18L429.336,202.8l3.093,3.092Z" transform="translate(-410.717 -189.441)"/><path class="l" d="M413.81,224.509h0a4.189,4.189,0,0,1-3.042-2.913l-.051-.18L429.336,202.8l3.093,3.092Z" transform="translate(-410.717 -189.441)"/><rect class="k" width="5.529" height="5.313" transform="translate(20.007 11.152) rotate(45.003)"/><rect class="m" width="5.529" height="5.313" transform="translate(20.007 11.152) rotate(45.003)"/><rect class="k" width="16.63" height="8.777" transform="translate(20.737 2.572) rotate(45.001)"/><rect class="n" width="16.63" height="8.777" transform="translate(20.737 2.572) rotate(45.001)"/><g transform="translate(11.958 0)"><rect class="k" width="5.058" height="10.856" rx="1" transform="translate(7.676 0) rotate(45)"/><rect class="k" width="5.058" height="10.856" rx="1" transform="translate(19.533 11.857) rotate(45)"/></g><g class="o" transform="translate(11.958 0)"><rect width="5.058" height="10.856" rx="1" transform="translate(7.676) rotate(45)"/><rect width="5.058" height="10.856" rx="1" transform="translate(19.533 11.857) rotate(45)"/></g><path class="k" d="M1.242,0H17.534a1.242,1.242,0,0,1,1.242,1.242V6.025a0,0,0,0,1,0,0H0a0,0,0,0,1,0,0V1.242A1.242,1.242,0,0,1,1.242,0Z" transform="translate(22.372 26.037)"/><path class="n" d="M1.242,0H17.534a1.242,1.242,0,0,1,1.242,1.242V6.025a0,0,0,0,1,0,0H0a0,0,0,0,1,0,0V1.242A1.242,1.242,0,0,1,1.242,0Z" transform="translate(22.372 26.037)"/><path class="k" d="M448.477,217.8H428.916a1.616,1.616,0,0,0-1.616,1.616h0a1.616,1.616,0,0,0,1.616,1.616h19.561a1.615,1.615,0,0,0,1.615-1.616h0A1.615,1.615,0,0,0,448.477,217.8Z" transform="translate(-406.936 -186.021)"/><path class="l" d="M448.477,217.8H428.916a1.616,1.616,0,0,0-1.616,1.616h0a1.616,1.616,0,0,0,1.616,1.616h19.561a1.615,1.615,0,0,0,1.615-1.616h0A1.615,1.615,0,0,0,448.477,217.8Z" transform="translate(-406.936 -186.021)"/></g></g></g><g transform="translate(95.837 41.386)"><rect class="e" width="97.069" height="72.411" rx="5.921"/><path class="f" d="M233.043,136.611s-2.016,21.508,23.592,31.6c0,0-34.126-2.778-35.737-32.09Z" transform="translate(-150.627 -77.833)"/><path class="g" d="M1.921,0H60.666a1.921,1.921,0,0,1,1.921,1.921v83.4a1.92,1.92,0,0,1-1.92,1.92H1.92A1.92,1.92,0,0,1,0,85.325V1.921A1.921,1.921,0,0,1,1.921,0Z" transform="translate(92.157 4.912) rotate(90)"/><g transform="translate(23.164 9.748)"><g transform="translate(0 13.071)"><path class="k" d="M197.295,119.283a7.473,7.473,0,0,1-13.948,0Z" transform="translate(-182.353 -104.491)"/><path class="l" d="M197.295,119.283a7.473,7.473,0,0,1-13.948,0Z" transform="translate(-182.353 -104.491)"/><g transform="translate(0.742 0.01)"><path class="k" d="M197.342,121.042a.254.254,0,0,1-.224-.135l-6.75-12.877-6.752,12.877a.252.252,0,1,1-.446-.233l6.974-13.3a.263.263,0,0,1,.447,0l6.974,13.3a.252.252,0,0,1-.106.34A.256.256,0,0,1,197.342,121.042Z" transform="translate(-183.141 -107.245)"/></g><g class="p" transform="translate(0.742 0.01)"><path d="M197.342,121.042a.254.254,0,0,1-.224-.135l-6.75-12.877-6.752,12.877a.252.252,0,1,1-.446-.233l6.974-13.3a.263.263,0,0,1,.447,0l6.974,13.3a.252.252,0,0,1-.106.34A.256.256,0,0,1,197.342,121.042Z" transform="translate(-183.141 -107.245)"/></g><g transform="translate(7.716)"><path class="q" d="M189.073,121.662a.251.251,0,0,1-.252-.252V107.489a.252.252,0,0,1,.5,0v13.922A.252.252,0,0,1,189.073,121.662Z" transform="translate(-188.821 -107.237)"/></g><g class="p" transform="translate(7.716)"><path d="M189.073,121.662a.251.251,0,0,1-.252-.252V107.489a.252.252,0,0,1,.5,0v13.922A.252.252,0,0,1,189.073,121.662Z" transform="translate(-188.821 -107.237)"/></g><rect class="k" width="15.937" height="1.238" transform="translate(0 13.554)"/><rect class="n" width="15.937" height="1.238" transform="translate(0 13.554)"/></g><g transform="translate(34.498 13.071)"><path class="k" d="M225.388,119.283a7.473,7.473,0,0,1-13.948,0Z" transform="translate(-210.446 -104.491)"/><path class="l" d="M225.388,119.283a7.473,7.473,0,0,1-13.948,0Z" transform="translate(-210.446 -104.491)"/><g transform="translate(0.742 0.01)"><path class="k" d="M225.435,121.042a.251.251,0,0,1-.222-.135l-6.752-12.877-6.752,12.877a.252.252,0,1,1-.446-.233l6.974-13.3a.262.262,0,0,1,.446,0l6.976,13.3a.251.251,0,0,1-.225.368Z" transform="translate(-211.234 -107.245)"/></g><g class="p" transform="translate(0.742 0.01)"><path d="M225.435,121.042a.251.251,0,0,1-.222-.135l-6.752-12.877-6.752,12.877a.252.252,0,1,1-.446-.233l6.974-13.3a.262.262,0,0,1,.446,0l6.976,13.3a.251.251,0,0,1-.225.368Z" transform="translate(-211.234 -107.245)"/></g><g transform="translate(7.717)"><path class="q" d="M217.166,121.662a.252.252,0,0,1-.252-.252V107.489a.252.252,0,0,1,.5,0v13.922A.251.251,0,0,1,217.166,121.662Z" transform="translate(-216.914 -107.237)"/></g><g class="p" transform="translate(7.717)"><path d="M217.166,121.662a.252.252,0,0,1-.252-.252V107.489a.252.252,0,0,1,.5,0v13.922A.251.251,0,0,1,217.166,121.662Z" transform="translate(-216.914 -107.237)"/></g><rect class="k" width="15.938" height="1.238" transform="translate(0 13.554)"/><rect class="n" width="15.938" height="1.238" transform="translate(0 13.554)"/></g><path class="k" d="M206.485,103.987v2.57c-2.6.052-5.552,1.476-7.9,2.77a9.29,9.29,0,0,1-5.01,1.115,13.868,13.868,0,0,1-5.8-2.353v-1.437a10.759,10.759,0,0,0,5.688,1.987c1.938.069,3.513-.89,5.118-1.883A17.15,17.15,0,0,1,206.485,103.987Z" transform="translate(-181.342 -94.907)"/><path class="n" d="M206.485,103.987v2.57c-2.6.052-5.552,1.476-7.9,2.77a9.29,9.29,0,0,1-5.01,1.115,13.868,13.868,0,0,1-5.8-2.353v-1.437a10.759,10.759,0,0,0,5.688,1.987c1.938.069,3.513-.89,5.118-1.883A17.15,17.15,0,0,1,206.485,103.987Z" transform="translate(-181.342 -94.907)"/><path class="k" d="M189.57,106.9a1.464,1.464,0,1,1-1.465-1.464A1.465,1.465,0,0,1,189.57,106.9Z" transform="translate(-181.602 -94.577)"/><path class="l" d="M189.57,106.9a1.464,1.464,0,1,1-1.465-1.464A1.465,1.465,0,0,1,189.57,106.9Z" transform="translate(-181.602 -94.577)"/><path class="k" d="M203.012,103.987v2.57c2.6.052,5.553,1.476,7.9,2.77a9.3,9.3,0,0,0,5.013,1.115,13.868,13.868,0,0,0,5.8-2.353v-1.437a10.762,10.762,0,0,1-5.688,1.987c-1.938.069-3.513-.89-5.121-1.883A17.136,17.136,0,0,0,203.012,103.987Z" transform="translate(-177.869 -94.907)"/><path class="n" d="M203.012,103.987v2.57c2.6.052,5.553,1.476,7.9,2.77a9.3,9.3,0,0,0,5.013,1.115,13.868,13.868,0,0,0,5.8-2.353v-1.437a10.762,10.762,0,0,1-5.688,1.987c-1.938.069-3.513-.89-5.121-1.883A17.136,17.136,0,0,0,203.012,103.987Z" transform="translate(-177.869 -94.907)"/><path class="k" d="M217.119,106.9a1.464,1.464,0,1,0,1.465-1.464A1.466,1.466,0,0,0,217.119,106.9Z" transform="translate(-174.653 -94.577)"/><path class="l" d="M217.119,106.9a1.464,1.464,0,1,0,1.465-1.464A1.466,1.466,0,0,0,217.119,106.9Z" transform="translate(-174.653 -94.577)"/><rect class="k" width="3.717" height="38.072" transform="translate(23.285 4.623)"/><rect class="m" width="3.717" height="38.072" transform="translate(23.285 4.623)"/><path class="k" d="M206.751,106a3.152,3.152,0,1,1-3.154-3.152A3.153,3.153,0,0,1,206.751,106Z" transform="translate(-178.454 -95.166)"/><path class="l" d="M206.751,106a3.152,3.152,0,1,1-3.154-3.152A3.153,3.153,0,0,1,206.751,106Z" transform="translate(-178.454 -95.166)"/><path class="k" d="M205.867,99a2.407,2.407,0,1,1-2.408-2.407A2.407,2.407,0,0,1,205.867,99Z" transform="translate(-178.316 -96.593)"/><path class="l" d="M205.867,99a2.407,2.407,0,1,1-2.408-2.407A2.407,2.407,0,0,1,205.867,99Z" transform="translate(-178.316 -96.593)"/><path class="k" d="M215.111,137.047H194.7v-4.458a1.228,1.228,0,0,1,1.228-1.228h17.953a1.228,1.228,0,0,1,1.228,1.228Z" transform="translate(-179.764 -88.666)"/><path class="n" d="M215.111,137.047H194.7v-4.458a1.228,1.228,0,0,1,1.228-1.228h17.953a1.228,1.228,0,0,1,1.228,1.228Z" transform="translate(-179.764 -88.666)"/><path class="k" d="M222.851,140.219h-32.8a2.114,2.114,0,0,1-2.115-2.113h0a2.115,2.115,0,0,1,2.115-2.115h32.8a2.114,2.114,0,0,1,2.113,2.115h0A2.113,2.113,0,0,1,222.851,140.219Z" transform="translate(-181.307 -87.61)"/><path class="l" d="M222.851,140.219h-32.8a2.114,2.114,0,0,1-2.115-2.113h0a2.115,2.115,0,0,1,2.115-2.115h32.8a2.114,2.114,0,0,1,2.113,2.115h0A2.113,2.113,0,0,1,222.851,140.219Z" transform="translate(-181.307 -87.61)"/><rect class="k" width="20.409" height="1.385" transform="translate(14.939 44.153)"/><rect class="l" width="20.409" height="1.385" transform="translate(14.939 44.153)"/><path class="k" d="M206.329,100.7a1.023,1.023,0,0,1-1.023,1.024h-3.547a1.024,1.024,0,0,1-1.024-1.024h0a1.024,1.024,0,0,1,1.024-1.024h3.547a1.023,1.023,0,0,1,1.023,1.024Z" transform="translate(-178.388 -95.89)"/><path class="n" d="M206.329,100.7a1.023,1.023,0,0,1-1.023,1.024h-3.547a1.024,1.024,0,0,1-1.024-1.024h0a1.024,1.024,0,0,1,1.024-1.024h3.547a1.023,1.023,0,0,1,1.023,1.024Z" transform="translate(-178.388 -95.89)"/></g></g><g transform="translate(455.799 41.386)"><path class="e" d="M5.1,0H78.538a5.1,5.1,0,0,1,5.1,5.1v52.19a5.1,5.1,0,0,1-5.1,5.1H5.1a5.1,5.1,0,0,1-5.1-5.1V5.1A5.1,5.1,0,0,1,5.1,0Z" transform="translate(6.856)"/><path class="f" d="M394.764,132.074s2.016,21.508-23.592,31.6c0,0,34.126-2.778,35.737-32.09Z" transform="translate(-371.172 -78.868)"/><path class="g" d="M1.1,0H51.467a1.1,1.1,0,0,1,1.1,1.1V72.713a1.1,1.1,0,0,1-1.1,1.1H1.1a1.1,1.1,0,0,1-1.1-1.1V1.1A1.1,1.1,0,0,1,1.1,0Z" transform="translate(85.583 4.912) rotate(90)"/><g transform="translate(31.86 10.261)"><path class="k" d="M423.381,97.011h0a3.069,3.069,0,0,1,3.069,3.069v1.472h-8.374Z" transform="translate(-392.338 -97.011)"/><path class="m" d="M423.381,97.011h0a3.069,3.069,0,0,1,3.069,3.069v1.472h-8.374Z" transform="translate(-392.338 -97.011)"/><path class="k" d="M429.376,137.488c6.029-11.963-6.043-29.557-1.342-40.477H402.405a4.69,4.69,0,0,0-4.659,4.3c-1,11.137,8.126,26.458,1.938,36.991h28.327A1.523,1.523,0,0,0,429.376,137.488Z" transform="translate(-396.991 -97.011)"/><path class="n" d="M429.376,137.488c6.029-11.963-6.043-29.557-1.342-40.477H402.405a4.69,4.69,0,0,0-4.659,4.3c-1,11.137,8.126,26.458,1.938,36.991h28.327A1.523,1.523,0,0,0,429.376,137.488Z" transform="translate(-396.991 -97.011)"/><path class="k" d="M399.81,131.319h0a2.693,2.693,0,0,1-2.693-2.692v-1H425.6v1a2.692,2.692,0,0,0,2.692,2.692H399.81Z" transform="translate(-397.117 -90.031)"/><path class="l" d="M399.81,131.319h0a2.693,2.693,0,0,1-2.693-2.692v-1H425.6v1a2.692,2.692,0,0,0,2.692,2.692H399.81Z" transform="translate(-397.117 -90.031)"/><rect class="n" width="20.174" height="1.677" transform="translate(4.7 5.698)"/><rect class="n" width="20.174" height="1.677" transform="translate(5.637 11.635)"/><rect class="n" width="20.174" height="1.677" transform="translate(6.728 16.135)"/><rect class="n" width="20.174" height="1.677" transform="translate(7.814 20.636)"/><circle class="n" cx="3.113" cy="3.113" r="3.113" transform="translate(22.625 27.839)"/></g></g></g><g transform="translate(330.664 406.586)"><g transform="translate(104.258 226.879)"><path class="r" d="M379.364,175.895a96.593,96.593,0,0,0,14.217-.622,25.625,25.625,0,0,0,22-20.225,150.186,150.186,0,0,0,2.814-32.4c-13.377,3.818-26.438,6.283-39.035,6.7-12.595-.42-25.659-2.885-39.035-6.7a150.315,150.315,0,0,0,2.816,32.4,25.62,25.62,0,0,0,22,20.225A96.565,96.565,0,0,0,379.364,175.895Z" transform="translate(-340.314 -122.653)"/><g transform="translate(0.002)"><path class="s" d="M379.362,129.356c12.6-.42,25.659-2.885,39.035-6.7q.044,3.757-.061,7.474c-13.354,3.807-26.4,6.266-38.974,6.686-12.574-.42-25.619-2.879-38.972-6.686q-.1-3.719-.063-7.474C353.7,126.471,366.767,128.936,379.362,129.356Z" transform="translate(-340.316 -122.653)"/><rect class="t" width="10.457" height="7.747" transform="translate(33.819 6.412)"/><path class="r" d="M373.094,131.955H375.3v-8.408l-2.206.541Z" transform="translate(-304.218 -121.669)"/><path class="r" d="M345.859,131.955h-2.206v-8.408l2.206.541Z" transform="translate(-336.64 -121.669)"/><path class="r" d="M367.031,133.286h2.206v-8.409l-2.206.314Z" transform="translate(-310.894 -120.204)"/><path class="r" d="M351.922,133.286h-2.206v-8.409l2.206.314Z" transform="translate(-329.963 -120.204)"/></g></g><g transform="translate(59.752 247.784)"><g transform="translate(0 141.472)"><path class="r" d="M327.417,211.029c-3.179-1.477-6.569-3.03-8.283-5.56l1.074-2.024,9.857,3.761Z" transform="translate(-319.134 -196.055)"/><g transform="translate(1.074)"><path class="r" d="M319.645,205.031c14.108,13.089,26.037,20.1,34.177,21.2l1.582-2.459-33.812-21.769Z" transform="translate(-319.645 -197.64)"/><path class="u" d="M320.289,205.224c3.49,5.947,29.865,22.355,34.4,20.838,1.082-1.687-.756-5.112-4.814-9.924-.4-.475-.826-.96-1.271-1.469-.309-.349-.637-.708-.969-1.082-.437-.481-.885-.964-1.353-1.46l-.008-.006c-.313-.338-.645-.689-.981-1.038l-.01-.006c-.46-.479-.941-.969-1.435-1.481q-1.781-1.816-3.795-3.77C328.392,194.487,322.031,202.5,320.289,205.224Z" transform="translate(-318.936 -199.929)"/><path class="r" d="M329.171,205.918a.82.82,0,0,0,.435.626.806.806,0,0,0,.473.088l5.432-.622c-.46-.479-.941-.969-1.435-1.481l-4.182.473A.827.827,0,0,0,329.171,205.918Z" transform="translate(-309.16 -194.863)"/><path class="r" d="M330.32,207.28a.8.8,0,0,0,.418.567.791.791,0,0,0,.534.086c1.007-.2,2.089-.324,3.141-.443.717-.09,1.469-.185,2.2-.292-.437-.481-.885-.964-1.353-1.46l-.008-.006c-.343.042-.691.092-1.034.132-1.078.12-2.19.258-3.249.462A.814.814,0,0,0,330.32,207.28Z" transform="translate(-307.906 -193.539)"/><path class="r" d="M331.466,208.524a.8.8,0,0,0,.422.6.828.828,0,0,0,.511.084l5.182-.792c-.4-.475-.826-.96-1.271-1.469l-4.163.645A.817.817,0,0,0,331.466,208.524Z" transform="translate(-306.638 -192.203)"/></g></g><path class="r" d="M319.931,273.818c.416-.981,3.938-6.51,4.419-7.472,21.746-43.658,43.723-87.064,67.486-129.663,4.673-8.313,17.794-2.784,15.066,6.35-1.538,5.159-4.652,10.181-6.917,15.032-9.145,19.6-18.016,39.321-26.281,59.31q-13.266,32.093-26.487,64.2c-.063.153-.137.3-.2.452C341.1,282.164,331.767,281.618,319.931,273.818Z" transform="translate(-318.256 -132.602)"/></g><g transform="translate(161.101 245.569)"><g transform="translate(49.118 151.211)"><path class="r" d="M401.551,213.616c-3.314,1.139-6.835,2.366-9.826,1.729l-.624-2.2,9.714-4.114Z" transform="translate(-390.346 -197.434)"/><path class="r" d="M391.465,216.88c19.241-.332,32.7-3.536,39.334-8.38l-.559-2.868-39.468,7.718Z" transform="translate(-390.71 -201.172)"/><path class="u" d="M391.02,216.769c6.636,1.87,37.024-4.562,39.247-8.8-.389-1.967-4.087-3.16-10.347-3.824-.618-.061-1.259-.118-1.933-.176-.466-.038-.95-.069-1.448-.109-.649-.042-1.309-.082-1.988-.116l-.011,0c-.46-.029-.943-.05-1.427-.071l-.011,0c-.666-.025-1.353-.046-2.063-.071-1.694-.053-3.471-.08-5.348-.092C389.425,203.412,390.391,213.6,391.02,216.769Z" transform="translate(-390.742 -203.51)"/><path class="r" d="M399.335,207.95a.826.826,0,0,0,1.149-.109l3.488-4.215c-.666-.025-1.353-.046-2.063-.071l-2.687,3.238A.82.82,0,0,0,399.335,207.95Z" transform="translate(-381.61 -203.461)"/><path class="r" d="M401.069,208.15a.825.825,0,0,0,1.139-.187c.59-.836,1.28-1.681,1.956-2.5.454-.561.933-1.149,1.383-1.731-.649-.042-1.309-.082-1.988-.116l-.011,0c-.219.267-.435.542-.653.809-.693.832-1.4,1.7-2.024,2.585A.815.815,0,0,0,401.069,208.15Z" transform="translate(-379.749 -203.388)"/><path class="r" d="M402.733,208.222a.806.806,0,0,0,.721.137.835.835,0,0,0,.429-.292l3.185-4.163c-.618-.061-1.259-.118-1.933-.177l-2.555,3.347A.819.819,0,0,0,402.733,208.222Z" transform="translate(-377.89 -203.27)"/></g><path class="r" d="M410.778,290.438c-.378-1-1.668-7.424-1.988-8.451-14.557-46.554-28.771-93.08-41.139-140.266-2.389-9.231,10.9-14.333,15.266-5.856,2.461,4.787,3.694,10.565,5.423,15.633,6.978,20.471,14.24,40.84,22.126,60.983q12.661,32.332,25.364,64.65c.061.156.113.313.168.469C431.25,283.569,423.341,288.847,410.778,290.438Z" transform="translate(-367.366 -131.548)"/></g><path class="v" d="M393.956,163.429c1.414.183,2.807.343,4.219.464,10.7.929,21.418-.443,32.036-2,.462-.08.95-.141,1.412-.223.565-.08,1.149-.16,1.717-.242a35.327,35.327,0,0,1,.807-3.654c2.362-8.418,7.59-15.989,9.79-24.5,4.946-19.218-5.247-33.633-4.116-53.454.4-7.046-4.866-12.658-3.715-25.919,1.858-21.883-4.644-27.113-16.856-33.572a51.561,51.561,0,0,0-25.211-5.631h-.158a51.57,51.57,0,0,0-25.213,5.631c-12.215,6.459-18.714,11.689-16.856,33.572,1.149,13.261-4.118,18.874-3.713,25.919,1.13,19.821-17.289,34.366-12.345,53.582,2.2,8.519,7.432,16.089,9.794,24.507a35.323,35.323,0,0,1,.8,3.654l1.717.242c.467.08.95.141,1.414.223,10.616,1.553,29.559,2.8,40.258,1.868C391.155,163.771,392.548,163.611,393.956,163.429Z" transform="translate(-242.011 -14.679)"/><g transform="translate(208.845 206.776)"><path class="w" d="M408.45,128.939l.034-.04a2.618,2.618,0,0,1,3.7-.179l15.743,14.291a2.615,2.615,0,0,1,.179,3.694l-.034.04a2.618,2.618,0,0,1-3.7.179l-15.743-14.291A2.615,2.615,0,0,1,408.45,128.939Z" transform="translate(-370.615 -96.616)"/><path class="w" d="M409.1,127.024l.032-.042a2.615,2.615,0,0,1,3.658-.546l17.092,12.645a2.612,2.612,0,0,1,.546,3.656l-.03.044a2.617,2.617,0,0,1-3.658.546l-17.092-12.645A2.615,2.615,0,0,1,409.1,127.024Z" transform="translate(-369.717 -98.951)"/><path class="w" d="M406.856,130.686l.038-.04a2.615,2.615,0,0,1,3.7-.046l13.795,13.444a2.617,2.617,0,0,1,.046,3.7l-.038.038a2.613,2.613,0,0,1-3.7.048L406.9,134.384A2.615,2.615,0,0,1,406.856,130.686Z" transform="translate(-372.439 -94.617)"/><path class="w" d="M405.417,132.208l.036-.029a2.318,2.318,0,0,1,3.274.24l9.115,10.557a2.323,2.323,0,0,1-.24,3.278l-.036.029a2.323,2.323,0,0,1-3.276-.24l-9.113-10.557A2.321,2.321,0,0,1,405.417,132.208Z" transform="translate(-374.094 -92.683)"/><path class="x" d="M399.8,113.086l21.8,19.592c2.435-1.29,4.348-2.051,6.659-.828a7.329,7.329,0,0,1,1.477,1.032l4.1,3.726-1.1,2.246,5.81,5.7c-4.785,5.718-9.979,9.3-16.257,12.572l-7.212-7.844A7.591,7.591,0,0,1,412.694,143l-22.605-19.218Z" transform="translate(-390.088 -113.086)"/><path class="w" d="M417.68,124.338c2.484,1.788,6.711,2.744,8.907,2.889,2.887.191,3.644,6.457-3.5,5.14-2.064-.382-5.594-.874-7.2-2.274-1.816,3.507-6.382,5.077-10.233,4.009l3.862-12.641C411.347,120.824,414.829,122.285,417.68,124.338Z" transform="translate(-372.94 -104.029)"/><path class="w" d="M418.836,132.449a10.63,10.63,0,0,1,7.6-1.95l2.9,4.883-.689,4.4c-3.267,3.062-7.894,5.184-11.431,1.6l-.019-.021-24.921-22.622,5.129-5.65Z" transform="translate(-387.687 -113.086)"/></g><path class="y" d="M370.559,93.737l18.655,42.624,5.089,11.658.471,1.067a11.816,11.816,0,0,0,21.647-9.479l-2.69-6.142-21.5-49.207a11.825,11.825,0,0,0-21.668,9.479Z" transform="translate(-203.847 54.135)"/><path class="y" d="M434.681,139.428l-18.363,15.15L387.886,127.2l-2.774-2.669a11.688,11.688,0,0,1-2.963-12.44,11.8,11.8,0,0,1,4.371-5.757A11.837,11.837,0,0,1,401.5,107.51Z" transform="translate(-190.726 83.908)"/><path class="v" d="M387.753,143.339l-2.774-2.669a12.1,12.1,0,0,1-3.152-5.106c.084-2.458.147-4.9.189-7.333.231-12.923.084-25.846-.418-38.684a226.21,226.21,0,0,1,4.789,32.927C386.975,129.387,387.376,136.363,387.753,143.339Z" transform="translate(-190.593 67.768)"/><path class="z" d="M346.424,62.543c2.15-7.668,1.271-16.573,6.243-22.792,2.385-2.984,5.833-4.911,9.328-6.451a52.5,52.5,0,0,1,27.23-4.507c9.243,1.118,18.224,5.358,24.345,12.376s9.115,16.871,7.136,25.97c-.872,4.007.675,1.963-.422,5.9-.876,5.188-4.125,14.217-3.228,17.966,2.3,9.613,3.055,19.26-3.4,26.743,1.9-4.516,3.658-9.5,2.349-14.223a36,36,0,0,0-2.948-6.361,20.5,20.5,0,0,1-2.822,3.328c.857,2.832,1.748,5.774,1.086,8.638-.462,2-1.643,3.753-2.564,5.591s-1.589,3.98-.95,5.934a11.979,11.979,0,0,1-1.553-6.976c.069-2.421.462-4.835.338-7.254-.036-.714-.118-1.423-.218-2.131a14,14,0,0,0-2.475,3.534c-2.435,5.251-.26,11.96-3.32,16.875-2.257,3.629-6.724,5.173-10.924,5.957a54.518,54.518,0,0,1-23.543-.811c.656-6.5,1.162-13.534-1.633-19.283-.111.189-.187.4-.307.582-1.284,1.971-3.047,3.578-4.478,5.444s-2.557,4.171-2.223,6.5c-1.885-3.141-.878-7.214.74-10.5,1.051-2.131,2.343-4.2,3.259-6.373-1.1-1.2-2.284-2.324-3.448-3.467-.765,1.874-1.626,3.723-2.41,5.581-1.818,4.314-3.221,9.155-1.83,13.625-2.984-5.968-3.249-11.221-2.118-17.8.441-2.572,1.32-4.56,1.95-7.094-3.043-4.49-5.266-13.3-5.266-18.724,0-2.452-2.736-5.652-3.486-7.987C343.69,66.716,345.392,66.228,346.424,62.543Z" transform="translate(-231.486 0.507)"/><rect class="aa" width="24.86" height="38.02" transform="translate(139.306 104.672)"/><path class="y" d="M483.831,324.851c-4.348,3-31.96,18.029-35.995,18.071a12.348,12.348,0,0,0-7.943,2.984,14.01,14.01,0,0,1-2.311,1.492,19.285,19.285,0,0,1-14.392,1.093,26.671,26.671,0,0,0-2.881-.819,19.414,19.414,0,0,0-7.733-.336c-5.127.861-8.615,3.572-15.3,2.732-1.406-.168-2.795-.42-4.182-.672h-.021c-2.982-.567-5.947-1.282-8.973-1.807a45.185,45.185,0,0,0-9.792-.84q-1.825.063-3.782.315c-1.112.168-2.246.378-3.4.672-3.32.82-20.517-8.953-21.9-9.224-19.977-3.923-18.634-11.689-23.488-15.411,17.861-38.348,25.114-75.427,27.237-119.764v-.042q.914-18.249,1.345-36.394c.023-.441.023-.9.023-1.345.229-9.056.334-18.092.313-27.169,0-2.458,0-4.938-.042-7.4A114.679,114.679,0,0,1,351.577,118v-.021a100.443,100.443,0,0,0,.948-14.52C354.374,93.985,355,90.938,359.331,86c.735-.841-.63-.735.21-1.492a28.461,28.461,0,0,1,11.9-6.409l23.217-5.863c3.089,1.261,23.3,3.488,26.436,2.164,0,0,16.157,7.27,19.54,10.4.82.756,1.6,1.576,2.353,2.416a28.593,28.593,0,0,1,6.829,17.924q-.441,14.057-.672,27.611c-.189,12.355-.231,24.4-.147,36.184v1.135C449.5,233.929,467.45,283.877,483.831,324.851Z" transform="translate(-256.518 48.705)"/><path class="v" d="M357.725,70.082c8.147,2.442,16.432,4.037,24.86,1.576L383,76.781c-5.522,3.82-19.674,2.73-26.669-1.288Z" transform="translate(-218.419 46.332)"/><rect class="v" width="6.304" height="37.529" transform="translate(151.093 121.824)"/><path class="ab" d="M376.77,264.379a6.545,6.545,0,0,0,.378,1.261,13.94,13.94,0,0,0,2.314-1.492,12.34,12.34,0,0,1,7.943-2.984c-2.017-38.285-9.059-76.381-7.607-114.687-2.017,22.631-4.034,45.387-2.229,68.039.717,9.141,2.061,18.26,1.767,27.4a90.109,90.109,0,0,1-2,15.718C376.875,259.861,376.331,262.152,376.77,264.379Z" transform="translate(-196.088 130.463)"/><path class="ab" d="M364.871,242.706a25.458,25.458,0,0,0,.212,4.16,19.4,19.4,0,0,1,7.731.336c5.129-27.442,4.52-55.747,5.15-83.735a239.92,239.92,0,0,1-9.6,63.059C366.806,231.842,365.062,237.179,364.871,242.706Z" transform="translate(-209.026 149.173)"/><path class="v" d="M352.81,268.813c3.024.525,5.989,1.24,8.97,1.807a90.527,90.527,0,0,1-1.828-33.6c1.219-9.12,3.868-18.071,4.436-27.274.5-7.67-.462-15.36-1.408-22.988q-2.648-21.5-5.316-42.992-.158,15.035-.294,30.048c-.105,9.456-.189,18.953-1.219,28.367C353.714,224.5,346.191,247.633,352.81,268.813Z" transform="translate(-225.225 127.478)"/><path class="ab" d="M365,200.895c.782-5.65.439-11.387.1-17.079q-.775-12.787-1.547-25.572c4.129,15.505,8.289,31.683,5.121,47.415-2.523,12.528-9.556,23.851-11.67,36.455C354.3,228.247,363.061,214.887,365,200.895Z" transform="translate(-218.244 143.42)"/><path class="ab" d="M344.087,208.095c.777,7.291,2.5,14.772,2.332,21.979q1.954-.252,3.782-.315c1.072-4.665.42-9.54.063-16.432-.609-11.683-3.4-23.177-3.95-34.86A82.843,82.843,0,0,0,344.087,208.095Z" transform="translate(-232.408 165.692)"/><path class="ab" d="M335.958,247.806a13.577,13.577,0,0,1,5,2.269,7,7,0,0,0,.838.5c.42-6.367-.376-13.007-.334-19.416.126-24.333,12.584-48.224,8.048-72.137-1.093,17.441-6.64,34.23-10.424,51.271C336.355,222.569,334.571,235.429,335.958,247.806Z" transform="translate(-241.384 144.284)"/><path class="v" d="M360.291,86.621c-2.274,16.335-15.358,20.58-17.653,36.049-3.347,22.553-.349,49.708-7.941,64.782q.914-18.249,1.345-36.394c.023-.441.023-.9.023-1.345.229-9.056.334-18.092.313-27.169,0-2.458,0-4.938-.042-7.4a114.707,114.707,0,0,1,.967-12.986v-.021c3.53-3.047,8.258-4.833,11.221-8.867A17.331,17.331,0,0,1,360.291,86.621Z" transform="translate(-242.243 64.545)"/><path class="y" d="M375.535,78.431A11.821,11.821,0,0,0,359,80.9l-35.925,48.567a11.82,11.82,0,0,0,19.006,14.057l35.925-48.567A11.819,11.819,0,0,0,375.535,78.431Z" transform="translate(-257.592 52.973)"/><g transform="translate(155.164 182.488)"><path class="v" d="M397.541,101.527c1.017,24.822-12.028,49.752-33,63.067A138.06,138.06,0,0,0,397.541,101.527Z" transform="translate(-364.541 -101.527)"/><path class="v" d="M372.947,160.754q8.586-25.092,17.17-50.182A71.79,71.79,0,0,1,372.947,160.754Z" transform="translate(-355.284 -91.567)"/></g><g transform="translate(0 222.73)"><path class="ac" d="M323.731,124.734l.057-.023a2.952,2.952,0,0,1,3.852,2,92.319,92.319,0,0,0,8.43,17.955,3.15,3.15,0,0,1-.952,4.219l-.052.034a2.934,2.934,0,0,1-4.188-.971,98.145,98.145,0,0,1-8.958-18.777A3.557,3.557,0,0,1,323.731,124.734Z" transform="translate(-256.536 -116.453)"/><path class="ad" d="M313.371,143.217a1.07,1.07,0,0,1-1.162.941h0a1.072,1.072,0,0,1-.672-1.336l1.492-6.913a1.072,1.072,0,0,1,1.162-.941h0a1.07,1.07,0,0,1,.67,1.339Z" transform="translate(-267.784 -104.961)"/><path class="ad" d="M326.994,146.157a1.073,1.073,0,0,1-1.164.941h0a1.068,1.068,0,0,1-.668-1.336l1.49-6.913a1.074,1.074,0,0,1,1.162-.941h0a1.074,1.074,0,0,1,.672,1.339Z" transform="translate(-252.781 -101.722)"/><path class="ae" d="M395.77,159.26,384,213.792a5.554,5.554,0,0,1-6.6,4.245l-82.319-17.773a5.54,5.54,0,0,1-4.249-6.587L302.6,139.144a5.554,5.554,0,0,1,6.592-4.263l82.321,17.772A5.566,5.566,0,0,1,395.77,159.26Z" transform="translate(-290.698 -105.176)"/><path class="e" d="M391.738,159.26l-3.961,18.346a10.859,10.859,0,0,1-12.906,8.323l-71.958-15.535a10.845,10.845,0,0,1-8.306-12.9l3.959-18.346a5.554,5.554,0,0,1,6.592-4.263l82.321,17.772A5.566,5.566,0,0,1,391.738,159.26Z" transform="translate(-286.666 -105.176)"/><g transform="translate(44.477 63.08)"><path class="af" d="M318.6,170.013l-3.9-.841a2.536,2.536,0,0,1-1.942-3.011l3.257-15.083,8.846,1.91-3.257,15.085A2.531,2.531,0,0,1,318.6,170.013Z" transform="translate(-310.934 -150.28)"/><rect class="ag" width="2.309" height="10.4" transform="matrix(0.211, -0.977, 0.977, 0.211, 2.077, 11.561)"/><rect class="ah" width="6.606" height="16.613" rx="0.836" transform="translate(0 6.457) rotate(-77.815)"/><path class="ad" d="M320.038,162.04a1.431,1.431,0,0,1-1.7,1.1l-4-.864a1.429,1.429,0,0,1-1.095-1.7l.9-4.2,6.8,1.467Z" transform="translate(-310.386 -144.448)"/><g transform="translate(2.266 2.803)"><path class="r" d="M320.3,154.494a1.114,1.114,0,1,1-.855-1.324A1.114,1.114,0,0,1,320.3,154.494Z" transform="translate(-307.27 -150.807)"/><path class="r" d="M315.147,153.383a1.115,1.115,0,1,1-.855-1.326A1.116,1.116,0,0,1,315.147,153.383Z" transform="translate(-312.943 -152.032)"/></g><path class="ah" d="M319.013,158.262a.455.455,0,0,1-.542.349l-4.158-.9a.457.457,0,0,1-.349-.542h0a.459.459,0,0,1,.542-.351l4.156.9a.457.457,0,0,1,.351.542Z" transform="translate(-309.564 -143.966)"/><path class="ah" d="M318.837,159.075a.454.454,0,0,1-.54.349l-4.161-.9a.457.457,0,0,1-.349-.542h0a.459.459,0,0,1,.542-.351l4.158.9a.452.452,0,0,1,.349.542Z" transform="translate(-309.758 -143.072)"/><path class="ah" d="M318.664,159.887a.458.458,0,0,1-.542.349l-4.16-.9a.455.455,0,0,1-.349-.542h0a.459.459,0,0,1,.542-.349l4.158.9a.458.458,0,0,1,.351.542Z" transform="translate(-309.951 -142.177)"/></g><path class="e" d="M343.8,144.9a2.632,2.632,0,0,1-3.415-.376,24.264,24.264,0,0,0-25.077-5.415,2.628,2.628,0,0,1-3.265-1.065h0c-.557-1.107.206-2.61,1.746-3.162a28.756,28.756,0,0,1,29.722,6.415c1.177,1.141,1.252,2.826.288,3.6Z" transform="translate(-267.395 -106.895)"/><path class="ac" d="M327.928,128.868l.057.01a2.807,2.807,0,0,1,2.274,3.253l-2.952,16.47a2.807,2.807,0,0,1-3.253,2.274l-.057-.008a2.809,2.809,0,0,1-2.271-3.255l2.95-16.47A2.808,2.808,0,0,1,327.928,128.868Z" transform="translate(-256.577 -111.707)"/><path class="ac" d="M326.265,125.926l.059.01a2.893,2.893,0,0,1,2.437,3.282L324.8,151.566a2.894,2.894,0,0,1-3.419,2.242l-.059-.008a2.9,2.9,0,0,1-2.442-3.284l3.965-22.347A2.9,2.9,0,0,1,326.265,125.926Z" transform="translate(-259.709 -114.953)"/><path class="ac" d="M323.577,124.9l.057.01a2.834,2.834,0,0,1,2.328,3.263L322,150.524a2.836,2.836,0,0,1-3.307,2.263l-.057-.01a2.834,2.834,0,0,1-2.328-3.263l3.965-22.347A2.834,2.834,0,0,1,323.577,124.9Z" transform="translate(-262.545 -116.075)"/><path class="ac" d="M319.637,128.105l.05.008A2.491,2.491,0,0,1,321.7,131l-2.751,14.877a2.49,2.49,0,0,1-2.889,2.017l-.05-.006A2.494,2.494,0,0,1,314,145l2.751-14.877A2.5,2.5,0,0,1,319.637,128.105Z" transform="translate(-265.082 -112.541)"/><rect class="ai" width="15.008" height="14.468" transform="matrix(0.175, -0.985, 0.985, 0.175, 55.966, 14.778)"/><path class="ai" d="M316.588,145.09l.048.008a2.489,2.489,0,0,0,2.889-2.017l-.158.9a2.805,2.805,0,0,0,2.272,3.253l.055.008a2.8,2.8,0,0,0,3.253-2.271l-.147.832a2.807,2.807,0,0,0,2.273,3.253l.055.011a2.807,2.807,0,0,0,3.253-2.274,2.807,2.807,0,0,0,2.274,3.253l.057.011a2.8,2.8,0,0,0,3.251-2.274l1.007-5.665.179-1.011,1-5.64a8.256,8.256,0,0,0-6.686-9.571l-5.442-.964a8.256,8.256,0,0,0-9.571,6.686l-1,5.642-.179,1.007-.7,3.938A2.489,2.489,0,0,0,316.588,145.09Z" transform="translate(-264.451 -116.137)"/></g><path class="y" d="M338.89,156.436l10.847-41.954a11.82,11.82,0,0,0-22.887-5.917L315.322,153.15Z" transform="translate(-263.58 78.951)"/><path class="ai" d="M348.389,40.433c.1-.021.2-.025.3-.044a7.416,7.416,0,0,1,6.337,2.339l-1.248,18.935a6.246,6.246,0,0,1-.717.208c-4.348.948-8.918-3.083-10.208-9S344.039,41.38,348.389,40.433Z" transform="translate(-233.64 13.542)"/><g transform="translate(182.842 55.298)"><path class="ai" d="M378.85,42.781a7.409,7.409,0,0,1,6.587-1.53c.095.029.191.046.286.08,4.2,1.486,5.957,7.321,3.936,13.03S382.6,63.5,378.4,62.012a5.555,5.555,0,0,1-.687-.3Z" transform="translate(-377.713 -40.997)"/><path class="aj" d="M390.533,47.034a13.257,13.257,0,0,0,.521-1.736,14.236,14.236,0,0,1-.826,4.478c-2.024,5.713-7.064,9.136-11.259,7.651a6.293,6.293,0,0,1-.689-.3l.149-2.5C383.061,55.9,388.413,52.583,390.533,47.034Z" transform="translate(-377.088 -36.261)"/><path class="ak" d="M379.992,54.666a6.069,6.069,0,0,0,.221-1.46c-.038-.559-.025-1.135-.126-1.788-.063-.637-.185-1.343-.248-2.093a9.676,9.676,0,0,1,.021-2.435,5.77,5.77,0,0,1,.92-2.416,3.994,3.994,0,0,1,2.015-1.551,3.793,3.793,0,0,1,3.957.988,3.4,3.4,0,0,1,.868,2.532c-.069.632-.3.918-.387.891-.128-.027-.12-.351-.244-.855a3.333,3.333,0,0,0-1.042-1.755,2.7,2.7,0,0,0-2.652-.393,3.4,3.4,0,0,0-1.832,2.809,15.346,15.346,0,0,0,.065,3.465c.046-.017.074-.04.126-.055a2.324,2.324,0,0,1,2.677,3.236c-.3.584-.733.717-.887.582-.183-.147-.166-.479-.225-.853a2.438,2.438,0,0,0-.454-1.16,2.4,2.4,0,0,0-1.053-.66c-.046-.017-.086-.029-.13-.042.021.563-.006,1.13-.029,1.649a6.086,6.086,0,0,1-.49,1.765,3.878,3.878,0,0,1-1.738,1.969,1.664,1.664,0,0,1-.685.208c-.164.017-.252,0-.269-.057C378.269,56.943,379.511,56.483,379.992,54.666Z" transform="translate(-376.994 -39.089)"/></g><path class="aj" d="M342.592,44.1a11.8,11.8,0,0,0,.349,1.832,12.421,12.421,0,0,0,10.987,9.13l-.158,2.423a6.374,6.374,0,0,1-.716.208c-4.348.948-8.92-3.083-10.208-9A14.226,14.226,0,0,1,342.592,44.1Z" transform="translate(-233.639 17.718)"/><path class="ai" d="M346.94,46.236a20.75,20.75,0,0,0,.21,2.522l1.128,18.575-.212,4.57L349,86.536l.084.5C349.775,93.155,356,99.4,361.2,103.226l10.021,7.438a8.131,8.131,0,0,0,4.791,1.513h14.5a8.121,8.121,0,0,0,4.791-1.513l6.476-6.934c5.169-3.824,9.443-10.576,10.137-16.69l.063-.5,2.12-14.856.485-3.4,2.774-19.458a17.381,17.381,0,0,0-1.807-10.906A13.148,13.148,0,0,0,408,31.672a100.52,100.52,0,0,0-26.56-4.644c-.315-.021-.63-.021-.946-.021s-.609,0-.924.021c-8.678.252-14.413,1.872-23.07,4.583C350.492,33.481,346.877,39.386,346.94,46.236Z" transform="translate(-228.761 -1.106)"/><path class="ak" d="M344.83,42.828a3.8,3.8,0,0,1,4.051-.481,4,4,0,0,1,1.807,1.79,5.846,5.846,0,0,1,.607,2.513,9.556,9.556,0,0,1-.286,2.419c-.153.738-.366,1.42-.506,2.045-.185.637-.244,1.208-.351,1.759a5.989,5.989,0,0,0,.038,1.477c.248,1.862,1.421,2.477,1.29,2.7-.023.05-.115.059-.275.023a1.666,1.666,0,0,1-.656-.294,3.888,3.888,0,0,1-1.475-2.171,6.14,6.14,0,0,1-.265-1.811c.042-.519.086-1.086.178-1.641-.044.008-.088.015-.132.025a1.983,1.983,0,0,0-1.723,1.616c-.107.366-.132.7-.332.819-.17.113-.576-.071-.8-.687a2.324,2.324,0,0,1,3.064-2.877,1.176,1.176,0,0,1,.113.071,15.361,15.361,0,0,0,.5-3.431,3.391,3.391,0,0,0-1.469-3.015,2.689,2.689,0,0,0-2.679.057,3.334,3.334,0,0,0-1.255,1.61c-.187.485-.216.8-.349.82-.088.015-.284-.3-.271-.933A3.4,3.4,0,0,1,344.83,42.828Z" transform="translate(-232.381 15.376)"/><path class="r" d="M348.379,35.868a29.4,29.4,0,0,1,5.217-6.451c5.7-5.356,13.5-8.733,21.8-10.1-.145-.036-.3-.074-.45-.107-.538-.1-1.059-.235-1.542-.292l-.71-.116-.662-.061a9.24,9.24,0,0,0-1.162-.055,4.883,4.883,0,0,0-.906.027l-.807.055s.214-.183.643-.5a4.1,4.1,0,0,1,.828-.513,6.529,6.529,0,0,1,1.2-.519l.729-.231c.258-.067.525-.111.807-.164a12.1,12.1,0,0,1,1.807-.187,16.8,16.8,0,0,1,4.015.435c.471.113.92.237,1.36.366.145-.315,4.224-3.114,4.016-2.624a10.978,10.978,0,0,0-.567,1.7c-.055.191-.114.424-.177.662a10.113,10.113,0,0,1,2.5-.946,8.475,8.475,0,0,1,2.984-.2c.21.029.412.057.6.084.185.05.359.1.523.143a3.543,3.543,0,0,1,.8.294c.422.2.637.326.637.326l-.689.145a4.944,4.944,0,0,0-.758.2l-.456.13c-.155.063-.321.126-.494.2a16.143,16.143,0,0,0-2.244,1.082c-.029.017-.057.036-.086.05a47.738,47.738,0,0,1,16.312,3.784,32.347,32.347,0,0,1,14.49,11.878,29.172,29.172,0,0,1,4.44,16.987l-.927,20.338c-1.143-10.17-8.918-22.364-10.725-24.423a12.724,12.724,0,0,0-6.558-3.971c-.761-.185-1.523-.359-2.288-.53-9.678.685-17.548,7.523-27.272,8.353,1.864-.985,3.772-2.141,5.724-3.305-8.685,2.734-17.369,4.957-26.054,1.975A12.679,12.679,0,0,0,353.111,53a12.374,12.374,0,0,0-.258,1.839L351.8,70.852a7.418,7.418,0,0,0-6.337-2.339l-1.118-17.167A29.442,29.442,0,0,1,348.379,35.868Z" transform="translate(-231.622 -14.583)"/><path class="ak" d="M364.309,61.16c1.7.139,3.845.475,6.176.487.443,0,.87-.025,1.3-.046a.285.285,0,0,1,.082-.032c7.81-1.731,3.167-12.866,2.774-21.109,2.517,5.421,9.138,17.329,2.78,23.822-1.3,1.332-4.043,1.942-6.934,1.956a13.77,13.77,0,0,1-6.936-1.956c-1.58-.975-2.419-1.927-2.257-2.519C361.459,61.151,362.617,61.013,364.309,61.16Z" transform="translate(-212.977 13.71)"/><path class="ak" d="M390.247,45.012c-8.979-3.276-16.134-6.266-22.393-5.054.189,1.2-.473,6.575.517,7.459C375.1,41.352,385.639,47.748,390.247,45.012Z" transform="translate(-205.777 12.854)"/><path class="ak" d="M352.516,44.855c8.977-3.276,16.382-5.944,22.641-4.732-.187,1.2.99,6.085,0,6.97C368.431,41.029,357.124,47.591,352.516,44.855Z" transform="translate(-222.62 13.011)"/><g class="al" transform="translate(114.232 7.898)"><path class="am" d="M368.891,31.689c-4.15,1.275-9.851,1.183-12.181-3.089,8.975,4.86,17.976-8.09,27.195-3.106-4.581.37-8.344,3.234-12.41,5.154,6.268-2.5,12.57-4.789,19.458-3.251-13.135,2.265-27.653,16.629-40.977,7.4C356.659,36.253,362.795,34.108,368.891,31.689Z" transform="translate(-339.65 -11.95)"/><path class="am" d="M370.293,18.439C355,23.659,345.737,36.375,345.46,52.53,342.821,35.777,353.537,21.066,370.293,18.439Z" transform="translate(-345.061 -18.439)"/><path class="am" d="M346.59,49.3a27.732,27.732,0,0,1,5.829-23.9A104.364,104.364,0,0,0,346.59,49.3Z" transform="translate(-344.103 -10.775)"/><path class="am" d="M387.209,43.6a39.869,39.869,0,0,0-12.95-22.82A22.19,22.19,0,0,1,387.209,43.6Z" transform="translate(-312.907 -15.865)"/></g><g class="an" transform="translate(150.835 55.857)"><path class="ad" d="M364.062,58.937a1.7,1.7,0,0,0,2-1.168c.027-.2.084-1.307.149-2.881.086-1.574.271-3.587.435-5.617.084-1.011.17-2.017.248-2.956.05-.943.1-1.822.137-2.572.078-1.492.126-2.479.126-2.479l-.681,2.387c-.2.717-.443,1.553-.7,2.452-.286.9-.591,1.853-.9,2.816-.6,1.925-1.24,3.908-1.664,5.459-.406,1.563-.689,2.685-.721,2.885A1.613,1.613,0,0,0,364.062,58.937Z" transform="translate(-362.481 -41.263)"/></g><g transform="translate(169.133 54.17)"><path class="ao" d="M371.189,44.2a4.337,4.337,0,0,0,8.592,0,4.337,4.337,0,0,0-8.592,0Z" transform="translate(-371.189 -40.46)"/><path class="r" d="M372.135,43.39a2.313,2.313,0,1,0,2.309-2.19A2.251,2.251,0,0,0,372.135,43.39Z" transform="translate(-370.147 -39.645)"/><path class="ad" d="M373.832,43.322a.81.81,0,0,0,.811.811h0a.808.808,0,0,0,.809-.811h0a.808.808,0,0,0-.809-.809h0a.81.81,0,0,0-.811.809Z" transform="translate(-368.278 -38.199)"/><path class="ad" d="M371.765,41.908a1.143,1.143,0,0,0,1.143,1.145h0a1.144,1.144,0,0,0,1.141-1.145h0a1.142,1.142,0,0,0-1.141-1.141h0a1.141,1.141,0,0,0-1.143,1.141Z" transform="translate(-370.555 -40.122)"/></g><path class="r" d="M368.15,46.9c.282.233.685.044,1.194-.4a18.388,18.388,0,0,1,2.122-1.715c1.866-1.259,4.919-1.82,8.409-1.828,3.492-.034,7.06,1.944,9.353,2.551,4.289,1.492,4.194-1.79,1.13-3.064a34.275,34.275,0,0,0-10.607-3.318c-4.295-.7-9.779-.429-11.681,1.811C367.14,42.088,367.875,46.675,368.15,46.9Z" transform="translate(-205.993 11.869)"/><g transform="translate(137.07 54.17)"><path class="ao" d="M355.93,44.2a4.335,4.335,0,0,0,8.59,0,4.335,4.335,0,0,0-8.59,0Z" transform="translate(-355.93 -40.46)"/><path class="r" d="M356.874,43.39a2.313,2.313,0,1,0,2.311-2.19A2.252,2.252,0,0,0,356.874,43.39Z" transform="translate(-354.89 -39.645)"/><path class="ad" d="M358.571,43.322a.81.81,0,0,0,.811.811h0a.81.81,0,0,0,.811-.811h0a.81.81,0,0,0-.811-.809h0a.81.81,0,0,0-.811.809Z" transform="translate(-353.022 -38.199)"/><path class="ad" d="M356.377,41.932a1.191,1.191,0,0,0,1.189,1.191h0a1.192,1.192,0,0,0,1.192-1.191h0a1.19,1.19,0,0,0-1.192-1.187h0a1.189,1.189,0,0,0-1.189,1.187Z" transform="translate(-355.438 -40.146)"/></g><path class="r" d="M376.133,46.9c-.28.233-.685.044-1.2-.4a18.289,18.289,0,0,0-2.118-1.715c-1.868-1.259-4.921-1.82-8.411-1.828-3.492-.034-7.06,1.944-9.353,2.551-4.287,1.492-4.2-1.79-1.13-3.064a34.275,34.275,0,0,1,10.607-3.318c4.3-.7,9.779-.429,11.681,1.811C377.144,42.088,376.409,46.675,376.133,46.9Z" transform="translate(-223.497 11.869)"/><path class="y" d="M335.129,135.624c1.513,5.947,4.083,11.694,6.562,17.3.738-.843,8.987-8.14,9.83-8.9-3.973-10.527-6.031-17.045-4.854-28.056.819-7.607,4.392-14.751,4.98-22.4.378-5.043,4.551-9.512,7.684-13.463,2.814-3.572,4.755-1.534,7.319-5.3,2.522-3.719.588-11.263,3.383-14.772,2.795-3.53,5.19-4.161,9.689-4.14,4.2.042,13.454,2.935,17.657,2.956,4.2-.021,7.157-2.774,11.359-2.816,4.5-.021,16.354.727,19.172,4.257,2.774,3.53.105,10.107,2.627,13.826,2.564,3.761,1.441,1.248,4.276,4.82,3.133,3.95,2.356,9.582,2.734,14.625.586,7.649,4.16,14.793,5,22.4,1.177,11.116-7.054,27.249-11.048,37.882.822.756,2.068,4.955,2.824,5.8,2.192-6.625,8.708-20.332,10.263-26.384,4.936-19.206-5.253-33.62-4.119-53.456.4-7.039-4.875-12.65-3.719-25.909C438.6,32.009,432.1,26.8,419.9,20.326a51.485,51.485,0,0,0-25.215-5.631h-.168A51.485,51.485,0,0,0,369.3,20.326C357.089,26.8,350.6,32.009,352.445,53.9c1.156,13.259-4.118,18.869-3.7,25.909C349.861,99.648,330.17,116.419,335.129,135.624Z" transform="translate(-242.652 -14.68)"/><path class="v" d="M385.995,38.294c-.45,3.122-2.051,6.337-.9,9.275.83,2.126,2.95,3.553,3.742,5.694,1.242,3.358-1.149,7.344.357,10.593a17.04,17.04,0,0,0,2.337,3.1,4.229,4.229,0,0,1,1.082,3.6c-.412-1.668-1.866-2.86-3.328-3.761s-1.41-2.244-2.484-3.585c-2.454-3.072-.036-7.686-2.112-11.025-1.595-2.568-7.714-3.4-9.141-6.056a8.941,8.941,0,0,1-.342-6.506c.574-2.15,1.551-4.175,2.129-6.325a18.01,18.01,0,0,0-1.429-12.908,27.269,27.269,0,0,1,7.615,7.594A15.513,15.513,0,0,1,385.995,38.294Z" transform="translate(-198.118 -8.394)"/><path class="v" d="M375.476,45.333c1.662-3.5-.021-7.8,1.185-11.483a49.037,49.037,0,0,1,2.3-4.6,11.161,11.161,0,0,0-.219-9.439c-.008,3.1-2.213,5.715-4.434,7.873s-4.692,4.343-5.514,7.329c-.767,2.79.044,5.894-1.046,8.575-1.191,2.933-4.289,4.541-7.146,5.9a26.157,26.157,0,0,0,8.264.326C371.591,49.348,374.289,47.835,375.476,45.333Z" transform="translate(-213.718 -9.026)"/><path class="v" d="M359.833,35.53c-.3,2.362-.223,4.8-.986,7.058-.973,2.891-3.225,5.194-4.331,8.037-1.57,4.034-.7,8.8-2.709,12.635-1.755,3.354-5.323,5.285-8.687,7.018A16.764,16.764,0,0,0,348.8,57.507c-.048-2.683-.748-5.325-.757-8.01a31.064,31.064,0,0,1,1.076-7.05,24.646,24.646,0,0,1,2.814-7.909c3.213-5.005,9.519-7.046,13.644-11.33A22.43,22.43,0,0,0,359.833,35.53Z" transform="translate(-232.965 -5.289)"/><path class="v" d="M364.174,30.89a12.525,12.525,0,0,0-2.608,7.2,6.683,6.683,0,0,0,3.919,6.195c1.824-1.254,2.559-3.6,2.732-5.81s-.09-4.446.3-6.627c.34-1.906,1.168-3.694,1.58-5.587s.334-4.055-.925-5.526a8.646,8.646,0,0,1-1.534,5.489C366.61,27.867,365.29,29.306,364.174,30.89Z" transform="translate(-212.654 -8.011)"/><path class="ap" d="M429.544,39.387a3.055,3.055,0,0,1-.5-.04,268.663,268.663,0,0,0-84.139,0,3.152,3.152,0,1,1-.985-6.226,274.864,274.864,0,0,1,86.11,0,3.152,3.152,0,0,1-.49,6.266Z" transform="translate(-235.011 1.891)"/><path class="ap" d="M429.544,36.625a3.055,3.055,0,0,1-.5-.04,268.538,268.538,0,0,0-84.139,0,3.152,3.152,0,1,1-.985-6.226,274.864,274.864,0,0,1,86.11,0,3.152,3.152,0,0,1-.49,6.266Z" transform="translate(-235.011 -1.15)"/><path class="ak" d="M373.833,61.21c.015.643-2.538,2.948-5.606,2.622-3.076-.273-5.446-3.057-5.308-3.686.143-.67,2.587-.744,5.556-.481C371.44,59.983,373.821,60.527,373.833,61.21Z" transform="translate(-211.169 34.705)"/><g transform="translate(147.483 87.284)"><path class="aq" d="M379.449,58.864c-.042.357-1.217.557-3.131.967a33.382,33.382,0,0,1-7.855.849,12.213,12.213,0,0,1-3.169-.569,10.506,10.506,0,0,1-1.423-.6l-.628-.4c-.162-.1-.065-.057-.092-.08l-.025-.044c-.282-.477-.353-.139-.9,1.095-.405.964-1.215,1.364-1.3,1.105-.095-.231.044-.546.088-1.462a12.487,12.487,0,0,1,.265-2.116,1.862,1.862,0,0,1,.754-1.278c.454-.307.939.134,1.5.248l.458.347a2.563,2.563,0,0,0,.437.265l.479.242a11.129,11.129,0,0,0,1.1.357,13.467,13.467,0,0,0,2.6.378c2.809.118,5.554-.2,7.577-.109C378.211,58.089,379.491,58.528,379.449,58.864Z" transform="translate(-360.886 -56.219)"/></g><path class="r" d="M375.225,53.247c-2.814,0-12.8.055-16.858,6.047-2.5,3.692-4.64,7.7-2.572,17.586,5.528,7.859,13.282,11.427,19.641,11.429s14.976-3.541,17.207-13.127c.9-6.15,1.011-8.584.658-11.107C391.9,54.037,379.642,53.247,375.225,53.247Zm.073,16.266c-1.872-.071-1.887,3.219-4.511,3.444-9.8.841-10.145-8.817-7.64-11.105a7.254,7.254,0,0,1,2.732-1.515,41.714,41.714,0,0,1,19.113,0,7.238,7.238,0,0,1,2.732,1.515c2.5,2.288,3.3,7.552.418,10.111-.01.01-.025.013-.036.023a5.764,5.764,0,0,1-5.312,1.336c-1.788-.578-1.578-3.73-3.45-3.658Z" transform="translate(-219.924 27.792)"/></g></g></svg>