<svg xmlns="http://www.w3.org/2000/svg" xmlns:xlink="http://www.w3.org/1999/xlink" width="560.15" height="440.592" viewBox="0 0 560.15 440.592"><defs><style>.a{fill:none;}.b{fill:#27debf;}.c{fill:#f5f5f5;}.d{fill:#519538;}.e{fill:#45a142;}.f{fill:#5faf42;}.g{fill:#48782a;}.h{clip-path:url(#a);}.i{fill:#e0e0e0;}.j{fill:#ebebeb;}.k{fill:#ffbd05;}.l{fill:#37474f;}.m{fill:#455a64;}.n{fill:#263238;}.o{clip-path:url(#b);}.p{fill:#fdd39d;}.q{fill:#e8ae0c;}.r{fill:#fdd7a4;}.s{fill:#fff;}</style><clipPath id="a"><path class="a" d="M237.1,179.575c-1.487.856-3.877,2.243-5.438,2.949-9.564,4.31-22.41,4.7-31.392.942a25.482,25.482,0,0,1-5.327-3.122c-6.256-5.141-5.6-12.413,1.66-17.863,1.376-1.029,3.791-2.392,5.266-3.246L358.36,68.886c1.3-.755,1.511-1.882.595-2.688a5.886,5.886,0,0,1,2.081,4.238l32.547,18.788Z" transform="translate(-190.672 -66.198)"/></clipPath><clipPath id="b"><path class="b" d="M151.757,313.236V336.1c0,1.71,1.2,2.4,2.682,1.548L184.3,320.4a5.931,5.931,0,0,0,2.682-4.645V292.9c0-1.71-1.2-2.4-2.682-1.548l-29.861,17.239A5.928,5.928,0,0,0,151.757,313.236Z" transform="translate(-151.757 -290.985)"/></clipPath></defs><g transform="translate(-2244 2532)"><g transform="translate(2244 -2532)"><g transform="translate(0 147.964)"><path class="c" d="M104.348,437.169c109.377,57.139,286.711,57.14,396.086,0s109.376-149.78,0-206.919-286.711-57.14-396.087,0S-5.028,380.03,104.348,437.169Z" transform="translate(-22.316 -187.395)"/></g><g transform="translate(60.426 151.468)"><g transform="translate(0 127.239)"><g transform="translate(18.996)"><path class="b" d="M146.474,352.078a109.132,109.132,0,0,0-7.367-31.352c-6.543-16.15-17.894-29.247-32.384-32.315s-20.015,4.511-18.8,13.081,13.4,15.093,21.578,22.288,23.442,24.589,27.686,41.395l8.174.893Z" transform="translate(-87.762 -287.716)"/><path class="d" d="M146.474,352.078a109.132,109.132,0,0,0-7.367-31.352c-6.543-16.15-17.894-29.247-32.384-32.315s-20.015,4.511-18.8,13.081,13.4,15.093,21.578,22.288,23.442,24.589,27.686,41.395l8.174.893Z" transform="translate(-87.762 -287.716)"/><g transform="translate(10.888 4.068)"><path class="c" d="M140.42,365.4h-.04a.607.607,0,0,1-.567-.644c1.846-28.807-16.92-60.664-42.725-72.528a.607.607,0,1,1,.507-1.1c26.229,12.058,45.306,44.435,43.429,73.707A.606.606,0,0,1,140.42,365.4Z" transform="translate(-96.735 -291.069)"/></g></g><g transform="translate(0 47.117)"><path class="e" d="M149.268,408.562s-8.449,5.341-21.648,3.069-16.01-11.245-17.136-20.133-7.612-4.832-16.451-8.493S83.727,370.267,85.7,363.439a20.146,20.146,0,0,1,4.432-7.977s-6.245-2.739-11.9-12.212a89.627,89.627,0,0,1-6.123-13.314s7.185-5.485,21.374-2.511a35.974,35.974,0,0,1,13.164,5.928s7.786-8.748,18.315-5.529c3.814,1.166,6.206,3.843,7.7,7.438a35.207,35.207,0,0,0,1.727,4.308c1.091,1.86,3.337,2.737,5.378,3.029,5.017.718,9.663-.121,14.329,2.444,2.311,1.269,3.938,3.577,5.215,5.83C166.177,362.979,149.268,408.562,149.268,408.562Z" transform="translate(-72.109 -326.543)"/><g transform="translate(7.04 4.15)"><path class="c" d="M153.825,390.642a.606.606,0,0,1-.517-.289c-20.606-33.464-53.261-52.808-74.962-59.2a.607.607,0,0,1,.343-1.164c21.908,6.456,54.866,25.973,75.653,59.732a.606.606,0,0,1-.2.834A.594.594,0,0,1,153.825,390.642Z" transform="translate(-77.91 -329.962)"/></g><g transform="translate(27.839 28.321)"><path class="c" d="M95.656,360.1a.607.607,0,0,1-.4-1.062c.414-.365,10.275-8.932,23.677-9.156a.586.586,0,0,1,.618.6.606.606,0,0,1-.6.616c-12.961.217-22.8,8.767-22.9,8.853A.6.6,0,0,1,95.656,360.1Z" transform="translate(-95.049 -349.88)"/></g><g transform="translate(43.244 7.113)"><path class="c" d="M108.5,348.975a.605.605,0,0,1-.6-.539,31.07,31.07,0,0,1,2.694-15.7.607.607,0,0,1,1.089.539,30.381,30.381,0,0,0-2.576,15.022.608.608,0,0,1-.536.671A.634.634,0,0,1,108.5,348.975Z" transform="translate(-107.744 -332.404)"/></g></g></g><g transform="translate(407.499)"><path class="d" d="M411.092,248.7s-4.962-16.191-2.5-31.5,9.752-27.378,19.251-32.44,21.386.53,13.566,11.33-23.761,25.285-22.244,52.281Z" transform="translate(-407.905 -182.866)"/><g transform="translate(4.974 3.596)"><path class="c" d="M414.118,248.388a.488.488,0,0,1-.47-.36c-5.3-19.591,2.408-51,20.289-62.124a.486.486,0,1,1,.515.825c-17.537,10.913-25.078,41.777-19.864,61.045a.486.486,0,0,1-.342.6A.466.466,0,0,1,414.118,248.388Z" transform="translate(-412.004 -185.83)"/></g><g transform="translate(9.557 27.489)"><path class="f" d="M422.571,261.561a10.649,10.649,0,0,0,4.849,1.291,14.258,14.258,0,0,0,5.858-.886c3.321-1.252,6.1-3.159,6.939-6.751.663-2.832-.388-6.024.849-8.735,1.169-2.561,4.946-4.324,7.48-5.128,1.78-.565,3.649-.836,5.4-1.5a6.911,6.911,0,0,0,4.136-3.54c1.68-4.12-2.893-8.788-1.393-12.975.744-2.078,2.773-3.359,4.639-4.537s3.842-2.607,4.355-4.752a6.118,6.118,0,0,0-1.851-5.458c-3.329-3.445-8.93-3.778-13.4-2.068a41.563,41.563,0,0,1-4.234,1.642c-5.637,1.474-11.634-2.224-17.3-.887a10.256,10.256,0,0,0-7.483,7.577c-.274,1.233-.314,2.511-.6,3.743-.718,3.092-3.983,3.747-4.762,6.916-.705,2.864.19,5.883.683,8.707.758,4.341,1.609,8.666,2.51,12.98q.734,3.515,1.506,7.023c.476,2.15-.152,4.513.809,6.489A10.791,10.791,0,0,0,422.571,261.561Z" transform="translate(-415.78 -205.518)"/><g transform="translate(4.718 3.814)"><path class="c" d="M420.156,245.578a.535.535,0,0,1-.075-.006.488.488,0,0,1-.407-.555c2.434-15.792,24.615-34.462,38.782-36.351a.486.486,0,1,1,.129.964c-13.863,1.851-35.57,20.1-37.948,35.536A.488.488,0,0,1,420.156,245.578Z" transform="translate(-419.668 -208.661)"/></g><g transform="translate(12.839 4.94)"><path class="c" d="M431.4,224.269a.487.487,0,0,1-.483-.442c-.885-9.638-4.387-13.378-4.422-13.414a.487.487,0,0,1,.7-.677c.154.158,3.77,3.979,4.691,14a.486.486,0,0,1-.439.529Z" transform="translate(-426.36 -209.589)"/></g><g transform="translate(12.407 23.778)"><path class="c" d="M446.9,228.994a.482.482,0,0,1-.19-.039c-.108-.046-10.978-4.6-20.091-2.12a.487.487,0,0,1-.255-.939c9.441-2.564,20.271,1.971,20.727,2.164a.487.487,0,0,1-.191.934Z" transform="translate(-426.004 -225.112)"/></g></g></g></g><g transform="translate(196.652 0)"><path class="g" d="M364.236,119.813l10.066,5.8v17.432l-10.066-5.811Z" transform="translate(-145.957 -53.862)"/><path class="e" d="M394.93,89.38l-32.542,18.789V70.592a5.038,5.038,0,0,0-7.714-4.454L193.7,159.078c-6.222,3.591-9.332,8.3-9.332,13.007V328.971c0,4.707,3.11,9.416,9.332,13.007l.229.134c12.444,7.184,32.617,7.184,45.06,0L399.962,249.17a5.946,5.946,0,0,0,2.682-4.645V90.736l-2.516-1.453A5.752,5.752,0,0,0,394.93,89.38Z" transform="translate(-184.365 -65.467)"/><g transform="translate(0.039)"><path class="b" d="M193.69,185.092c-12.391-7.154-12.391-18.861,0-26.014L354.666,66.138a5.752,5.752,0,0,1,5.2-.1c1.389.8,1.314,2.147-.166,3L203.218,159.386c-1.482.856-3.9,2.222-5.268,3.249-7.262,5.454-7.921,12.726-1.664,17.868a25.623,25.623,0,0,0,5.327,3.119c8.976,3.75,21.834,3.372,31.39-.939,1.559-.7,3.956-2.1,5.438-2.957L394.924,89.38a5.749,5.749,0,0,1,5.2-.1c1.39.8,1.315,2.147-.166,3L238.979,185.226c-12.391,7.154-32.668,7.154-45.06,0Z" transform="translate(-184.397 -65.467)"/><path class="g" d="M193.69,185.092c-12.391-7.154-12.391-18.861,0-26.014L354.666,66.138a5.752,5.752,0,0,1,5.2-.1c1.389.8,1.314,2.147-.166,3L203.218,159.386c-1.482.856-3.9,2.222-5.268,3.249-7.262,5.454-7.921,12.726-1.664,17.868a25.623,25.623,0,0,0,5.327,3.119c8.976,3.75,21.834,3.372,31.39-.939,1.559-.7,3.956-2.1,5.438-2.957L394.924,89.38a5.749,5.749,0,0,1,5.2-.1c1.39.8,1.315,2.147-.166,3L238.979,185.226c-12.391,7.154-32.668,7.154-45.06,0Z" transform="translate(-184.397 -65.467)"/></g><g transform="translate(2.562 42.072)"><g transform="translate(0 83.546)"><path class="c" d="M189.213,172.352a.609.609,0,0,1-.4-.149,19.85,19.85,0,0,1-2.2-2.224.607.607,0,0,1,.932-.778,18.527,18.527,0,0,0,2.062,2.086.607.607,0,0,1-.4,1.065Z" transform="translate(-186.476 -168.981)"/></g><g transform="translate(7.185 4.582)"><path class="c" d="M216.7,194.575a.606.606,0,0,1-.021-1.212,53.29,53.29,0,0,0,6.02-.553.607.607,0,0,1,.18,1.2,54.234,54.234,0,0,1-6.157.565Zm-6.114-.123h-.047a53.149,53.149,0,0,1-6.13-.82.607.607,0,0,1,.233-1.192,52.267,52.267,0,0,0,5.989.8.606.606,0,0,1-.045,1.211Zm18.184-1.716a.606.606,0,0,1-.165-1.189,39.522,39.522,0,0,0,5.654-2.063.607.607,0,0,1,.5,1.1,40.534,40.534,0,0,1-5.83,2.125A.545.545,0,0,1,228.769,192.736Zm-30.154-.653a.6.6,0,0,1-.194-.032,36.962,36.962,0,0,1-5.7-2.461.606.606,0,1,1,.575-1.068,36.025,36.025,0,0,0,5.518,2.38.606.606,0,0,1-.194,1.181Zm41.264-4.368a.607.607,0,0,1-.3-1.132l5.3-3.059a.607.607,0,0,1,.607,1.051l-5.3,3.059A.612.612,0,0,1,239.879,187.716Zm10.6-6.117a.607.607,0,0,1-.3-1.132l5.3-3.059a.607.607,0,0,1,.607,1.051l-5.3,3.059A.612.612,0,0,1,250.475,181.6Zm10.6-6.119a.607.607,0,0,1-.3-1.132l5.3-3.058a.607.607,0,0,1,.607,1.051l-5.3,3.058A.6.6,0,0,1,261.072,175.48Zm10.6-6.117a.607.607,0,0,1-.3-1.132l5.3-3.059a.607.607,0,1,1,.607,1.051l-5.3,3.059A.612.612,0,0,1,271.669,169.363Zm10.6-6.117a.607.607,0,0,1-.3-1.132l5.3-3.059a.607.607,0,0,1,.607,1.051l-5.3,3.059A.612.612,0,0,1,282.265,163.245Zm10.6-6.119a.607.607,0,0,1-.3-1.132l5.3-3.058a.607.607,0,0,1,.607,1.051l-5.3,3.058A.6.6,0,0,1,292.86,157.127Zm10.6-6.117a.607.607,0,0,1-.3-1.132l5.3-3.059a.607.607,0,0,1,.607,1.051l-5.3,3.059A.6.6,0,0,1,303.457,151.009Zm10.6-6.117a.607.607,0,0,1-.3-1.132l5.3-3.059a.607.607,0,1,1,.607,1.051l-5.3,3.059A.612.612,0,0,1,314.054,144.892Zm10.6-6.119a.607.607,0,0,1-.3-1.132l5.3-3.058a.607.607,0,0,1,.607,1.051l-5.3,3.058A.6.6,0,0,1,324.649,138.773Zm10.6-6.117a.607.607,0,0,1-.3-1.132l5.3-3.058a.607.607,0,0,1,.607,1.051l-5.3,3.058A.6.6,0,0,1,335.247,132.656Zm10.6-6.117a.607.607,0,0,1-.3-1.132l5.3-3.059a.607.607,0,0,1,.607,1.051l-5.3,3.059A.612.612,0,0,1,345.842,126.538Zm10.6-6.117a.607.607,0,0,1-.3-1.132l5.3-3.059a.607.607,0,0,1,.607,1.051l-5.3,3.059A.612.612,0,0,1,356.439,120.421Zm10.6-6.119a.607.607,0,0,1-.3-1.132l5.3-3.059a.607.607,0,0,1,.607,1.052l-5.3,3.058A.6.6,0,0,1,367.035,114.3Zm10.6-6.117a.607.607,0,0,1-.3-1.133l5.3-3.058a.607.607,0,0,1,.607,1.051l-5.3,3.059A.615.615,0,0,1,377.632,108.185Z" transform="translate(-192.397 -103.912)"/></g><g transform="translate(202.42)"><path class="c" d="M356.513,104.383a.605.605,0,0,1-.607-.607v-1.983l-1.717.991a.607.607,0,0,1-.607-1.051l2.627-1.517a.607.607,0,0,1,.91.525v3.034A.606.606,0,0,1,356.513,104.383Z" transform="translate(-353.279 -100.136)"/></g><g transform="translate(205.048 9.11)"><path class="c" d="M356.051,224.3a.606.606,0,0,1-.607-.607V217.62a.607.607,0,1,1,1.214,0V223.7A.607.607,0,0,1,356.051,224.3Zm0-12.152a.606.606,0,0,1-.607-.607v-6.076a.607.607,0,1,1,1.214,0v6.076A.607.607,0,0,1,356.051,212.151Zm0-12.152a.606.606,0,0,1-.607-.607v-6.076a.607.607,0,1,1,1.214,0v6.076A.607.607,0,0,1,356.051,200Zm0-12.152a.606.606,0,0,1-.607-.607v-6.076a.607.607,0,1,1,1.214,0v6.076A.607.607,0,0,1,356.051,187.846Zm0-12.152a.606.606,0,0,1-.607-.607v-6.076a.607.607,0,1,1,1.214,0v6.076A.607.607,0,0,1,356.051,175.694Zm0-12.152a.606.606,0,0,1-.607-.607v-6.076a.607.607,0,1,1,1.214,0v6.076A.607.607,0,0,1,356.051,163.542Zm0-12.152a.606.606,0,0,1-.607-.607v-6.076a.607.607,0,1,1,1.214,0v6.076A.607.607,0,0,1,356.051,151.39Zm0-12.152a.606.606,0,0,1-.607-.607v-6.076a.607.607,0,1,1,1.214,0v6.076A.607.607,0,0,1,356.051,139.237Zm0-12.152a.606.606,0,0,1-.607-.607V120.4a.607.607,0,1,1,1.214,0v6.076A.607.607,0,0,1,356.051,127.085Zm0-12.152a.606.606,0,0,1-.607-.607V108.25a.607.607,0,1,1,1.214,0v6.076A.607.607,0,0,1,356.051,114.933Z" transform="translate(-355.444 -107.643)"/></g><g transform="translate(202.42 130.633)"><path class="c" d="M353.886,213.547a.607.607,0,0,1-.3-1.132l2.324-1.342V208.39a.607.607,0,0,1,1.214,0v3.034a.608.608,0,0,1-.3.525l-2.627,1.517A.612.612,0,0,1,353.886,213.547Z" transform="translate(-353.279 -207.783)"/></g><g transform="translate(7.195 138.241)"><path class="c" d="M216.713,304.723a.607.607,0,0,1-.022-1.214,53.242,53.242,0,0,0,6.02-.553.606.606,0,1,1,.181,1.2,54.236,54.236,0,0,1-6.157.568Zm-6.114-.12a.292.292,0,0,1-.046,0,53.049,53.049,0,0,1-6.132-.818.608.608,0,0,1,.232-1.193,51.143,51.143,0,0,0,5.99.8.608.608,0,0,1-.044,1.214Zm18.18-1.721a.607.607,0,0,1-.165-1.192,39.547,39.547,0,0,0,5.654-2.063.606.606,0,1,1,.5,1.1,40.642,40.642,0,0,1-5.827,2.13A.61.61,0,0,1,228.779,302.882Zm-30.154-.647a.631.631,0,0,1-.194-.032,37.205,37.205,0,0,1-5.707-2.46.607.607,0,1,1,.576-1.068,36.037,36.037,0,0,0,5.519,2.379.606.606,0,0,1-.194,1.181Zm41.264-4.378a.607.607,0,0,1-.3-1.132l5.3-3.058a.606.606,0,0,1,.607,1.05l-5.3,3.058A.6.6,0,0,1,239.889,297.857Zm10.6-6.117a.607.607,0,0,1-.3-1.132l5.3-3.058a.606.606,0,1,1,.607,1.05l-5.3,3.059A.612.612,0,0,1,250.485,291.74Zm10.6-6.117a.607.607,0,0,1-.3-1.132l5.3-3.059a.606.606,0,0,1,.607,1.05l-5.3,3.059A.608.608,0,0,1,261.081,285.622Zm10.6-6.119a.607.607,0,0,1-.3-1.132l5.3-3.058a.606.606,0,1,1,.607,1.05l-5.3,3.059A.612.612,0,0,1,271.678,279.5Zm10.6-6.117a.607.607,0,0,1-.3-1.132l5.3-3.058a.606.606,0,0,1,.607,1.05l-5.3,3.058A.6.6,0,0,1,282.273,273.386Zm10.6-6.117a.607.607,0,0,1-.3-1.132l5.3-3.058a.606.606,0,1,1,.607,1.05l-5.3,3.058A.6.6,0,0,1,292.87,267.269Zm10.6-6.119a.607.607,0,0,1-.3-1.132l5.3-3.058a.606.606,0,1,1,.607,1.05l-5.3,3.058A.6.6,0,0,1,303.466,261.15Zm10.6-6.117a.607.607,0,0,1-.3-1.132l5.3-3.059a.607.607,0,1,1,.607,1.051l-5.3,3.058A.6.6,0,0,1,314.063,255.033Zm10.6-6.119a.607.607,0,0,1-.3-1.132l5.3-3.058a.607.607,0,1,1,.607,1.051l-5.3,3.058A.6.6,0,0,1,324.659,248.914Zm10.6-6.117a.607.607,0,0,1-.3-1.132l5.3-3.059a.607.607,0,0,1,.607,1.051l-5.3,3.059A.6.6,0,0,1,335.256,242.8Zm10.6-6.117a.607.607,0,0,1-.3-1.132l5.3-3.059a.607.607,0,0,1,.607,1.051l-5.3,3.059A.612.612,0,0,1,345.851,236.679Zm10.6-6.117a.607.607,0,0,1-.3-1.132l5.3-3.059a.607.607,0,0,1,.607,1.051l-5.3,3.059A.612.612,0,0,1,356.448,230.562Zm10.6-6.119a.607.607,0,0,1-.3-1.132l5.3-3.058a.607.607,0,1,1,.607,1.051l-5.3,3.058A.6.6,0,0,1,367.044,224.443Zm10.6-6.117a.607.607,0,0,1-.3-1.132l5.3-3.059a.607.607,0,0,1,.607,1.051l-5.3,3.059A.612.612,0,0,1,377.64,218.326Z" transform="translate(-192.405 -214.052)"/></g><g transform="translate(0 217.212)"><path class="c" d="M189.213,282.5a.608.608,0,0,1-.4-.148,19.953,19.953,0,0,1-2.2-2.224.608.608,0,0,1,.932-.78,18.336,18.336,0,0,0,2.062,2.087.607.607,0,0,1-.4,1.065Z" transform="translate(-186.476 -279.128)"/></g></g><g transform="translate(7.654 0.887)"><g class="h"><g transform="translate(-5.757 10.584)"><path class="i" d="M362.054,97.863V79.576a4.745,4.745,0,0,0-2.145-3.716l-.742-.428a4.748,4.748,0,0,0-4.291,0L185.928,172.975,211.089,187.5,359.908,101.58A4.742,4.742,0,0,0,362.054,97.863Z" transform="translate(-185.928 -74.92)"/><path class="j" d="M354.876,75.432,185.928,172.975l5.034,2.9L359.908,78.337a1.307,1.307,0,0,0,0-2.477l-.742-.428A4.748,4.748,0,0,0,354.876,75.432Z" transform="translate(-185.928 -74.92)"/><g transform="translate(10.065 5.809)"><path class="i" d="M370.348,102.651V84.365a4.743,4.743,0,0,0-2.147-3.717l-.74-.427a4.743,4.743,0,0,0-4.292,0L194.222,177.762l25.161,14.526L368.2,106.367A4.745,4.745,0,0,0,370.348,102.651Z" transform="translate(-194.222 -79.707)"/><path class="j" d="M363.169,80.22,194.222,177.762l5.034,2.905L368.2,83.126a1.308,1.308,0,0,0,0-2.478l-.74-.427A4.743,4.743,0,0,0,363.169,80.22Z" transform="translate(-194.222 -79.707)"/></g><g transform="translate(20.129 11.616)"><path class="i" d="M378.641,107.436V89.15a4.745,4.745,0,0,0-2.145-3.717l-.742-.427a4.74,4.74,0,0,0-4.291,0L202.515,182.547l25.16,14.526,148.82-85.92A4.743,4.743,0,0,0,378.641,107.436Z" transform="translate(-202.515 -84.492)"/><path class="j" d="M371.462,85.005,202.515,182.547l5.033,2.905L376.494,87.911a1.308,1.308,0,0,0,0-2.478l-.742-.427A4.74,4.74,0,0,0,371.462,85.005Z" transform="translate(-202.515 -84.492)"/></g></g></g></g><g transform="translate(147.827 65.951)"><path class="b" d="M396.763,133.911v35.714a4.768,4.768,0,0,1-2.143,3.717l-65.161,37.623a.621.621,0,0,1-.124.062c-4.923,2.813-9.394,3.176-12.663,1.488-.993-.513-4.81-2.735-5.741-3.338-2.953-1.909-4.75-5.672-4.75-10.947,0-10.876,7.656-24.181,17.282-30.289l.012-.012,61.073-35.257a3.516,3.516,0,0,0,.322-.223c.856-.681.744-1.635-.322-2.255l-7.916-4.571v-5.809l17.987,10.381a4.793,4.793,0,0,1,2.107,3.3A2.458,2.458,0,0,1,396.763,133.911Z" transform="translate(-306.181 -119.813)"/><path class="g" d="M396.763,133.911v35.714a4.768,4.768,0,0,1-2.143,3.717l-65.161,37.623a.621.621,0,0,1-.124.062c-4.923,2.813-9.394,3.176-12.663,1.488-.993-.513-4.81-2.735-5.741-3.338-2.953-1.909-4.75-5.672-4.75-10.947,0-10.876,7.656-24.181,17.282-30.289l.012-.012,61.073-35.257a3.516,3.516,0,0,0,.322-.223c.856-.681.744-1.635-.322-2.255l-7.916-4.571v-5.809l17.987,10.381a4.793,4.793,0,0,1,2.107,3.3A2.458,2.458,0,0,1,396.763,133.911Z" transform="translate(-306.181 -119.813)"/></g><path class="k" d="M395.878,131.7v35.714a4.768,4.768,0,0,1-2.143,3.717l-65.161,37.623a.621.621,0,0,1-.124.062c-6.417,3.666-12.067,3.171-15.288-.608-1.8-2.118-2.837-5.252-2.837-9.265,0-11.236,8.177-25.05,18.249-30.872l62.275-35.95,2.886-1.66c1.053-.62,1.933-.248,2.107.818A2.455,2.455,0,0,1,395.878,131.7Z" transform="translate(-157.469 -51.653)"/><g transform="translate(167.959 124.472)"><path class="l" d="M322.77,182.142c0,4.813,3.38,6.764,7.548,4.358a16.684,16.684,0,0,0,7.548-13.075c0-4.813-3.38-6.764-7.548-4.358A16.685,16.685,0,0,0,322.77,182.142Z" transform="translate(-322.77 -168.037)"/><path class="l" d="M337.739,169.851l-2.238-1.277L324.587,186.91l2.563,1.477Z" transform="translate(-322.382 -167.922)"/><path class="m" d="M324.843,183.339c0,4.813,3.38,6.764,7.549,4.358a16.687,16.687,0,0,0,7.548-13.075c0-4.813-3.381-6.764-7.549-4.358A16.685,16.685,0,0,0,324.843,183.339Z" transform="translate(-322.327 -167.781)"/></g></g><g transform="translate(136.952 151.63)"><path class="m" d="M137.687,445.051a5.75,5.75,0,0,1-2.516-4.55V295.621a5.928,5.928,0,0,1,2.682-4.645L323.708,183.67a5.041,5.041,0,0,1,7.716,4.455V333.006a5.929,5.929,0,0,1-2.682,4.645l-185.857,107.3A5.75,5.75,0,0,1,137.687,445.051Z" transform="translate(-135.17 -183)"/><path class="n" d="M145.235,278.983l-9.28-5.358a5.5,5.5,0,0,0-.785,2.644V421.15a5.038,5.038,0,0,0,7.713,4.454l2.351-1.357Z" transform="translate(-135.17 -163.649)"/><path class="m" d="M139.317,297.961V442.842c0,1.711,1.2,2.4,2.682,1.548l185.857-107.3a5.929,5.929,0,0,0,2.682-4.645V187.56c0-1.711-1.2-2.4-2.682-1.548L142,293.316A5.924,5.924,0,0,0,139.317,297.961Z" transform="translate(-134.285 -182.435)"/><g transform="translate(20.129 131.043)"><path class="e" d="M151.757,313.236V336.1c0,1.71,1.2,2.4,2.682,1.548L184.3,320.4a5.931,5.931,0,0,0,2.682-4.645V292.9c0-1.71-1.2-2.4-2.682-1.548l-29.861,17.239A5.928,5.928,0,0,0,151.757,313.236Z" transform="translate(-151.757 -290.985)"/><g class="o"><g transform="translate(-5.331 4.094)"><rect class="c" width="52.296" height="1.213" transform="translate(0 26.164) rotate(-30.021)"/></g><g transform="translate(9.457 22.06)"><rect class="c" width="1.214" height="11.645"/></g><g transform="translate(24.554 13.392)"><rect class="c" width="1.214" height="11.627"/></g><g transform="translate(-5.331 15.764)"><rect class="c" width="52.296" height="1.213" transform="translate(0 26.164) rotate(-30.021)"/></g></g></g><g transform="translate(20.129 101.985)"><path class="i" d="M151.757,349.15v5.428c0,1.71,1.2,2.4,2.682,1.548L184.3,338.886a5.928,5.928,0,0,0,2.682-4.645v-5.427c0-1.711-1.2-2.4-2.682-1.548L154.439,344.5A5.931,5.931,0,0,0,151.757,349.15Z" transform="translate(-151.757 -254.258)"/><path class="i" d="M186.313,329.2v5.428c0,1.71,1.2,2.4,2.682,1.548l29.86-17.241a5.929,5.929,0,0,0,2.683-4.645v-5.427c0-1.711-1.2-2.4-2.682-1.548l-29.86,17.239A5.928,5.928,0,0,0,186.313,329.2Z" transform="translate(-144.378 -258.519)"/><path class="i" d="M220.868,309.245v5.427c0,1.71,1.2,2.4,2.682,1.548l29.861-17.241a5.93,5.93,0,0,0,2.682-4.645v-5.427c0-1.71-1.2-2.4-2.682-1.548L223.55,304.6A5.927,5.927,0,0,0,220.868,309.245Z" transform="translate(-137 -262.78)"/><path class="i" d="M255.424,289.293v5.427c0,1.711,1.2,2.4,2.682,1.548l29.86-17.241a5.924,5.924,0,0,0,2.682-4.645v-5.427c0-1.71-1.2-2.4-2.682-1.548l-29.86,17.241A5.926,5.926,0,0,0,255.424,289.293Z" transform="translate(-129.621 -267.04)"/></g><path class="e" d="M272.173,290.815l-6.846,3.952a3.555,3.555,0,0,0-1.609,2.787v2.095c0,1.025.72,1.442,1.609.928l6.846-3.952a3.558,3.558,0,0,0,1.609-2.788v-2.093C273.782,290.718,273.061,290.3,272.173,290.815Z" transform="translate(-107.721 -160.025)"/><path class="e" d="M284.613,283.633l-6.847,3.953a3.556,3.556,0,0,0-1.609,2.786v2.095c0,1.027.721,1.443,1.609.93l6.847-3.953a3.558,3.558,0,0,0,1.609-2.787v-2.095C286.222,283.536,285.5,283.119,284.613,283.633Z" transform="translate(-105.065 -161.559)"/><path class="k" d="M212.38,345.4l85.214-49.2c1.48-.854,2.682-.161,2.682,1.548v2.523a5.932,5.932,0,0,1-2.682,4.645l-85.215,49.2c-1.481.856-2.682.163-2.681-1.548v-2.522A5.924,5.924,0,0,1,212.38,345.4Z" transform="translate(-119.256 -158.906)"/></g><ellipse class="i" cx="24.438" cy="14.175" rx="24.438" ry="14.175" transform="translate(352.898 284.167)"/><ellipse class="i" cx="24.438" cy="14.175" rx="24.438" ry="14.175" transform="translate(441.898 237.167)"/><ellipse class="i" cx="24.438" cy="14.175" rx="24.438" ry="14.175" transform="translate(371.898 226.167)"/><g transform="translate(356.8 275.698)"><path class="k" d="M360.091,252.83v5.759a9.948,9.948,0,0,1-2.952,6.61,20.24,20.24,0,0,1-6.424,4.405,36.864,36.864,0,0,1-15.06,3.012,39.911,39.911,0,0,1-9.746-1.173,32.592,32.592,0,0,1-3.544-1.105q-.875-.329-1.7-.7a20.409,20.409,0,0,1-6.424-4.36,9.985,9.985,0,0,1-3.024-6.689l0-5.759a10.034,10.034,0,0,1,3.026-6.615,20.434,20.434,0,0,1,6.424-4.361q.822-.369,1.7-.7a33.251,33.251,0,0,1,3.544-1.105,39.975,39.975,0,0,1,9.746-1.172,36.843,36.843,0,0,1,15.06,3.012,20.22,20.22,0,0,1,6.424,4.405,9.953,9.953,0,0,1,2.947,6.536Z" transform="translate(-311.216 -238.876)"/><path class="p" d="M320.016,241.214V269a20.41,20.41,0,0,1-6.424-4.36V245.575A20.434,20.434,0,0,1,320.016,241.214Z" transform="translate(-310.566 -238.236)"/><path class="q" d="M348.653,245.646v18.905a20.241,20.241,0,0,1-6.424,4.405V241.241A20.22,20.22,0,0,1,348.653,245.646Z" transform="translate(-302.73 -238.229)"/><path class="r" d="M323.513,239.8v31.4a32.592,32.592,0,0,1-3.544-1.105V240.9A33.251,33.251,0,0,1,323.513,239.8Z" transform="translate(-308.821 -238.624)"/><ellipse class="q" cx="24.438" cy="14.176" rx="24.438" ry="14.176" transform="translate(0)"/><path class="k" d="M335.178,264.536a32.771,32.771,0,0,1-16.17-3.853c-3.9-2.264-6.053-5.144-6.053-8.108s2.15-5.843,6.053-8.108a35.856,35.856,0,0,1,32.338,0c3.9,2.264,6.053,5.144,6.053,8.108s-2.15,5.843-6.053,8.108A32.77,32.77,0,0,1,335.178,264.536Z" transform="translate(-310.74 -238.4)"/><path class="q" d="M335.02,263.639a32.024,32.024,0,0,1-15.8-3.753c-3.667-2.127-5.687-4.779-5.687-7.468s2.02-5.342,5.687-7.47a35.137,35.137,0,0,1,31.6,0c3.667,2.128,5.687,4.78,5.687,7.47s-2.02,5.342-5.687,7.468A32.022,32.022,0,0,1,335.02,263.639Z" transform="translate(-310.581 -238.241)"/><path class="k" d="M354.71,252.1c0,2.141-1.758,4.339-4.951,6.191a27.574,27.574,0,0,1-10.228,3.248,37.343,37.343,0,0,1-4.828.307,38.03,38.03,0,0,1-4.319-.243q-1.066-.122-2.1-.306a30.655,30.655,0,0,1-4.025-.987,23.532,23.532,0,0,1-4.619-2.019c-3.193-1.852-4.951-4.05-4.951-6.191s1.758-4.339,4.951-6.191a30.54,30.54,0,0,1,15.058-3.555,36.524,36.524,0,0,1,6.881.636,29.749,29.749,0,0,1,3.972,1.038q.9.3,1.742.66a21.694,21.694,0,0,1,2.461,1.221,14.382,14.382,0,0,1,3.081,2.32A5.663,5.663,0,0,1,354.71,252.1Z" transform="translate(-310.264 -237.924)"/><path class="p" d="M349.469,247.728,336.16,261.037a37.343,37.343,0,0,1-4.828.307,38.023,38.023,0,0,1-4.319-.243l16.915-16.915a21.694,21.694,0,0,1,2.461,1.221A14.382,14.382,0,0,1,349.469,247.728Z" transform="translate(-306.893 -237.423)"/><path class="p" d="M343.5,243.891,326.233,261.16a30.655,30.655,0,0,1-4.025-.987l17.32-17.32A29.749,29.749,0,0,1,343.5,243.891Z" transform="translate(-308.208 -237.788)"/></g><g transform="translate(445.8 228.698)"><path class="k" d="M360.091,252.83v5.759a9.948,9.948,0,0,1-2.952,6.61,20.24,20.24,0,0,1-6.424,4.405,36.864,36.864,0,0,1-15.06,3.012,39.911,39.911,0,0,1-9.746-1.173,32.592,32.592,0,0,1-3.544-1.105q-.875-.329-1.7-.7a20.409,20.409,0,0,1-6.424-4.36,9.985,9.985,0,0,1-3.024-6.689l0-5.759a10.034,10.034,0,0,1,3.026-6.615,20.434,20.434,0,0,1,6.424-4.361q.822-.369,1.7-.7a33.251,33.251,0,0,1,3.544-1.105,39.975,39.975,0,0,1,9.746-1.172,36.843,36.843,0,0,1,15.06,3.012,20.22,20.22,0,0,1,6.424,4.405,9.953,9.953,0,0,1,2.947,6.536Z" transform="translate(-311.216 -238.876)"/><path class="p" d="M320.016,241.214V269a20.41,20.41,0,0,1-6.424-4.36V245.575A20.434,20.434,0,0,1,320.016,241.214Z" transform="translate(-310.566 -238.236)"/><path class="q" d="M348.653,245.646v18.905a20.241,20.241,0,0,1-6.424,4.405V241.241A20.22,20.22,0,0,1,348.653,245.646Z" transform="translate(-302.73 -238.229)"/><path class="r" d="M323.513,239.8v31.4a32.592,32.592,0,0,1-3.544-1.105V240.9A33.251,33.251,0,0,1,323.513,239.8Z" transform="translate(-308.821 -238.624)"/><ellipse class="q" cx="24.438" cy="14.176" rx="24.438" ry="14.176" transform="translate(0)"/><path class="k" d="M335.178,264.536a32.771,32.771,0,0,1-16.17-3.853c-3.9-2.264-6.053-5.144-6.053-8.108s2.15-5.843,6.053-8.108a35.856,35.856,0,0,1,32.338,0c3.9,2.264,6.053,5.144,6.053,8.108s-2.15,5.843-6.053,8.108A32.77,32.77,0,0,1,335.178,264.536Z" transform="translate(-310.74 -238.4)"/><path class="q" d="M335.02,263.639a32.024,32.024,0,0,1-15.8-3.753c-3.667-2.127-5.687-4.779-5.687-7.468s2.02-5.342,5.687-7.47a35.137,35.137,0,0,1,31.6,0c3.667,2.128,5.687,4.78,5.687,7.47s-2.02,5.342-5.687,7.468A32.022,32.022,0,0,1,335.02,263.639Z" transform="translate(-310.581 -238.241)"/><path class="k" d="M354.71,252.1c0,2.141-1.758,4.339-4.951,6.191a27.574,27.574,0,0,1-10.228,3.248,37.343,37.343,0,0,1-4.828.307,38.03,38.03,0,0,1-4.319-.243q-1.066-.122-2.1-.306a30.655,30.655,0,0,1-4.025-.987,23.532,23.532,0,0,1-4.619-2.019c-3.193-1.852-4.951-4.05-4.951-6.191s1.758-4.339,4.951-6.191a30.54,30.54,0,0,1,15.058-3.555,36.524,36.524,0,0,1,6.881.636,29.749,29.749,0,0,1,3.972,1.038q.9.3,1.742.66a21.694,21.694,0,0,1,2.461,1.221,14.382,14.382,0,0,1,3.081,2.32A5.663,5.663,0,0,1,354.71,252.1Z" transform="translate(-310.264 -237.924)"/><path class="p" d="M349.469,247.728,336.16,261.037a37.343,37.343,0,0,1-4.828.307,38.023,38.023,0,0,1-4.319-.243l16.915-16.915a21.694,21.694,0,0,1,2.461,1.221A14.382,14.382,0,0,1,349.469,247.728Z" transform="translate(-306.893 -237.423)"/><path class="p" d="M343.5,243.891,326.233,261.16a30.655,30.655,0,0,1-4.025-.987l17.32-17.32A29.749,29.749,0,0,1,343.5,243.891Z" transform="translate(-308.208 -237.788)"/></g><g transform="translate(375.8 217.698)"><path class="k" d="M360.091,252.83v5.759a9.948,9.948,0,0,1-2.952,6.61,20.24,20.24,0,0,1-6.424,4.405,36.864,36.864,0,0,1-15.06,3.012,39.911,39.911,0,0,1-9.746-1.173,32.592,32.592,0,0,1-3.544-1.105q-.875-.329-1.7-.7a20.409,20.409,0,0,1-6.424-4.36,9.985,9.985,0,0,1-3.024-6.689l0-5.759a10.034,10.034,0,0,1,3.026-6.615,20.434,20.434,0,0,1,6.424-4.361q.822-.369,1.7-.7a33.251,33.251,0,0,1,3.544-1.105,39.975,39.975,0,0,1,9.746-1.172,36.843,36.843,0,0,1,15.06,3.012,20.22,20.22,0,0,1,6.424,4.405,9.953,9.953,0,0,1,2.947,6.536Z" transform="translate(-311.216 -238.876)"/><path class="p" d="M320.016,241.214V269a20.41,20.41,0,0,1-6.424-4.36V245.575A20.434,20.434,0,0,1,320.016,241.214Z" transform="translate(-310.566 -238.236)"/><path class="q" d="M348.653,245.646v18.905a20.241,20.241,0,0,1-6.424,4.405V241.241A20.22,20.22,0,0,1,348.653,245.646Z" transform="translate(-302.73 -238.229)"/><path class="r" d="M323.513,239.8v31.4a32.592,32.592,0,0,1-3.544-1.105V240.9A33.251,33.251,0,0,1,323.513,239.8Z" transform="translate(-308.821 -238.624)"/><ellipse class="q" cx="24.438" cy="14.176" rx="24.438" ry="14.176" transform="translate(0)"/><path class="k" d="M335.178,264.536a32.771,32.771,0,0,1-16.17-3.853c-3.9-2.264-6.053-5.144-6.053-8.108s2.15-5.843,6.053-8.108a35.856,35.856,0,0,1,32.338,0c3.9,2.264,6.053,5.144,6.053,8.108s-2.15,5.843-6.053,8.108A32.77,32.77,0,0,1,335.178,264.536Z" transform="translate(-310.74 -238.4)"/><path class="q" d="M335.02,263.639a32.024,32.024,0,0,1-15.8-3.753c-3.667-2.127-5.687-4.779-5.687-7.468s2.02-5.342,5.687-7.47a35.137,35.137,0,0,1,31.6,0c3.667,2.128,5.687,4.78,5.687,7.47s-2.02,5.342-5.687,7.468A32.022,32.022,0,0,1,335.02,263.639Z" transform="translate(-310.581 -238.241)"/><path class="k" d="M354.71,252.1c0,2.141-1.758,4.339-4.951,6.191a27.574,27.574,0,0,1-10.228,3.248,37.343,37.343,0,0,1-4.828.307,38.03,38.03,0,0,1-4.319-.243q-1.066-.122-2.1-.306a30.655,30.655,0,0,1-4.025-.987,23.532,23.532,0,0,1-4.619-2.019c-3.193-1.852-4.951-4.05-4.951-6.191s1.758-4.339,4.951-6.191a30.54,30.54,0,0,1,15.058-3.555,36.524,36.524,0,0,1,6.881.636,29.749,29.749,0,0,1,3.972,1.038q.9.3,1.742.66a21.694,21.694,0,0,1,2.461,1.221,14.382,14.382,0,0,1,3.081,2.32A5.663,5.663,0,0,1,354.71,252.1Z" transform="translate(-310.264 -237.924)"/><path class="p" d="M349.469,247.728,336.16,261.037a37.343,37.343,0,0,1-4.828.307,38.023,38.023,0,0,1-4.319-.243l16.915-16.915a21.694,21.694,0,0,1,2.461,1.221A14.382,14.382,0,0,1,349.469,247.728Z" transform="translate(-306.893 -237.423)"/><path class="p" d="M343.5,243.891,326.233,261.16a30.655,30.655,0,0,1-4.025-.987l17.32-17.32A29.749,29.749,0,0,1,343.5,243.891Z" transform="translate(-308.208 -237.788)"/></g><g transform="translate(359.458 265.067)"><path class="k" d="M362.178,244.483v5.758a9.949,9.949,0,0,1-2.953,6.611,20.232,20.232,0,0,1-6.423,4.4,36.846,36.846,0,0,1-15.062,3.012,39.994,39.994,0,0,1-9.746-1.172,32.668,32.668,0,0,1-3.543-1.106q-.877-.33-1.7-.7a20.408,20.408,0,0,1-6.424-4.358,9.991,9.991,0,0,1-3.024-6.69l0-5.758a10.037,10.037,0,0,1,3.026-6.616,20.411,20.411,0,0,1,6.424-4.36q.822-.371,1.7-.7a32.75,32.75,0,0,1,3.543-1.105,39.927,39.927,0,0,1,9.746-1.173A36.866,36.866,0,0,1,352.8,233.54a20.254,20.254,0,0,1,6.423,4.405,9.958,9.958,0,0,1,2.948,6.537Z" transform="translate(-313.303 -230.528)"/><path class="p" d="M322.1,232.867V260.65a20.408,20.408,0,0,1-6.424-4.358V237.227A20.411,20.411,0,0,1,322.1,232.867Z" transform="translate(-312.652 -229.888)"/><path class="q" d="M350.739,237.3v18.907a20.232,20.232,0,0,1-6.423,4.4V232.893A20.254,20.254,0,0,1,350.739,237.3Z" transform="translate(-304.817 -229.881)"/><path class="r" d="M325.6,231.449v31.4a32.668,32.668,0,0,1-3.543-1.106V232.554A32.75,32.75,0,0,1,325.6,231.449Z" transform="translate(-310.908 -230.276)"/><ellipse class="q" cx="24.438" cy="14.175" rx="24.438" ry="14.175" transform="translate(0 0)"/><path class="k" d="M337.264,256.188a32.769,32.769,0,0,1-16.168-3.853c-3.9-2.264-6.053-5.144-6.053-8.108s2.15-5.842,6.053-8.108a35.856,35.856,0,0,1,32.338,0c3.9,2.266,6.053,5.144,6.053,8.108s-2.15,5.843-6.053,8.108A32.771,32.771,0,0,1,337.264,256.188Z" transform="translate(-312.827 -230.052)"/><path class="q" d="M337.106,255.292a32.032,32.032,0,0,1-15.8-3.753c-3.667-2.127-5.687-4.78-5.687-7.47s2.02-5.342,5.687-7.468a35.126,35.126,0,0,1,31.6,0c3.667,2.127,5.685,4.78,5.685,7.468s-2.019,5.343-5.685,7.47A32.037,32.037,0,0,1,337.106,255.292Z" transform="translate(-312.668 -229.893)"/><path class="k" d="M356.8,243.752c0,2.142-1.758,4.34-4.951,6.192a27.574,27.574,0,0,1-10.228,3.248,37.585,37.585,0,0,1-4.83.306,38.017,38.017,0,0,1-4.318-.243q-1.066-.122-2.1-.3a30.667,30.667,0,0,1-4.025-.988,23.608,23.608,0,0,1-4.619-2.017c-3.193-1.852-4.951-4.05-4.951-6.192s1.758-4.339,4.951-6.191a30.538,30.538,0,0,1,15.057-3.555,36.632,36.632,0,0,1,6.883.636,29.94,29.94,0,0,1,3.972,1.039q.9.3,1.742.66a21.482,21.482,0,0,1,2.461,1.22,14.382,14.382,0,0,1,3.081,2.322A5.66,5.66,0,0,1,356.8,243.752Z" transform="translate(-312.351 -229.576)"/><path class="s" d="M351.556,239.381,338.247,252.69a37.585,37.585,0,0,1-4.83.306,38.017,38.017,0,0,1-4.318-.243l16.915-16.914a21.482,21.482,0,0,1,2.461,1.22A14.382,14.382,0,0,1,351.556,239.381Z" transform="translate(-308.98 -229.075)"/><path class="s" d="M345.587,235.544,328.32,252.813a30.667,30.667,0,0,1-4.025-.988l17.32-17.32A29.94,29.94,0,0,1,345.587,235.544Z" transform="translate(-310.295 -229.44)"/></g><g transform="translate(448.458 218.067)"><path class="k" d="M362.178,244.483v5.758a9.949,9.949,0,0,1-2.953,6.611,20.232,20.232,0,0,1-6.423,4.4,36.846,36.846,0,0,1-15.062,3.012,39.994,39.994,0,0,1-9.746-1.172,32.668,32.668,0,0,1-3.543-1.106q-.877-.33-1.7-.7a20.408,20.408,0,0,1-6.424-4.358,9.991,9.991,0,0,1-3.024-6.69l0-5.758a10.037,10.037,0,0,1,3.026-6.616,20.411,20.411,0,0,1,6.424-4.36q.822-.371,1.7-.7a32.75,32.75,0,0,1,3.543-1.105,39.927,39.927,0,0,1,9.746-1.173A36.866,36.866,0,0,1,352.8,233.54a20.254,20.254,0,0,1,6.423,4.405,9.958,9.958,0,0,1,2.948,6.537Z" transform="translate(-313.303 -230.528)"/><path class="p" d="M322.1,232.867V260.65a20.408,20.408,0,0,1-6.424-4.358V237.227A20.411,20.411,0,0,1,322.1,232.867Z" transform="translate(-312.652 -229.888)"/><path class="q" d="M350.739,237.3v18.907a20.232,20.232,0,0,1-6.423,4.4V232.893A20.254,20.254,0,0,1,350.739,237.3Z" transform="translate(-304.817 -229.881)"/><path class="r" d="M325.6,231.449v31.4a32.668,32.668,0,0,1-3.543-1.106V232.554A32.75,32.75,0,0,1,325.6,231.449Z" transform="translate(-310.908 -230.276)"/><ellipse class="q" cx="24.438" cy="14.175" rx="24.438" ry="14.175" transform="translate(0 0)"/><path class="k" d="M337.264,256.188a32.769,32.769,0,0,1-16.168-3.853c-3.9-2.264-6.053-5.144-6.053-8.108s2.15-5.842,6.053-8.108a35.856,35.856,0,0,1,32.338,0c3.9,2.266,6.053,5.144,6.053,8.108s-2.15,5.843-6.053,8.108A32.771,32.771,0,0,1,337.264,256.188Z" transform="translate(-312.827 -230.052)"/><path class="q" d="M337.106,255.292a32.032,32.032,0,0,1-15.8-3.753c-3.667-2.127-5.687-4.78-5.687-7.47s2.02-5.342,5.687-7.468a35.126,35.126,0,0,1,31.6,0c3.667,2.127,5.685,4.78,5.685,7.468s-2.019,5.343-5.685,7.47A32.037,32.037,0,0,1,337.106,255.292Z" transform="translate(-312.668 -229.893)"/><path class="k" d="M356.8,243.752c0,2.142-1.758,4.34-4.951,6.192a27.574,27.574,0,0,1-10.228,3.248,37.585,37.585,0,0,1-4.83.306,38.017,38.017,0,0,1-4.318-.243q-1.066-.122-2.1-.3a30.667,30.667,0,0,1-4.025-.988,23.608,23.608,0,0,1-4.619-2.017c-3.193-1.852-4.951-4.05-4.951-6.192s1.758-4.339,4.951-6.191a30.538,30.538,0,0,1,15.057-3.555,36.632,36.632,0,0,1,6.883.636,29.94,29.94,0,0,1,3.972,1.039q.9.3,1.742.66a21.482,21.482,0,0,1,2.461,1.22,14.382,14.382,0,0,1,3.081,2.322A5.66,5.66,0,0,1,356.8,243.752Z" transform="translate(-312.351 -229.576)"/><path class="s" d="M351.556,239.381,338.247,252.69a37.585,37.585,0,0,1-4.83.306,38.017,38.017,0,0,1-4.318-.243l16.915-16.914a21.482,21.482,0,0,1,2.461,1.22A14.382,14.382,0,0,1,351.556,239.381Z" transform="translate(-308.98 -229.075)"/><path class="s" d="M345.587,235.544,328.32,252.813a30.667,30.667,0,0,1-4.025-.988l17.32-17.32A29.94,29.94,0,0,1,345.587,235.544Z" transform="translate(-310.295 -229.44)"/></g><g transform="translate(378.458 207.067)"><path class="k" d="M362.178,244.483v5.758a9.949,9.949,0,0,1-2.953,6.611,20.232,20.232,0,0,1-6.423,4.4,36.846,36.846,0,0,1-15.062,3.012,39.994,39.994,0,0,1-9.746-1.172,32.668,32.668,0,0,1-3.543-1.106q-.877-.33-1.7-.7a20.408,20.408,0,0,1-6.424-4.358,9.991,9.991,0,0,1-3.024-6.69l0-5.758a10.037,10.037,0,0,1,3.026-6.616,20.411,20.411,0,0,1,6.424-4.36q.822-.371,1.7-.7a32.75,32.75,0,0,1,3.543-1.105,39.927,39.927,0,0,1,9.746-1.173A36.866,36.866,0,0,1,352.8,233.54a20.254,20.254,0,0,1,6.423,4.405,9.958,9.958,0,0,1,2.948,6.537Z" transform="translate(-313.303 -230.528)"/><path class="p" d="M322.1,232.867V260.65a20.408,20.408,0,0,1-6.424-4.358V237.227A20.411,20.411,0,0,1,322.1,232.867Z" transform="translate(-312.652 -229.888)"/><path class="q" d="M350.739,237.3v18.907a20.232,20.232,0,0,1-6.423,4.4V232.893A20.254,20.254,0,0,1,350.739,237.3Z" transform="translate(-304.817 -229.881)"/><path class="r" d="M325.6,231.449v31.4a32.668,32.668,0,0,1-3.543-1.106V232.554A32.75,32.75,0,0,1,325.6,231.449Z" transform="translate(-310.908 -230.276)"/><ellipse class="q" cx="24.438" cy="14.175" rx="24.438" ry="14.175" transform="translate(0 0)"/><path class="k" d="M337.264,256.188a32.769,32.769,0,0,1-16.168-3.853c-3.9-2.264-6.053-5.144-6.053-8.108s2.15-5.842,6.053-8.108a35.856,35.856,0,0,1,32.338,0c3.9,2.266,6.053,5.144,6.053,8.108s-2.15,5.843-6.053,8.108A32.771,32.771,0,0,1,337.264,256.188Z" transform="translate(-312.827 -230.052)"/><path class="q" d="M337.106,255.292a32.032,32.032,0,0,1-15.8-3.753c-3.667-2.127-5.687-4.78-5.687-7.47s2.02-5.342,5.687-7.468a35.126,35.126,0,0,1,31.6,0c3.667,2.127,5.685,4.78,5.685,7.468s-2.019,5.343-5.685,7.47A32.037,32.037,0,0,1,337.106,255.292Z" transform="translate(-312.668 -229.893)"/><path class="k" d="M356.8,243.752c0,2.142-1.758,4.34-4.951,6.192a27.574,27.574,0,0,1-10.228,3.248,37.585,37.585,0,0,1-4.83.306,38.017,38.017,0,0,1-4.318-.243q-1.066-.122-2.1-.3a30.667,30.667,0,0,1-4.025-.988,23.608,23.608,0,0,1-4.619-2.017c-3.193-1.852-4.951-4.05-4.951-6.192s1.758-4.339,4.951-6.191a30.538,30.538,0,0,1,15.057-3.555,36.632,36.632,0,0,1,6.883.636,29.94,29.94,0,0,1,3.972,1.039q.9.3,1.742.66a21.482,21.482,0,0,1,2.461,1.22,14.382,14.382,0,0,1,3.081,2.322A5.66,5.66,0,0,1,356.8,243.752Z" transform="translate(-312.351 -229.576)"/><path class="s" d="M351.556,239.381,338.247,252.69a37.585,37.585,0,0,1-4.83.306,38.017,38.017,0,0,1-4.318-.243l16.915-16.914a21.482,21.482,0,0,1,2.461,1.22A14.382,14.382,0,0,1,351.556,239.381Z" transform="translate(-308.98 -229.075)"/><path class="s" d="M345.587,235.544,328.32,252.813a30.667,30.667,0,0,1-4.025-.988l17.32-17.32A29.94,29.94,0,0,1,345.587,235.544Z" transform="translate(-310.295 -229.44)"/></g><g transform="translate(359.458 254.066)"><path class="k" d="M362.178,244.483v5.758a9.949,9.949,0,0,1-2.953,6.611,20.232,20.232,0,0,1-6.423,4.4,36.846,36.846,0,0,1-15.062,3.012,39.994,39.994,0,0,1-9.746-1.172,32.668,32.668,0,0,1-3.543-1.106q-.877-.33-1.7-.7a20.408,20.408,0,0,1-6.424-4.358,9.991,9.991,0,0,1-3.024-6.69l0-5.758a10.037,10.037,0,0,1,3.026-6.616,20.411,20.411,0,0,1,6.424-4.36q.822-.371,1.7-.7a32.75,32.75,0,0,1,3.543-1.105,39.927,39.927,0,0,1,9.746-1.173A36.866,36.866,0,0,1,352.8,233.54a20.254,20.254,0,0,1,6.423,4.405,9.958,9.958,0,0,1,2.948,6.537Z" transform="translate(-313.303 -230.528)"/><path class="p" d="M322.1,232.867V260.65a20.408,20.408,0,0,1-6.424-4.358V237.227A20.411,20.411,0,0,1,322.1,232.867Z" transform="translate(-312.652 -229.888)"/><path class="q" d="M350.739,237.3v18.907a20.232,20.232,0,0,1-6.423,4.4V232.893A20.254,20.254,0,0,1,350.739,237.3Z" transform="translate(-304.817 -229.881)"/><path class="r" d="M325.6,231.449v31.4a32.668,32.668,0,0,1-3.543-1.106V232.554A32.75,32.75,0,0,1,325.6,231.449Z" transform="translate(-310.908 -230.276)"/><ellipse class="k" cx="24.438" cy="14.175" rx="24.438" ry="14.175" transform="translate(0 0)"/><path class="q" d="M337.264,256.188a32.769,32.769,0,0,1-16.168-3.853c-3.9-2.264-6.053-5.144-6.053-8.108s2.15-5.842,6.053-8.108a35.856,35.856,0,0,1,32.338,0c3.9,2.266,6.053,5.144,6.053,8.108s-2.15,5.843-6.053,8.108A32.771,32.771,0,0,1,337.264,256.188Z" transform="translate(-312.827 -230.052)"/><path class="q" d="M337.106,255.292a32.032,32.032,0,0,1-15.8-3.753c-3.667-2.127-5.687-4.78-5.687-7.47s2.02-5.342,5.687-7.468a35.126,35.126,0,0,1,31.6,0c3.667,2.127,5.685,4.78,5.685,7.468s-2.019,5.343-5.685,7.47A32.037,32.037,0,0,1,337.106,255.292Z" transform="translate(-312.668 -229.893)"/><path class="k" d="M356.8,243.752c0,2.142-1.758,4.34-4.951,6.192a27.574,27.574,0,0,1-10.228,3.248,37.585,37.585,0,0,1-4.83.306,38.017,38.017,0,0,1-4.318-.243q-1.066-.122-2.1-.3a30.667,30.667,0,0,1-4.025-.988,23.608,23.608,0,0,1-4.619-2.017c-3.193-1.852-4.951-4.05-4.951-6.192s1.758-4.339,4.951-6.191a30.538,30.538,0,0,1,15.057-3.555,36.632,36.632,0,0,1,6.883.636,29.94,29.94,0,0,1,3.972,1.039q.9.3,1.742.66a21.482,21.482,0,0,1,2.461,1.22,14.382,14.382,0,0,1,3.081,2.322A5.66,5.66,0,0,1,356.8,243.752Z" transform="translate(-312.351 -229.576)"/><path class="s" d="M351.556,239.381,338.247,252.69a37.585,37.585,0,0,1-4.83.306,38.017,38.017,0,0,1-4.318-.243l16.915-16.914a21.482,21.482,0,0,1,2.461,1.22A14.382,14.382,0,0,1,351.556,239.381Z" transform="translate(-308.98 -229.075)"/><path class="s" d="M345.587,235.544,328.32,252.813a30.667,30.667,0,0,1-4.025-.988l17.32-17.32A29.94,29.94,0,0,1,345.587,235.544Z" transform="translate(-310.295 -229.44)"/></g><g transform="translate(448.458 207.066)"><path class="k" d="M362.178,244.483v5.758a9.949,9.949,0,0,1-2.953,6.611,20.232,20.232,0,0,1-6.423,4.4,36.846,36.846,0,0,1-15.062,3.012,39.994,39.994,0,0,1-9.746-1.172,32.668,32.668,0,0,1-3.543-1.106q-.877-.33-1.7-.7a20.408,20.408,0,0,1-6.424-4.358,9.991,9.991,0,0,1-3.024-6.69l0-5.758a10.037,10.037,0,0,1,3.026-6.616,20.411,20.411,0,0,1,6.424-4.36q.822-.371,1.7-.7a32.75,32.75,0,0,1,3.543-1.105,39.927,39.927,0,0,1,9.746-1.173A36.866,36.866,0,0,1,352.8,233.54a20.254,20.254,0,0,1,6.423,4.405,9.958,9.958,0,0,1,2.948,6.537Z" transform="translate(-313.303 -230.528)"/><path class="p" d="M322.1,232.867V260.65a20.408,20.408,0,0,1-6.424-4.358V237.227A20.411,20.411,0,0,1,322.1,232.867Z" transform="translate(-312.652 -229.888)"/><path class="q" d="M350.739,237.3v18.907a20.232,20.232,0,0,1-6.423,4.4V232.893A20.254,20.254,0,0,1,350.739,237.3Z" transform="translate(-304.817 -229.881)"/><path class="r" d="M325.6,231.449v31.4a32.668,32.668,0,0,1-3.543-1.106V232.554A32.75,32.75,0,0,1,325.6,231.449Z" transform="translate(-310.908 -230.276)"/><ellipse class="k" cx="24.438" cy="14.175" rx="24.438" ry="14.175" transform="translate(0 0)"/><path class="q" d="M337.264,256.188a32.769,32.769,0,0,1-16.168-3.853c-3.9-2.264-6.053-5.144-6.053-8.108s2.15-5.842,6.053-8.108a35.856,35.856,0,0,1,32.338,0c3.9,2.266,6.053,5.144,6.053,8.108s-2.15,5.843-6.053,8.108A32.771,32.771,0,0,1,337.264,256.188Z" transform="translate(-312.827 -230.052)"/><path class="q" d="M337.106,255.292a32.032,32.032,0,0,1-15.8-3.753c-3.667-2.127-5.687-4.78-5.687-7.47s2.02-5.342,5.687-7.468a35.126,35.126,0,0,1,31.6,0c3.667,2.127,5.685,4.78,5.685,7.468s-2.019,5.343-5.685,7.47A32.037,32.037,0,0,1,337.106,255.292Z" transform="translate(-312.668 -229.893)"/><path class="k" d="M356.8,243.752c0,2.142-1.758,4.34-4.951,6.192a27.574,27.574,0,0,1-10.228,3.248,37.585,37.585,0,0,1-4.83.306,38.017,38.017,0,0,1-4.318-.243q-1.066-.122-2.1-.3a30.667,30.667,0,0,1-4.025-.988,23.608,23.608,0,0,1-4.619-2.017c-3.193-1.852-4.951-4.05-4.951-6.192s1.758-4.339,4.951-6.191a30.538,30.538,0,0,1,15.057-3.555,36.632,36.632,0,0,1,6.883.636,29.94,29.94,0,0,1,3.972,1.039q.9.3,1.742.66a21.482,21.482,0,0,1,2.461,1.22,14.382,14.382,0,0,1,3.081,2.322A5.66,5.66,0,0,1,356.8,243.752Z" transform="translate(-312.351 -229.576)"/><path class="s" d="M351.556,239.381,338.247,252.69a37.585,37.585,0,0,1-4.83.306,38.017,38.017,0,0,1-4.318-.243l16.915-16.914a21.482,21.482,0,0,1,2.461,1.22A14.382,14.382,0,0,1,351.556,239.381Z" transform="translate(-308.98 -229.075)"/><path class="s" d="M345.587,235.544,328.32,252.813a30.667,30.667,0,0,1-4.025-.988l17.32-17.32A29.94,29.94,0,0,1,345.587,235.544Z" transform="translate(-310.295 -229.44)"/></g><g transform="translate(378.458 196.066)"><path class="k" d="M362.178,244.483v5.758a9.949,9.949,0,0,1-2.953,6.611,20.232,20.232,0,0,1-6.423,4.4,36.846,36.846,0,0,1-15.062,3.012,39.994,39.994,0,0,1-9.746-1.172,32.668,32.668,0,0,1-3.543-1.106q-.877-.33-1.7-.7a20.408,20.408,0,0,1-6.424-4.358,9.991,9.991,0,0,1-3.024-6.69l0-5.758a10.037,10.037,0,0,1,3.026-6.616,20.411,20.411,0,0,1,6.424-4.36q.822-.371,1.7-.7a32.75,32.75,0,0,1,3.543-1.105,39.927,39.927,0,0,1,9.746-1.173A36.866,36.866,0,0,1,352.8,233.54a20.254,20.254,0,0,1,6.423,4.405,9.958,9.958,0,0,1,2.948,6.537Z" transform="translate(-313.303 -230.528)"/><path class="p" d="M322.1,232.867V260.65a20.408,20.408,0,0,1-6.424-4.358V237.227A20.411,20.411,0,0,1,322.1,232.867Z" transform="translate(-312.652 -229.888)"/><path class="q" d="M350.739,237.3v18.907a20.232,20.232,0,0,1-6.423,4.4V232.893A20.254,20.254,0,0,1,350.739,237.3Z" transform="translate(-304.817 -229.881)"/><path class="r" d="M325.6,231.449v31.4a32.668,32.668,0,0,1-3.543-1.106V232.554A32.75,32.75,0,0,1,325.6,231.449Z" transform="translate(-310.908 -230.276)"/><ellipse class="k" cx="24.438" cy="14.175" rx="24.438" ry="14.175" transform="translate(0 0)"/><path class="q" d="M337.264,256.188a32.769,32.769,0,0,1-16.168-3.853c-3.9-2.264-6.053-5.144-6.053-8.108s2.15-5.842,6.053-8.108a35.856,35.856,0,0,1,32.338,0c3.9,2.266,6.053,5.144,6.053,8.108s-2.15,5.843-6.053,8.108A32.771,32.771,0,0,1,337.264,256.188Z" transform="translate(-312.827 -230.052)"/><path class="q" d="M337.106,255.292a32.032,32.032,0,0,1-15.8-3.753c-3.667-2.127-5.687-4.78-5.687-7.47s2.02-5.342,5.687-7.468a35.126,35.126,0,0,1,31.6,0c3.667,2.127,5.685,4.78,5.685,7.468s-2.019,5.343-5.685,7.47A32.037,32.037,0,0,1,337.106,255.292Z" transform="translate(-312.668 -229.893)"/><path class="k" d="M356.8,243.752c0,2.142-1.758,4.34-4.951,6.192a27.574,27.574,0,0,1-10.228,3.248,37.585,37.585,0,0,1-4.83.306,38.017,38.017,0,0,1-4.318-.243q-1.066-.122-2.1-.3a30.667,30.667,0,0,1-4.025-.988,23.608,23.608,0,0,1-4.619-2.017c-3.193-1.852-4.951-4.05-4.951-6.192s1.758-4.339,4.951-6.191a30.538,30.538,0,0,1,15.057-3.555,36.632,36.632,0,0,1,6.883.636,29.94,29.94,0,0,1,3.972,1.039q.9.3,1.742.66a21.482,21.482,0,0,1,2.461,1.22,14.382,14.382,0,0,1,3.081,2.322A5.66,5.66,0,0,1,356.8,243.752Z" transform="translate(-312.351 -229.576)"/><path class="s" d="M351.556,239.381,338.247,252.69a37.585,37.585,0,0,1-4.83.306,38.017,38.017,0,0,1-4.318-.243l16.915-16.914a21.482,21.482,0,0,1,2.461,1.22A14.382,14.382,0,0,1,351.556,239.381Z" transform="translate(-308.98 -229.075)"/><path class="s" d="M345.587,235.544,328.32,252.813a30.667,30.667,0,0,1-4.025-.988l17.32-17.32A29.94,29.94,0,0,1,345.587,235.544Z" transform="translate(-310.295 -229.44)"/></g></g></g></svg>