<svg xmlns="http://www.w3.org/2000/svg" width="32.867" height="24.978" viewBox="0 0 32.867 24.978"><defs><style>.a{fill:#45a142;}</style></defs><g transform="translate(0 0)"><path class="a" d="M95.435,116.774H67.827a2.629,2.629,0,0,1-2.629-2.629V98.369a2.63,2.63,0,0,1,2.629-2.63h5.549l3.095-3.1,0,.009A2.611,2.611,0,0,1,78.4,91.8h6.574a2.619,2.619,0,0,1,1.849.76l.005.005a.09.09,0,0,1,.01.01L90,95.739h5.436a2.63,2.63,0,0,1,2.63,2.63v15.775a2.63,2.63,0,0,1-2.63,2.629Zm1.316-18.4a1.317,1.317,0,0,0-1.316-1.315H89.453l-.385-.386L85.906,93.5a1.316,1.316,0,0,0-.933-.389H78.4a1.3,1.3,0,0,0-.96.428L75.93,95.17l-.033-.1-1.591,1.595-.387.386H67.827a1.317,1.317,0,0,0-1.315,1.315v15.775a1.318,1.318,0,0,0,1.315,1.316H95.435a1.318,1.318,0,0,0,1.316-1.316V98.369ZM81.631,114.145a8.545,8.545,0,1,1,8.545-8.547,8.546,8.546,0,0,1-8.545,8.547Zm0-15.775a7.231,7.231,0,1,0,7.231,7.229,7.237,7.237,0,0,0-7.231-7.229Zm0,12.538a5.308,5.308,0,1,1,5.307-5.309,5.309,5.309,0,0,1-5.307,5.309Zm0-9.435a4.128,4.128,0,1,0,4.128,4.126,4.132,4.132,0,0,0-4.128-4.126Z" transform="translate(-65.198 -91.796)"/></g></svg>