<svg xmlns="http://www.w3.org/2000/svg" width="12.589" height="29.448" viewBox="0 0 12.589 29.448"><defs><style>.a{fill:#45a142;}</style></defs><path class="a" d="M37.057,5a6.3,6.3,0,0,0-6.295,6.295v11.7a.627.627,0,1,0,1.253,0v-11.7a5.041,5.041,0,1,1,10.083,0v18.8a3.1,3.1,0,0,1-3.1,3.1h-.5a2.969,2.969,0,0,1-2.967-3.032l.076-11.018V13.533c0-.928.437-2.011,1.67-2.011,1.175,0,1.594,1.039,1.594,2.011v9.812a.627.627,0,1,0,1.253,0V13.533c0-1.952-1.144-3.264-2.847-3.264a2.973,2.973,0,0,0-2.923,3.264v5.607L34.279,30.1v.062a4.209,4.209,0,0,0,4.22,4.285H39a4.359,4.359,0,0,0,4.354-4.354v-18.8A6.3,6.3,0,0,0,37.057,5Z" transform="translate(-30.762 -5)"/></svg>