<svg xmlns="http://www.w3.org/2000/svg" width="18.203" height="28.822" viewBox="0 0 18.203 28.822"><defs><style>.a{fill:#45a142;}</style></defs><g transform="translate(0 0)"><path class="a" d="M35.1,964.362a5.693,5.693,0,0,0-5.688,5.688v9.1a5.688,5.688,0,0,0,11.377,0v-9.1A5.693,5.693,0,0,0,35.1,964.362Zm0,1.517a4.146,4.146,0,0,1,4.171,4.171v9.1a4.171,4.171,0,1,1-8.343,0v-9.1A4.146,4.146,0,0,1,35.1,965.879ZM26.77,974.6a.789.789,0,0,0-.77.77v3.792a9.091,9.091,0,0,0,8.343,9.066v3.437H31.309a.758.758,0,0,0,0,1.517h7.584a.758.758,0,0,0,0-1.517H35.86V988.23a9.091,9.091,0,0,0,8.343-9.066v-3.792a.759.759,0,1,0-1.517,0v3.792a7.584,7.584,0,1,1-15.169,0v-3.792A.788.788,0,0,0,26.77,974.6Z" transform="translate(-26 -964.362)"/></g></svg>