<svg xmlns="http://www.w3.org/2000/svg" width="105.171" height="105.171" viewBox="0 0 105.171 105.171"><defs><style>.a{fill:#f5c65d;}.b{fill:#ffb000;}.c{fill:#eceff1;}.d{fill:#00806e;}.e{fill:#fff;}.f{fill:#405160;}.g{fill:#3b4855;}.h{fill:#2f4764;}.i{fill:#fff9c4;}.j{fill:#63c460;}.k{fill:#45a142;}</style></defs><path class="a" d="M103.282,38.578a52.591,52.591,0,1,0-64.7,64.7Z"/><path class="b" d="M177.693,113.819a52.635,52.635,0,0,0-1.89-14.007L158.945,82.953l-19.981,18.226L114.848,77.063,91.27,144.684,111.1,164.515a52.618,52.618,0,0,0,66.593-50.7Z" transform="translate(-72.522 -61.233)"/><rect class="c" width="36.124" height="16.004" transform="translate(48.013 65.16)"/><rect class="d" width="31.551" height="16.004" transform="translate(21.034 65.16)"/><rect class="c" width="36.124" height="16.004" transform="translate(48.013 49.156)"/><rect class="e" width="31.551" height="16.004" transform="translate(21.034 49.156)"/><rect class="c" width="36.124" height="16.004" transform="translate(48.013 33.152)"/><rect class="e" width="31.551" height="16.004" transform="translate(21.034 33.152)"/><path class="f" d="M277.3,161.391v13.718H250.326V161.391h-4.344l2.058,50.3h33.838V163.677Zm0,45.727H250.326V195.686H277.3Zm0-16H250.326V179.682H277.3Z" transform="translate(-195.454 -128.239)"/><path class="g" d="M238.312,105.739l-4.573,6.859,4.573,6.859h33.838V105.739Z" transform="translate(-185.726 -84.019)"/><path class="h" d="M122.821,161.391v13.718H95.842V161.391l-4.573,2.286V211.69h33.838V163.677Zm0,45.727H95.842V195.686h26.979Zm0-16H95.842V179.682h26.979Z" transform="translate(-72.521 -128.239)"/><rect class="f" width="33.838" height="13.718" transform="translate(18.748 21.72)"/><path d="M164.953,321.237l2.926-3.107,2.927,3.107-2.927,5.716Z" transform="translate(-131.07 -252.782)"/><path class="i" d="M145.809,278.181l6.859-4.573,6.859,4.573-3.932,7.68h-5.853Z" transform="translate(-115.858 -217.405)"/><path class="j" d="M152.668,114.653l4.573,31.9-4.573,5.319h-6.859V117.395Z" transform="translate(-115.858 -91.102)"/><path class="k" d="M186.059,117.395v34.482H179.2V114.653Z" transform="translate(-142.39 -91.102)"/><path class="e" d="M145.809,88.051v4.573h13.718V88.051l-6.859-4.573Z" transform="translate(-115.858 -66.331)"/><path class="k" d="M154.954,70.524h-4.573a4.586,4.586,0,0,0-4.573,4.573v2.661h13.718V75.1A4.586,4.586,0,0,0,154.954,70.524Z" transform="translate(-115.858 -56.037)"/></svg>