<svg xmlns="http://www.w3.org/2000/svg" width="104.732" height="104.275" viewBox="0 0 104.732 104.275"><defs><style>.a{fill:#f5c65d;}.b{fill:#ffb000;}.c{fill:#fff;}.d{fill:#e9edf5;}.e{fill:#008287;}.f{fill:#00806e;}.g{fill:#dce1eb;}.h{fill:#63c460;}.i{fill:#45a142;}</style></defs><g transform="translate(-0.44 -0.033)"><g transform="translate(0 0)"><circle class="a" cx="52" cy="52" r="52" transform="translate(0.44 0.033)"/></g><path class="b" d="M165.042,151.28a52.669,52.669,0,0,0-1.7-13.29l-13.782-13.782L75.348,178.352,99.166,202.17a52.624,52.624,0,0,0,65.876-50.89Z" transform="translate(-59.871 -99.558)"/><g transform="translate(15.477 24.65)"><rect class="c" width="74.216" height="54.144"/></g><g transform="translate(52.566 24.65)"><rect class="d" width="37.128" height="54.144"/></g><g transform="translate(19.197 29.137)"><path class="e" d="M157.267,152.306H96.423a2.966,2.966,0,0,1-2.966-2.966v-.322a2.966,2.966,0,0,1,2.966-2.966h60.844a2.966,2.966,0,0,1,2.966,2.966v.322A2.966,2.966,0,0,1,157.267,152.306Z" transform="translate(-93.457 -146.052)"/></g><g transform="translate(52.566 29.137)"><path class="f" d="M286.347,146.051H255.9v6.255h30.442a2.966,2.966,0,0,0,2.966-2.966v-.322A2.967,2.967,0,0,0,286.347,146.051Z" transform="translate(-255.905 -146.051)"/></g><g transform="translate(19.197 40.014)"><rect class="d" width="66.777" height="34.214"/></g><g transform="translate(52.566 40.014)"><rect class="g" width="33.408" height="34.214"/></g><g transform="translate(18.926 37.254)"><path class="h" d="M96.724,217.621l-4.587-4.115,12.71-14.17,9.6,8.018,12.9-16.151L141.08,206.73l14.389-21.164,5.1,3.465L141.72,216.75l-14.139-15.974-12.255,15.348-9.865-8.244Z" transform="translate(-92.137 -185.566)"/></g><path class="i" d="M293.706,186.711l-2.389-15.734-15.733,2.393.927,6.093,5.972-.908-11.275,16.584-13.742-15.526-1.561,1.954v9.877l1.8-2.259,14.139,15.974L286.91,183l.7,4.633Z" transform="translate(-203.339 -136.72)"/></g></svg>