<svg xmlns="http://www.w3.org/2000/svg" xmlns:xlink="http://www.w3.org/1999/xlink" width="105.171" height="105.243" viewBox="0 0 105.171 105.243"><defs><style>.a{fill:#f5c65d;}.b{fill:#ffb000;}.c{fill:#3b4855;}.d{fill:#405160;}.e{fill:#0d917e;}.f{fill:#00806e;}.g{fill:#fff;}.h{fill:#a2cfe7;}.i{fill:#3c3b41;}.j{fill:#2a2a2c;}.k{fill:#8b8992;}.l{fill:#c06100;}.m{fill:#9a4c00;}.n{fill:#ffc473;}.o{fill:#ffaa20;}.p{fill:#45a142;}.q{fill:url(#a);}.r{fill:#ffdba9;}.s{fill:#ffa91f;}.t{fill:#e67500;}.u{fill:#703700;}.v{fill:#c8c6cc;}.w{fill:#57555c;}.x{fill:url(#b);}.y{fill:url(#d);}</style><linearGradient id="a" x1="0.5" x2="0.5" y2="1" gradientUnits="objectBoundingBox"><stop offset="0" stop-color="#45a142"/><stop offset="1" stop-color="#145374"/></linearGradient><linearGradient id="b" x1="0.5" x2="0.5" y2="1" gradientUnits="objectBoundingBox"><stop offset="0" stop-color="#45a142"/><stop offset="1" stop-color="#45a142"/></linearGradient><linearGradient id="d" x1="0.5" x2="0.5" y2="1" gradientUnits="objectBoundingBox"><stop offset="0" stop-color="#e8e8e8"/><stop offset="1" stop-color="#145374"/></linearGradient></defs><g transform="translate(0 -0.2)"><circle class="a" cx="52" cy="52" r="52" transform="translate(0 0.2)"/><path class="b" d="M148.344,95.758a53.083,53.083,0,0,0-.387-6.385L119.949,61.365l-4.925,4.925L102.972,54.333H88.544V63.45a32.91,32.91,0,0,0-10.529,4.363l-6.448-6.448-10.2,10.2,6.448,6.448A32.905,32.905,0,0,0,63.45,88.544H54.333v14.427l12.008,12-4.976,4.976,28.008,28.008a52.6,52.6,0,0,0,58.97-52.2Z" transform="translate(-43.172 -42.901)"/><path class="c" d="M137.183,102.972V88.544h-9.117A32.905,32.905,0,0,0,123.7,78.015l6.448-6.448-10.2-10.2L113.5,67.814a32.91,32.91,0,0,0-10.529-4.363V54.333H88.544V63.45a32.91,32.91,0,0,0-10.529,4.363l-6.448-6.448-10.2,10.2,6.448,6.448A32.906,32.906,0,0,0,63.45,88.544H54.333v14.427H63.45A32.906,32.906,0,0,0,67.813,113.5l-6.448,6.448,10.2,10.2,6.448-6.448a32.905,32.905,0,0,0,10.529,4.363v9.117h14.427v-9.117A32.91,32.91,0,0,0,113.5,123.7l6.448,6.448,10.2-10.2L123.7,113.5a32.906,32.906,0,0,0,4.363-10.529h9.117Z" transform="translate(-43.172 -42.901)"/><path class="d" d="M288.307,102.97a32.9,32.9,0,0,1-4.363,10.529l6.448,6.448-10.2,10.2-6.448-6.448a32.9,32.9,0,0,1-10.529,4.363v9.118H256V54.33h7.214v9.118a32.9,32.9,0,0,1,10.529,4.363l6.448-6.448,10.2,10.2-6.448,6.448a32.9,32.9,0,0,1,4.363,10.529h9.118V102.97Z" transform="translate(-203.414 -42.898)"/><circle class="e" cx="29.559" cy="29.559" r="29.559" transform="translate(23.027 23.298)"/><path class="f" d="M285.559,141.659A29.557,29.557,0,0,1,256,171.218V112.1A29.557,29.557,0,0,1,285.559,141.659Z" transform="translate(-203.414 -88.802)"/><circle class="g" cx="22.133" cy="22.133" r="22.133" transform="translate(30.452 30.724)"/><path class="h" d="M278.135,170.375A22.136,22.136,0,0,1,256,192.511V148.24A22.136,22.136,0,0,1,278.135,170.375Z" transform="translate(-203.414 -117.518)"/><circle class="i" cx="2.304" cy="2.304" r="2.304" transform="translate(57.866 41.138)"/><circle class="j" cx="2.304" cy="2.304" r="2.304" transform="translate(64.796 41.138)"/><rect class="a" width="3.992" height="3.263" transform="translate(55.537 54.725)"/><rect class="k" width="8.221" height="3.225" transform="translate(44.979 54.764)"/><path class="l" d="M235.746,218.1a4.988,4.988,0,0,0-5.236,5.4v8.892h10.472V223.5A4.989,4.989,0,0,0,235.746,218.1Z" transform="translate(-183.16 -173.03)"/><path class="m" d="M261.237,223.5v8.891H256V218.1A4.989,4.989,0,0,1,261.237,223.5Z" transform="translate(-203.415 -173.029)"/><rect class="n" width="3.265" height="4.119" transform="translate(50.953 56.37)"/><rect class="o" width="1.633" height="4.119" transform="translate(52.586 56.37)"/><path class="p" d="M231.537,280.99V284.2h-3.589v13.237a22.309,22.309,0,0,1-9.878,0V284.2H214.48V280.99Z" transform="translate(-170.423 -222.999)"/><path class="q" d="M264.529,280.98v3.213H260.94v13.237a22.111,22.111,0,0,1-4.94.555v-17Z" transform="translate(-203.414 -222.991)"/><path class="r" d="M241,230.977a4.206,4.206,0,0,0-8.407,0,.934.934,0,0,0-.755,1.015l.081.751a.934.934,0,0,0,1.026.826l.088-.009c1.042,2.714,2.725,3.412,3.763,3.571,1.038-.159,2.72-.857,3.763-3.571l.088.009a.934.934,0,0,0,1.026-.826l.081-.751A.935.935,0,0,0,241,230.977Z" transform="translate(-184.215 -180.042)"/><path class="n" d="M260.958,231.991l-.081.751a.934.934,0,0,1-1.026.826l-.088-.009c-1.042,2.714-2.725,3.412-3.763,3.571v-10.2a4.326,4.326,0,0,1,4.2,3.945c0,.036.006.071.008.1A.934.934,0,0,1,260.958,231.991Z" transform="translate(-203.414 -180.042)"/><path class="s" d="M256,248.192v2.91h.85v-2.06h1.85v-.849Z" transform="translate(-203.415 -196.939)"/><rect class="n" width="2.166" height="0.849" transform="translate(49.823 51.253)"/><path class="t" d="M235.538,228.172a6.346,6.346,0,0,0,4.2-1.946h0a6.346,6.346,0,0,0,4.2,1.946c0-1.962,0-4.775-4.2-4.775S235.538,226.21,235.538,228.172Z" transform="translate(-187.156 -177.237)"/><path class="l" d="M260.2,228.173a5.911,5.911,0,0,1-1.445-.257A6.069,6.069,0,0,1,256,226.227V223.4C260.2,223.4,260.2,226.211,260.2,228.173Z" transform="translate(-203.414 -177.238)"/><rect class="m" width="3.515" height="4.433" transform="translate(39.466 53.022)"/><rect class="u" width="1.757" height="4.433" transform="translate(41.224 53.022)"/><path class="t" d="M184.548,211.469a4.526,4.526,0,0,0-9.047,0,1,1,0,0,0-.812,1.092l.088.808a1,1,0,0,0,1.1.889l.094-.01c1.122,2.92,2.932,3.672,4.049,3.843,1.117-.171,2.927-.923,4.049-3.843l.094.01a1,1,0,0,0,1.1-.889l.087-.808A1,1,0,0,0,184.548,211.469Z" transform="translate(-138.801 -164.296)"/><path class="m" d="M206.023,212.561l-.087.808a1,1,0,0,1-1.1.888l-.095-.01c-1.122,2.92-2.932,3.672-4.049,3.843V207.111a4.655,4.655,0,0,1,4.515,4.245q.005.059.009.113A1.006,1.006,0,0,1,206.023,212.561Z" transform="translate(-159.463 -164.296)"/><path class="u" d="M200.687,229.994v3.131h.914v-2.217h1.991v-.914Z" transform="translate(-159.463 -182.479)"/><rect class="m" width="2.331" height="0.914" transform="translate(38.25 47.515)"/><path class="v" d="M180.46,265.29v19.262a22.1,22.1,0,0,1-8.315-4.708c-.5-.446-.972-.916-1.428-1.405a21.678,21.678,0,0,1-1.627-1.97v-8.184a3.011,3.011,0,0,1,2.348-2.925l.041-.008.041-.008a.045.045,0,0,1,.016,0l.033-.008h.006a.137.137,0,0,1,.029,0,.527.527,0,0,1,.055-.008,4145137795.518,4145137795.518,0,0,0,.025,0,.208.208,0,0,1,.033,0,.007.007,0,0,0,.006,0h.012a.04.04,0,0,1,.016,0c.027,0,.055-.006.084-.008h0l.027,0h.006l.047,0,.084,0Z" transform="translate(-134.357 -210.524)"/><g transform="translate(36.36 54.766)"><path class="k" d="M205.569,265.29v19.262a21.912,21.912,0,0,1-4.879-2.169V265.29Z" transform="translate(-195.826 -265.29)"/><path class="k" d="M178.438,295.31V303.7c-.5-.446-.972-.916-1.428-1.405V295.31Z" transform="translate(-177.01 -289.144)"/></g><path class="w" d="M178.825,204.422s1.594,3.4,9.238,3.015a4.726,4.726,0,0,0-4.3-5.346C180.948,201.615,178.825,204.422,178.825,204.422Z" transform="translate(-142.092 -160.263)"/><path class="i" d="M205.434,207.456a17.746,17.746,0,0,1-4.748-.326v-5.069a3.673,3.673,0,0,1,.445.049A4.726,4.726,0,0,1,205.434,207.456Z" transform="translate(-159.463 -160.283)"/><rect class="m" width="3.317" height="4.186" transform="translate(61.975 53.079)"/><rect class="u" width="1.66" height="4.186" transform="translate(63.635 53.079)"/><path class="x" d="M297.811,267.919v9.264a22.481,22.481,0,0,1-1.847,2.007c-.472.454-.968.887-1.479,1.3a22.107,22.107,0,0,1-7.485,3.94V265.09h7.982l.066,0h.035l.053,0,.045,0h.006l.027,0h0c.027,0,.051,0,.078.008l.016,0h.012s0,0,0,0a.158.158,0,0,1,.031,0,.026.026,0,0,1,.012,0h.01l.08.012.006,0,.033.006.047.008a.148.148,0,0,0,.029.008l.014,0A2.839,2.839,0,0,1,297.811,267.919Z" transform="translate(-228.047 -210.365)"/><path class="q" d="M315.919,267.919v9.264a22.473,22.473,0,0,1-1.847,2.007c-.472.454-.967.887-1.479,1.3a21.877,21.877,0,0,1-2.8,1.919V265.09h3.3l.066,0h.035l.053,0,.045,0h.006l.027,0h0c.027,0,.051,0,.078.008l.017,0h.012s0,0,0,0a.158.158,0,0,1,.031,0,.026.026,0,0,1,.012,0h.01l.08.012.006,0,.033.006.047.008a.149.149,0,0,0,.029.008l.014,0A2.839,2.839,0,0,1,315.919,267.919Z" transform="translate(-246.155 -210.365)"/><path class="y" d="M324.919,294.25v8.11c-.472.454-.967.887-1.479,1.3V294.25Z" transform="translate(-257.001 -233.536)"/><path class="t" d="M294.547,214.274a4.274,4.274,0,0,0-8.543,0,.949.949,0,0,0-.767,1.031l.083.763a.949.949,0,0,0,1.043.839l.089-.01c1.059,2.758,2.769,3.468,3.824,3.629,1.055-.161,2.764-.871,3.824-3.629l.089.01a.949.949,0,0,0,1.043-.839l.083-.763A.949.949,0,0,0,294.547,214.274Z" transform="translate(-226.642 -166.718)"/><path class="m" d="M314.824,215.305l-.083.763a.949.949,0,0,1-1.043.839l-.089-.01c-1.059,2.758-2.769,3.467-3.824,3.629V210.159a4.4,4.4,0,0,1,4.263,4.009c0,.037.006.072.008.107A.949.949,0,0,1,314.824,215.305Z" transform="translate(-246.152 -166.718)"/><path class="u" d="M309.787,231.768v2.957h.863v-2.094h1.881v-.863Z" transform="translate(-246.153 -183.888)"/><rect class="m" width="2.201" height="0.863" transform="translate(60.827 47.88)"/><path class="w" d="M288.049,211.48a6.739,6.739,0,0,0,4.463-2.066h0a6.739,6.739,0,0,0,4.463,2.066c0-2.083,0-5.07-4.463-5.07S288.049,209.4,288.049,211.48Z" transform="translate(-228.88 -163.739)"/><path class="i" d="M314.24,211.48a6.284,6.284,0,0,1-1.534-.272,6.444,6.444,0,0,1-2.929-1.794v-3C314.24,206.41,314.24,209.4,314.24,211.48Z" transform="translate(-246.145 -163.739)"/></g></svg>