<svg xmlns="http://www.w3.org/2000/svg" width="105.171" height="105.171" viewBox="0 0 105.171 105.171"><defs><style>.a{fill:#405160;}.b{fill:#6a7d8f;}.c{fill:#fdd305;}.d{fill:#fff;}.e{fill:#fe9;}.f{opacity:0.55;mix-blend-mode:multiply;isolation:isolate;}.g{fill:#ffc043;}.h{fill:#28364c;}.i{fill:#475577;}.j{fill:#ffcd5c;stroke:#ffc043;stroke-linecap:round;stroke-linejoin:round;stroke-width:3px;}</style></defs><g transform="translate(-700 -1892)"><g transform="translate(0 -268)"><path class="a" d="M105.171,52.586A52.586,52.586,0,1,1,52.586,0,52.585,52.585,0,0,1,105.171,52.586Zm0,0" transform="translate(700 2160)"/><path class="b" d="M108.671,153.573q.43-.013.859-.032c.148-.007.3-.014.443-.023q.416-.023.83-.052c.139-.01.278-.019.416-.031.335-.026.668-.056,1-.088l.224-.021q.6-.061,1.2-.138l.361-.048c.283-.038.566-.076.847-.118.148-.022.294-.045.441-.069.26-.041.52-.083.778-.128l.436-.077c.282-.051.564-.106.845-.162l.343-.067q.577-.119,1.149-.25c.112-.026.223-.054.335-.08q.414-.1.826-.2c.149-.038.3-.077.447-.116q.359-.1.715-.193c.153-.042.307-.086.46-.13.244-.071.486-.143.729-.217l.415-.126q.544-.171,1.085-.352c.1-.035.2-.071.306-.107q.4-.138.8-.283c.152-.055.3-.112.457-.169.216-.081.432-.162.646-.246.16-.063.32-.125.48-.189q.315-.126.629-.257c.154-.064.308-.128.461-.193.246-.105.491-.213.736-.322.177-.079.352-.157.528-.238q.4-.184.8-.375c.155-.074.309-.15.463-.226.193-.095.387-.19.579-.288q.244-.123.487-.25c.185-.1.367-.193.551-.291.16-.085.32-.171.48-.258.193-.106.386-.214.579-.323.144-.081.289-.161.432-.244q.465-.268.923-.546c.153-.092.3-.187.456-.281.175-.108.35-.217.524-.327s.319-.2.478-.308.327-.214.49-.323.318-.213.475-.32.331-.228.5-.343.3-.209.45-.315q.431-.308.855-.623l.238-.239.033.034,0,0q.53-.4,1.049-.814l.09-.072q.474-.379.941-.77l.135-.113q.443-.374.879-.757l.154-.136q.424-.378.841-.764l.156-.146q.415-.389.823-.786l.144-.141q.415-.409.822-.827l.117-.12q.428-.443.847-.9l.066-.071a52.94,52.94,0,0,0,5.017-6.381c.021-.032.041-.064.063-.1q.336-.505.661-1.019l.11-.176q.3-.477.588-.96l.131-.221q.276-.466.542-.938l.138-.246c.173-.311.342-.622.508-.936.046-.085.091-.17.136-.256q.248-.474.486-.954l.124-.249c.161-.329.319-.661.474-.993.034-.075.07-.148.1-.222q.243-.531.475-1.066c.023-.055.048-.109.071-.164q.258-.6.5-1.209c0-.011.009-.022.014-.034a51.983,51.983,0,0,0,1.771-5.239c.013-.046.025-.091.037-.137q.162-.586.312-1.177c.022-.084.041-.169.062-.254q.132-.536.254-1.075c.024-.106.046-.212.069-.317.075-.342.146-.684.214-1.028.023-.118.045-.236.067-.355q.1-.5.181-1.005c.022-.125.042-.25.062-.374q.082-.5.153-1.006c.018-.125.036-.251.053-.376q.069-.51.127-1.024c.014-.122.029-.244.042-.366.039-.353.072-.707.1-1.062.134-1.533.207-3.084.207-4.652a52.96,52.96,0,0,0-.692-8.527L141.885,75.446l-1.694,1.563-9-9L114.325,83.338,100.012,79.5l-4,2.133h0L108.977,88.2,68.523,124.954,96.008,152.44h0q1.328.283,2.68.5l.014,0q.652.1,1.309.192l.065.009c.416.055.833.1,1.252.15l.133.015q.589.061,1.183.11l.208.018c.37.029.741.052,1.113.074.094,0,.188.013.282.018.359.019.721.032,1.082.043l.312.012q.694.018,1.392.018c.416,0,.832-.006,1.246-.016l.392-.012Zm0,0" transform="translate(645.552 2111.571)"/></g><g transform="translate(440.203 1861.775)"><g transform="translate(284.606 49.445)"><g transform="translate(0 0)"><path class="c" d="M287.374,101.13a25.171,25.171,0,1,1,45.515,14.821h0c-3.593,5.414-12.928,11.527-12.928,15.189v4.184a1.512,1.512,0,0,1-1.512,1.512H306.641a1.512,1.512,0,0,1-1.512-1.512V131.14c0-3.662-9.335-9.775-12.928-15.189h0A25.055,25.055,0,0,1,287.374,101.13Z" transform="translate(-287.374 -75.959)"/></g></g><g transform="translate(294.632 74.983)"><path class="d" d="M340.281,199.786a164.74,164.74,0,0,1,.329-19.59,28.333,28.333,0,0,1-6.374,0,164.69,164.69,0,0,1,.329,19.59l-.444-.021a168.7,168.7,0,0,0-.353-19.63c-7.465-1.038-10.807-5.267-11.407-9.259-.35-2.333.446-4.655,1.894-5.521a3.8,3.8,0,0,1,3.07-.308,7.881,7.881,0,0,1,4.52,4.1c1.215,2.374,1.934,6.317,2.348,10.6a27.727,27.727,0,0,0,6.46,0c.414-4.28,1.133-8.222,2.348-10.6a7.881,7.881,0,0,1,4.52-4.1,3.805,3.805,0,0,1,3.07.308c1.448.866,2.245,3.188,1.894,5.521-.6,3.992-3.942,8.221-11.407,9.259a168.74,168.74,0,0,0-.353,19.63Zm8.485-34.476a4.068,4.068,0,0,0-1.123.166,7.434,7.434,0,0,0-4.247,3.873c-1.169,2.284-1.867,6.129-2.275,10.331,7.151-1.031,10.353-5.063,10.925-8.87.32-2.127-.4-4.308-1.683-5.073A3.073,3.073,0,0,0,348.765,165.31Zm-22.686,0a3.074,3.074,0,0,0-1.6.428c-1.279.765-2,2.946-1.683,5.073.572,3.807,3.773,7.839,10.925,8.87-.408-4.2-1.106-8.048-2.275-10.331a7.434,7.434,0,0,0-4.247-3.873A4.067,4.067,0,0,0,326.08,165.31Z" transform="translate(-322.278 -164.864)"/></g><g transform="translate(313.497 52.831)"><path class="e" d="M405.212,110.976a1.444,1.444,0,0,1-1.444-1.444,19.511,19.511,0,0,0-14.725-18.94,1.444,1.444,0,1,1,.709-2.8,22.4,22.4,0,0,1,16.9,21.74A1.444,1.444,0,0,1,405.212,110.976Z" transform="translate(-387.952 -87.747)"/></g><g transform="translate(309.292 52.152)"><path class="e" d="M373.312,86.826a1.444,1.444,0,1,0,1.444-1.444A1.444,1.444,0,0,0,373.312,86.826Z" transform="translate(-373.312 -85.382)"/></g><g class="f" transform="translate(284.654 76.104)"><g transform="translate(0)"><path class="g" d="M337.788,168.765c-1.389,10.321-9.722,21.006-25.122,21.006s-23.422-11.185-25.122-21.006a25.041,25.041,0,0,0,4.778,13.333h0c3.593,5.414,12.928,11.527,12.928,15.189v4.184a1.512,1.512,0,0,0,1.512,1.512h11.808a1.512,1.512,0,0,0,1.512-1.512v-4.184c0-3.662,9.335-9.775,12.928-15.189h0A25.038,25.038,0,0,0,337.788,168.765Z" transform="translate(-287.543 -168.765)"/></g></g><g transform="translate(301.766 106.412)"><path class="h" d="M363.134,274.276H347.112v7.636a6.57,6.57,0,0,0,1.023,3.521h0a6.886,6.886,0,0,0,5.813,3.2H356.3a6.885,6.885,0,0,0,5.813-3.2h0a6.569,6.569,0,0,0,1.023-3.521Z" transform="translate(-347.112 -274.276)"/></g><g transform="translate(300.766 107.9)"><path class="i" d="M344.63,283.117a1.021,1.021,0,0,0,.139,0l16.022-1.661a.96.96,0,0,0,.853-1.1,1.042,1.042,0,0,0-1.127-.892l-16.022,1.661a.96.96,0,0,0-.853,1.1A1.045,1.045,0,0,0,344.63,283.117Z" transform="translate(-343.632 -279.456)"/></g><g transform="translate(300.766 111.395)"><g transform="translate(0 0)"><path class="i" d="M344.63,295.284a1.031,1.031,0,0,0,.139,0l16.022-1.661a.96.96,0,0,0,.853-1.1,1.043,1.043,0,0,0-1.127-.892l-16.022,1.661a.96.96,0,0,0-.853,1.1A1.045,1.045,0,0,0,344.63,295.284Z" transform="translate(-343.632 -291.623)"/></g></g><g transform="translate(301.406 114.941)"><g transform="translate(0)"><path class="i" d="M346.858,307.54a.976.976,0,0,0,.138,0l15.186-1.574a.96.96,0,0,0,.853-1.1,1.042,1.042,0,0,0-1.127-.893l-15.187,1.574a.96.96,0,0,0-.853,1.1A1.044,1.044,0,0,0,346.858,307.54Z" transform="translate(-345.86 -303.965)"/></g></g><g transform="translate(283.49 38.759)"><line class="j" y2="7.91" transform="translate(26.287)"/><g transform="translate(0 3.15)"><line class="j" x1="3.195" y2="7.236" transform="translate(37.356)"/><line class="j" x1="5.845" y2="5.329" transform="translate(46.729 8.751)"/><line class="j" x2="3.195" y2="7.236" transform="translate(12.023)"/><line class="j" x2="5.845" y2="5.329" transform="translate(0 8.751)"/></g></g></g></g></svg>