<svg xmlns="http://www.w3.org/2000/svg" width="104.954" height="106" viewBox="0 0 104.954 106"><defs><style>.a{fill:#f5c65d;}.b{fill:#ffb000;}.c{fill:#45a142;}.d{fill:#63c460;}.e{fill:#6dd26a;}.f{fill:#5cac5a;}</style></defs><g transform="translate(0.12 -0.2)"><ellipse class="a" cx="52" cy="53" rx="52" ry="53" transform="translate(-0.12 0.2)"/><path class="b" d="M96.061,175.907a52.6,52.6,0,0,0,50.9-46.576l-24.451-24.464H112.9L98.81,90.775a5.716,5.716,0,1,0-8.083,8.082l1.617,1.617H91.282v4.392H66.914v.02L54.466,130.266h-1.45a9.118,9.118,0,0,0,2.785,5.381Z" transform="translate(-42.126 -70.727)"/><rect class="c" width="55.595" height="3.79" transform="translate(24.788 34.14)"/><rect class="c" width="27.797" height="3.79" transform="translate(52.586 34.14)"/><rect class="d" width="6.859" height="51.443" transform="translate(49.156 29.748)"/><rect class="c" width="3.43" height="51.443" transform="translate(52.586 29.748)"/><path class="e" d="M0,0H22.863V9.145H0Z" transform="translate(41.154 73.188)"/><path class="f" d="M0,0H11.432V9.145H0Z" transform="translate(52.586 73.188)"/><path class="d" d="M62.47,192.046l9.121-18.573,9.164,18.573H84.28l-12.69-25.871L58.9,192.046Z" transform="translate(-46.802 -132.015)"/><path class="c" d="M120.677,166.175v7.3l9.164,18.573h3.526Z" transform="translate(-95.888 -132.015)"/><path class="d" d="M53.016,289.727c.641,5.335,6.618,9.517,13.9,9.517s13.257-4.182,13.9-9.517Z" transform="translate(-42.126 -230.188)"/><path class="c" d="M120.677,289.727v9.517c7.281,0,13.257-4.182,13.9-9.517Z" transform="translate(-95.888 -230.188)"/><path class="d" d="M333.115,192.046l9.121-18.573,9.164,18.573h3.526l-12.69-25.871-12.69,25.871Z" transform="translate(-261.854 -132.015)"/><path class="c" d="M391.323,166.175v7.3l9.164,18.573h3.526Z" transform="translate(-310.94 -132.015)"/><path class="d" d="M323.661,289.727c.642,5.335,6.618,9.517,13.9,9.517s13.257-4.182,13.9-9.517Z" transform="translate(-257.177 -230.188)"/><path class="c" d="M391.323,289.727v9.517c7.281,0,13.257-4.182,13.9-9.517Z" transform="translate(-310.94 -230.188)"/><circle class="d" cx="5.716" cy="5.716" r="5.716" transform="translate(46.87 18.316)"/><path class="c" d="M256,89.043v11.432a5.716,5.716,0,0,0,0-11.432Z" transform="translate(-203.414 -70.727)"/><rect class="d" width="36.581" height="4.573" transform="translate(34.295 77.761)"/><rect class="c" width="18.291" height="4.573" transform="translate(52.586 77.761)"/></g></svg>