<svg xmlns="http://www.w3.org/2000/svg" width="105.171" height="104.69" viewBox="0 0 105.171 104.69"><defs><style>.a{fill:#f5c65d;}.b{fill:#ffb000;}.c{fill:#63c460;}.d{fill:#45a142;}.e{fill:#fff;}.f{fill:#b1f3af;}.g{fill:#e2f1fc;}.h{fill:#00806e;}.i{fill:#008287;}</style></defs><g transform="translate(-1114 -1893)"><g transform="translate(1114 1892.967)"><circle class="a" cx="52" cy="52" r="52" transform="translate(0 0.033)"/><path class="b" d="M199.652,123.793a52.781,52.781,0,0,0-1.182-11.121L175.413,89.616,118.9,154.4l21.572,21.572a53.128,53.128,0,0,0,6.589.41A52.586,52.586,0,0,0,199.652,123.793Z" transform="translate(-94.48 -71.656)"/><rect class="c" width="50.737" height="61.418" transform="translate(30.196 17.961)"/><rect class="d" width="28.234" height="61.418" transform="translate(52.699 17.961)"/><path class="d" d="M113.5,151.034h11.811V89.616h-5.582a6.2,6.2,0,0,0-6.2,6.195Z" transform="translate(-90.186 -71.656)"/><path class="e" d="M119.149,372.414h51.969v-11.3H119.149a5.649,5.649,0,0,0-5.649,5.649h0A5.649,5.649,0,0,0,119.149,372.414Z" transform="translate(-90.186 -287.387)"/><rect class="f" width="28.234" height="11.298" transform="translate(52.699 73.73)"/><circle class="e" cx="17.974" cy="17.974" r="17.974" transform="translate(39.953 26.691)"/><path class="g" d="M216.888,182.725a17.973,17.973,0,1,0,26.151-24.646Z" transform="translate(-172.336 -126.056)"/></g><g transform="translate(1147.96 1907.747)"><rect class="h" width="17.119" height="1.167" transform="translate(15.17 23.188)"/><rect class="h" width="8.559" height="1.167" transform="translate(23.729 23.188)"/><rect class="i" width="2.112" height="15.84" transform="translate(22.673 21.836)"/><rect class="h" width="1.056" height="15.84" transform="translate(23.729 21.836)"/><path class="i" d="M0,0H7.04V2.816H0Z" transform="translate(20.209 35.212)"/><path class="h" d="M0,0H3.52V2.816H0Z" transform="translate(23.729 35.212)"/><path class="i" d="M60,174.141l2.809-5.719,2.822,5.719h1.086l-3.907-7.966L58.9,174.141Z" transform="translate(-47.639 -142.981)"/><path class="h" d="M120.677,166.175v2.247l2.822,5.719h1.086Z" transform="translate(-105.507 -142.981)"/><path class="i" d="M53.016,289.727c.2,1.643,2.038,2.931,4.28,2.931s4.082-1.288,4.28-2.931Z" transform="translate(-42.126 -258.718)"/><path class="h" d="M120.677,289.727v2.931c2.242,0,4.082-1.288,4.28-2.931Z" transform="translate(-105.507 -258.718)"/><path class="i" d="M330.646,174.141l2.809-5.719,2.822,5.719h1.086l-3.907-7.966-3.907,7.966Z" transform="translate(-301.166 -142.981)"/><path class="i" d="M391.323,166.175v2.247l2.822,5.719h1.086Z" transform="translate(-359.035 -142.981)"/><path class="i" d="M323.661,289.727c.2,1.643,2.038,2.931,4.28,2.931s4.082-1.288,4.28-2.931Z" transform="translate(-295.652 -258.718)"/><path class="h" d="M391.323,289.727v2.931c2.242,0,4.082-1.288,4.28-2.931Z" transform="translate(-359.035 -258.718)"/><circle class="i" cx="1.76" cy="1.76" r="1.76" transform="translate(21.969 18.316)"/><path class="h" d="M256,89.043v3.52a1.76,1.76,0,0,0,0-3.52Z" transform="translate(-232.271 -70.727)"/><rect class="i" width="11.264" height="1.408" transform="translate(18.097 36.62)"/><rect class="h" width="5.632" height="1.408" transform="translate(23.729 36.62)"/></g></g></svg>