<svg xmlns="http://www.w3.org/2000/svg" width="105.171" height="104.243" viewBox="0 0 105.171 104.243"><defs><style>.a{fill:#f5c65d;}.b{fill:#ffb000;}.c{fill:#63c460;}.d{fill:#029c87;}.e{fill:#45a142;}.f{fill:#e1e6ea;}.g{fill:#00806e;}.h{fill:#d5dde4;}</style></defs><g transform="translate(-700 -2203)"><g transform="translate(700 2202.8)"><circle class="a" cx="52" cy="52" r="52" transform="translate(0 0.2)"/><path class="b" d="M148.344,95.758a53.083,53.083,0,0,0-.387-6.385L119.949,61.365l-4.925,4.925L102.972,54.333H88.544V63.45a32.91,32.91,0,0,0-10.529,4.363l-6.448-6.448-10.2,10.2,6.448,6.448A32.905,32.905,0,0,0,63.45,88.544H54.333v14.427l12.008,12-4.976,4.976,28.008,28.008a52.6,52.6,0,0,0,58.97-52.2Z" transform="translate(-43.172 -43.901)"/></g><g transform="translate(458 2123.43)"><g transform="translate(269.88 96.823)"><path class="c" d="M0,0H10.926V44.075H0Z" transform="matrix(0.88, -0.475, 0.475, 0.88, 26.094, 40.803)"/><rect class="d" width="10.923" height="8.628" transform="matrix(0.88, -0.475, 0.475, 0.88, 29.89, 47.843)"/><path class="e" d="M272.561,129.772a22.338,22.338,0,1,0,9.059-30.267A22.338,22.338,0,0,0,272.561,129.772Zm5.064-2.73a16.587,16.587,0,1,1,22.472,6.725A16.589,16.589,0,0,1,277.625,127.042Z" transform="translate(-269.88 -96.823)"/><path class="f" d="M278.214,127.631a16.587,16.587,0,1,0,6.724-22.474A16.586,16.586,0,0,0,278.214,127.631Z" transform="translate(-270.469 -97.413)"/></g><g transform="translate(269.915 99.506)"><rect class="e" width="5.422" height="44.075" transform="translate(26.092 38.102) rotate(-28.339)"/><rect class="g" width="5.424" height="8.629" transform="translate(29.888 45.142) rotate(-28.341)"/><path class="c" d="M281.624,99.781l2.729,5.063a16.586,16.586,0,0,0,15.747,29.2l2.732,5.064a22.339,22.339,0,0,1-21.208-39.323Z" transform="translate(-269.918 -99.781)"/><path class="h" d="M284.941,105.362l15.747,29.2a16.586,16.586,0,0,1-15.747-29.2Z" transform="translate(-270.507 -100.299)"/></g></g></g></svg>