<svg xmlns="http://www.w3.org/2000/svg" xmlns:xlink="http://www.w3.org/1999/xlink" width="104" height="106" viewBox="0 0 104 106"><defs><style>.a{fill:#45a142;}.b{fill:#f5c65d;}.c{fill:#ffb000;}.d{fill:url(#a);}.e{fill:#63c460;}.f{fill:url(#b);}.g{clip-path:url(#c);}.h{opacity:0.6;mix-blend-mode:multiply;}.h,.k{isolation:isolate;}.i{fill:url(#d);}.j{fill:url(#e);}.k{fill:#fff;opacity:0.3;mix-blend-mode:overlay;}</style><linearGradient id="a" x1="1.146" y1="-0.192" x2="-0.928" y2="1.967" gradientUnits="objectBoundingBox"><stop offset="0" stop-color="#63c460"/><stop offset="0.996" stop-color="#26264f"/><stop offset="1" stop-color="#26264f"/></linearGradient><linearGradient id="b" x1="1.119" y1="-0.078" x2="0.089" y2="0.883" gradientUnits="objectBoundingBox"><stop offset="0" stop-color="#63c460"/><stop offset="1" stop-color="#024200"/><stop offset="1" stop-color="#26264f"/></linearGradient><clipPath id="c"><path class="a" d="M1257.97,844.37l-9.661,1.016a11.74,11.74,0,0,0-10.448,12.9l3.109,29.571a11.74,11.74,0,0,0,12.9,10.448l9.661-1.016a11.74,11.74,0,0,0,10.448-12.9l-3.109-29.571A11.74,11.74,0,0,0,1257.97,844.37Z" transform="translate(-1237.796 -844.305)"/></clipPath><linearGradient id="d" x1="-0.275" y1="0.604" x2="0.583" y2="0.604" gradientUnits="objectBoundingBox"><stop offset="0" stop-color="#00806e"/><stop offset="1" stop-color="#71de49"/></linearGradient><linearGradient id="e" x1="1.436" y1="-0.855" x2="0.29" y2="0.804" gradientUnits="objectBoundingBox"><stop offset="0" stop-color="#63c460"/><stop offset="0.996" stop-color="#327530"/><stop offset="1" stop-color="#26264f"/></linearGradient></defs><g transform="translate(-1119 -2202)"><g transform="translate(1118.56 2201.8)"><ellipse class="b" cx="52" cy="53" rx="52" ry="53" transform="translate(0.44 0.2)"/></g><path class="c" d="M128.087,128.428l-6.81,7.278-9.2,9.757-16.112-24.89-6.885,7.8,4.851,5.495-9.588,10.859,40.3,45.641c16.864-5.988,29.1-23.827,29.1-44.9q0-1.879-.129-3.721L134.972,120.63Z" transform="translate(1068.656 2112.16)"/><g transform="translate(1066.906 2151.477)"><g transform="translate(84.094 67.523)"><g transform="translate(0)"><path class="d" d="M0,0H11.781a0,0,0,0,1,0,0V11.174a5.891,5.891,0,0,1-5.891,5.891h0A5.891,5.891,0,0,1,0,11.174V0A0,0,0,0,1,0,0Z" transform="translate(15.553 58.24)"/><path class="e" d="M0,0H9.867V9.747A4.934,4.934,0,1,1,0,9.747Z" transform="translate(16.51 50.9)"/><path class="f" d="M1257.97,844.37l-9.661,1.016a11.74,11.74,0,0,0-10.448,12.9l3.109,29.571a11.74,11.74,0,0,0,12.9,10.448l9.661-1.016a11.74,11.74,0,0,0,10.448-12.9l-3.109-29.571A11.74,11.74,0,0,0,1257.97,844.37Z" transform="translate(-1237.796 -844.305)"/><g class="g"><g transform="translate(-12.088 7.469)"><g transform="translate(40.998)"><path class="a" d="M2164.131,1080.756a101.11,101.11,0,0,0-16.184-1.611,1.291,1.291,0,0,0-1.2,1.562h0a1.677,1.677,0,0,0,1.533,1.569,119.63,119.63,0,0,1,16.125,1.048.975.975,0,0,0,1.2-1.064h0A1.874,1.874,0,0,0,2164.131,1080.756Z" transform="translate(-2146.733 -1079.145)"/><path class="a" d="M2182.534,1253.558a140.612,140.612,0,0,0-16.079-.613,1.346,1.346,0,0,0-1.2,1.611h0a1.6,1.6,0,0,0,1.528,1.521c5.4-.214,10.768-.2,16.02.049a1.073,1.073,0,0,0,1.189-1.182h0A1.667,1.667,0,0,0,2182.534,1253.558Z" transform="translate(-2164.657 -1247.394)"/><path class="a" d="M2200.938,1415.8c-5.231-.048-10.581.083-15.974.385a1.406,1.406,0,0,0-1.193,1.66h0a1.534,1.534,0,0,0,1.522,1.472c5.38-.418,10.711-.737,15.915-.949a1.19,1.19,0,0,0,1.177-1.3h0A1.485,1.485,0,0,0,2200.938,1415.8Z" transform="translate(-2182.582 -1405.084)"/><path class="a" d="M2219.341,1559.127c-5.183.413-10.5.877-15.869,1.384a1.468,1.468,0,0,0-1.188,1.708h0a1.468,1.468,0,0,0,1.518,1.423c5.359-.622,10.654-1.273,15.81-1.947a1.327,1.327,0,0,0,1.164-1.421h0A1.327,1.327,0,0,0,2219.341,1559.127Z" transform="translate(-2200.506 -1543.857)"/><path class="a" d="M2237.744,1701.829c-5.135.875-10.415,1.672-15.765,2.383a1.534,1.534,0,0,0-1.182,1.757h0a1.4,1.4,0,0,0,1.512,1.375c5.338-.825,10.6-1.81,15.7-2.945a1.486,1.486,0,0,0,1.152-1.54h0A1.19,1.19,0,0,0,2237.744,1701.829Z" transform="translate(-2218.431 -1682.006)"/><path class="a" d="M2256.147,1844.208c-5.086,1.337-10.331,2.467-15.66,3.381a1.6,1.6,0,0,0-1.178,1.805h0a1.347,1.347,0,0,0,1.507,1.326,140.607,140.607,0,0,0,15.6-3.944,1.668,1.668,0,0,0,1.139-1.659h0A1.073,1.073,0,0,0,2256.147,1844.208Z" transform="translate(-2236.356 -1819.832)"/><path class="a" d="M2274.55,1986.281A119.606,119.606,0,0,1,2259,1990.66a1.677,1.677,0,0,0-1.173,1.854h0a1.291,1.291,0,0,0,1.5,1.278,101.052,101.052,0,0,0,15.5-4.942,1.874,1.874,0,0,0,1.127-1.778h0A.975.975,0,0,0,2274.55,1986.281Z" transform="translate(-2254.279 -1957.352)"/></g><g transform="translate(20.073 0.017)"><path class="a" d="M1506.246,1079.68a104.281,104.281,0,0,0-16.218,1.706,1.661,1.661,0,0,0-1.178,1.855h0a1.383,1.383,0,0,0,1.516,1.358,125.84,125.84,0,0,1,16.218-1.705,1.383,1.383,0,0,0,1.2-1.644h0A1.661,1.661,0,0,0,1506.246,1079.68Z" transform="translate(-1488.839 -1079.68)"/><path class="a" d="M1524.966,1258.736a149.918,149.918,0,0,0-16.219,1.705,1.61,1.61,0,0,0-1.181,1.82h0a1.425,1.425,0,0,0,1.519,1.394c5.37-.789,10.8-1.36,16.219-1.705a1.425,1.425,0,0,0,1.2-1.679h0A1.61,1.61,0,0,0,1524.966,1258.736Z" transform="translate(-1506.96 -1253.04)"/><path class="a" d="M1543.688,1437.773c-5.411.4-10.842.973-16.219,1.706a1.561,1.561,0,0,0-1.185,1.784h0a1.469,1.469,0,0,0,1.523,1.429c5.384-.66,10.815-1.231,16.218-1.705a1.469,1.469,0,0,0,1.192-1.714h0A1.56,1.56,0,0,0,1543.688,1437.773Z" transform="translate(-1525.083 -1426.381)"/><path class="a" d="M1562.408,1616.789c-5.4.531-10.829,1.1-16.219,1.705a1.514,1.514,0,0,0-1.189,1.75h0a1.514,1.514,0,0,0,1.527,1.464c5.4-.531,10.829-1.1,16.218-1.705a1.514,1.514,0,0,0,1.189-1.749h0A1.514,1.514,0,0,0,1562.408,1616.789Z" transform="translate(-1543.204 -1599.7)"/><path class="a" d="M1581.128,1795.784c-5.384.66-10.815,1.231-16.218,1.706a1.469,1.469,0,0,0-1.193,1.714h0a1.561,1.561,0,0,0,1.531,1.5c5.411-.4,10.842-.973,16.218-1.706a1.561,1.561,0,0,0,1.185-1.784h0A1.469,1.469,0,0,0,1581.128,1795.784Z" transform="translate(-1561.326 -1773)"/><path class="a" d="M1599.849,1974.758c-5.37.788-10.8,1.36-16.218,1.705a1.425,1.425,0,0,0-1.2,1.679h0a1.61,1.61,0,0,0,1.534,1.534,149.883,149.883,0,0,0,16.218-1.706,1.61,1.61,0,0,0,1.182-1.82h0A1.424,1.424,0,0,0,1599.849,1974.758Z" transform="translate(-1579.447 -1946.277)"/><path class="a" d="M1618.57,2153.715a125.914,125.914,0,0,1-16.218,1.706,1.383,1.383,0,0,0-1.2,1.644h0a1.661,1.661,0,0,0,1.538,1.569,104.257,104.257,0,0,0,16.219-1.705,1.661,1.661,0,0,0,1.178-1.855h0A1.383,1.383,0,0,0,1618.57,2153.715Z" transform="translate(-1597.569 -2119.538)"/></g><g transform="translate(0 2.66)"><path class="a" d="M874.376,1162.8a101.069,101.069,0,0,0-15.5,4.942,1.873,1.873,0,0,0-1.127,1.778h0a.975.975,0,0,0,1.4.79,119.7,119.7,0,0,1,15.554-4.379,1.677,1.677,0,0,0,1.173-1.854h0A1.291,1.291,0,0,0,874.376,1162.8Z" transform="translate(-857.748 -1162.77)"/><path class="a" d="M889.155,1337.611a140.654,140.654,0,0,0-15.6,3.944,1.667,1.667,0,0,0-1.139,1.659h0a1.073,1.073,0,0,0,1.409.91c5.086-1.337,10.331-2.467,15.659-3.381a1.6,1.6,0,0,0,1.178-1.805h0A1.347,1.347,0,0,0,889.155,1337.611Z" transform="translate(-871.942 -1332.029)"/><path class="a" d="M903.934,1512.379c-5.338.825-10.6,1.81-15.705,2.946a1.485,1.485,0,0,0-1.152,1.54h0a1.19,1.19,0,0,0,1.422,1.029c5.135-.875,10.415-1.672,15.764-2.382a1.535,1.535,0,0,0,1.183-1.757h0A1.406,1.406,0,0,0,903.934,1512.379Z" transform="translate(-886.137 -1501.246)"/><path class="a" d="M918.713,1687.1c-5.359.621-10.654,1.273-15.81,1.947a1.327,1.327,0,0,0-1.164,1.421h0a1.327,1.327,0,0,0,1.434,1.147c5.183-.414,10.5-.877,15.869-1.384a1.468,1.468,0,0,0,1.188-1.708h0A1.468,1.468,0,0,0,918.713,1687.1Z" transform="translate(-900.333 -1670.412)"/><path class="a" d="M933.492,1861.765c-5.381.417-10.711.737-15.915.949a1.19,1.19,0,0,0-1.177,1.3h0a1.485,1.485,0,0,0,1.447,1.266c5.232.049,10.582-.083,15.974-.385a1.406,1.406,0,0,0,1.193-1.659h0A1.534,1.534,0,0,0,933.492,1861.765Z" transform="translate(-914.528 -1839.529)"/><path class="a" d="M948.27,2034.867c-5.4.214-10.767.2-16.02-.05a1.073,1.073,0,0,0-1.189,1.183h0a1.667,1.667,0,0,0,1.459,1.386A140.78,140.78,0,0,0,948.6,2038a1.347,1.347,0,0,0,1.2-1.611h0A1.6,1.6,0,0,0,948.27,2034.867Z" transform="translate(-928.722 -2007.08)"/><path class="a" d="M963.049,2178.679a119.641,119.641,0,0,1-16.125-1.048.975.975,0,0,0-1.2,1.064h0a1.874,1.874,0,0,0,1.472,1.5,101.079,101.079,0,0,0,16.184,1.611,1.291,1.291,0,0,0,1.2-1.562h0A1.677,1.677,0,0,0,963.049,2178.679Z" transform="translate(-942.918 -2145.341)"/></g></g></g><g class="h" transform="translate(0 1.018)"><path class="i" d="M1262.121,899.148c-3.126-6.626-12.057-5.056-14.907-10.981-1.15-2.391-1.328-6.042,1.7-11.868l-.605.064a11.74,11.74,0,0,0-10.448,12.9l3.11,29.571a11.74,11.74,0,0,0,12.9,10.448l9.661-1.016a11.719,11.719,0,0,0,3.785-1.057c-4.379-4.585-5.818-8.688-6.205-11.878C1260.239,908.114,1264.605,904.415,1262.121,899.148Z" transform="translate(-1237.797 -876.299)"/></g><circle class="j" cx="3.101" cy="3.101" r="3.101" transform="translate(17.059 60.535) rotate(-45)"/><path class="k" d="M1559.138,1027.579c-3,0-5.5-2.831-5.819-6.583l-2.479-29.571a8.644,8.644,0,0,1,1.274-5.395,5.623,5.623,0,0,1,3.943-2.685l7.7-1.016a4.793,4.793,0,0,1,.624-.041c3,0,5.5,2.83,5.818,6.583l2.479,29.571c.338,4.031-2,7.656-5.217,8.08l-7.7,1.016a4.818,4.818,0,0,1-.624.041Z" transform="translate(-1540.851 -977.899)"/></g></g></g></g></svg>