<svg xmlns="http://www.w3.org/2000/svg" width="104" height="106.052" viewBox="0 0 104 106.052"><defs><style>.a{fill:#f5c65d;}.b{fill:#ffb000;}.c{fill:#eee6de;}.d,.j{fill:#efd5bf;}.e{opacity:0.58;}.f{fill:#e8d3c1;}.f,.j{mix-blend-mode:multiply;}.f,.j,.k,.l{isolation:isolate;}.g{fill:#45a142;}.h{fill:#ffd773;}.i{fill:#63c460;}.k,.l{fill:#fff;mix-blend-mode:overlay;}.k{opacity:0.46;}.l{opacity:0.37;}.m{fill:#cc8200;}.n{fill:#ffbc00;}</style></defs><g transform="translate(-286 -2203)"><ellipse class="a" cx="52" cy="53" rx="52" ry="53" transform="translate(286 2203)"/><path class="b" d="M178.157,131.727c0-.24-.006-.478-.009-.717L162.443,115.2l-.076.117-10.748-10.69-15.353,18.336,3.6-5.2-8.973,2.292L91.854,151.4l32.9,32.9c.271,0,.541.01.813.01A52.586,52.586,0,0,0,178.157,131.727Z" transform="translate(211.134 2124.739)"/><g transform="translate(265.647 2188.898)"><g transform="translate(28.699 51)"><g transform="translate(55.398 1.75)"><path class="c" d="M267.087,158.723l-.029,20.207s-23.769,1.825-28.924.194-2.736-8.451-2.731-11.706.085-11.186.914-13.051,4.752-.894,9.571-.294S267.087,158.723,267.087,158.723Z" transform="translate(-234.832 -153.279)"/></g><path class="d" d="M235.407,167.418c0-3.255.085-11.186.914-13.051s4.752-.894,9.571-.294,21.2,4.65,21.2,4.65l0,3.384c-4.408-1.07-15.856-3.27-19.686-3.747-4.818-.6-8.216-1.237-9.045.629s-1.112,9.007-1.117,12.262c0,1.792-.735,4.663-.534,7.155C233.491,176.033,235.4,170.315,235.407,167.418Z" transform="translate(-179.438 -151.529)"/><g class="e" transform="translate(55.23 3.121)"><path class="f" d="M236.431,156.352l31.309,5.712S242.616,156.535,236.431,156.352Z" transform="translate(-235.55 -156.352)"/><path class="f" d="M234.566,182.294l31.589,2.462S240.716,181.88,234.566,182.294Z" transform="translate(-234.517 -170.699)"/><path class="f" d="M234.57,179.431l31.572,3.272S240.731,179.132,234.57,179.431Z" transform="translate(-234.52 -169.125)"/><path class="f" d="M234.572,177.681l31.572,3.272S240.733,177.382,234.572,177.681Z" transform="translate(-234.521 -168.156)"/><path class="f" d="M234.6,175.387l31.549,3.584S240.767,175.149,234.6,175.387Z" transform="translate(-234.536 -166.889)"/><path class="f" d="M234.669,172.336l31.491,4.245S240.844,172.228,234.669,172.336Z" transform="translate(-234.574 -165.204)"/><path class="f" d="M234.671,170.139l31.492,4.238S240.846,170.03,234.671,170.139Z" transform="translate(-234.576 -163.987)"/><path class="f" d="M234.711,167.439l31.459,4.547S240.89,167.391,234.711,167.439Z" transform="translate(-234.598 -162.493)"/><path class="f" d="M234.714,164.922l31.46,4.547S240.893,164.873,234.714,164.922Z" transform="translate(-234.599 -161.098)"/><path class="f" d="M234.761,162.347l31.42,4.884S240.942,162.366,234.761,162.347Z" transform="translate(-234.625 -159.673)"/><path class="f" d="M234.457,159.475l31.42,4.884S240.638,159.494,234.457,159.475Z" transform="translate(-234.457 -158.082)"/><g transform="translate(0.086 12.566)"><path class="f" d="M236.594,206.295l30.469-.039S242.732,207.171,236.594,206.295Z" transform="translate(-235.726 -196.56)"/><path class="f" d="M234.843,184.521l31.339,2.115S241.019,185.65,234.843,184.521Z" transform="translate(-234.756 -184.521)"/><path class="f" d="M234.861,186.846l31.318,1.8S240.978,188.142,234.861,186.846Z" transform="translate(-234.766 -185.809)"/><path class="f" d="M234.916,189.941l31.263,1.122S241.042,191.108,234.916,189.941Z" transform="translate(-234.797 -187.523)"/><path class="f" d="M234.909,192.154l31.263,1.128S241.035,193.322,234.909,192.154Z" transform="translate(-234.793 -188.749)"/><path class="f" d="M234.936,194.882l31.233.811S241.066,195.989,234.936,194.882Z" transform="translate(-234.808 -190.26)"/><path class="f" d="M234.929,197.418l31.233.811S241.059,198.525,234.929,197.418Z" transform="translate(-234.804 -191.665)"/><path class="f" d="M234.964,200.02l31.2.465S241.1,201.06,234.964,200.02Z" transform="translate(-234.823 -193.106)"/><path class="f" d="M234.649,202.859l31.2.466S240.782,203.9,234.649,202.859Z" transform="translate(-234.649 -194.678)"/></g><path class="f" d="M236.03,208.462l31.34.362S242.179,209.366,236.03,208.462Z" transform="translate(-235.328 -185.215)"/></g><g transform="translate(0 0.032)"><path class="g" d="M169.87,149.429s-51.815,5.583-56.04,6.84-3.266,13.8-2.544,17.691,3.573,5.026,6.6,5.148,56.456-.1,56.456-.1-7.2-1.32-7.967-6.8.49-16.356.735-18.2S169.87,149.429,169.87,149.429Z" transform="translate(-110.652 -149.429)"/></g><path class="h" d="M187.431,175.986c-.709-5.341.455-15.957.683-17.76a9.722,9.722,0,0,1,2.012-3.791h-.006l-3.708.443a9.27,9.27,0,0,0-1.875,3.614c-.228,1.8-1.392,12.419-.683,17.761a8.054,8.054,0,0,0,2.954,5.627l3.934-.012A7.875,7.875,0,0,1,187.431,175.986Z" transform="translate(-151.073 -152.169)"/><path class="h" d="M173.51,177.092c-.71-5.206.455-15.55.682-17.307a9.349,9.349,0,0,1,2-3.681l-3.733.454a8.854,8.854,0,0,0-1.847,3.483c-.227,1.758-1.391,12.1-.682,17.307a7.827,7.827,0,0,0,2.935,5.473l3.931-.01A7.661,7.661,0,0,1,173.51,177.092Z" transform="translate(-143.361 -153.094)"/><g transform="translate(54.204)"><path class="i" d="M232.333,163.907c.041-.826.081-1.625.108-2.37.017-.5.03-1,.043-1.5.1-3.911.2-7.955,2.494-9.769a4.774,4.774,0,0,1,3.976-.8c4.614.839,24.1,5,28.305,5.893l0,2.754c-2.746-.587-23.975-5.12-28.7-5.978a2.072,2.072,0,0,0-1.8.269c-1.344,1.064-1.436,4.644-1.517,7.8-.013.513-.026,1.024-.044,1.527-.026.758-.1,2.083-.109,2.409-.023.7-.383,10.488,1.269,11.576,1.835.9,17.061,1.672,30.878,1l0,2.723c-5.372.261-17.747-.157-25.582-.472-3.221-.13-5.676-.4-6.558-.887C231.715,176.222,232.029,169.961,232.333,163.907Z" transform="translate(-232.156 -149.357)"/></g><path class="j" d="M242.382,190.219s.482,6.714.429,11.028c2.573.279,5.343.39,5.343.39S247,190.526,242.382,190.219Z" transform="translate(-183.616 -171.99)"/><path class="k" d="M116.975,159.738s35.053-4.091,40.792-4.631,7.687-1.052,8.473-.505.444,5.62,0,6.363-3.963.709-7.824.811-41.51,1.815-42.6,1.847-.889-1.722-.5-2.428A2.373,2.373,0,0,1,116.975,159.738Z" transform="translate(-113.062 -152.132)"/><g transform="translate(35.235 8.982)"><path class="l" d="M190.225,258.663s46.389,7.282,48.063,7.583,1.966,1.973,2.316,3.241-1.005.743-3.8.481-41.522-5.184-43.62-5.476-2.4-1.063-2.753-2.208a16.327,16.327,0,0,1-.787-3.2C189.707,258.735,189.869,258.608,190.225,258.663Z" transform="translate(-189.636 -258.651)"/></g><g transform="translate(38.568 8.468)"><path class="m" d="M197.344,285.136a.238.238,0,0,1-.133-.436,10.129,10.129,0,0,0,2.1-5.7c.118-2.745.118-8.971,0-14.174-.115-5.058-1.763-6.9-1.78-6.923a.238.238,0,0,1,.348-.324c.073.078,1.788,1.971,1.908,7.236.119,5.212.118,11.452,0,14.205-.121,2.81-1.7,5.674-2.306,6.08A.24.24,0,0,1,197.344,285.136Z" transform="translate(-197.106 -257.5)"/></g><g transform="translate(41.21 8.738)"><path class="m" d="M203.266,285.742a.238.238,0,0,1-.132-.436,10.133,10.133,0,0,0,2.1-5.7c.118-2.745.118-8.971,0-14.174-.115-5.058-1.764-6.9-1.78-6.923a.238.238,0,0,1,.348-.324c.073.078,1.788,1.971,1.908,7.236.118,5.212.118,11.452,0,14.206-.121,2.809-1.7,5.673-2.306,6.08A.24.24,0,0,1,203.266,285.742Z" transform="translate(-203.028 -258.106)"/></g><path class="n" d="M242.382,190.189s5,4.263,5.259,18.216c2.2-1.84,3.718-2.985,3.718-2.985l3.971,3.05s-2.78-15.377-5.857-18.026A63.327,63.327,0,0,0,242.382,190.189Z" transform="translate(-183.616 -179.763)"/></g></g></g></svg>