<svg xmlns="http://www.w3.org/2000/svg" width="104.732" height="104" viewBox="0 0 104.732 104"><defs><style>.a{fill:#f5c65d;}.b{fill:#ffb000;}.c{fill:#008287;}.d{fill:#00806e;}.e{fill:#45a142;}.f{fill:#63c460;}.g{fill:#e0f4ff;}.h{fill:#bbdcff;}</style></defs><g transform="translate(-0.44 0.135)"><circle class="a" cx="52" cy="52" r="52" transform="translate(0.44 -0.135)"/><path class="b" d="M139.715,129.352l8.535,8.535L132.31,153.828,99.055,120.573l-8.715,8.715,6.141,6.141L84.344,147.565l51.011,51.011a52.608,52.608,0,0,0,36.835-50.185q0-2.1-.163-4.158l-23.6-23.6Z" transform="translate(-67.019 -96.719)"/><g transform="translate(17.323 22.093)"><path class="c" d="M111.162,112a6.162,6.162,0,1,0,6.162,6.162A6.154,6.154,0,0,0,111.162,112Z" transform="translate(-100.755 -112)"/><path class="c" d="M94.741,172a10.392,10.392,0,0,0-10.408,10.271v6.162h20.678v-6.162A10.274,10.274,0,0,0,94.741,172Z" transform="translate(-84.333 -159.675)"/><path class="d" d="M135,124.325V112a6.162,6.162,0,1,1,0,12.325Z" transform="translate(-124.592 -112)"/><path class="d" d="M145.271,182.271v6.162H135V172A10.274,10.274,0,0,1,145.271,182.271Z" transform="translate(-124.592 -159.675)"/><path class="c" d="M351.162,112a6.162,6.162,0,1,0,6.162,6.162A6.154,6.154,0,0,0,351.162,112Z" transform="translate(-291.456 -112)"/><path class="c" d="M335.271,172A10.274,10.274,0,0,0,325,182.271v6.162h20.678v-6.162A10.392,10.392,0,0,0,335.271,172Z" transform="translate(-275.564 -159.675)"/><path class="d" d="M375,124.325V112a6.162,6.162,0,0,1,0,12.325Z" transform="translate(-315.293 -112)"/><path class="d" d="M385.408,182.271v6.162H375V172A10.392,10.392,0,0,1,385.408,182.271Z" transform="translate(-315.293 -159.675)"/><rect class="e" width="8.216" height="27.006" transform="translate(45.208 42.528) rotate(-45)"/><path class="f" d="M167.659,132.082a22.579,22.579,0,1,0,22.579,22.579A22.548,22.548,0,0,0,167.659,132.082Z" transform="translate(-132.602 -127.957)"/><path class="e" d="M277.6,154.6a22.635,22.635,0,0,1-22.6,22.6V132A22.635,22.635,0,0,1,277.6,154.6Z" transform="translate(-219.943 -127.892)"/><path class="g" d="M183.538,152.061a18.474,18.474,0,1,0,18.474,18.474A18.449,18.449,0,0,0,183.538,152.061Z" transform="translate(-148.481 -143.832)"/><path class="h" d="M273.487,170.487A18.515,18.515,0,0,1,255,188.974V152A18.515,18.515,0,0,1,273.487,170.487Z" transform="translate(-219.943 -143.784)"/><g transform="translate(24.787 12.325)"><path class="c" d="M231.162,172a6.162,6.162,0,1,0,6.162,6.162A6.154,6.154,0,0,0,231.162,172Z" transform="translate(-220.892 -172)"/><path class="c" d="M215.271,232A10.274,10.274,0,0,0,205,242.271v6.162h20.541v-6.162A10.274,10.274,0,0,0,215.271,232Z" transform="translate(-205 -219.675)"/><path class="d" d="M255,184.325V172a6.162,6.162,0,0,1,0,12.325Z" transform="translate(-244.729 -172)"/><path class="d" d="M265.271,242.271v6.162H255V232A10.274,10.274,0,0,1,265.271,242.271Z" transform="translate(-244.729 -219.675)"/></g></g></g></svg>