<svg xmlns="http://www.w3.org/2000/svg" width="28" height="28.138" viewBox="0 0 28 28.138"><defs><style>.a,.b{fill:none;}.a{stroke:#fff;stroke-width:2px;}</style></defs><g transform="translate(-1123.733 -940.008)"><path class="a" d="M159.1,52.5H145.026A5.033,5.033,0,0,0,140,57.526V69.589a5.033,5.033,0,0,0,5.026,5.026v3.016a1.005,1.005,0,0,0,1.563.836l5.775-3.852H159.1a5.032,5.032,0,0,0,5.026-5.026V57.526A5.032,5.032,0,0,0,159.1,52.5ZM146.031,65.568a2.01,2.01,0,1,1,1.422-.589A2.011,2.011,0,0,1,146.031,65.568Zm6.032,0a2.01,2.01,0,1,1,1.422-.589A2.011,2.011,0,0,1,152.063,65.568Zm6.031,0a2.01,2.01,0,1,1,1.422-.589A2.011,2.011,0,0,1,158.094,65.568Z" transform="translate(986.01 888.509)"/><rect class="b" width="28" height="28" transform="translate(1123.733 940.033)"/></g></svg>