<svg xmlns="http://www.w3.org/2000/svg" width="59.905" height="59.76" viewBox="0 0 59.905 59.76"><defs><style>.a{opacity:0.2;}.b{fill:#fff;}</style></defs><g class="a"><path class="b" d="M414.345,369a1.928,1.928,0,0,1-1.014-2.526h0a1.924,1.924,0,0,1,2.531-1.01h0a1.926,1.926,0,0,1,1.013,2.525h0c-.036.076-.069.146-.108.212h0A1.924,1.924,0,0,1,414.345,369Z" transform="translate(-359.311 -325.972)"/><path class="b" d="M408.193,379.525a1.924,1.924,0,0,1-2.709-.281h0a1.923,1.923,0,0,1,.272-2.707h0a1.934,1.934,0,0,1,2.712.275h0A1.934,1.934,0,0,1,408.64,379h0A1.941,1.941,0,0,1,408.193,379.525Z" transform="translate(-359.311 -325.972)"/><path class="b" d="M417.442,355.82a1.934,1.934,0,0,1-2.076-1.769h0a1.927,1.927,0,0,1,1.766-2.071h0a1.927,1.927,0,0,1,2.079,1.764h0a1.942,1.942,0,0,1-.257,1.12h0A1.926,1.926,0,0,1,417.442,355.82Z" transform="translate(-359.311 -325.972)"/><path class="b" d="M395.145,385.692a1.928,1.928,0,0,1-2.277-1.5h0a1.928,1.928,0,0,1,1.5-2.274h0a1.929,1.929,0,0,1,2.273,1.505h0a1.9,1.9,0,0,1-.219,1.349h0A1.906,1.906,0,0,1,395.145,385.692Z" transform="translate(-359.311 -325.972)"/><path class="b" d="M414.061,342.7a1.931,1.931,0,0,1-2.66-.609h0a1.927,1.927,0,0,1,.605-2.654h0a1.924,1.924,0,0,1,2.655.605h0a1.922,1.922,0,0,1,.037,2h0A1.944,1.944,0,0,1,414.061,342.7Z" transform="translate(-359.311 -325.972)"/><path class="b" d="M380.718,385.114a1.927,1.927,0,0,1-1.307-2.391h0a1.924,1.924,0,0,1,2.385-1.31h0a1.93,1.93,0,0,1,1.311,2.386h0a1.972,1.972,0,0,1-.186.434h0A1.935,1.935,0,0,1,380.718,385.114Z" transform="translate(-359.311 -325.972)"/><path class="b" d="M402.337,333.362l-.045-.026h0l-.044-.026h0a1.92,1.92,0,0,1-.709-2.63h0a1.923,1.923,0,0,1,2.625-.711h0l.055.032h0l.051.029h0a1.924,1.924,0,0,1,.7,2.632h0A1.924,1.924,0,0,1,402.337,333.362Z" transform="translate(-359.311 -325.972)"/><path class="b" d="M370.945,377.833a1.927,1.927,0,0,1-2.723.061h0a1.933,1.933,0,0,1-.057-2.728h0a1.928,1.928,0,0,1,2.724-.052h0a1.925,1.925,0,0,1,.335,2.354h0A1.911,1.911,0,0,1,370.945,377.833Z" transform="translate(-359.311 -325.972)"/><path class="b" d="M390.147,329.822a1.93,1.93,0,0,1-1.846-2h0a1.92,1.92,0,0,1,1.994-1.849h0a1.928,1.928,0,0,1,1.855,2h0a1.911,1.911,0,0,1-.257.89h0A1.928,1.928,0,0,1,390.147,329.822Z" transform="translate(-359.311 -325.972)"/><path class="b" d="M362.946,366.906a1.923,1.923,0,0,1-2.433-1.219h0a1.922,1.922,0,0,1,1.213-2.436h0a1.936,1.936,0,0,1,2.441,1.216h0a1.931,1.931,0,0,1-.167,1.581h0A1.933,1.933,0,0,1,362.946,366.906Z" transform="translate(-359.311 -325.972)"/><path class="b" d="M377.811,332.357a1.921,1.921,0,0,1-2.567-.91h0a1.928,1.928,0,0,1,.916-2.564h0a1.922,1.922,0,0,1,2.567.911h0a1.915,1.915,0,0,1-.078,1.8h0A1.89,1.89,0,0,1,377.811,332.357Z" transform="translate(-359.311 -325.972)"/><path class="b" d="M360.928,353.511a1.921,1.921,0,0,1-1.591-2.207h0a1.929,1.929,0,0,1,2.21-1.6h0a1.927,1.927,0,0,1,1.592,2.207h0a1.906,1.906,0,0,1-.237.664h0A1.926,1.926,0,0,1,360.928,353.511Z" transform="translate(-359.311 -325.972)"/><path class="b" d="M368.07,340.332a1.927,1.927,0,0,1-2.7.387h0a1.93,1.93,0,0,1-.388-2.7h0a1.924,1.924,0,0,1,2.7-.387h0a1.922,1.922,0,0,1,.514,2.5h0C368.158,340.2,368.114,340.269,368.07,340.332Z" transform="translate(-359.311 -325.972)"/><path class="b" d="M409.758,366.658a1.57,1.57,0,0,1-.826-2.068h0a1.579,1.579,0,0,1,2.068-.826h0a1.575,1.575,0,0,1,.826,2.068h0a.99.99,0,0,1-.085.173h0A1.574,1.574,0,0,1,409.758,366.658Z" transform="translate(-359.311 -325.972)"/><path class="b" d="M404.724,375.271a1.566,1.566,0,0,1-2.212-.23h0a1.569,1.569,0,0,1,.224-2.215h0a1.573,1.573,0,0,1,2.215.224h0a1.578,1.578,0,0,1,.142,1.789h0A1.552,1.552,0,0,1,404.724,375.271Z" transform="translate(-359.311 -325.972)"/><path class="b" d="M412.3,355.877a1.584,1.584,0,0,1-1.7-1.447h0a1.584,1.584,0,0,1,1.446-1.7h0a1.584,1.584,0,0,1,1.7,1.446h0a1.608,1.608,0,0,1-.213.916h0A1.585,1.585,0,0,1,412.3,355.877Z" transform="translate(-359.311 -325.972)"/><path class="b" d="M394.046,380.319a1.567,1.567,0,0,1-1.853-1.231h0a1.574,1.574,0,0,1,1.226-1.857h0a1.582,1.582,0,0,1,1.862,1.229h0a1.593,1.593,0,0,1-.181,1.105h0A1.568,1.568,0,0,1,394.046,380.319Z" transform="translate(-359.311 -325.972)"/><path class="b" d="M409.529,345.142a1.576,1.576,0,0,1-2.176-.5h0a1.571,1.571,0,0,1,.495-2.169h0a1.574,1.574,0,0,1,2.17.494h0a1.572,1.572,0,0,1,.033,1.63h0A1.557,1.557,0,0,1,409.529,345.142Z" transform="translate(-359.311 -325.972)"/><path class="b" d="M382.248,379.842a1.571,1.571,0,0,1-1.072-1.951h0a1.575,1.575,0,0,1,1.954-1.078h0a1.579,1.579,0,0,1,1.069,1.957h0a1.582,1.582,0,0,1-.151.35h0A1.576,1.576,0,0,1,382.248,379.842Z" transform="translate(-359.311 -325.972)"/><path class="b" d="M399.933,337.5l0-.006-.022-.012h0c-.017-.01-.036-.015-.053-.024h0a1.582,1.582,0,0,1-.582-2.156h0a1.572,1.572,0,0,1,2.152-.577h0l.045.026h0l.039.023h0a1.572,1.572,0,0,1,.577,2.152h0A1.579,1.579,0,0,1,399.933,337.5Z" transform="translate(-359.311 -325.972)"/><path class="b" d="M374.251,373.888a1.571,1.571,0,0,1-2.23.043h0l0,.005h0a1.583,1.583,0,0,1-.042-2.229h0a1.583,1.583,0,0,1,2.232-.048h0a1.581,1.581,0,0,1,.268,1.929h0A1.509,1.509,0,0,1,374.251,373.888Z" transform="translate(-359.311 -325.972)"/><path class="b" d="M389.962,334.606a1.58,1.58,0,0,1-1.515-1.636h0a1.58,1.58,0,0,1,1.636-1.515h0a1.572,1.572,0,0,1,1.515,1.636h0a1.6,1.6,0,0,1-.209.732h0A1.6,1.6,0,0,1,389.962,334.606Z" transform="translate(-359.311 -325.972)"/><path class="b" d="M367.7,364.946a1.567,1.567,0,0,1-1.988-1h0a1.568,1.568,0,0,1,.992-1.992h0a1.583,1.583,0,0,1,2,1h0a1.591,1.591,0,0,1-.135,1.3h0A1.589,1.589,0,0,1,367.7,364.946Z" transform="translate(-359.311 -325.972)"/><path class="b" d="M379.872,336.685a1.578,1.578,0,0,1-2.1-.752h0a1.57,1.57,0,0,1,.748-2.1h0a1.576,1.576,0,0,1,2.1.743h0a1.588,1.588,0,0,1-.06,1.472h0A1.591,1.591,0,0,1,379.872,336.685Z" transform="translate(-359.311 -325.972)"/><path class="b" d="M366.056,353.985a1.577,1.577,0,0,1-1.306-1.8h0a1.577,1.577,0,0,1,1.81-1.3h0a1.577,1.577,0,0,1,1.306,1.8h0a1.575,1.575,0,0,1-.2.541h0A1.57,1.57,0,0,1,366.056,353.985Z" transform="translate(-359.311 -325.972)"/><path class="b" d="M371.9,343.2a1.572,1.572,0,0,1-2.205.323h0a1.574,1.574,0,0,1-.315-2.208h0a1.578,1.578,0,0,1,2.2-.318h0A1.58,1.58,0,0,1,372,343.05h0A.787.787,0,0,1,371.9,343.2Z" transform="translate(-359.311 -325.972)"/><path class="b" d="M405.841,364.66a1.273,1.273,0,0,1-.669-1.673h0a1.278,1.278,0,0,1,1.681-.672h0a1.281,1.281,0,0,1,.666,1.678h0a1.375,1.375,0,0,1-.071.137h0A1.276,1.276,0,0,1,405.841,364.66Z" transform="translate(-359.311 -325.972)"/><path class="b" d="M401.763,371.638h0a1.273,1.273,0,0,1-1.792-.186h0a1.274,1.274,0,0,1,.18-1.8h0a1.281,1.281,0,0,1,1.8.181h0a1.277,1.277,0,0,1,.117,1.448h0A1.254,1.254,0,0,1,401.763,371.638Z" transform="translate(-359.311 -325.972)"/><path class="b" d="M407.9,355.922a1.276,1.276,0,0,1-1.377-1.17h0a1.284,1.284,0,0,1,1.17-1.377h0a1.283,1.283,0,0,1,1.377,1.17h0a1.278,1.278,0,0,1-.173.746h0A1.253,1.253,0,0,1,407.9,355.922Z" transform="translate(-359.311 -325.972)"/><path class="b" d="M393.112,375.725a1.271,1.271,0,0,1-1.5-.991h0a1.278,1.278,0,0,1,.994-1.508h0a1.278,1.278,0,0,1,1.509.993h0a1.291,1.291,0,0,1-.148.9h0A1.254,1.254,0,0,1,393.112,375.725Z" transform="translate(-359.311 -325.972)"/><path class="b" d="M405.654,347.228a1.275,1.275,0,0,1-1.762-.4h0a1.275,1.275,0,0,1,.4-1.756h0a1.276,1.276,0,0,1,1.759.4h0a1.284,1.284,0,0,1,.024,1.328h0A1.315,1.315,0,0,1,405.654,347.228Z" transform="translate(-359.311 -325.972)"/><path class="b" d="M383.555,375.338a1.27,1.27,0,0,1-.871-1.582h0a1.285,1.285,0,0,1,1.581-.87h0a1.278,1.278,0,0,1,.868,1.587h0a1.215,1.215,0,0,1-.118.28h0A1.268,1.268,0,0,1,383.555,375.338Z" transform="translate(-359.311 -325.972)"/><path class="b" d="M397.884,341.035l-.033-.019h0l-.028-.016h0a1.267,1.267,0,0,1-.467-1.74h0a1.276,1.276,0,0,1,1.744-.473h0c.011.006.019.018.03.025h0c.011.006.025.007.036.014h0a1.28,1.28,0,0,1,.464,1.745h0A1.276,1.276,0,0,1,397.884,341.035Z" transform="translate(-359.311 -325.972)"/><path class="b" d="M377.075,370.517a1.275,1.275,0,0,1-1.8.037h0a1.28,1.28,0,0,1-.043-1.806h0a1.281,1.281,0,0,1,1.808-.034h0a1.271,1.271,0,0,1,.222,1.561h0A1.249,1.249,0,0,1,377.075,370.517Z" transform="translate(-359.311 -325.972)"/><path class="b" d="M389.806,338.686a1.265,1.265,0,0,1-1.224-1.318h0a1.275,1.275,0,0,1,1.322-1.23h0a1.28,1.28,0,0,1,1.23,1.322h0a1.271,1.271,0,0,1-.175.6h0A1.259,1.259,0,0,1,389.806,338.686Z" transform="translate(-359.311 -325.972)"/><path class="b" d="M371.773,363.269a1.266,1.266,0,0,1-1.613-.8h0a1.272,1.272,0,0,1,.8-1.618h0a1.279,1.279,0,0,1,1.615.811h0a1.278,1.278,0,0,1-.108,1.043h0A1.23,1.23,0,0,1,371.773,363.269Z" transform="translate(-359.311 -325.972)"/><path class="b" d="M381.627,340.375h0a1.282,1.282,0,0,1-1.7-.609h0a1.275,1.275,0,0,1,.606-1.7h0a1.272,1.272,0,0,1,1.7.6h0a1.273,1.273,0,0,1-.046,1.191h0A1.313,1.313,0,0,1,381.627,340.375Z" transform="translate(-359.311 -325.972)"/><path class="b" d="M370.434,354.4a1.283,1.283,0,0,1-1.056-1.467h0a1.277,1.277,0,0,1,1.467-1.057h0a1.282,1.282,0,0,1,1.056,1.467h0a1.225,1.225,0,0,1-.157.436h0A1.287,1.287,0,0,1,370.434,354.4Z" transform="translate(-359.311 -325.972)"/><path class="b" d="M375.172,345.655a1.287,1.287,0,0,1-1.791.26h0a1.277,1.277,0,0,1-.254-1.788h0a1.27,1.27,0,0,1,1.788-.254h0a1.267,1.267,0,0,1,.337,1.658h0A1.243,1.243,0,0,1,375.172,345.655Z" transform="translate(-359.311 -325.972)"/></g></svg>