<svg xmlns="http://www.w3.org/2000/svg" width="28.894" height="24.827" viewBox="0 0 28.894 24.827"><defs><style>.a{fill:#ea5f5f;fill-rule:evenodd;}</style></defs><g transform="translate(10429.704 32)"><path class="a" d="M152.736,109.982a.721.721,0,0,1-.621.361H128.429a.722.722,0,0,1-.61-1.083l11.844-19.637a.722.722,0,0,1,1.223,0l11.841,19.64a.722.722,0,0,1,0,.722Zm1.613-1.689L142.5,88.654a2.595,2.595,0,0,0-4.443,0L126.2,108.293a2.595,2.595,0,0,0,2.219,3.934h23.7a2.595,2.595,0,0,0,2.234-3.934Z" transform="translate(-10555.531 -119.4)"/><path class="a" d="M331.662,216.168c.419,0,1.01-.227,1.01-.769,0-2.075.245-5.052.245-7.132a1.12,1.12,0,0,0-1.256-1.075,1.131,1.131,0,0,0-1.263,1.083c0,2.075.242,5.052.242,7.132,0,.534.473.761,1.021.761Z" transform="translate(-10746.919 -231.472)"/><path class="a" d="M330.96,365.12a1.342,1.342,0,1,0,1.163.671A1.343,1.343,0,0,0,330.96,365.12Z" transform="translate(-10746.188 -379.222)"/></g></svg>