<svg xmlns="http://www.w3.org/2000/svg" width="29.25" height="29.542" viewBox="0 0 29.25 29.542"><defs><style>.a{fill:#f5c65d;}.b{fill:#ffb000;}.c{fill:#45a142;}.d{fill:#63c460;}.e{fill:#6dd26a;}.f{fill:#5cac5a;}</style></defs><g transform="translate(0.12 -0.2)"><ellipse class="a" cx="14.492" cy="14.771" rx="14.492" ry="14.771" transform="translate(-0.12 0.2)"/><path class="b" d="M65.012,113.251A14.658,14.658,0,0,0,79.2,100.271l-6.814-6.818H69.706l-3.928-3.927a1.593,1.593,0,1,0-2.253,2.253l.451.451h-.3v1.224H56.889v.006l-3.469,7.073h-.4a2.541,2.541,0,0,0,.776,1.5Z" transform="translate(-50.068 -83.794)"/><rect class="c" width="15.494" height="1.056" transform="translate(6.822 9.659)"/><rect class="c" width="7.747" height="1.056" transform="translate(14.568 9.659)"/><rect class="d" width="1.912" height="14.337" transform="translate(13.613 8.435)"/><rect class="c" width="0.956" height="14.337" transform="translate(14.568 8.435)"/><path class="e" d="M0,0H6.372V2.549H0Z" transform="translate(11.383 20.541)"/><path class="f" d="M0,0H3.186V2.549H0Z" transform="translate(14.568 20.541)"/><path class="d" d="M59.9,173.385l2.542-5.176,2.554,5.176h.983l-3.537-7.21-3.537,7.21Z" transform="translate(-55.616 -156.511)"/><path class="c" d="M120.677,166.175v2.034l2.554,5.176h.983Z" transform="translate(-113.855 -156.511)"/><path class="d" d="M53.016,289.727c.179,1.487,1.844,2.652,3.873,2.652s3.695-1.165,3.873-2.652Z" transform="translate(-50.068 -272.99)"/><path class="c" d="M120.677,289.727v2.652c2.029,0,3.695-1.165,3.873-2.652Z" transform="translate(-113.855 -272.99)"/><path class="d" d="M330.542,173.385l2.542-5.176,2.554,5.176h.983l-3.536-7.21-3.536,7.21Z" transform="translate(-310.768 -156.511)"/><path class="c" d="M391.323,166.175v2.034l2.554,5.176h.983Z" transform="translate(-369.008 -156.511)"/><path class="d" d="M323.661,289.727c.179,1.487,1.844,2.652,3.873,2.652s3.695-1.165,3.873-2.652Z" transform="translate(-305.219 -272.99)"/><path class="c" d="M391.323,289.727v2.652c2.029,0,3.695-1.165,3.873-2.652Z" transform="translate(-369.008 -272.99)"/><circle class="d" cx="1.593" cy="1.593" r="1.593" transform="translate(12.976 5.249)"/><path class="c" d="M256,89.043v3.186a1.593,1.593,0,0,0,0-3.186Z" transform="translate(-241.432 -83.794)"/><rect class="d" width="10.195" height="1.274" transform="translate(9.471 21.816)"/><rect class="c" width="5.097" height="1.274" transform="translate(14.568 21.816)"/></g></svg>