<svg xmlns="http://www.w3.org/2000/svg" width="150.1" height="150.1" viewBox="0 0 150.1 150.1"><path d="M49.477,11.309H11.952V48.834H49.477Zm9.381-9.381V58.216H2.571V1.928ZM21.333,20.691H40.1V39.453H21.333Zm121.956-9.381H105.764V48.834h37.525V11.309Zm9.381-9.381V58.216H96.383V1.928h56.287ZM115.146,20.691h18.762V39.453H115.146ZM49.477,105.122H11.952v37.525H49.477Zm9.381-9.381v56.287H2.571V95.74ZM21.333,114.5H40.1v18.762H21.333ZM68.239,1.928h9.381v9.381H68.239Zm9.381,9.381H87v9.381H77.621Zm-9.381,9.381h9.381v9.381H68.239Zm9.381,9.381H87v9.381H77.621Zm-9.381,9.381h9.381v9.381H68.239Zm9.381,9.381H87v9.381H77.621Zm-9.381,9.381h9.381V67.6H68.239Zm0,18.762h9.381v9.381H68.239Zm9.381,9.381H87V95.74H77.621ZM68.239,95.74h9.381v9.381H68.239Zm9.381,9.381H87V114.5H77.621ZM68.239,114.5h9.381v9.381H68.239Zm9.381,9.381H87v9.381H77.621Zm-9.381,9.381h9.381v9.381H68.239Zm9.381,9.381H87v9.381H77.621Zm65.669-65.669h9.381v9.381h-9.381Zm-131.337,0h9.381v9.381H11.952ZM21.333,67.6h9.381v9.381H21.333Zm-18.762,0h9.381v9.381H2.571Zm37.525,0h9.381v9.381H40.1Zm9.381,9.381h9.381v9.381H49.477ZM58.858,67.6h9.381v9.381H58.858ZM87,76.978h9.381v9.381H87ZM96.383,67.6h9.381v9.381H96.383Zm9.381,9.381h9.381v9.381h-9.381Zm9.381-9.381h9.381v9.381h-9.381Zm9.381,9.381h9.381v9.381h-9.381Zm9.381-9.381h9.381v9.381h-9.381Zm9.381,28.144h9.381v9.381h-9.381ZM87,95.741h9.381v9.381H87Zm9.381-9.381h9.381v9.381H96.383Zm9.381,9.381h9.381v9.381h-9.381Zm18.762,0h9.381v9.381h-9.381Zm9.381-9.381h9.381v9.381h-9.381Zm9.381,28.144h9.381v9.381h-9.381ZM87,114.5h9.381v9.381H87Zm9.381-9.381h9.381V114.5H96.383Zm18.762,0h9.381V114.5h-9.381Zm9.381,9.381h9.381v9.381h-9.381Zm9.381-9.381h9.381V114.5h-9.381Zm9.381,28.144h9.381v9.381h-9.381Zm-46.906-9.381h9.381v9.381H96.383Zm9.381,9.381h9.381v9.381h-9.381Zm9.381-9.381h9.381v9.381h-9.381Zm9.381,9.381h9.381v9.381h-9.381Zm-28.144,9.381h9.381v9.381H96.383Zm18.762,0h9.381v9.381h-9.381Zm18.762,0h9.381v9.381h-9.381Z" transform="translate(-2.571 -1.928)"/></svg>