<svg xmlns="http://www.w3.org/2000/svg" width="77" height="78" viewBox="0 0 77 78"><defs><style>.a,.e{fill:#45a142;}.a{opacity:0.19;}.b{fill:#575f64;}.c{fill:#5faf42;}.d{fill:#474f54;}</style></defs><g transform="translate(-0.265 0.264)"><ellipse class="a" cx="38.5" cy="39" rx="38.5" ry="39" transform="translate(0.265 -0.264)"/><g transform="translate(21.479 17.943)"><g transform="translate(14.019 35.855)"><path class="b" d="M214.823,429.647A3.828,3.828,0,0,1,211,425.823V422h7.647v3.824A3.828,3.828,0,0,1,214.823,429.647Z" transform="translate(-211 -422)"/></g><g transform="translate(14.019)"><path class="c" d="M218.647,8.212l-1.548-.34a11.664,11.664,0,0,0-4.55,0L211,8.212V3.823a3.823,3.823,0,1,1,7.647,0Z" transform="translate(-211)"/></g><path class="d" d="M259.823,425.823V422H256v7.647A3.828,3.828,0,0,0,259.823,425.823Z" transform="translate(-238.157 -386.145)"/><path class="e" d="M258.275,7.872l1.548.34V3.823A3.828,3.828,0,0,0,256,0V7.648A10.923,10.923,0,0,1,258.275,7.872Z" transform="translate(-238.157)"/><g transform="translate(3.823 5.101)"><path class="c" d="M119.038,74.052V86.967l-14.045,2.549L91,86.967V74.052a14.03,14.03,0,0,1,11.215-13.739,14.445,14.445,0,0,1,5.633,0A14.033,14.033,0,0,1,119.038,74.052Z" transform="translate(-91 -60.036)"/></g><path class="e" d="M256,60.039V89.514l14.019-2.544V74.055a14.034,14.034,0,0,0-11.19-13.739A13.249,13.249,0,0,0,256,60.039Z" transform="translate(-238.157 -54.938)"/><path class="c" d="M77.862,377H49.823A3.818,3.818,0,0,1,46,380.823v2.549H81.685v-2.549A3.818,3.818,0,0,1,77.862,377Z" transform="translate(-46 -344.968)"/><path class="e" d="M256,383.372h17.843v-2.549A3.818,3.818,0,0,1,270.019,377H256Z" transform="translate(-238.157 -344.968)"/></g></g></svg>