<svg xmlns="http://www.w3.org/2000/svg" width="604.201" height="547.627" viewBox="0 0 604.201 547.627"><defs><style>.a{fill:#f5f5f5;}.b{fill:#e0e0e0;}.c{fill:#5faf42;}.d{opacity:0.15;}.e{fill:#fff;}.f{fill:#37474f;}.g{fill:#455a64;}.h{fill:#63a53a;}.i{fill:#b5880a;}.j{fill:#ffbd05;}.k{fill:#3c3c3b;}.l{fill:#575756;}.m{fill:#878787;}.n{fill:#634e42;}.o{fill:#f2be8a;}.p{fill:#ffcf9f;}.q{fill:#ffc994;}.r{fill:#405160;}.s{fill:#ca9e67;}.t{fill:#f5c08c;}.u{fill:#374551;}.v{fill:#deab7d;}.w{fill:#263238;}.x{fill:#ededed;}.y{fill:#f2bb88;}.z{fill:#dba97b;}.aa{opacity:0.2;}.ab{fill:#dadada;mix-blend-mode:screen;isolation:isolate;}.ac{opacity:0.3;}.ad{fill:#936037;}.ae{fill:#23272b;}.af{fill:#c4986e;}</style></defs><g transform="translate(-658 -183.973)"><g transform="translate(639.528 113.544)"><g transform="translate(18.471 269.22)"><path class="a" d="M106.955,517.158c-117.978-68.115-117.978-178.55,0-246.664s309.257-68.114,427.234,0,117.978,178.549,0,246.664S224.932,585.275,106.955,517.158Z" transform="translate(-18.472 -219.41)"/></g><g transform="translate(108.68 313.163)"><ellipse class="b" cx="92.689" cy="53.514" rx="92.689" ry="53.514" transform="translate(0 150.06)"/><ellipse class="b" cx="132.229" cy="65.799" rx="132.229" ry="65.799" transform="translate(128.062 125.528) rotate(-28.337)"/></g><g transform="translate(112.109 359.123)"><g transform="translate(356.855)"><g transform="translate(0.003)"><path class="c" d="M374.328,344.942c12.855-15.322,32.988-25.307,55.628-31.2,22.351-5.816,26.358-19.568,11.542-24.032-16.8-5.059-37.755,4.239-51.267,17.167-23.552,22.533-26.5,39.78-26.5,39.78Z" transform="translate(-363.729 -288.311)"/><path class="d" d="M374.328,344.942c12.855-15.322,32.988-25.307,55.628-31.2,22.351-5.816,26.358-19.568,11.542-24.032-16.8-5.059-37.755,4.239-51.267,17.167-23.552,22.533-26.5,39.78-26.5,39.78Z" transform="translate(-363.729 -288.311)"/><g transform="translate(3.326 6.716)"><path class="e" d="M366.932,342.48a.654.654,0,0,1-.587-.938C385.422,302.4,427.637,292.77,437.9,293.5a.652.652,0,0,1,.6.7.666.666,0,0,1-.7.6c-10.02-.768-51.5,8.776-70.285,47.314A.652.652,0,0,1,366.932,342.48Z" transform="translate(-366.278 -293.458)"/></g></g><g transform="translate(0 35.037)"><path class="c" d="M363.727,340.83a3.565,3.565,0,0,0,5.39,3.052c11.951-6.96,29.387-10.8,57.6-2.775,15,4.268,22.384,1.414,25.548-4.7,3.514-6.785-3.931-13.342-12.4-16.437-28.874-10.551-54.935-3.347-76.137,17.7Z" transform="translate(-363.727 -315.163)"/><g transform="translate(0.99 8.77)"><path class="e" d="M365.138,339.341a.652.652,0,0,1-.434-1.139c24.928-22.282,63.555-17.945,78.172-9.254a.652.652,0,1,1-.668,1.121c-14.32-8.514-52.181-12.753-76.635,9.106A.649.649,0,0,1,365.138,339.341Z" transform="translate(-364.486 -321.885)"/></g></g></g><g transform="translate(-40 59.41)"><g transform="translate(7.912)"><path class="c" d="M166.26,389.431C155.3,372.7,136.489,360.408,114.7,351.889c-21.51-8.412-23.866-22.542-8.626-25.226,17.276-3.042,36.99,8.664,48.883,23.1,20.729,25.154,21.625,42.628,21.625,42.628Z" transform="translate(-96.298 -326.179)"/><path class="d" d="M166.26,389.431C155.3,372.7,136.489,360.408,114.7,351.889c-21.51-8.412-23.866-22.542-8.626-25.226,17.276-3.042,36.99,8.664,48.883,23.1,20.729,25.154,21.625,42.628,21.625,42.628Z" transform="translate(-96.298 -326.179)"/><g transform="translate(11.266 6.13)"><path class="e" d="M170.307,387.891a.661.661,0,0,0,.292-.031.651.651,0,0,0,.4-.83c-14.325-41.12-55.109-55.662-65.385-56.152a.654.654,0,0,0-.681.624.666.666,0,0,0,.624.681c10.041.419,50.106,14.791,64.212,55.276A.647.647,0,0,0,170.307,387.891Z" transform="translate(-104.933 -330.877)"/></g></g><g transform="translate(0 36.649)"><path class="c" d="M178.528,383.032a5.428,5.428,0,0,1-8.42,3.866c-11.06-7.41-27.541-12.217-54.536-7.89-15.4,2.467-22.394-1.237-24.816-7.679-2.689-7.152,5.478-12.784,14.256-14.859,29.917-7.069,54.945,3.158,73.516,26.562Z" transform="translate(-90.235 -354.266)"/><g transform="translate(9.867 8.9)"><path class="e" d="M174.153,384.447a.653.653,0,0,0,.566-1.08c-22.126-25.068-60.993-25.317-76.535-18.411a.652.652,0,1,0,.531,1.191c15.225-6.765,53.321-6.508,75.027,18.083A.642.642,0,0,0,174.153,384.447Z" transform="translate(-97.797 -361.087)"/></g></g></g></g><g transform="translate(239.137 107.071)"><g transform="translate(0 31.056)"><path class="f" d="M439.723,154.471l0-.01-.206-.1-.022-.012L389.76,125.712l-.047-.025-.291-.147-.005.012c-23.235-11.721-54.24-8.206-87.585,13.356-66.993,43.32-118.042,143.031-114.021,222.709,2,39.715,17.316,66.947,40.463,78.919l-.005.009.2.1.026.013L278.249,469.3l.021.01.244.125.005-.01c23.241,11.758,54.271,8.253,87.645-13.329,66.992-43.32,118.042-143.029,114.022-222.707C478.182,193.675,462.869,166.441,439.723,154.471Z" transform="translate(-187.589 -118.941)"/><path class="f" d="M276.554,437.987l-48.04-27.738-.037,0-.224-.134c-23.134-12-38.44-39.236-40.44-78.9-1.794-35.534,7.388-75.032,24-111.714l.335-.8,49.422,29.434c-16.652,36.682-25.8,76.179-24,111.714C239.529,398.714,254.235,425.616,276.554,437.987Z" transform="translate(-187.588 -88.532)"/><path class="g" d="M354.537,449.406c66.992-43.32,118.041-143.029,114.021-222.707s-61.587-109.151-128.58-65.83S221.936,303.9,225.956,383.576,287.544,492.727,354.537,449.406Z" transform="translate(-175.962 -112.25)"/></g><path class="f" d="M403.8,141.434,319.834,314.373l-18.072-19.586a29.7,29.7,0,0,0-43.645,40.307l47.607,51.571a29.545,29.545,0,0,0,20.214,9.5q.822.043,1.647.044a30.48,30.48,0,0,0,4.3-.309,29.665,29.665,0,0,0,22.376-16.412L450.56,181.151C440.728,159.159,424.278,145.483,403.8,141.434Z" transform="translate(-168.486 -81.029)"/><g transform="translate(90.835)"><path class="h" d="M469.866,98.574q-.785-.452-1.614-.853a25.834,25.834,0,0,0-34.473,11.927L326.934,329.719l-6.069-6.578a25.323,25.323,0,0,0-6.057-4.837c-3.188-1.827-16.73-9.67-18.921-10.936A25.8,25.8,0,0,0,264.027,347.2l47.607,51.573a25.583,25.583,0,0,0,6.146,4.888c3.108,1.769,16.6,9.593,18.811,10.874a25.707,25.707,0,0,0,11.541,3.428,26.306,26.306,0,0,0,5.163-.228,25.766,25.766,0,0,0,19.43-14.248l126.4-260.35a25.837,25.837,0,0,0-10.292-33.609C488.3,109.22,473.241,100.517,469.866,98.574Z" transform="translate(-257.205 -95.139)"/><path class="i" d="M469.866,98.574q-.785-.452-1.614-.853a25.834,25.834,0,0,0-34.473,11.927L326.934,329.719l-6.069-6.578a25.323,25.323,0,0,0-6.057-4.837c-3.188-1.827-16.73-9.67-18.921-10.936A25.8,25.8,0,0,0,264.027,347.2l47.607,51.573a25.583,25.583,0,0,0,6.146,4.888c3.108,1.769,16.6,9.593,18.811,10.874a25.707,25.707,0,0,0,11.541,3.428,26.306,26.306,0,0,0,5.163-.228,25.766,25.766,0,0,0,19.43-14.248l126.4-260.35a25.837,25.837,0,0,0-10.292-33.609C488.3,109.22,473.241,100.517,469.866,98.574Z" transform="translate(-257.205 -95.139)"/><path class="d" d="M336.144,357.479c-2.2-1.276-15.7-9.1-18.81-10.876a25.766,25.766,0,0,1-6.148-4.884l-47.607-51.57a25.841,25.841,0,0,1-4.922-7.837l18.931,10.924a25.383,25.383,0,0,0,4.945,7.85l47.609,51.569A25.916,25.916,0,0,0,336.144,357.479Z" transform="translate(-256.762 -38.087)"/><path class="i" d="M442.414,111.116a25.551,25.551,0,0,0-5.979,7.935L326.543,345.411l-15.894-17.23L417.492,108.115a25.255,25.255,0,0,1,5.99-7.935Z" transform="translate(-240.914 -93.603)"/><path class="j" d="M482.774,106.106A25.833,25.833,0,0,0,448.3,118.033L338.405,344.39l-21.966-23.8a25.79,25.79,0,0,0-37.889,35l47.607,51.573a25.647,25.647,0,0,0,17.548,8.249,26.3,26.3,0,0,0,5.163-.228,25.766,25.766,0,0,0,19.43-14.248l126.4-260.35A25.827,25.827,0,0,0,482.774,106.106Z" transform="translate(-252.778 -92.584)"/></g></g><g transform="translate(61.937 71.402)"><g transform="translate(389.059)"><path class="b" d="M362.561,97.445l-7.312,2.2L349.957,82l7.3-2.2Z" transform="translate(-349.957 -64.147)"/><path class="b" d="M383.118,85.426a3.391,3.391,0,0,1-2.073,3.416,5.084,5.084,0,0,1,1.026,1.867c.42,1.366-.7,3.2-2.894,3.858s-16.741,5.038-16.741,5.038l-4.927-16.392H357.5s2.842-7.251,2.98-8.342c.166-1.074-1.533-5.114-1.762-5.873-.185-.618,2.478-1.743,4.622-.879a3.731,3.731,0,0,1,1.366.945,11.6,11.6,0,0,1,1.919,2.751,9.964,9.964,0,0,1,1.019,4.628L377.757,73.4a3.139,3.139,0,0,1,2.165.068,2.948,2.948,0,0,1,1.669,1.771,3.006,3.006,0,0,1-.86,3.056,2.693,2.693,0,0,1,2.766,1.857,3,3,0,0,1-1.669,3.391A3.172,3.172,0,0,1,383.118,85.426Z" transform="translate(-347.658 -67.803)"/></g><g transform="translate(497.174 179.976)"><path class="b" d="M442.2,239.426l-9.381-2.255,5.467-22.628,9.369,2.249Z" transform="translate(-432.815 -203.052)"/><path class="b" d="M474.153,239.565c-.294,1.215-2.615,2.843-4.439,2.406a6.407,6.407,0,0,1-.07,2.693c-.411,1.758-2.8,3.052-5.616,2.366s-21.476-5.167-21.476-5.167l5.067-21.024-.012-.009s7.719-6.1,8.565-7.2c.865-1.066,1.584-6.557,1.82-7.531.192-.793,3.814-.324,5.6,1.985a4.725,4.725,0,0,1,.889,1.9,14.676,14.676,0,0,1,.342,4.224,12.579,12.579,0,0,1-1.835,5.7l12.974,3.122a3.982,3.982,0,0,1,2.32,1.454,3.725,3.725,0,0,1,.692,3,3.8,3.8,0,0,1-2.885,2.786,3.4,3.4,0,0,1,1.836,3.789,3.783,3.783,0,0,1-3.981,2.637A4.008,4.008,0,0,1,474.153,239.565Z" transform="translate(-429.847 -205.736)"/></g><g transform="translate(10 96.182)"><path class="b" d="M76.823,229.009l10.239,3.083,7.411-24.713L84.249,204.3Z" transform="translate(-44.151 -182.381)"/><path class="b" d="M52.448,212.178c-.4,1.327.916,4.182,2.9,4.783a7.1,7.1,0,0,0-1.437,2.616c-.588,1.913.975,4.487,4.053,5.4,3.062.917,23.443,7.054,23.443,7.054l6.9-22.954.016,0s-3.978-10.154-4.173-11.681c-.231-1.5,2.148-7.161,2.466-8.225.261-.866-3.469-2.44-6.472-1.23a5.226,5.226,0,0,0-1.913,1.322,16.248,16.248,0,0,0-2.687,3.852A13.971,13.971,0,0,0,74.12,199.6l-14.162-4.262a4.414,4.414,0,0,0-3.032.1,4.137,4.137,0,0,0-2.337,2.48,4.2,4.2,0,0,0,1.206,4.278,3.773,3.773,0,0,0-3.875,2.6,4.194,4.194,0,0,0,2.338,4.748A4.444,4.444,0,0,0,52.448,212.178Z" transform="translate(-51.783 -187.501)"/></g></g></g><g transform="translate(551.977 -47.432)"><g transform="translate(265.202 475.201)"><path class="k" d="M246.307,396.588a103.124,103.124,0,0,1-15.275-.668,27.528,27.528,0,0,1-23.645-21.733,161.36,161.36,0,0,1-3.026-34.808c14.374,4.1,28.411,6.751,41.945,7.2,13.534-.449,27.574-3.1,41.945-7.2a161.216,161.216,0,0,1-3.026,34.808,27.523,27.523,0,0,1-23.645,21.733A103.126,103.126,0,0,1,246.307,396.588Z" transform="translate(-204.346 -339.379)"/><g transform="translate(0.002)"><path class="l" d="M246.306,346.579c-13.534-.449-27.571-3.1-41.945-7.2q-.047,4.034.068,8.029c14.349,4.094,28.366,6.735,41.878,7.185,13.514-.449,27.529-3.091,41.878-7.185q.112-3.993.068-8.029C273.879,343.482,259.84,346.13,246.306,346.579Z" transform="translate(-204.347 -339.379)"/><rect class="m" width="11.237" height="8.324" transform="translate(36.34 6.89)"/><path class="k" d="M210.055,349.306h-2.37v-9.034l2.37.58Z" transform="translate(-200.148 -338.255)"/><path class="k" d="M237.125,349.306H239.5v-9.034l-2.373.58Z" transform="translate(-163.115 -338.255)"/><path class="k" d="M216.118,350.639h-2.37V341.6l2.37.338Z" transform="translate(-192.522 -336.582)"/><path class="k" d="M231.063,350.639h2.37V341.6l-2.37.338Z" transform="translate(-170.74 -336.582)"/></g></g><g transform="translate(252.502 495.531)"><g transform="translate(0 171.705)"><path class="k" d="M213.539,434.661c3.759.2,7.76.44,10.664-1.1V431.1l-11.249-1.4Z" transform="translate(-180.817 -417.793)"/><path class="k" d="M242.106,432.467c-19.987,5.311-34.842,5.95-43.122,2.892l-.262-3.129,43.061-3.613Z" transform="translate(-198.72 -419.159)"/><path class="n" d="M241.879,435.067c-6.311,3.881-39.611,6.157-43.151,2.43-.178-2.147,3.294-4.471,9.569-6.993.623-.246,1.267-.492,1.949-.75.47-.176.962-.352,1.465-.54.657-.235,1.325-.47,2.019-.7h.011c.47-.165.962-.327,1.454-.492h.011c.682-.224,1.384-.447,2.111-.68q2.6-.826,5.5-1.666C239.605,420.793,241.6,431.606,241.879,435.067Z" transform="translate(-198.721 -424.428)"/><path class="k" d="M212.087,429.506a.891.891,0,0,1-1.222.221l-4.843-3.33c.682-.224,1.384-.447,2.111-.68l3.73,2.558A.883.883,0,0,1,212.087,429.506Z" transform="translate(-189.537 -422.807)"/><path class="k" d="M210.4,430.187a.867.867,0,0,1-.682.33.875.875,0,0,1-.551-.187c-.856-.693-1.818-1.361-2.757-2.005-.632-.447-1.3-.914-1.935-1.384.657-.235,1.325-.47,2.019-.7h.011c.3.212.61.436.914.646.962.657,1.949,1.348,2.849,2.075A.877.877,0,0,1,210.4,430.187Z" transform="translate(-191.484 -422.154)"/><path class="k" d="M208.711,430.727a.869.869,0,0,1-.7.354.9.9,0,0,1-.528-.178l-4.516-3.367c.623-.246,1.267-.492,1.949-.75l3.624,2.707A.88.88,0,0,1,208.711,430.727Z" transform="translate(-193.386 -421.461)"/></g><g transform="translate(67.004 171.705)"><path class="k" d="M239.06,434.661c-3.762.2-7.76.44-10.664-1.1V431.1l11.251-1.4Z" transform="translate(-228.396 -417.793)"/><path class="k" d="M228.4,432.467c19.987,5.311,34.842,5.95,43.12,2.892l.264-3.129-43.061-3.613Z" transform="translate(-228.396 -419.159)"/><path class="n" d="M228.5,435.067c6.311,3.881,39.611,6.157,43.151,2.43.176-2.147-3.3-4.471-9.571-6.993-.621-.246-1.264-.492-1.946-.75-.467-.176-.962-.352-1.468-.54q-.982-.352-2.014-.7h-.014c-.47-.165-.962-.327-1.454-.492h-.011c-.68-.224-1.384-.447-2.111-.68-1.739-.551-3.565-1.1-5.5-1.666C230.773,420.793,228.777,431.606,228.5,435.067Z" transform="translate(-228.269 -424.428)"/><path class="k" d="M237.712,429.506a.867.867,0,0,0,.727.373.858.858,0,0,0,.492-.151l4.846-3.33c-.68-.224-1.384-.447-2.111-.68l-3.73,2.558A.881.881,0,0,0,237.712,429.506Z" transform="translate(-216.876 -422.807)"/><path class="k" d="M239.342,430.187a.884.884,0,0,0,1.233.142c.856-.693,1.818-1.361,2.757-2.005.632-.447,1.3-.914,1.933-1.384q-.982-.352-2.014-.7h-.014c-.3.212-.61.436-.914.646-.962.657-1.949,1.348-2.849,2.075A.875.875,0,0,0,239.342,430.187Z" transform="translate(-214.871 -422.154)"/><path class="k" d="M240.922,430.727a.872.872,0,0,0,.7.354.885.885,0,0,0,.526-.178l4.516-3.367c-.621-.246-1.264-.492-1.946-.75l-3.624,2.707A.88.88,0,0,0,240.922,430.727Z" transform="translate(-212.861 -421.461)"/></g><path class="k" d="M236.017,524.37c.1-1.143-.458-8.165-.427-9.321,1.373-52.393,2.4-104.661,1.328-157.065-.239-10.244-15.48-11.613-17.5-1.569-1.14,5.672-.716,12-1.014,17.75-1.2,23.209-2.728,46.4-4.965,69.535q-3.59,37.137-7.232,74.274c-.016.178-.023.354-.034.531C211.719,521.615,220.848,525.8,236.017,524.37Z" transform="translate(-189.343 -346.912)"/><path class="k" d="M227.235,523.2c-.1-1.143.456-8.165.427-9.321-1.375-52.393-2.4-104.661-1.33-157.066.242-10.244,15.48-11.613,17.5-1.569,1.138,5.672.716,12.005,1.014,17.749,1.2,23.211,2.728,46.4,4.963,69.535q3.59,37.14,7.234,74.274c.016.178.023.355.034.531C250.415,522.115,240.688,525.247,227.235,523.2Z" transform="translate(-164.551 -348.383)"/></g><g transform="translate(155.968 399.097)"><path class="o" d="M196.718,322.917,194.34,339.16l-12-1.754c-1.623,3.193-7.133,3.6-11.477,2.962l-11.461-1.779c-1.748-8.316-1.237-17.912.415-26.7,0,0,19.048,1.9,19.689,2.168a9.559,9.559,0,0,1,5.22,5.665l.42,1.5Z" transform="translate(-153.015 -297.857)"/><path class="p" d="M166.085,319.665a3.321,3.321,0,0,0,3.816-2.737l.1-.605a3.32,3.32,0,0,0-2.737-3.816l-6.632-1.091a3.1,3.1,0,0,0-3.563,2.554l-.205,1.242a2.9,2.9,0,0,0,2.387,3.328Z" transform="translate(-154.89 -298.5)"/><path class="p" d="M166.883,323.12a3.318,3.318,0,0,0,3.868-2.728l.1-.6a3.328,3.328,0,0,0-2.687-3.811l-8.343-1.5a3.1,3.1,0,0,0-3.61,2.549l-.2,1.235a2.9,2.9,0,0,0,2.341,3.321Z" transform="translate(-155.968 -294.661)"/><path class="p" d="M165.786,326.016a3.322,3.322,0,0,0,3.816-2.737l.1-.605a3.32,3.32,0,0,0-2.737-3.816l-6.632-1.093a3.1,3.1,0,0,0-3.563,2.556l-.205,1.242a2.9,2.9,0,0,0,2.389,3.326Z" transform="translate(-155.265 -290.515)"/><path class="p" d="M164.842,327.818a2.654,2.654,0,0,0,2.965-2.294l.081-.5a2.656,2.656,0,0,0-2.071-3.125l-5.092-.838a2.475,2.475,0,0,0-2.766,2.143l-.169,1.025a2.316,2.316,0,0,0,1.8,2.723Z" transform="translate(-153.719 -286.35)"/><path class="q" d="M187.262,330.3l-5.141-.8-3.446-.454s.289-4.541-4.834-7.074c-5.36-2.646-2.391-12.644-2.391-12.644,2.161-4.057-6.5-6.291-7.121,1.867l-.822,9.266c-.634,14.153,5.83,17.978,12.872,18.246l11.915,1.813Z" transform="translate(-146.539 -305.673)"/></g><path class="r" d="M253.521,391.244c-1.52.194-3.017.368-4.534.5-11.5,1-23.015-.479-34.424-2.147-.5-.088-1.021-.154-1.52-.239-.607-.088-1.235-.174-1.842-.26a38.452,38.452,0,0,0-.867-3.927c-2.538-9.045-8.158-17.18-10.522-26.334-5.313-20.651,5.64-36.138,4.426-57.439-.434-7.569,5.227-13.6,3.992-27.852-2-23.514,4.988-29.132,18.113-36.073a55.356,55.356,0,0,1,27.091-6.051h.169a55.37,55.37,0,0,1,27.093,6.051c13.123,6.941,20.109,12.559,18.113,36.073-1.237,14.252,4.426,20.283,3.99,27.852-1.215,21.3,9.741,36.788,4.426,57.439-2.364,9.154-7.982,17.289-10.52,26.334a38.443,38.443,0,0,0-.869,3.927c-.605.086-1.233.172-1.842.26-.5.086-1.018.151-1.52.239-11.409,1.669-22.927,3.143-34.422,2.147C256.53,391.612,255.033,391.438,253.521,391.244Z" transform="translate(53.311 0.003)"/><g transform="translate(445.757 402.198)"><path class="s" d="M290.148,318.681a2.634,2.634,0,1,1-2.633-2.633A2.636,2.636,0,0,1,290.148,318.681Z" transform="translate(-283.595 -295.724)"/><path class="s" d="M290.106,316.384a2.634,2.634,0,1,1-2.635-2.633A2.636,2.636,0,0,1,290.106,316.384Z" transform="translate(-283.648 -298.614)"/><path class="s" d="M289.934,314.15a2.634,2.634,0,1,1-2.635-2.633A2.635,2.635,0,0,1,289.934,314.15Z" transform="translate(-283.864 -301.424)"/><path class="s" d="M289.727,311.849a2.635,2.635,0,1,1-2.635-2.635A2.633,2.633,0,0,1,289.727,311.849Z" transform="translate(-284.127 -304.321)"/><path class="s" d="M289.579,309.682a2.634,2.634,0,1,1-2.633-2.635A2.635,2.635,0,0,1,289.579,309.682Z" transform="translate(-284.311 -307.047)"/></g><g transform="translate(396.514 394.15)"><path class="p" d="M281.683,318.458l-.016-.056a2.807,2.807,0,0,1,1.845-3.518l21.807-6.81a2.815,2.815,0,0,1,3.522,1.845l.018.056a2.81,2.81,0,0,1-1.847,3.518L285.2,320.3A2.812,2.812,0,0,1,281.683,318.458Z" transform="translate(-238.555 -297.867)"/><path class="p" d="M280.368,318.136l-.02-.05a2.809,2.809,0,0,1,1.483-3.687l21.019-8.953a2.811,2.811,0,0,1,3.687,1.483l.023.052a2.811,2.811,0,0,1-1.483,3.689l-21.021,8.953A2.815,2.815,0,0,1,280.368,318.136Z" transform="translate(-240.338 -301.295)"/><path class="p" d="M282.379,319.958l-.014-.054a2.809,2.809,0,0,1,1.969-3.452L304.3,310.99a2.815,2.815,0,0,1,3.455,1.971l.016.052a2.813,2.813,0,0,1-1.973,3.452l-19.962,5.462A2.809,2.809,0,0,1,282.379,319.958Z" transform="translate(-237.643 -294.165)"/><path class="p" d="M283.016,320.182l-.009-.052a2.493,2.493,0,0,1,2.005-2.9l14.742-2.7a2.5,2.5,0,0,1,2.906,2.007l.009.05a2.5,2.5,0,0,1-2.005,2.9l-14.744,2.7A2.493,2.493,0,0,1,283.016,320.182Z" transform="translate(-236.76 -289.639)"/><path class="t" d="M262.5,326.3l27.888-9.025c.131-2.96.467-5.144,2.856-6.62a7.951,7.951,0,0,1,1.761-.806l5.688-1.775,1.481,2.238,8.447-2.278c2.694,7.546,3.181,14.3,2.8,21.906l-11.195,2.411a8.151,8.151,0,0,1-7.119-1.21l-27.98,9.98Z" transform="translate(-262.502 -297.755)"/><path class="p" d="M282.3,311.133c3.01-1.328,6.2-4.726,7.526-6.679,1.748-2.572,7.966.138,2.856,6.04-1.477,1.7-3.854,4.705-6.02,5.43,2.258,3.59,1.228,8.675-1.858,11.662l-9.61-10.459C275.594,315.089,278.846,312.657,282.3,311.133Z" transform="translate(-246.541 -303.483)"/><path class="p" d="M289.983,316.746a11.429,11.429,0,0,1,2.328-8.1l6.1-.025,3.7,3.032c1.061,4.7.506,10.138-4.742,11.463l-.029,0-32.4,10.271-2.443-7.828Z" transform="translate(-262.502 -297.018)"/></g><path class="u" d="M285.225,281.806c-2.308-8.239-1.364-17.806-6.706-24.489-2.563-3.2-6.27-5.279-10.025-6.934-9.154-4.033-19.326-6.042-29.258-4.839s-19.585,5.753-26.163,13.295-9.795,18.133-7.666,27.908c.937,4.306-.727,2.107.454,6.342.942,5.575,4.432,15.275,3.468,19.3-2.47,10.33-3.283,20.7,3.656,28.739-2.048-4.852-3.931-10.208-2.524-15.284a38.7,38.7,0,0,1,3.168-6.835,22.008,22.008,0,0,0,3.032,3.577c-.921,3.041-1.879,6.2-1.17,9.282.5,2.152,1.766,4.03,2.755,6.008s1.709,4.277,1.021,6.376a12.877,12.877,0,0,0,1.671-7.5c-.074-2.6-.5-5.2-.363-7.792.038-.768.126-1.531.235-2.292a15.1,15.1,0,0,1,2.66,3.8c2.617,5.643.28,12.852,3.568,18.133,2.425,3.9,7.225,5.557,11.739,6.4a58.5,58.5,0,0,0,25.3-.872c-.7-6.979-1.246-14.541,1.757-20.719.117.2.2.424.33.623,1.38,2.118,3.274,3.848,4.812,5.853s2.746,4.48,2.389,6.982c2.025-3.373.944-7.749-.8-11.283-1.127-2.289-2.515-4.509-3.5-6.848,1.179-1.289,2.457-2.5,3.708-3.723.822,2.012,1.745,4,2.588,6,1.953,4.636,3.464,9.84,1.969,14.643,3.2-6.415,3.488-12.06,2.276-19.125-.474-2.764-1.418-4.9-2.1-7.625,3.267-4.823,5.656-14.286,5.656-20.118,0-2.635,2.94-6.074,3.748-8.582C288.162,286.29,286.336,285.767,285.225,281.806Z" transform="translate(61.371 17.35)"/><rect class="v" width="26.715" height="40.854" transform="translate(293.698 343.882)"/><g transform="translate(242.713 356.5)"><path class="w" d="M323.088,577.735c-5.216,4-7.406,1.332-11.877,2.235a14.578,14.578,0,0,0-5.374,2.439,7.35,7.35,0,0,1-.9.542v.023a15.515,15.515,0,0,1-10.951,1.671c-1.242-.316-2.461-.542-3.658-.723q-2.1-.271-4.064-.339a48.564,48.564,0,0,0-10.522.9c-3.249.564-6.435,1.332-9.641,1.942h-.023c-1.49.271-2.98.542-4.493.723-7.18.9-10.928-2.01-16.438-2.935a20.861,20.861,0,0,0-8.309.361,28.455,28.455,0,0,0-3.093.881,20.728,20.728,0,0,1-15.467-1.174,15.043,15.043,0,0,1-2.484-1.6,13.265,13.265,0,0,0-8.535-3.206c-4.335-.045-8.2,1.49-12.87-1.739a1699.6,1699.6,0,0,0,11.628-184v-1.219c.023-4.132.045-8.309.045-12.509,0-8.67-.068-17.431-.2-26.373q-.237-14.564-.723-29.669a30.725,30.725,0,0,1,7.338-19.26c.813-.9,1.648-1.784,2.529-2.6a30.758,30.758,0,0,1,13.119-7.2l17.251-5.667a34.587,34.587,0,0,0,9.98,2.619,30.886,30.886,0,0,0,6.774-.023,36.42,36.42,0,0,0,9.822-2.529l.135-.068h.023l17.25,5.667a30.791,30.791,0,0,1,22.986,29.059q-.5,13.954-.61,27.773v.768c-.09,8.874-.045,17.747.09,26.6.068,3.748.135,7.5.226,11.222C313.469,450.772,318.933,511.307,323.088,577.735Z" transform="translate(-194.386 -283.749)"/><path class="w" d="M243.682,286.808a46.168,46.168,0,0,1-26.716,0V292.3c5.934,4.107,19.2,4.317,26.716,0Z" transform="translate(-165.982 -286.808)"/><rect class="w" width="6.774" height="40.327" transform="translate(60.956 5.49)"/><path class="r" d="M211.508,489.9a6.7,6.7,0,0,1-.406,1.353,14.76,14.76,0,0,1-2.484-1.6,13.276,13.276,0,0,0-8.535-3.206c2.168-41.137,9.732-82.073,8.174-123.237,2.168,24.32,4.335,48.773,2.393,73.111-.768,9.824-2.213,19.621-1.9,29.443a96.823,96.823,0,0,0,2.145,16.892C211.4,485.039,211.982,487.5,211.508,489.9Z" transform="translate(-187.22 -190.71)"/><path class="r" d="M224.8,465.338a27.11,27.11,0,0,1-.226,4.473,20.82,20.82,0,0,0-8.309.361c-5.509-29.491-4.855-59.9-5.532-89.98a257.86,257.86,0,0,0,10.319,67.76C222.723,453.665,224.6,459.4,224.8,465.338Z" transform="translate(-173.823 -169.338)"/><path class="r" d="M237.427,494.863c-3.251.565-6.437,1.332-9.641,1.94a97.227,97.227,0,0,0,1.964-36.1c-1.31-9.8-4.155-19.418-4.764-29.306-.542-8.244.5-16.508,1.513-24.7q2.845-23.1,5.71-46.2.169,16.159.318,32.29c.113,10.161.2,20.366,1.31,30.482C236.454,447.241,244.537,472.1,237.427,494.863Z" transform="translate(-156.081 -194.119)"/><path class="r" d="M224.156,420.8c-.842-6.069-.474-12.233-.1-18.35l1.66-27.481c-4.437,16.663-8.905,34.047-5.5,50.95,2.714,13.464,10.269,25.632,12.541,39.175C235.649,450.191,226.238,435.837,224.156,420.8Z" transform="translate(-163.411 -175.91)"/><path class="r" d="M241.994,427.031c-.833,7.835-2.685,15.871-2.5,23.618q-2.1-.271-4.064-.339c-1.154-5.013-.452-10.251-.068-17.659.655-12.552,3.658-24.9,4.245-37.459A89.028,89.028,0,0,1,241.994,427.031Z" transform="translate(-143.558 -150.469)"/><path class="r" d="M254.832,471.15a14.6,14.6,0,0,0-5.374,2.436,6.974,6.974,0,0,1-.9.542c-.452-6.839.4-13.974.361-20.863-.138-26.145-13.525-51.817-8.648-77.512,1.172,18.741,7.135,36.782,11.2,55.091C254.4,444.03,256.322,457.849,254.832,471.15Z" transform="translate(-138.014 -174.922)"/></g><path class="x" d="M256.447,359.293c-5.984-10.025-11.673-39.649-18.041-54.3,4.742.384,3.567,3.951,6.39,7.767a119.751,119.751,0,0,1,11.561,19.17v.768C256.266,341.568,256.311,350.442,256.447,359.293Z" transform="translate(103.701 92.564)"/><path class="x" d="M218.428,305.673c-6.277,14.473-12.414,42.939-18.759,53.664,0-8.67-.068-17.431-.2-26.373A119.963,119.963,0,0,1,211.93,311.9C214.752,308.082,213.689,306.059,218.428,305.673Z" transform="translate(54.717 93.423)"/><path class="w" d="M238.146,295.567a12.7,12.7,0,0,0-17.357,4.626l-32.528,56.175a12.7,12.7,0,1,0,21.981,12.73l32.53-56.177A12.7,12.7,0,0,0,238.146,295.567Z" transform="translate(38.47 78.557)"/><path class="w" d="M170.765,340.756l45.933,7.627a12.7,12.7,0,0,0,4.164-25.058l-48.816-8.1Z" transform="translate(18.614 105.434)"/><path class="w" d="M240.3,295.567a12.7,12.7,0,0,1,17.357,4.626l32.528,56.175a12.7,12.7,0,1,1-21.981,12.73L235.68,312.921A12.7,12.7,0,0,1,240.3,295.567Z" transform="translate(98.118 78.557)"/><path class="w" d="M307.11,311.6l-50,16.758a12.7,12.7,0,1,0,8,24.108l44.836-15.074Z" transform="translate(116.276 100.877)"/><g transform="translate(439.306 398.872)"><path class="s" d="M290.148,321.016a2.634,2.634,0,1,1-2.633-2.635A2.636,2.636,0,0,1,290.148,321.016Z" transform="translate(-277.144 -289.464)"/><path class="s" d="M287.946,308.207a2.635,2.635,0,1,1-2.635-2.633A2.635,2.635,0,0,1,287.946,308.207Z" transform="translate(-279.917 -305.574)"/><path class="s" d="M286.924,310.283a2.634,2.634,0,1,1-2.633-2.635A2.633,2.633,0,0,1,286.924,310.283Z" transform="translate(-281.2 -302.965)"/><path class="s" d="M286.724,312.615a2.635,2.635,0,1,1-2.635-2.633A2.634,2.634,0,0,1,286.724,312.615Z" transform="translate(-281.454 -300.029)"/><path class="s" d="M286.724,314.95a2.635,2.635,0,1,1-2.635-2.635A2.632,2.632,0,0,1,286.724,314.95Z" transform="translate(-281.454 -297.094)"/><circle class="s" cx="2.635" cy="2.635" r="2.635" transform="translate(0 20.489)"/><path class="s" d="M286.724,319.615a2.635,2.635,0,1,1-2.635-2.633A2.634,2.634,0,0,1,286.724,319.615Z" transform="translate(-281.454 -291.224)"/><path class="s" d="M286.724,321.95a2.635,2.635,0,1,1-2.635-2.635A2.632,2.632,0,0,1,286.724,321.95Z" transform="translate(-281.454 -288.289)"/><path class="s" d="M287.356,324.128a2.635,2.635,0,1,1-2.635-2.635A2.633,2.633,0,0,1,287.356,324.128Z" transform="translate(-280.659 -285.549)"/><path class="s" d="M289.46,323.24a2.634,2.634,0,1,1-2.633-2.633A2.633,2.633,0,0,1,289.46,323.24Z" transform="translate(-278.01 -286.664)"/></g><path class="q" d="M215.358,259.64a7.964,7.964,0,0,0-6.814-2.52c-.106.018-.214.025-.318.047-4.674,1.018-7.338,7-5.952,13.362s6.3,10.691,10.971,9.673a6.485,6.485,0,0,0,.774-.226Z" transform="translate(57.787 32.238)"/><path class="q" d="M245.033,257.167c-.108-.023-.215-.029-.321-.047a7.975,7.975,0,0,0-6.81,2.513l1.341,20.344a6.273,6.273,0,0,0,.768.226c4.674,1.018,9.585-3.315,10.971-9.673S249.7,258.186,245.033,257.167Z" transform="translate(103.067 32.238)"/><g transform="translate(259.703 297.833)"><path class="y" d="M202.316,262.766a14.194,14.194,0,0,1-.323-1.919,15.326,15.326,0,0,0,.28,4.886c1.386,6.358,6.3,10.691,10.969,9.673a6.25,6.25,0,0,0,.774-.226l.178-2.687C209.087,273.225,203.826,268.969,202.316,262.766Z" transform="translate(-201.91 -260.797)"/><path class="y" d="M250.6,260.825a12.9,12.9,0,0,1-.375,1.969,13.349,13.349,0,0,1-11.809,9.813l.172,2.6a6.285,6.285,0,0,0,.77.226c4.672,1.018,9.583-3.315,10.969-9.673A15.366,15.366,0,0,0,250.6,260.825Z" transform="translate(-155.983 -260.825)"/></g><path class="q" d="M284.9,264.46a22.214,22.214,0,0,1-.224,2.71l-2.983,20.908-.564,3.976L278.916,307.7l-.09.542a24.392,24.392,0,0,1-10.048,16.684l-10.77,7.993a8.732,8.732,0,0,1-5.148,1.626H237.28a8.732,8.732,0,0,1-5.148-1.626l-10.793-7.993a24.436,24.436,0,0,1-10.025-16.684l-.068-.542-2.28-15.966-.519-3.658-2.98-20.908a18.642,18.642,0,0,1,1.942-11.716,14.131,14.131,0,0,1,8.106-6.708,108,108,0,0,1,28.54-4.99c.339-.023.677-.023,1.016-.023s.655,0,.993.023a108.022,108.022,0,0,1,28.563,4.99C281.084,250.756,284.968,257.1,284.9,264.46Z" transform="translate(61.987 15.506)"/><path class="z" d="M210.078,272a6.328,6.328,0,0,1-.041-1.587c.113-.592.178-1.206.375-1.89.154-.671.379-1.407.546-2.2a10.359,10.359,0,0,0,.3-2.6,6.249,6.249,0,0,0-.653-2.7,4.291,4.291,0,0,0-1.942-1.924,4.081,4.081,0,0,0-4.353.517,3.66,3.66,0,0,0-1.264,2.583c-.011.684.2,1.021.294,1,.14-.011.174-.357.375-.878a3.59,3.59,0,0,1,1.346-1.732,2.9,2.9,0,0,1,2.881-.061,3.652,3.652,0,0,1,1.576,3.242,16.474,16.474,0,0,1-.537,3.685,1.331,1.331,0,0,0-.126-.075,2.5,2.5,0,0,0-3.292,3.089c.248.662.684.863.867.738.215-.129.242-.488.357-.878a2.616,2.616,0,0,1,.639-1.174,2.575,2.575,0,0,1,1.212-.562c.05-.014.095-.02.142-.029-.1.6-.145,1.206-.19,1.766a6.681,6.681,0,0,0,.282,1.946,4.168,4.168,0,0,0,1.587,2.333,1.817,1.817,0,0,0,.7.316c.174.038.271.029.3-.025C211.6,274.657,210.342,274,210.078,272Z" transform="translate(59.227 34.334)"/><path class="z" d="M246.142,259.617a4.081,4.081,0,0,0-4.353-.517,4.291,4.291,0,0,0-1.942,1.924,6.249,6.249,0,0,0-.653,2.7,10.361,10.361,0,0,0,.3,2.6c.167.79.4,1.526.546,2.2.2.684.262,1.3.375,1.89a6.231,6.231,0,0,1-.038,1.587c-.266,2-1.529,2.66-1.389,2.906.027.054.124.063.3.025a1.817,1.817,0,0,0,.7-.316,4.157,4.157,0,0,0,1.587-2.333,6.679,6.679,0,0,0,.282-1.946c-.045-.56-.09-1.167-.19-1.766.047.009.095.016.142.029a2.13,2.13,0,0,1,1.852,1.736c.115.391.142.75.357.878.183.124.619-.077.867-.738a2.5,2.5,0,0,0-3.292-3.089,1.319,1.319,0,0,0-.126.075,16.621,16.621,0,0,1-.537-3.685,3.652,3.652,0,0,1,1.576-3.242,2.9,2.9,0,0,1,2.879.061,3.6,3.6,0,0,1,1.35,1.732c.2.522.233.867.373.878.095.018.307-.318.294-1A3.66,3.66,0,0,0,246.142,259.617Z" transform="translate(104.426 34.334)"/><path class="k" d="M283.838,254.165a31.642,31.642,0,0,0-5.609-6.932c-6.128-5.755-14.509-9.382-23.428-10.858.158-.036.33-.077.485-.115.578-.1,1.138-.251,1.657-.312l.763-.124c.246-.025.483-.043.709-.065a10.02,10.02,0,0,1,1.251-.061,5.448,5.448,0,0,1,.973.029l.865.063s-.23-.2-.689-.542a4.494,4.494,0,0,0-.892-.551,7.079,7.079,0,0,0-1.285-.555l-.786-.248c-.278-.072-.564-.12-.867-.178a12.953,12.953,0,0,0-1.94-.2,17.8,17.8,0,0,0-4.315.467c-.506.122-.989.255-1.461.393-.156-.341-4.538-3.349-4.317-2.82a11.483,11.483,0,0,1,.612,1.831c.056.205.12.456.19.709a10.868,10.868,0,0,0-2.685-1.016,9.114,9.114,0,0,0-3.209-.208c-.224.032-.44.061-.641.09-.2.054-.388.1-.564.154a4.012,4.012,0,0,0-.86.314c-.454.217-.682.352-.682.352s.266.054.741.154a5.775,5.775,0,0,1,.815.212c.154.045.316.09.49.14.167.068.343.135.528.208a17.4,17.4,0,0,1,2.414,1.165l.09.054a51.23,51.23,0,0,0-17.526,4.064A34.738,34.738,0,0,0,209.1,252.546a31.349,31.349,0,0,0-4.773,18.251l1.2,18.449a7.964,7.964,0,0,1,6.814,2.52l1.136-17.214a13.677,13.677,0,0,1,10.414-12.41c.817-.2,1.639-.386,2.461-.569,10.4.736,18.854,8.086,29.306,8.973-2-1.059-4.055-2.3-6.151-3.549,9.332,2.938,18.664,5.324,28,2.12a13.67,13.67,0,0,1,1.249,3.459,13.011,13.011,0,0,1,.28,1.976l1.133,17.208a7.975,7.975,0,0,1,6.81-2.513l1.2-18.449A31.653,31.653,0,0,0,283.838,254.165Z" transform="translate(60.805 0.112)"/><path class="z" d="M235.27,279.43c-1.824.149-4.134.51-6.636.524-.476,0-.937-.027-1.4-.052a.361.361,0,0,0-.088-.032c-8.395-1.861-3.4-13.825-2.983-22.685-2.7,5.825-9.817,18.623-2.987,25.6,1.4,1.432,4.344,2.086,7.453,2.1a14.787,14.787,0,0,0,7.451-2.1c1.7-1.048,2.6-2.068,2.425-2.7C238.332,279.419,237.088,279.272,235.27,279.43Z" transform="translate(78.412 32.429)"/><path class="z" d="M210.046,262.136c9.646-3.52,17.334-6.733,24.06-5.433-.2,1.294.51,7.067-.553,8.018C226.323,258.2,215,265.076,210.046,262.136Z" transform="translate(68.026 31.452)"/><path class="z" d="M249.815,261.957c-9.65-3.52-17.605-6.388-24.331-5.087.2,1.3-1.063,6.541,0,7.492C232.711,257.843,244.861,264.9,249.815,261.957Z" transform="translate(86.903 31.631)"/><g class="aa" transform="translate(267.351 239.894)"><path class="ab" d="M240.02,248.964c4.459,1.368,10.587,1.271,13.091-3.319-9.644,5.223-19.316-8.693-29.222-3.339,4.922.4,8.966,3.475,13.335,5.541-6.738-2.687-13.509-5.148-20.908-3.493,14.114,2.434,29.714,17.869,44.029,7.957C253.163,253.866,246.57,251.563,240.02,248.964Z" transform="translate(-191.438 -227.753)"/><path class="ab" d="M228.723,235.165c16.431,5.606,26.384,19.271,26.684,36.633C258.241,253.793,246.725,237.985,228.723,235.165Z" transform="translate(-175.831 -235.165)"/><path class="ab" d="M243.038,267.811a29.8,29.8,0,0,0-6.266-25.688A112.058,112.058,0,0,1,243.038,267.811Z" transform="translate(-165.706 -226.412)"/><path class="ab" d="M205.461,262.023A42.829,42.829,0,0,1,219.376,237.5,23.841,23.841,0,0,0,205.461,262.023Z" transform="translate(-205.298 -232.225)"/></g><g class="ac" transform="translate(309.191 291.427)"><path class="e" d="M227.152,276.979A1.82,1.82,0,0,1,225,275.724c-.032-.208-.088-1.4-.16-3.093-.093-1.693-.291-3.854-.467-6.035-.09-1.088-.183-2.168-.269-3.177-.052-1.016-.1-1.958-.147-2.764-.079-1.6-.133-2.667-.133-2.667s.289,1.023.729,2.567c.221.77.479,1.669.754,2.635.307.962.634,1.991.964,3.026.646,2.068,1.33,4.2,1.788,5.866.436,1.68.741,2.886.774,3.1A1.731,1.731,0,0,1,227.152,276.979Z" transform="translate(-223.828 -257.988)"/></g><g transform="translate(285.32 288.787)"><path class="ad" d="M222.486,260.845c0,2.222-2.066,4.024-4.615,4.024s-4.615-1.8-4.615-4.024,2.066-4.026,4.615-4.026A4.352,4.352,0,0,1,222.486,260.845Z" transform="translate(-213.256 -256.819)"/><path class="k" d="M219.164,259.913a2.485,2.485,0,1,1-2.481-2.353A2.421,2.421,0,0,1,219.164,259.913Z" transform="translate(-212.067 -255.887)"/><path class="e" d="M215.672,259.745a.872.872,0,0,1-.872.871h0a.87.87,0,0,1-.869-.871h0a.87.87,0,0,1,.869-.872h0a.872.872,0,0,1,.872.872Z" transform="translate(-212.407 -254.235)"/><path class="e" d="M218.136,258.355a1.228,1.228,0,0,1-1.226,1.228h0a1.228,1.228,0,0,1-1.228-1.228h0a1.227,1.227,0,0,1,1.228-1.228h0a1.226,1.226,0,0,1,1.226,1.228Z" transform="translate(-210.204 -256.432)"/></g><path class="k" d="M235.281,264.236c-.3.248-.738.047-1.285-.427a19.215,19.215,0,0,0-2.278-1.845c-2.005-1.352-5.286-1.955-9.036-1.964-3.753-.038-7.587,2.089-10.052,2.741-4.606,1.6-4.5-1.926-1.215-3.292a36.706,36.706,0,0,1,11.4-3.565c4.615-.759,10.506-.463,12.55,1.944C236.367,259.061,235.574,263.992,235.281,264.236Z" transform="translate(66.768 30.327)"/><g transform="translate(319.778 288.787)"><path class="ad" d="M237.745,260.845c0,2.222-2.066,4.024-4.615,4.024s-4.613-1.8-4.613-4.024a4.351,4.351,0,0,1,4.613-4.026C235.679,256.819,237.745,258.623,237.745,260.845Z" transform="translate(-228.517 -256.819)"/><path class="k" d="M234.426,259.913a2.486,2.486,0,1,1-2.484-2.353A2.421,2.421,0,0,1,234.426,259.913Z" transform="translate(-227.33 -255.887)"/><path class="e" d="M230.934,259.745a.872.872,0,0,1-.872.871h0a.872.872,0,0,1-.872-.871h0a.872.872,0,0,1,.872-.872h0a.872.872,0,0,1,.872.872Z" transform="translate(-227.669 -254.235)"/><path class="e" d="M233.58,258.384a1.276,1.276,0,0,1-1.276,1.276h0a1.277,1.277,0,0,1-1.28-1.276h0a1.279,1.279,0,0,1,1.28-1.28h0a1.278,1.278,0,0,1,1.276,1.28Z" transform="translate(-225.363 -256.46)"/></g><path class="k" d="M225.518,264.236c.3.248.736.047,1.283-.427a19.4,19.4,0,0,1,2.278-1.845c2.005-1.352,5.286-1.955,9.036-1.964,3.753-.038,7.589,2.089,10.052,2.741,4.608,1.6,4.507-1.926,1.217-3.292a36.747,36.747,0,0,0-11.4-3.565c-4.617-.759-10.508-.463-12.552,1.944C224.429,259.061,225.222,263.992,225.518,264.236Z" transform="translate(86.762 30.327)"/><path class="w" d="M307.214,358.837c-1.623,6.39-4.852,12.258-7.519,18.287a29.776,29.776,0,0,0-2.551-2.572c4.27-11.312,9.145-22.466,7.882-34.3-.881-8.174-4.719-15.848-5.351-24.069-.406-5.417.4-11.47-2.958-15.715-3.026-3.836-6.322-.587-9.077-4.629-2.712-3.994-.632-12.1-3.635-15.873-3-3.793-5.579-4.468-10.409-4.448-4.516.047-15.038,3.163-19.554,3.186-4.516-.023-11.2-2.8-15.715-2.845-4.832-.025-11.38-.677-14.406,3.116-2.98,3.791-.113,10.858-2.822,14.857-2.755,4.042-7.745,2.8-10.793,6.636-3.364,4.245-2.529,10.3-2.935,15.715-.632,8.221-4.471,15.9-5.374,24.069-1.264,11.944,3.726,23.191,8.016,34.614-.881.815-1.716,1.693-2.529,2.6-2.687-6.144-6.006-12.125-7.677-18.628-5.306-20.64,5.645-36.127,4.426-57.444-.429-7.562,5.238-13.59,4-27.84-1.987-23.528,4.99-29.125,18.109-36.079a55.3,55.3,0,0,1,27.1-6.053h.181a55.306,55.306,0,0,1,27.1,6.053c13.119,6.954,20.1,12.552,18.109,36.079-1.242,14.25,4.426,20.278,3.972,27.84C301.594,322.71,312.545,338.2,307.214,358.837Z" transform="translate(53.309 0)"/><path class="r" d="M209.706,256.356c.481,3.355,2.2,6.808.966,9.966-.892,2.283-3.17,3.818-4.021,6.119-1.334,3.606,1.235,7.891-.384,11.382a18.377,18.377,0,0,1-2.513,3.335,4.54,4.54,0,0,0-1.161,3.861c.44-1.793,2.005-3.071,3.577-4.039s3.294-1.806,4.446-3.247c2.64-3.3,1.348-8.426,3.577-12.014,1.714-2.757,5.2-4.087,6.738-6.948a9.6,9.6,0,0,0,.368-6.988c-.619-2.312-1.666-4.489-2.29-6.8a19.348,19.348,0,0,1,1.538-13.873,29.362,29.362,0,0,0-8.183,8.16A16.66,16.66,0,0,0,209.706,256.356Z" transform="translate(58.515 7.181)"/><path class="r" d="M222.573,264.172c-1.786-3.766.023-8.377-1.273-12.34-.571-1.752-1.716-3.258-2.468-4.94a11.993,11.993,0,0,1,.235-10.143c.009,3.33,2.38,6.142,4.764,8.463s5.044,4.667,5.925,7.873c.824,3-.045,6.336,1.124,9.215,1.28,3.152,4.608,4.882,7.679,6.345a28.107,28.107,0,0,1-8.88.35C226.748,268.485,223.848,266.859,222.573,264.172Z" transform="translate(77.806 6.723)"/><path class="r" d="M238.327,252.2c.318,2.538.239,5.159,1.057,7.582,1.048,3.107,3.466,5.584,4.656,8.639,1.687,4.335.754,9.454,2.91,13.577,1.885,3.6,5.719,5.679,9.334,7.541a18.023,18.023,0,0,1-6.1-13.724c.054-2.883.806-5.724.813-8.607a33.309,33.309,0,0,0-1.154-7.578c-.684-2.942-1.393-5.954-3.026-8.5-3.452-5.374-10.226-7.569-14.658-12.172A24.118,24.118,0,0,1,238.327,252.2Z" transform="translate(95.845 9.507)"/><path class="r" d="M228.475,248.581a13.433,13.433,0,0,1,2.8,7.74c-.041,2.789-1.6,5.672-4.211,6.659-1.96-1.35-2.75-3.872-2.935-6.243s.095-4.78-.321-7.121c-.366-2.048-1.255-3.972-1.7-6s-.359-4.36.993-5.938a9.3,9.3,0,0,0,1.648,5.9C225.858,245.334,227.276,246.881,228.475,248.581Z" transform="translate(82.903 7.884)"/><path class="ae" d="M204.4,256.831a3.387,3.387,0,0,1-.526-6.733,295.478,295.478,0,0,1,92.527,0,3.387,3.387,0,0,1-1.059,6.69,288.673,288.673,0,0,0-90.409,0A3.288,3.288,0,0,1,204.4,256.831Z" transform="translate(56.668 18.93)"/><path class="ae" d="M204.4,254.069a3.386,3.386,0,0,1-.526-6.731,295.343,295.343,0,0,1,92.527,0,3.387,3.387,0,0,1-1.059,6.69,288.545,288.545,0,0,0-90.409,0A3.547,3.547,0,0,1,204.4,254.069Z" transform="translate(56.668 15.456)"/><g transform="translate(291.437 322.737)"><path class="k" d="M230.982,275.035c-6.44.352-11.3.257-14.539-2.883.951,7.28,4.884,10.9,14.539,11.423,9.655-.524,13.588-4.143,14.539-11.423C242.283,275.293,237.421,275.388,230.982,275.035Z" transform="translate(-215.364 -271.481)"/><path class="e" d="M231.329,279.723c-6.936-.106-11.326-1.6-13.934-3.674l-1.228-3.9c3.68,1.373,9.251,2.05,15.162,2.3,5.911-.253,11.484-.93,15.164-2.3l-1.231,3.9C242.655,278.122,238.268,279.617,231.329,279.723Z" transform="translate(-215.711 -271.481)"/><path class="af" d="M231.583,276.077c-.332,0-.664,0-1-.014-5.245.12-10.2-.531-13.469-2.079-.4-.2-.8-.364-1.143-.58l-.009-.007v-1.542c.208.093.409.181.632.278.332.151.716.248,1.1.388,3.1,1.045,7.713,1.436,12.89,1.316.334.009.668.014,1,.018s.664-.009,1-.018c5.177.12,9.79-.271,12.89-1.316.382-.14.765-.237,1.1-.388.224-.1.427-.185.634-.278V273.4l-.011.007c-.343.217-.738.377-1.14.58-3.272,1.549-8.226,2.2-13.471,2.079C232.247,276.073,231.915,276.077,231.583,276.077Z" transform="translate(-215.965 -271.855)"/></g><path class="k" d="M236.834,269.453l-.275,0c-3.712,0-16.788.084-21.475,7.07a13.541,13.541,0,0,0-2.54,4.972c-.756,2.75-1.057,7.013.126,13.828,7.289,8.707,15.781,12.972,24.164,12.974s16.876-4.267,24.164-12.974c1.185-6.814.883-11.077.126-13.828a13.506,13.506,0,0,0-2.54-4.972c-4.687-6.986-17.761-7.074-21.475-7.07ZM235.2,287.528c-2.466-.079-3.687,2.987-5.785,4.094-2.454,1.294-7.882-2.109-7.9-2.118-3.816-1.962-4.188-7.979-.883-10.513a10.3,10.3,0,0,1,3.6-1.68,51.48,51.48,0,0,1,12.6-1.228,51.51,51.51,0,0,1,12.6,1.228,10.3,10.3,0,0,1,3.6,1.68c3.306,2.533,3.434,8.551-.382,10.513-.014.009-6.151,3.412-8.607,2.118-2.1-1.106-3.111-4.173-5.577-4.094Z" transform="translate(70.33 47.861)"/><path class="q" d="M227.2,264.382c0,2.617-3.423,4.742-7.643,4.742s-7.643-2.125-7.643-4.742,3.423-4.737,7.643-4.737S227.2,261.765,227.2,264.382Z" transform="translate(70.377 35.523)"/><path class="q" d="M242.436,264.382c0,2.617-3.423,4.742-7.643,4.742s-7.643-2.125-7.643-4.742,3.423-4.737,7.643-4.737S242.436,261.765,242.436,264.382Z" transform="translate(89.542 35.523)"/></g></g></svg>