 <svg xmlns="http://www.w3.org/2000/svg" 
                                            viewBox="0 0 24.537 22.416">
                                            <path id="Path_15965" data-name="Path 15965"
                                                d="M23.746,8.243H19.5V5.591A1.593,1.593,0,0,0,17.912,4H9.426A1.593,1.593,0,0,0,7.834,5.591V8.243H3.591A1.593,1.593,0,0,0,2,9.834v13.79a1.593,1.593,0,0,0,1.591,1.591H23.746a1.593,1.593,0,0,0,1.591-1.591V9.834A1.593,1.593,0,0,0,23.746,8.243ZM8.9,5.591a.531.531,0,0,1,.53-.53h8.486a.531.531,0,0,1,.53.53V8.243H8.9ZM3.591,9.3H23.746a.531.531,0,0,1,.53.53v3.929A21.64,21.64,0,0,1,15.79,16.6v-.935a1.062,1.062,0,0,0-1.061-1.061H12.608a1.062,1.062,0,0,0-1.061,1.061V16.6a21.641,21.641,0,0,1-8.486-2.841V9.834A.531.531,0,0,1,3.591,9.3ZM14.73,18.851H12.608V15.669h2.122Zm9.016,5.3H3.591a.531.531,0,0,1-.53-.53V14.977a22.516,22.516,0,0,0,8.486,2.694v1.18a1.062,1.062,0,0,0,1.061,1.061h2.122a1.062,1.062,0,0,0,1.061-1.061v-1.18a22.516,22.516,0,0,0,8.486-2.694v8.647A.531.531,0,0,1,23.746,24.155Z"
                                                transform="translate(-1.4 -3.4)" fill="#45a142" stroke="#45a142"
                                                stroke-width="1.2"></path>
                                        </svg>